G04 #@! TF.FileFunction,Copper,L2,Bot,Signal*
%FSLAX46Y46*%
G04 Gerber Fmt 4.6, Leading zero omitted, Abs format (unit mm)*
G04 Created by KiCad (PCBNEW 4.0.7) date 04/12/18 23:57:26*
%MOMM*%
%LPD*%
G01*
G04 APERTURE LIST*
%ADD10C,0.100000*%
%ADD11R,2.350000X11.100000*%
%ADD12R,0.750000X1.200000*%
%ADD13O,1.600000X1.600000*%
%ADD14R,1.600000X1.600000*%
%ADD15O,3.010000X1.510000*%
%ADD16R,1.700000X1.700000*%
%ADD17O,1.700000X1.700000*%
%ADD18R,0.900000X1.200000*%
%ADD19C,2.000000*%
%ADD20C,1.600000*%
%ADD21R,1.200000X0.750000*%
%ADD22R,2.200000X2.200000*%
%ADD23O,2.200000X2.200000*%
%ADD24R,0.450000X0.600000*%
%ADD25C,0.600000*%
%ADD26C,0.250000*%
%ADD27C,0.254000*%
G04 APERTURE END LIST*
D10*
D11*
X126716100Y-105003600D03*
X130676100Y-105003600D03*
X134636100Y-105003600D03*
X138596100Y-105003600D03*
X142556100Y-105003600D03*
X146516100Y-105003600D03*
X150476100Y-105003600D03*
X154436100Y-105003600D03*
X158396100Y-105003600D03*
X162356100Y-105003600D03*
X166316100Y-105003600D03*
X170276100Y-105003600D03*
D12*
X170789600Y-86014600D03*
X170789600Y-84114600D03*
X167995600Y-84114600D03*
X167995600Y-86014600D03*
D13*
X138379200Y-95402400D03*
X145999200Y-90322400D03*
X138379200Y-90322400D03*
D14*
X145999200Y-95402400D03*
D15*
X129260600Y-68554600D03*
X129260600Y-71094600D03*
X129260600Y-73634600D03*
X129260600Y-76174600D03*
X129260600Y-78714600D03*
X129260600Y-81254600D03*
D16*
X137744200Y-74447400D03*
D17*
X140284200Y-74447400D03*
X137744200Y-76987400D03*
X140284200Y-76987400D03*
X137744200Y-79527400D03*
X140284200Y-79527400D03*
X137744200Y-82067400D03*
X140284200Y-82067400D03*
D16*
X132994400Y-88569800D03*
D17*
X130454400Y-88569800D03*
X127914400Y-88569800D03*
D16*
X132994400Y-84709000D03*
D17*
X130454400Y-84709000D03*
X127914400Y-84709000D03*
D18*
X135382000Y-79789200D03*
X135382000Y-77589200D03*
X142341600Y-94216400D03*
X142341600Y-92016400D03*
D14*
X135077200Y-95707200D03*
D13*
X127457200Y-93167200D03*
X135077200Y-93167200D03*
X127457200Y-95707200D03*
D19*
X159943800Y-65477000D03*
X159943800Y-69977000D03*
X153443800Y-65477000D03*
X153443800Y-69977000D03*
X169672000Y-65477000D03*
X169672000Y-69977000D03*
X163172000Y-65477000D03*
X163172000Y-69977000D03*
X150241000Y-65477000D03*
X150241000Y-69977000D03*
X143741000Y-65477000D03*
X143741000Y-69977000D03*
D14*
X160629600Y-93167200D03*
D20*
X157129600Y-93167200D03*
D21*
X159700000Y-95758000D03*
X157800000Y-95758000D03*
D12*
X166547800Y-84114600D03*
X166547800Y-86014600D03*
D14*
X166497000Y-89179400D03*
D20*
X166497000Y-91179400D03*
D12*
X169418000Y-84114600D03*
X169418000Y-86014600D03*
D22*
X151333200Y-95504000D03*
D23*
X148793200Y-95504000D03*
D22*
X151333200Y-91541600D03*
D23*
X148793200Y-91541600D03*
D24*
X133654800Y-81720400D03*
X133654800Y-79620400D03*
D22*
X151333200Y-87630000D03*
D23*
X148793200Y-87630000D03*
D25*
X148183600Y-77139800D03*
X150713200Y-77078600D03*
X140335000Y-69646800D03*
X150520400Y-93522800D03*
X145211800Y-80086200D03*
X146735800Y-73126600D03*
X160731200Y-73075800D03*
X170230800Y-98247200D03*
X126695200Y-98755200D03*
X164744400Y-83667600D03*
X141833600Y-89738200D03*
X161696400Y-98552000D03*
X150266400Y-97891600D03*
X154330400Y-98501200D03*
X140716000Y-91998800D03*
X165836600Y-94361000D03*
X167309800Y-95834200D03*
X140563600Y-95961200D03*
X140563600Y-99415600D03*
X143738600Y-87960200D03*
X143510000Y-96139000D03*
X144526000Y-99364800D03*
X144957800Y-76479400D03*
X151003000Y-75971400D03*
X143510000Y-75209400D03*
X145110200Y-77825600D03*
X148386800Y-81203800D03*
X151561800Y-83921600D03*
D26*
X150713200Y-77078600D02*
X148244800Y-77078600D01*
X148244800Y-77078600D02*
X148183600Y-77139800D01*
X150713200Y-77078600D02*
X150723600Y-77089000D01*
X140284200Y-74447400D02*
X140284200Y-69697600D01*
X140284200Y-69697600D02*
X140335000Y-69646800D01*
X145999200Y-92354400D02*
X145999200Y-90322400D01*
X147142200Y-93497400D02*
X145999200Y-92354400D01*
X150495000Y-93497400D02*
X147142200Y-93497400D01*
X150520400Y-93522800D02*
X150495000Y-93497400D01*
X160731200Y-73075800D02*
X160731200Y-73101200D01*
X170230800Y-98247200D02*
X170276100Y-98292500D01*
X170276100Y-98292500D02*
X170276100Y-105003600D01*
X126716100Y-105003600D02*
X126716100Y-98776100D01*
X126716100Y-98776100D02*
X126695200Y-98755200D01*
X158816000Y-96774000D02*
X157800000Y-95758000D01*
X165201600Y-96824800D02*
X158816000Y-96774000D01*
X169113200Y-96926400D02*
X165201600Y-96824800D01*
X170276100Y-98241700D02*
X169164000Y-96977200D01*
X157129600Y-93167200D02*
X157800000Y-93837600D01*
X157800000Y-93837600D02*
X157800000Y-95758000D01*
X137744200Y-82067400D02*
X137660200Y-82067400D01*
X137660200Y-82067400D02*
X135382000Y-79789200D01*
X166547800Y-84114600D02*
X167995600Y-84114600D01*
X167995600Y-84114600D02*
X169418000Y-84114600D01*
X169418000Y-84114600D02*
X170789600Y-84114600D01*
X166547800Y-84114600D02*
X165191400Y-84114600D01*
X165191400Y-84114600D02*
X164744400Y-83667600D01*
X132994400Y-85928200D02*
X132994400Y-84709000D01*
X133527800Y-86182200D02*
X132994400Y-85928200D01*
X138607800Y-86182200D02*
X133527800Y-86182200D01*
X141859000Y-89712800D02*
X138607800Y-86182200D01*
X161696400Y-98552000D02*
X162356100Y-100634100D01*
X162356100Y-100634100D02*
X162356100Y-105003600D01*
X162356100Y-105003600D02*
X166316100Y-105003600D01*
X166316100Y-105003600D02*
X166268400Y-104955900D01*
X136601993Y-96317619D02*
X136302542Y-93877646D01*
X136302542Y-93877646D02*
X135077200Y-93167200D01*
X138176000Y-97891600D02*
X136601993Y-96317619D01*
X136601993Y-96317619D02*
X136576593Y-96292219D01*
X138277600Y-97891600D02*
X138176000Y-97891600D01*
X150266400Y-97891600D02*
X138277600Y-97891600D01*
X137922000Y-98552000D02*
X135077200Y-95707200D01*
X154330400Y-98501200D02*
X151028400Y-98552000D01*
X151028400Y-98552000D02*
X137922000Y-98552000D01*
X142341600Y-92016400D02*
X140733600Y-92016400D01*
X140733600Y-92016400D02*
X140716000Y-91998800D01*
X167309800Y-95834200D02*
X165836600Y-94361000D01*
X130676100Y-105003600D02*
X130708400Y-104971300D01*
X130708400Y-104971300D02*
X130708400Y-98958400D01*
X130708400Y-98958400D02*
X127457200Y-95707200D01*
X130676100Y-105003600D02*
X131318000Y-104361700D01*
X131318000Y-104361700D02*
X131318000Y-99568000D01*
X134636100Y-105003600D02*
X134670800Y-104968900D01*
X134670800Y-104968900D02*
X134670800Y-98653600D01*
X134670800Y-98653600D02*
X132943600Y-98653600D01*
X132943600Y-98653600D02*
X127457200Y-93167200D01*
X138596100Y-101383100D02*
X140563600Y-99415600D01*
X140563600Y-95961200D02*
X142341600Y-94216400D01*
X138596100Y-101383100D02*
X138596100Y-105003600D01*
X138596100Y-105003600D02*
X138596100Y-105003600D01*
X143738600Y-95910400D02*
X143738600Y-87960200D01*
X143510000Y-96139000D02*
X143738600Y-95910400D01*
X146516100Y-101354900D02*
X144526000Y-99364800D01*
X146516100Y-105003600D02*
X146516100Y-101354900D01*
X155319717Y-85317317D02*
X155319717Y-85317299D01*
X152628600Y-82626200D02*
X155319717Y-85317317D01*
X151104600Y-82626200D02*
X152628600Y-82626200D01*
X144957800Y-76479400D02*
X151104600Y-82626200D01*
X157797500Y-97701100D02*
X157772100Y-97701100D01*
X155219400Y-95148400D02*
X155319717Y-85317299D01*
X157772100Y-97701100D02*
X155219400Y-95148400D01*
X157784800Y-97688400D02*
X157797500Y-97701100D01*
X157797500Y-97701100D02*
X158396100Y-98299700D01*
X158396100Y-105003600D02*
X158396100Y-98299700D01*
X158396100Y-105003600D02*
X158345300Y-104952800D01*
X129260600Y-73634600D02*
X130327400Y-73634600D01*
X130327400Y-73634600D02*
X133654800Y-76962000D01*
X133654800Y-76962000D02*
X133654800Y-79620400D01*
X127914400Y-84709000D02*
X127406400Y-84709000D01*
X127406400Y-84709000D02*
X126187200Y-83489800D01*
X126187200Y-83489800D02*
X126187200Y-76885800D01*
X126187200Y-76885800D02*
X126898400Y-76174600D01*
X126898400Y-76174600D02*
X129260600Y-76174600D01*
X140284200Y-76987400D02*
X143256000Y-76987400D01*
X150901400Y-75971400D02*
X151003000Y-75971400D01*
X150088600Y-75158600D02*
X150901400Y-75971400D01*
X145084800Y-75158600D02*
X150088600Y-75158600D01*
X143256000Y-76987400D02*
X145084800Y-75158600D01*
X159943800Y-65477000D02*
X157027000Y-65477000D01*
X135382000Y-69342000D02*
X135382000Y-77589200D01*
X136321800Y-68402200D02*
X135382000Y-69342000D01*
X154101800Y-68402200D02*
X136321800Y-68402200D01*
X157027000Y-65477000D02*
X154101800Y-68402200D01*
X137744200Y-79527400D02*
X137320200Y-79527400D01*
X137320200Y-79527400D02*
X135382000Y-77589200D01*
X143741000Y-69977000D02*
X143741000Y-74978400D01*
X143741000Y-74978400D02*
X143510000Y-75209400D01*
X140284200Y-79527400D02*
X143408400Y-79527400D01*
X143408400Y-79527400D02*
X145110200Y-77825600D01*
X147523200Y-82067400D02*
X148386800Y-81203800D01*
X140284200Y-82067400D02*
X147523200Y-82067400D01*
X151333200Y-87630000D02*
X151333200Y-84150200D01*
X151333200Y-84150200D02*
X151561800Y-83921600D01*
X133654800Y-81720400D02*
X133654800Y-81991200D01*
X133654800Y-81991200D02*
X137134600Y-85471000D01*
X137134600Y-85471000D02*
X150215600Y-85471000D01*
X150215600Y-85471000D02*
X151333200Y-86588600D01*
X151333200Y-86588600D02*
X151333200Y-87630000D01*
X160629600Y-93167200D02*
X159700000Y-94096800D01*
X159700000Y-94096800D02*
X159700000Y-95758000D01*
D27*
G36*
X168405186Y-64389794D02*
X168519466Y-64504074D01*
X168252613Y-64602736D01*
X168026092Y-65212461D01*
X168050144Y-65862460D01*
X168252613Y-66351264D01*
X168519468Y-66449927D01*
X169492395Y-65477000D01*
X169478253Y-65462858D01*
X169657858Y-65283253D01*
X169672000Y-65297395D01*
X169686143Y-65283253D01*
X169865748Y-65462858D01*
X169851605Y-65477000D01*
X170824532Y-66449927D01*
X171091387Y-66351264D01*
X171317908Y-65741539D01*
X171293856Y-65091540D01*
X171091387Y-64602736D01*
X170824534Y-64504074D01*
X170938814Y-64389794D01*
X170860620Y-64311600D01*
X171375000Y-64311600D01*
X171375000Y-82909767D01*
X171164600Y-82867160D01*
X170414600Y-82867160D01*
X170179283Y-82911438D01*
X170104998Y-82959239D01*
X170044890Y-82918169D01*
X169793000Y-82867160D01*
X169043000Y-82867160D01*
X168807683Y-82911438D01*
X168707236Y-82976074D01*
X168622490Y-82918169D01*
X168370600Y-82867160D01*
X167620600Y-82867160D01*
X167385283Y-82911438D01*
X167271755Y-82984491D01*
X167174690Y-82918169D01*
X166922800Y-82867160D01*
X166172800Y-82867160D01*
X165937483Y-82911438D01*
X165721359Y-83050510D01*
X165584100Y-83251396D01*
X165537517Y-83138657D01*
X165274727Y-82875408D01*
X164931199Y-82732762D01*
X164559233Y-82732438D01*
X164215457Y-82874483D01*
X163952208Y-83137273D01*
X163809562Y-83480801D01*
X163809238Y-83852767D01*
X163951283Y-84196543D01*
X164214073Y-84459792D01*
X164557601Y-84602438D01*
X164604477Y-84602479D01*
X164653999Y-84652001D01*
X164900560Y-84816748D01*
X164948814Y-84826346D01*
X165191400Y-84874600D01*
X165555466Y-84874600D01*
X165569638Y-84949917D01*
X165636129Y-85053246D01*
X165634473Y-85054902D01*
X165537800Y-85288291D01*
X165537800Y-85728850D01*
X165696550Y-85887600D01*
X166420800Y-85887600D01*
X166420800Y-85867600D01*
X166674800Y-85867600D01*
X166674800Y-85887600D01*
X167868600Y-85887600D01*
X167868600Y-85867600D01*
X168122600Y-85867600D01*
X168122600Y-85887600D01*
X169291000Y-85887600D01*
X169291000Y-85867600D01*
X169545000Y-85867600D01*
X169545000Y-85887600D01*
X170662600Y-85887600D01*
X170662600Y-85867600D01*
X170916600Y-85867600D01*
X170916600Y-85887600D01*
X170936600Y-85887600D01*
X170936600Y-86141600D01*
X170916600Y-86141600D01*
X170916600Y-87090850D01*
X171075350Y-87249600D01*
X171290910Y-87249600D01*
X171375000Y-87214769D01*
X171375000Y-98818600D01*
X170561850Y-98818600D01*
X170403100Y-98977350D01*
X170403100Y-99948307D01*
X170149100Y-99948167D01*
X170149100Y-98977350D01*
X169990350Y-98818600D01*
X168974791Y-98818600D01*
X168741402Y-98915273D01*
X168562773Y-99093901D01*
X168466100Y-99327290D01*
X168466100Y-99947235D01*
X168138540Y-99947053D01*
X168138540Y-99453600D01*
X168094262Y-99218283D01*
X167955190Y-99002159D01*
X167742990Y-98857169D01*
X167491100Y-98806160D01*
X165141100Y-98806160D01*
X164905783Y-98850438D01*
X164689659Y-98989510D01*
X164544669Y-99201710D01*
X164493660Y-99453600D01*
X164493660Y-99945035D01*
X164178540Y-99944861D01*
X164178540Y-99453600D01*
X164134262Y-99218283D01*
X163995190Y-99002159D01*
X163782990Y-98857169D01*
X163531100Y-98806160D01*
X162603267Y-98806160D01*
X162631238Y-98738799D01*
X162631562Y-98366833D01*
X162489517Y-98023057D01*
X162226727Y-97759808D01*
X161883199Y-97617162D01*
X161511233Y-97616838D01*
X161167457Y-97758883D01*
X160904208Y-98021673D01*
X160761562Y-98365201D01*
X160761238Y-98737167D01*
X160836971Y-98920456D01*
X160729659Y-98989510D01*
X160584669Y-99201710D01*
X160533660Y-99453600D01*
X160533660Y-99942843D01*
X160218540Y-99942668D01*
X160218540Y-99453600D01*
X160174262Y-99218283D01*
X160035190Y-99002159D01*
X159822990Y-98857169D01*
X159571100Y-98806160D01*
X159156100Y-98806160D01*
X159156100Y-98299700D01*
X159136670Y-98202018D01*
X159098248Y-98008860D01*
X158933501Y-97762299D01*
X158322201Y-97150999D01*
X158245654Y-97099852D01*
X157913802Y-96768000D01*
X157927002Y-96768000D01*
X157927002Y-96609252D01*
X158085750Y-96768000D01*
X158526309Y-96768000D01*
X158759698Y-96671327D01*
X158761068Y-96669957D01*
X158848110Y-96729431D01*
X159100000Y-96780440D01*
X160300000Y-96780440D01*
X160535317Y-96736162D01*
X160751441Y-96597090D01*
X160896431Y-96384890D01*
X160947440Y-96133000D01*
X160947440Y-95383000D01*
X160903162Y-95147683D01*
X160764090Y-94931559D01*
X160551890Y-94786569D01*
X160460000Y-94767961D01*
X160460000Y-94614640D01*
X161429600Y-94614640D01*
X161664917Y-94570362D01*
X161702517Y-94546167D01*
X164901438Y-94546167D01*
X165043483Y-94889943D01*
X165306273Y-95153192D01*
X165649801Y-95295838D01*
X165696677Y-95295879D01*
X166374678Y-95973880D01*
X166374638Y-96019367D01*
X166516683Y-96363143D01*
X166779473Y-96626392D01*
X167123001Y-96769038D01*
X167494967Y-96769362D01*
X167838743Y-96627317D01*
X168101992Y-96364527D01*
X168244638Y-96020999D01*
X168244962Y-95649033D01*
X168102917Y-95305257D01*
X167840127Y-95042008D01*
X167496599Y-94899362D01*
X167449723Y-94899321D01*
X166771722Y-94221320D01*
X166771762Y-94175833D01*
X166629717Y-93832057D01*
X166366927Y-93568808D01*
X166023399Y-93426162D01*
X165651433Y-93425838D01*
X165307657Y-93567883D01*
X165044408Y-93830673D01*
X164901762Y-94174201D01*
X164901438Y-94546167D01*
X161702517Y-94546167D01*
X161881041Y-94431290D01*
X162026031Y-94219090D01*
X162077040Y-93967200D01*
X162077040Y-92367200D01*
X162043161Y-92187145D01*
X165668861Y-92187145D01*
X165742995Y-92433264D01*
X166280223Y-92626365D01*
X166850454Y-92599178D01*
X167251005Y-92433264D01*
X167325139Y-92187145D01*
X166497000Y-91359005D01*
X165668861Y-92187145D01*
X162043161Y-92187145D01*
X162032762Y-92131883D01*
X161893690Y-91915759D01*
X161681490Y-91770769D01*
X161429600Y-91719760D01*
X159829600Y-91719760D01*
X159594283Y-91764038D01*
X159378159Y-91903110D01*
X159233169Y-92115310D01*
X159182160Y-92367200D01*
X159182160Y-93539838D01*
X159162599Y-93559399D01*
X158997852Y-93805961D01*
X158940000Y-94096800D01*
X158940000Y-94765666D01*
X158864683Y-94779838D01*
X158761354Y-94846329D01*
X158759698Y-94844673D01*
X158526309Y-94748000D01*
X158085750Y-94748000D01*
X157927000Y-94906750D01*
X157927000Y-95631000D01*
X157947000Y-95631000D01*
X157947000Y-95885000D01*
X157927000Y-95885000D01*
X157927000Y-95905000D01*
X157673000Y-95905000D01*
X157673000Y-95885000D01*
X157653000Y-95885000D01*
X157653000Y-95631000D01*
X157673000Y-95631000D01*
X157673000Y-94906750D01*
X157514250Y-94748000D01*
X157073691Y-94748000D01*
X156840302Y-94844673D01*
X156661673Y-95023301D01*
X156565000Y-95256690D01*
X156565000Y-95419198D01*
X155982619Y-94836817D01*
X155989372Y-94174945D01*
X156301461Y-94174945D01*
X156375595Y-94421064D01*
X156912823Y-94614165D01*
X157483054Y-94586978D01*
X157883605Y-94421064D01*
X157957739Y-94174945D01*
X157129600Y-93346805D01*
X156301461Y-94174945D01*
X155989372Y-94174945D01*
X155991605Y-93956106D01*
X156121855Y-93995339D01*
X156949995Y-93167200D01*
X157309205Y-93167200D01*
X158137345Y-93995339D01*
X158383464Y-93921205D01*
X158576565Y-93383977D01*
X158549378Y-92813746D01*
X158383464Y-92413195D01*
X158137345Y-92339061D01*
X157309205Y-93167200D01*
X156949995Y-93167200D01*
X156121855Y-92339061D01*
X156007755Y-92373429D01*
X156009938Y-92159455D01*
X156301461Y-92159455D01*
X157129600Y-92987595D01*
X157957739Y-92159455D01*
X157883605Y-91913336D01*
X157346377Y-91720235D01*
X156776146Y-91747422D01*
X156375595Y-91913336D01*
X156301461Y-92159455D01*
X156009938Y-92159455D01*
X156048510Y-88379400D01*
X165049560Y-88379400D01*
X165049560Y-89979400D01*
X165093838Y-90214717D01*
X165232910Y-90430841D01*
X165239548Y-90435377D01*
X165050035Y-90962623D01*
X165077222Y-91532854D01*
X165243136Y-91933405D01*
X165489255Y-92007539D01*
X166317395Y-91179400D01*
X166303252Y-91165258D01*
X166482858Y-90985653D01*
X166497000Y-90999795D01*
X166511143Y-90985653D01*
X166690748Y-91165258D01*
X166676605Y-91179400D01*
X167504745Y-92007539D01*
X167750864Y-91933405D01*
X167943965Y-91396177D01*
X167916778Y-90825946D01*
X167754616Y-90434453D01*
X167893431Y-90231290D01*
X167944440Y-89979400D01*
X167944440Y-88379400D01*
X167900162Y-88144083D01*
X167761090Y-87927959D01*
X167548890Y-87782969D01*
X167297000Y-87731960D01*
X165697000Y-87731960D01*
X165461683Y-87776238D01*
X165245559Y-87915310D01*
X165100569Y-88127510D01*
X165049560Y-88379400D01*
X156048510Y-88379400D01*
X156069724Y-86300350D01*
X165537800Y-86300350D01*
X165537800Y-86740909D01*
X165634473Y-86974298D01*
X165813101Y-87152927D01*
X166046490Y-87249600D01*
X166262050Y-87249600D01*
X166420800Y-87090850D01*
X166420800Y-86141600D01*
X166674800Y-86141600D01*
X166674800Y-87090850D01*
X166833550Y-87249600D01*
X167049110Y-87249600D01*
X167271700Y-87157400D01*
X167494290Y-87249600D01*
X167709850Y-87249600D01*
X167868600Y-87090850D01*
X167868600Y-86141600D01*
X168122600Y-86141600D01*
X168122600Y-87090850D01*
X168281350Y-87249600D01*
X168496910Y-87249600D01*
X168706800Y-87162661D01*
X168916690Y-87249600D01*
X169132250Y-87249600D01*
X169291000Y-87090850D01*
X169291000Y-86141600D01*
X169545000Y-86141600D01*
X169545000Y-87090850D01*
X169703750Y-87249600D01*
X169919310Y-87249600D01*
X170103800Y-87173182D01*
X170288290Y-87249600D01*
X170503850Y-87249600D01*
X170662600Y-87090850D01*
X170662600Y-86141600D01*
X169545000Y-86141600D01*
X169291000Y-86141600D01*
X168122600Y-86141600D01*
X167868600Y-86141600D01*
X166674800Y-86141600D01*
X166420800Y-86141600D01*
X165696550Y-86141600D01*
X165537800Y-86300350D01*
X156069724Y-86300350D01*
X156079677Y-85325053D01*
X156078948Y-85321183D01*
X156079717Y-85317317D01*
X156079717Y-85317299D01*
X156051530Y-85175597D01*
X156024796Y-85033639D01*
X156022635Y-85030333D01*
X156021865Y-85026460D01*
X155941608Y-84906346D01*
X155862573Y-84785409D01*
X155859312Y-84783182D01*
X155857118Y-84779898D01*
X155857064Y-84779862D01*
X153166001Y-82088799D01*
X152919439Y-81924052D01*
X152628600Y-81866200D01*
X151419402Y-81866200D01*
X145892922Y-76339720D01*
X145892962Y-76294233D01*
X145750917Y-75950457D01*
X145719116Y-75918600D01*
X149773798Y-75918600D01*
X150107321Y-76252123D01*
X150209883Y-76500343D01*
X150472673Y-76763592D01*
X150816201Y-76906238D01*
X151188167Y-76906562D01*
X151531943Y-76764517D01*
X151795192Y-76501727D01*
X151937838Y-76158199D01*
X151938162Y-75786233D01*
X151796117Y-75442457D01*
X151533327Y-75179208D01*
X151189799Y-75036562D01*
X151041235Y-75036433D01*
X150626001Y-74621199D01*
X150379439Y-74456452D01*
X150088600Y-74398600D01*
X145084800Y-74398600D01*
X144793961Y-74456452D01*
X144547399Y-74621199D01*
X144501000Y-74667598D01*
X144501000Y-71432047D01*
X144665943Y-71363894D01*
X145126278Y-70904363D01*
X145375716Y-70303648D01*
X145376284Y-69653205D01*
X145173404Y-69162200D01*
X148808982Y-69162200D01*
X148606284Y-69650352D01*
X148605716Y-70300795D01*
X148854106Y-70901943D01*
X149313637Y-71362278D01*
X149914352Y-71611716D01*
X150564795Y-71612284D01*
X151165943Y-71363894D01*
X151400715Y-71129532D01*
X152470873Y-71129532D01*
X152569536Y-71396387D01*
X153179261Y-71622908D01*
X153829260Y-71598856D01*
X154318064Y-71396387D01*
X154416727Y-71129532D01*
X158970873Y-71129532D01*
X159069536Y-71396387D01*
X159679261Y-71622908D01*
X160329260Y-71598856D01*
X160818064Y-71396387D01*
X160916727Y-71129532D01*
X159943800Y-70156605D01*
X158970873Y-71129532D01*
X154416727Y-71129532D01*
X153443800Y-70156605D01*
X152470873Y-71129532D01*
X151400715Y-71129532D01*
X151626278Y-70904363D01*
X151836602Y-70397846D01*
X152024413Y-70851264D01*
X152291268Y-70949927D01*
X153264195Y-69977000D01*
X153250053Y-69962858D01*
X153429658Y-69783253D01*
X153443800Y-69797395D01*
X153457943Y-69783253D01*
X153637548Y-69962858D01*
X153623405Y-69977000D01*
X154596332Y-70949927D01*
X154863187Y-70851264D01*
X155089708Y-70241539D01*
X155070131Y-69712461D01*
X158297892Y-69712461D01*
X158321944Y-70362460D01*
X158524413Y-70851264D01*
X158791268Y-70949927D01*
X159764195Y-69977000D01*
X160123405Y-69977000D01*
X161096332Y-70949927D01*
X161363187Y-70851264D01*
X161553027Y-70340272D01*
X161785106Y-70901943D01*
X162244637Y-71362278D01*
X162845352Y-71611716D01*
X163495795Y-71612284D01*
X164096943Y-71363894D01*
X164557278Y-70904363D01*
X164806716Y-70303648D01*
X164806718Y-70300795D01*
X168036716Y-70300795D01*
X168285106Y-70901943D01*
X168744637Y-71362278D01*
X169345352Y-71611716D01*
X169995795Y-71612284D01*
X170596943Y-71363894D01*
X171057278Y-70904363D01*
X171306716Y-70303648D01*
X171307284Y-69653205D01*
X171058894Y-69052057D01*
X170599363Y-68591722D01*
X169998648Y-68342284D01*
X169348205Y-68341716D01*
X168747057Y-68590106D01*
X168286722Y-69049637D01*
X168037284Y-69650352D01*
X168036716Y-70300795D01*
X164806718Y-70300795D01*
X164807284Y-69653205D01*
X164558894Y-69052057D01*
X164099363Y-68591722D01*
X163498648Y-68342284D01*
X162848205Y-68341716D01*
X162247057Y-68590106D01*
X161786722Y-69049637D01*
X161563683Y-69586776D01*
X161363187Y-69102736D01*
X161096332Y-69004073D01*
X160123405Y-69977000D01*
X159764195Y-69977000D01*
X158791268Y-69004073D01*
X158524413Y-69102736D01*
X158297892Y-69712461D01*
X155070131Y-69712461D01*
X155065656Y-69591540D01*
X154863187Y-69102736D01*
X154596334Y-69004074D01*
X154710614Y-68889794D01*
X154699811Y-68878991D01*
X154754334Y-68824468D01*
X158970873Y-68824468D01*
X159943800Y-69797395D01*
X160916727Y-68824468D01*
X160818064Y-68557613D01*
X160208339Y-68331092D01*
X159558340Y-68355144D01*
X159069536Y-68557613D01*
X158970873Y-68824468D01*
X154754334Y-68824468D01*
X157341802Y-66237000D01*
X158488753Y-66237000D01*
X158556906Y-66401943D01*
X159016437Y-66862278D01*
X159617152Y-67111716D01*
X160267595Y-67112284D01*
X160868743Y-66863894D01*
X161103515Y-66629532D01*
X162199073Y-66629532D01*
X162297736Y-66896387D01*
X162907461Y-67122908D01*
X163557460Y-67098856D01*
X164046264Y-66896387D01*
X164144927Y-66629532D01*
X168699073Y-66629532D01*
X168797736Y-66896387D01*
X169407461Y-67122908D01*
X170057460Y-67098856D01*
X170546264Y-66896387D01*
X170644927Y-66629532D01*
X169672000Y-65656605D01*
X168699073Y-66629532D01*
X164144927Y-66629532D01*
X163172000Y-65656605D01*
X162199073Y-66629532D01*
X161103515Y-66629532D01*
X161329078Y-66404363D01*
X161552117Y-65867224D01*
X161752613Y-66351264D01*
X162019468Y-66449927D01*
X162992395Y-65477000D01*
X162978253Y-65462858D01*
X163157858Y-65283253D01*
X163172000Y-65297395D01*
X163186143Y-65283253D01*
X163365748Y-65462858D01*
X163351605Y-65477000D01*
X164324532Y-66449927D01*
X164591387Y-66351264D01*
X164817908Y-65741539D01*
X164793856Y-65091540D01*
X164591387Y-64602736D01*
X164324534Y-64504074D01*
X164438814Y-64389794D01*
X164360620Y-64311600D01*
X168483380Y-64311600D01*
X168405186Y-64389794D01*
X168405186Y-64389794D01*
G37*
X168405186Y-64389794D02*
X168519466Y-64504074D01*
X168252613Y-64602736D01*
X168026092Y-65212461D01*
X168050144Y-65862460D01*
X168252613Y-66351264D01*
X168519468Y-66449927D01*
X169492395Y-65477000D01*
X169478253Y-65462858D01*
X169657858Y-65283253D01*
X169672000Y-65297395D01*
X169686143Y-65283253D01*
X169865748Y-65462858D01*
X169851605Y-65477000D01*
X170824532Y-66449927D01*
X171091387Y-66351264D01*
X171317908Y-65741539D01*
X171293856Y-65091540D01*
X171091387Y-64602736D01*
X170824534Y-64504074D01*
X170938814Y-64389794D01*
X170860620Y-64311600D01*
X171375000Y-64311600D01*
X171375000Y-82909767D01*
X171164600Y-82867160D01*
X170414600Y-82867160D01*
X170179283Y-82911438D01*
X170104998Y-82959239D01*
X170044890Y-82918169D01*
X169793000Y-82867160D01*
X169043000Y-82867160D01*
X168807683Y-82911438D01*
X168707236Y-82976074D01*
X168622490Y-82918169D01*
X168370600Y-82867160D01*
X167620600Y-82867160D01*
X167385283Y-82911438D01*
X167271755Y-82984491D01*
X167174690Y-82918169D01*
X166922800Y-82867160D01*
X166172800Y-82867160D01*
X165937483Y-82911438D01*
X165721359Y-83050510D01*
X165584100Y-83251396D01*
X165537517Y-83138657D01*
X165274727Y-82875408D01*
X164931199Y-82732762D01*
X164559233Y-82732438D01*
X164215457Y-82874483D01*
X163952208Y-83137273D01*
X163809562Y-83480801D01*
X163809238Y-83852767D01*
X163951283Y-84196543D01*
X164214073Y-84459792D01*
X164557601Y-84602438D01*
X164604477Y-84602479D01*
X164653999Y-84652001D01*
X164900560Y-84816748D01*
X164948814Y-84826346D01*
X165191400Y-84874600D01*
X165555466Y-84874600D01*
X165569638Y-84949917D01*
X165636129Y-85053246D01*
X165634473Y-85054902D01*
X165537800Y-85288291D01*
X165537800Y-85728850D01*
X165696550Y-85887600D01*
X166420800Y-85887600D01*
X166420800Y-85867600D01*
X166674800Y-85867600D01*
X166674800Y-85887600D01*
X167868600Y-85887600D01*
X167868600Y-85867600D01*
X168122600Y-85867600D01*
X168122600Y-85887600D01*
X169291000Y-85887600D01*
X169291000Y-85867600D01*
X169545000Y-85867600D01*
X169545000Y-85887600D01*
X170662600Y-85887600D01*
X170662600Y-85867600D01*
X170916600Y-85867600D01*
X170916600Y-85887600D01*
X170936600Y-85887600D01*
X170936600Y-86141600D01*
X170916600Y-86141600D01*
X170916600Y-87090850D01*
X171075350Y-87249600D01*
X171290910Y-87249600D01*
X171375000Y-87214769D01*
X171375000Y-98818600D01*
X170561850Y-98818600D01*
X170403100Y-98977350D01*
X170403100Y-99948307D01*
X170149100Y-99948167D01*
X170149100Y-98977350D01*
X169990350Y-98818600D01*
X168974791Y-98818600D01*
X168741402Y-98915273D01*
X168562773Y-99093901D01*
X168466100Y-99327290D01*
X168466100Y-99947235D01*
X168138540Y-99947053D01*
X168138540Y-99453600D01*
X168094262Y-99218283D01*
X167955190Y-99002159D01*
X167742990Y-98857169D01*
X167491100Y-98806160D01*
X165141100Y-98806160D01*
X164905783Y-98850438D01*
X164689659Y-98989510D01*
X164544669Y-99201710D01*
X164493660Y-99453600D01*
X164493660Y-99945035D01*
X164178540Y-99944861D01*
X164178540Y-99453600D01*
X164134262Y-99218283D01*
X163995190Y-99002159D01*
X163782990Y-98857169D01*
X163531100Y-98806160D01*
X162603267Y-98806160D01*
X162631238Y-98738799D01*
X162631562Y-98366833D01*
X162489517Y-98023057D01*
X162226727Y-97759808D01*
X161883199Y-97617162D01*
X161511233Y-97616838D01*
X161167457Y-97758883D01*
X160904208Y-98021673D01*
X160761562Y-98365201D01*
X160761238Y-98737167D01*
X160836971Y-98920456D01*
X160729659Y-98989510D01*
X160584669Y-99201710D01*
X160533660Y-99453600D01*
X160533660Y-99942843D01*
X160218540Y-99942668D01*
X160218540Y-99453600D01*
X160174262Y-99218283D01*
X160035190Y-99002159D01*
X159822990Y-98857169D01*
X159571100Y-98806160D01*
X159156100Y-98806160D01*
X159156100Y-98299700D01*
X159136670Y-98202018D01*
X159098248Y-98008860D01*
X158933501Y-97762299D01*
X158322201Y-97150999D01*
X158245654Y-97099852D01*
X157913802Y-96768000D01*
X157927002Y-96768000D01*
X157927002Y-96609252D01*
X158085750Y-96768000D01*
X158526309Y-96768000D01*
X158759698Y-96671327D01*
X158761068Y-96669957D01*
X158848110Y-96729431D01*
X159100000Y-96780440D01*
X160300000Y-96780440D01*
X160535317Y-96736162D01*
X160751441Y-96597090D01*
X160896431Y-96384890D01*
X160947440Y-96133000D01*
X160947440Y-95383000D01*
X160903162Y-95147683D01*
X160764090Y-94931559D01*
X160551890Y-94786569D01*
X160460000Y-94767961D01*
X160460000Y-94614640D01*
X161429600Y-94614640D01*
X161664917Y-94570362D01*
X161702517Y-94546167D01*
X164901438Y-94546167D01*
X165043483Y-94889943D01*
X165306273Y-95153192D01*
X165649801Y-95295838D01*
X165696677Y-95295879D01*
X166374678Y-95973880D01*
X166374638Y-96019367D01*
X166516683Y-96363143D01*
X166779473Y-96626392D01*
X167123001Y-96769038D01*
X167494967Y-96769362D01*
X167838743Y-96627317D01*
X168101992Y-96364527D01*
X168244638Y-96020999D01*
X168244962Y-95649033D01*
X168102917Y-95305257D01*
X167840127Y-95042008D01*
X167496599Y-94899362D01*
X167449723Y-94899321D01*
X166771722Y-94221320D01*
X166771762Y-94175833D01*
X166629717Y-93832057D01*
X166366927Y-93568808D01*
X166023399Y-93426162D01*
X165651433Y-93425838D01*
X165307657Y-93567883D01*
X165044408Y-93830673D01*
X164901762Y-94174201D01*
X164901438Y-94546167D01*
X161702517Y-94546167D01*
X161881041Y-94431290D01*
X162026031Y-94219090D01*
X162077040Y-93967200D01*
X162077040Y-92367200D01*
X162043161Y-92187145D01*
X165668861Y-92187145D01*
X165742995Y-92433264D01*
X166280223Y-92626365D01*
X166850454Y-92599178D01*
X167251005Y-92433264D01*
X167325139Y-92187145D01*
X166497000Y-91359005D01*
X165668861Y-92187145D01*
X162043161Y-92187145D01*
X162032762Y-92131883D01*
X161893690Y-91915759D01*
X161681490Y-91770769D01*
X161429600Y-91719760D01*
X159829600Y-91719760D01*
X159594283Y-91764038D01*
X159378159Y-91903110D01*
X159233169Y-92115310D01*
X159182160Y-92367200D01*
X159182160Y-93539838D01*
X159162599Y-93559399D01*
X158997852Y-93805961D01*
X158940000Y-94096800D01*
X158940000Y-94765666D01*
X158864683Y-94779838D01*
X158761354Y-94846329D01*
X158759698Y-94844673D01*
X158526309Y-94748000D01*
X158085750Y-94748000D01*
X157927000Y-94906750D01*
X157927000Y-95631000D01*
X157947000Y-95631000D01*
X157947000Y-95885000D01*
X157927000Y-95885000D01*
X157927000Y-95905000D01*
X157673000Y-95905000D01*
X157673000Y-95885000D01*
X157653000Y-95885000D01*
X157653000Y-95631000D01*
X157673000Y-95631000D01*
X157673000Y-94906750D01*
X157514250Y-94748000D01*
X157073691Y-94748000D01*
X156840302Y-94844673D01*
X156661673Y-95023301D01*
X156565000Y-95256690D01*
X156565000Y-95419198D01*
X155982619Y-94836817D01*
X155989372Y-94174945D01*
X156301461Y-94174945D01*
X156375595Y-94421064D01*
X156912823Y-94614165D01*
X157483054Y-94586978D01*
X157883605Y-94421064D01*
X157957739Y-94174945D01*
X157129600Y-93346805D01*
X156301461Y-94174945D01*
X155989372Y-94174945D01*
X155991605Y-93956106D01*
X156121855Y-93995339D01*
X156949995Y-93167200D01*
X157309205Y-93167200D01*
X158137345Y-93995339D01*
X158383464Y-93921205D01*
X158576565Y-93383977D01*
X158549378Y-92813746D01*
X158383464Y-92413195D01*
X158137345Y-92339061D01*
X157309205Y-93167200D01*
X156949995Y-93167200D01*
X156121855Y-92339061D01*
X156007755Y-92373429D01*
X156009938Y-92159455D01*
X156301461Y-92159455D01*
X157129600Y-92987595D01*
X157957739Y-92159455D01*
X157883605Y-91913336D01*
X157346377Y-91720235D01*
X156776146Y-91747422D01*
X156375595Y-91913336D01*
X156301461Y-92159455D01*
X156009938Y-92159455D01*
X156048510Y-88379400D01*
X165049560Y-88379400D01*
X165049560Y-89979400D01*
X165093838Y-90214717D01*
X165232910Y-90430841D01*
X165239548Y-90435377D01*
X165050035Y-90962623D01*
X165077222Y-91532854D01*
X165243136Y-91933405D01*
X165489255Y-92007539D01*
X166317395Y-91179400D01*
X166303252Y-91165258D01*
X166482858Y-90985653D01*
X166497000Y-90999795D01*
X166511143Y-90985653D01*
X166690748Y-91165258D01*
X166676605Y-91179400D01*
X167504745Y-92007539D01*
X167750864Y-91933405D01*
X167943965Y-91396177D01*
X167916778Y-90825946D01*
X167754616Y-90434453D01*
X167893431Y-90231290D01*
X167944440Y-89979400D01*
X167944440Y-88379400D01*
X167900162Y-88144083D01*
X167761090Y-87927959D01*
X167548890Y-87782969D01*
X167297000Y-87731960D01*
X165697000Y-87731960D01*
X165461683Y-87776238D01*
X165245559Y-87915310D01*
X165100569Y-88127510D01*
X165049560Y-88379400D01*
X156048510Y-88379400D01*
X156069724Y-86300350D01*
X165537800Y-86300350D01*
X165537800Y-86740909D01*
X165634473Y-86974298D01*
X165813101Y-87152927D01*
X166046490Y-87249600D01*
X166262050Y-87249600D01*
X166420800Y-87090850D01*
X166420800Y-86141600D01*
X166674800Y-86141600D01*
X166674800Y-87090850D01*
X166833550Y-87249600D01*
X167049110Y-87249600D01*
X167271700Y-87157400D01*
X167494290Y-87249600D01*
X167709850Y-87249600D01*
X167868600Y-87090850D01*
X167868600Y-86141600D01*
X168122600Y-86141600D01*
X168122600Y-87090850D01*
X168281350Y-87249600D01*
X168496910Y-87249600D01*
X168706800Y-87162661D01*
X168916690Y-87249600D01*
X169132250Y-87249600D01*
X169291000Y-87090850D01*
X169291000Y-86141600D01*
X169545000Y-86141600D01*
X169545000Y-87090850D01*
X169703750Y-87249600D01*
X169919310Y-87249600D01*
X170103800Y-87173182D01*
X170288290Y-87249600D01*
X170503850Y-87249600D01*
X170662600Y-87090850D01*
X170662600Y-86141600D01*
X169545000Y-86141600D01*
X169291000Y-86141600D01*
X168122600Y-86141600D01*
X167868600Y-86141600D01*
X166674800Y-86141600D01*
X166420800Y-86141600D01*
X165696550Y-86141600D01*
X165537800Y-86300350D01*
X156069724Y-86300350D01*
X156079677Y-85325053D01*
X156078948Y-85321183D01*
X156079717Y-85317317D01*
X156079717Y-85317299D01*
X156051530Y-85175597D01*
X156024796Y-85033639D01*
X156022635Y-85030333D01*
X156021865Y-85026460D01*
X155941608Y-84906346D01*
X155862573Y-84785409D01*
X155859312Y-84783182D01*
X155857118Y-84779898D01*
X155857064Y-84779862D01*
X153166001Y-82088799D01*
X152919439Y-81924052D01*
X152628600Y-81866200D01*
X151419402Y-81866200D01*
X145892922Y-76339720D01*
X145892962Y-76294233D01*
X145750917Y-75950457D01*
X145719116Y-75918600D01*
X149773798Y-75918600D01*
X150107321Y-76252123D01*
X150209883Y-76500343D01*
X150472673Y-76763592D01*
X150816201Y-76906238D01*
X151188167Y-76906562D01*
X151531943Y-76764517D01*
X151795192Y-76501727D01*
X151937838Y-76158199D01*
X151938162Y-75786233D01*
X151796117Y-75442457D01*
X151533327Y-75179208D01*
X151189799Y-75036562D01*
X151041235Y-75036433D01*
X150626001Y-74621199D01*
X150379439Y-74456452D01*
X150088600Y-74398600D01*
X145084800Y-74398600D01*
X144793961Y-74456452D01*
X144547399Y-74621199D01*
X144501000Y-74667598D01*
X144501000Y-71432047D01*
X144665943Y-71363894D01*
X145126278Y-70904363D01*
X145375716Y-70303648D01*
X145376284Y-69653205D01*
X145173404Y-69162200D01*
X148808982Y-69162200D01*
X148606284Y-69650352D01*
X148605716Y-70300795D01*
X148854106Y-70901943D01*
X149313637Y-71362278D01*
X149914352Y-71611716D01*
X150564795Y-71612284D01*
X151165943Y-71363894D01*
X151400715Y-71129532D01*
X152470873Y-71129532D01*
X152569536Y-71396387D01*
X153179261Y-71622908D01*
X153829260Y-71598856D01*
X154318064Y-71396387D01*
X154416727Y-71129532D01*
X158970873Y-71129532D01*
X159069536Y-71396387D01*
X159679261Y-71622908D01*
X160329260Y-71598856D01*
X160818064Y-71396387D01*
X160916727Y-71129532D01*
X159943800Y-70156605D01*
X158970873Y-71129532D01*
X154416727Y-71129532D01*
X153443800Y-70156605D01*
X152470873Y-71129532D01*
X151400715Y-71129532D01*
X151626278Y-70904363D01*
X151836602Y-70397846D01*
X152024413Y-70851264D01*
X152291268Y-70949927D01*
X153264195Y-69977000D01*
X153250053Y-69962858D01*
X153429658Y-69783253D01*
X153443800Y-69797395D01*
X153457943Y-69783253D01*
X153637548Y-69962858D01*
X153623405Y-69977000D01*
X154596332Y-70949927D01*
X154863187Y-70851264D01*
X155089708Y-70241539D01*
X155070131Y-69712461D01*
X158297892Y-69712461D01*
X158321944Y-70362460D01*
X158524413Y-70851264D01*
X158791268Y-70949927D01*
X159764195Y-69977000D01*
X160123405Y-69977000D01*
X161096332Y-70949927D01*
X161363187Y-70851264D01*
X161553027Y-70340272D01*
X161785106Y-70901943D01*
X162244637Y-71362278D01*
X162845352Y-71611716D01*
X163495795Y-71612284D01*
X164096943Y-71363894D01*
X164557278Y-70904363D01*
X164806716Y-70303648D01*
X164806718Y-70300795D01*
X168036716Y-70300795D01*
X168285106Y-70901943D01*
X168744637Y-71362278D01*
X169345352Y-71611716D01*
X169995795Y-71612284D01*
X170596943Y-71363894D01*
X171057278Y-70904363D01*
X171306716Y-70303648D01*
X171307284Y-69653205D01*
X171058894Y-69052057D01*
X170599363Y-68591722D01*
X169998648Y-68342284D01*
X169348205Y-68341716D01*
X168747057Y-68590106D01*
X168286722Y-69049637D01*
X168037284Y-69650352D01*
X168036716Y-70300795D01*
X164806718Y-70300795D01*
X164807284Y-69653205D01*
X164558894Y-69052057D01*
X164099363Y-68591722D01*
X163498648Y-68342284D01*
X162848205Y-68341716D01*
X162247057Y-68590106D01*
X161786722Y-69049637D01*
X161563683Y-69586776D01*
X161363187Y-69102736D01*
X161096332Y-69004073D01*
X160123405Y-69977000D01*
X159764195Y-69977000D01*
X158791268Y-69004073D01*
X158524413Y-69102736D01*
X158297892Y-69712461D01*
X155070131Y-69712461D01*
X155065656Y-69591540D01*
X154863187Y-69102736D01*
X154596334Y-69004074D01*
X154710614Y-68889794D01*
X154699811Y-68878991D01*
X154754334Y-68824468D01*
X158970873Y-68824468D01*
X159943800Y-69797395D01*
X160916727Y-68824468D01*
X160818064Y-68557613D01*
X160208339Y-68331092D01*
X159558340Y-68355144D01*
X159069536Y-68557613D01*
X158970873Y-68824468D01*
X154754334Y-68824468D01*
X157341802Y-66237000D01*
X158488753Y-66237000D01*
X158556906Y-66401943D01*
X159016437Y-66862278D01*
X159617152Y-67111716D01*
X160267595Y-67112284D01*
X160868743Y-66863894D01*
X161103515Y-66629532D01*
X162199073Y-66629532D01*
X162297736Y-66896387D01*
X162907461Y-67122908D01*
X163557460Y-67098856D01*
X164046264Y-66896387D01*
X164144927Y-66629532D01*
X168699073Y-66629532D01*
X168797736Y-66896387D01*
X169407461Y-67122908D01*
X170057460Y-67098856D01*
X170546264Y-66896387D01*
X170644927Y-66629532D01*
X169672000Y-65656605D01*
X168699073Y-66629532D01*
X164144927Y-66629532D01*
X163172000Y-65656605D01*
X162199073Y-66629532D01*
X161103515Y-66629532D01*
X161329078Y-66404363D01*
X161552117Y-65867224D01*
X161752613Y-66351264D01*
X162019468Y-66449927D01*
X162992395Y-65477000D01*
X162978253Y-65462858D01*
X163157858Y-65283253D01*
X163172000Y-65297395D01*
X163186143Y-65283253D01*
X163365748Y-65462858D01*
X163351605Y-65477000D01*
X164324532Y-66449927D01*
X164591387Y-66351264D01*
X164817908Y-65741539D01*
X164793856Y-65091540D01*
X164591387Y-64602736D01*
X164324534Y-64504074D01*
X164438814Y-64389794D01*
X164360620Y-64311600D01*
X168483380Y-64311600D01*
X168405186Y-64389794D01*
G36*
X154556498Y-85628900D02*
X154459440Y-95140645D01*
X154460171Y-95144525D01*
X154459400Y-95148400D01*
X154487590Y-95290120D01*
X154514321Y-95432059D01*
X154516481Y-95435365D01*
X154517252Y-95439239D01*
X154597524Y-95559375D01*
X154676544Y-95680290D01*
X154679805Y-95682517D01*
X154681999Y-95685801D01*
X157234699Y-98238501D01*
X157311246Y-98289648D01*
X157636100Y-98614502D01*
X157636100Y-98806160D01*
X157221100Y-98806160D01*
X156985783Y-98850438D01*
X156769659Y-98989510D01*
X156624669Y-99201710D01*
X156573660Y-99453600D01*
X156573660Y-99940650D01*
X156258540Y-99940476D01*
X156258540Y-99453600D01*
X156214262Y-99218283D01*
X156075190Y-99002159D01*
X155862990Y-98857169D01*
X155611100Y-98806160D01*
X155216173Y-98806160D01*
X155265238Y-98687999D01*
X155265562Y-98316033D01*
X155123517Y-97972257D01*
X154860727Y-97709008D01*
X154517199Y-97566362D01*
X154145233Y-97566038D01*
X153801457Y-97708083D01*
X153759575Y-97749892D01*
X151201490Y-97789247D01*
X151201562Y-97706433D01*
X151059517Y-97362657D01*
X150948494Y-97251440D01*
X152433200Y-97251440D01*
X152668517Y-97207162D01*
X152884641Y-97068090D01*
X153029631Y-96855890D01*
X153080640Y-96604000D01*
X153080640Y-94404000D01*
X153036362Y-94168683D01*
X152897290Y-93952559D01*
X152685090Y-93807569D01*
X152433200Y-93756560D01*
X150233200Y-93756560D01*
X149997883Y-93800838D01*
X149781759Y-93939910D01*
X149708889Y-94046559D01*
X149491147Y-93901069D01*
X148827191Y-93769000D01*
X148759209Y-93769000D01*
X148095253Y-93901069D01*
X147532379Y-94277170D01*
X147417730Y-94448755D01*
X147402362Y-94367083D01*
X147263290Y-94150959D01*
X147051090Y-94005969D01*
X146799200Y-93954960D01*
X145199200Y-93954960D01*
X144963883Y-93999238D01*
X144747759Y-94138310D01*
X144602769Y-94350510D01*
X144551760Y-94602400D01*
X144551760Y-96202400D01*
X144596038Y-96437717D01*
X144735110Y-96653841D01*
X144947310Y-96798831D01*
X145199200Y-96849840D01*
X146799200Y-96849840D01*
X147034517Y-96805562D01*
X147250641Y-96666490D01*
X147371348Y-96489830D01*
X147532379Y-96730830D01*
X148095253Y-97106931D01*
X148219272Y-97131600D01*
X138490798Y-97131600D01*
X138158232Y-96799039D01*
X138351087Y-96837400D01*
X138407313Y-96837400D01*
X138956464Y-96728167D01*
X139422011Y-96417098D01*
X139628471Y-96108109D01*
X139628438Y-96146367D01*
X139770483Y-96490143D01*
X140033273Y-96753392D01*
X140376801Y-96896038D01*
X140748767Y-96896362D01*
X141092543Y-96754317D01*
X141355792Y-96491527D01*
X141498438Y-96147999D01*
X141498472Y-96108600D01*
X142155500Y-95463840D01*
X142791600Y-95463840D01*
X142879454Y-95447309D01*
X142717808Y-95608673D01*
X142575162Y-95952201D01*
X142574838Y-96324167D01*
X142716883Y-96667943D01*
X142979673Y-96931192D01*
X143323201Y-97073838D01*
X143695167Y-97074162D01*
X144038943Y-96932117D01*
X144302192Y-96669327D01*
X144444838Y-96325799D01*
X144444965Y-96180040D01*
X144498600Y-95910400D01*
X144498600Y-90671439D01*
X144607296Y-90671439D01*
X144768159Y-91059823D01*
X145144066Y-91474789D01*
X145650159Y-91714314D01*
X145872200Y-91593029D01*
X145872200Y-90449400D01*
X146126200Y-90449400D01*
X146126200Y-91593029D01*
X146348241Y-91714314D01*
X146854334Y-91474789D01*
X147089034Y-91215702D01*
X147024209Y-91541600D01*
X147156278Y-92205556D01*
X147532379Y-92768430D01*
X148095253Y-93144531D01*
X148759209Y-93276600D01*
X148827191Y-93276600D01*
X149491147Y-93144531D01*
X149708702Y-92999165D01*
X149769110Y-93093041D01*
X149981310Y-93238031D01*
X150233200Y-93289040D01*
X152433200Y-93289040D01*
X152668517Y-93244762D01*
X152884641Y-93105690D01*
X153029631Y-92893490D01*
X153080640Y-92641600D01*
X153080640Y-90441600D01*
X153036362Y-90206283D01*
X152897290Y-89990159D01*
X152685090Y-89845169D01*
X152433200Y-89794160D01*
X150233200Y-89794160D01*
X149997883Y-89838438D01*
X149781759Y-89977510D01*
X149708889Y-90084159D01*
X149491147Y-89938669D01*
X148827191Y-89806600D01*
X148759209Y-89806600D01*
X148095253Y-89938669D01*
X147532379Y-90314770D01*
X147347315Y-90591737D01*
X147269115Y-90449400D01*
X146126200Y-90449400D01*
X145872200Y-90449400D01*
X144729285Y-90449400D01*
X144607296Y-90671439D01*
X144498600Y-90671439D01*
X144498600Y-89973361D01*
X144607296Y-89973361D01*
X144729285Y-90195400D01*
X145872200Y-90195400D01*
X145872200Y-89051771D01*
X146126200Y-89051771D01*
X146126200Y-90195400D01*
X147269115Y-90195400D01*
X147391104Y-89973361D01*
X147230241Y-89584977D01*
X146854334Y-89170011D01*
X146348241Y-88930486D01*
X146126200Y-89051771D01*
X145872200Y-89051771D01*
X145650159Y-88930486D01*
X145144066Y-89170011D01*
X144768159Y-89584977D01*
X144607296Y-89973361D01*
X144498600Y-89973361D01*
X144498600Y-88522663D01*
X144530792Y-88490527D01*
X144673438Y-88146999D01*
X144673762Y-87775033D01*
X144531717Y-87431257D01*
X144268927Y-87168008D01*
X143925399Y-87025362D01*
X143553433Y-87025038D01*
X143209657Y-87167083D01*
X142946408Y-87429873D01*
X142803762Y-87773401D01*
X142803438Y-88145367D01*
X142945483Y-88489143D01*
X142978600Y-88522318D01*
X142978600Y-90806828D01*
X142791600Y-90768960D01*
X141891600Y-90768960D01*
X141656283Y-90813238D01*
X141440159Y-90952310D01*
X141295169Y-91164510D01*
X141279845Y-91240184D01*
X141246327Y-91206608D01*
X140902799Y-91063962D01*
X140530833Y-91063638D01*
X140187057Y-91205683D01*
X139923808Y-91468473D01*
X139781162Y-91812001D01*
X139780838Y-92183967D01*
X139922883Y-92527743D01*
X140185673Y-92790992D01*
X140529201Y-92933638D01*
X140901167Y-92933962D01*
X141244943Y-92791917D01*
X141260487Y-92776400D01*
X141274266Y-92776400D01*
X141288438Y-92851717D01*
X141427510Y-93067841D01*
X141497311Y-93115534D01*
X141440159Y-93152310D01*
X141295169Y-93364510D01*
X141244160Y-93616400D01*
X141244160Y-94228533D01*
X140431433Y-95026084D01*
X140378433Y-95026038D01*
X140034657Y-95168083D01*
X139835292Y-95367101D01*
X139733080Y-94853249D01*
X139422011Y-94387702D01*
X138956464Y-94076633D01*
X138407313Y-93967400D01*
X138351087Y-93967400D01*
X137801936Y-94076633D01*
X137336389Y-94387702D01*
X137162737Y-94647590D01*
X137056882Y-93785068D01*
X137040360Y-93734954D01*
X137037005Y-93682288D01*
X136994344Y-93595380D01*
X136964033Y-93503442D01*
X136929590Y-93463464D01*
X136906336Y-93416092D01*
X136833667Y-93352127D01*
X136770478Y-93278784D01*
X136723358Y-93255030D01*
X136683747Y-93220164D01*
X136533523Y-93133065D01*
X136431080Y-92618049D01*
X136120011Y-92152502D01*
X135654464Y-91841433D01*
X135105313Y-91732200D01*
X135049087Y-91732200D01*
X134499936Y-91841433D01*
X134034389Y-92152502D01*
X133723320Y-92618049D01*
X133614087Y-93167200D01*
X133723320Y-93716351D01*
X134034389Y-94181898D01*
X134178665Y-94278301D01*
X134041883Y-94304038D01*
X133825759Y-94443110D01*
X133680769Y-94655310D01*
X133629760Y-94907200D01*
X133629760Y-96507200D01*
X133674038Y-96742517D01*
X133813110Y-96958641D01*
X134025310Y-97103631D01*
X134277200Y-97154640D01*
X135449838Y-97154640D01*
X137161355Y-98866157D01*
X136969659Y-98989510D01*
X136824669Y-99201710D01*
X136773660Y-99453600D01*
X136773660Y-99929687D01*
X136458540Y-99929512D01*
X136458540Y-99453600D01*
X136414262Y-99218283D01*
X136275190Y-99002159D01*
X136062990Y-98857169D01*
X135811100Y-98806160D01*
X135430800Y-98806160D01*
X135430800Y-98653600D01*
X135372948Y-98362761D01*
X135208201Y-98116199D01*
X134961639Y-97951452D01*
X134670800Y-97893600D01*
X133258402Y-97893600D01*
X128855888Y-93491086D01*
X128920313Y-93167200D01*
X128811080Y-92618049D01*
X128500011Y-92152502D01*
X128034464Y-91841433D01*
X127485313Y-91732200D01*
X127429087Y-91732200D01*
X126879936Y-91841433D01*
X126414389Y-92152502D01*
X126103320Y-92618049D01*
X125994087Y-93167200D01*
X126103320Y-93716351D01*
X126414389Y-94181898D01*
X126796475Y-94437200D01*
X126414389Y-94692502D01*
X126103320Y-95158049D01*
X125994087Y-95707200D01*
X126103320Y-96256351D01*
X126414389Y-96721898D01*
X126879936Y-97032967D01*
X127429087Y-97142200D01*
X127485313Y-97142200D01*
X127762302Y-97087104D01*
X129484484Y-98809286D01*
X129265783Y-98850438D01*
X129049659Y-98989510D01*
X128904669Y-99201710D01*
X128853660Y-99453600D01*
X128853660Y-99925301D01*
X128526100Y-99925120D01*
X128526100Y-99327290D01*
X128429427Y-99093901D01*
X128250798Y-98915273D01*
X128017409Y-98818600D01*
X127001850Y-98818600D01*
X126843100Y-98977350D01*
X126843100Y-99924188D01*
X126589100Y-99924047D01*
X126589100Y-98977350D01*
X126430350Y-98818600D01*
X125903472Y-98818600D01*
X125873620Y-90322400D01*
X136916087Y-90322400D01*
X137025320Y-90871551D01*
X137336389Y-91337098D01*
X137801936Y-91648167D01*
X138351087Y-91757400D01*
X138407313Y-91757400D01*
X138956464Y-91648167D01*
X139422011Y-91337098D01*
X139733080Y-90871551D01*
X139842313Y-90322400D01*
X139733080Y-89773249D01*
X139422011Y-89307702D01*
X138956464Y-88996633D01*
X138407313Y-88887400D01*
X138351087Y-88887400D01*
X137801936Y-88996633D01*
X137336389Y-89307702D01*
X137025320Y-89773249D01*
X136916087Y-90322400D01*
X125873620Y-90322400D01*
X125867359Y-88540707D01*
X126429400Y-88540707D01*
X126429400Y-88598893D01*
X126542439Y-89167178D01*
X126864346Y-89648947D01*
X127346115Y-89970854D01*
X127914400Y-90083893D01*
X128482685Y-89970854D01*
X128964454Y-89648947D01*
X129184400Y-89319774D01*
X129404346Y-89648947D01*
X129886115Y-89970854D01*
X130454400Y-90083893D01*
X131022685Y-89970854D01*
X131504454Y-89648947D01*
X131532250Y-89607348D01*
X131541238Y-89655117D01*
X131680310Y-89871241D01*
X131892510Y-90016231D01*
X132144400Y-90067240D01*
X133844400Y-90067240D01*
X134079717Y-90022962D01*
X134295841Y-89883890D01*
X134440831Y-89671690D01*
X134491840Y-89419800D01*
X134491840Y-87719800D01*
X134447562Y-87484483D01*
X134308490Y-87268359D01*
X134096290Y-87123369D01*
X133844400Y-87072360D01*
X132144400Y-87072360D01*
X131909083Y-87116638D01*
X131692959Y-87255710D01*
X131547969Y-87467910D01*
X131534314Y-87535341D01*
X131504454Y-87490653D01*
X131022685Y-87168746D01*
X130454400Y-87055707D01*
X129886115Y-87168746D01*
X129404346Y-87490653D01*
X129184400Y-87819826D01*
X128964454Y-87490653D01*
X128482685Y-87168746D01*
X127914400Y-87055707D01*
X127346115Y-87168746D01*
X126864346Y-87490653D01*
X126542439Y-87972422D01*
X126429400Y-88540707D01*
X125867359Y-88540707D01*
X125852211Y-84229613D01*
X126446461Y-84823863D01*
X126542439Y-85306378D01*
X126864346Y-85788147D01*
X127346115Y-86110054D01*
X127914400Y-86223093D01*
X128482685Y-86110054D01*
X128964454Y-85788147D01*
X129184400Y-85458974D01*
X129404346Y-85788147D01*
X129886115Y-86110054D01*
X130454400Y-86223093D01*
X131022685Y-86110054D01*
X131504454Y-85788147D01*
X131532250Y-85746548D01*
X131541238Y-85794317D01*
X131680310Y-86010441D01*
X131892510Y-86155431D01*
X132144400Y-86206440D01*
X132289746Y-86206440D01*
X132292252Y-86219039D01*
X132363916Y-86326291D01*
X132429936Y-86437100D01*
X132445920Y-86449020D01*
X132456999Y-86465601D01*
X132564245Y-86537261D01*
X132667650Y-86614374D01*
X133201051Y-86868374D01*
X133220382Y-86873270D01*
X133236961Y-86884348D01*
X133363473Y-86909513D01*
X133488510Y-86941183D01*
X133508241Y-86938309D01*
X133527800Y-86942200D01*
X138274507Y-86942200D01*
X140898553Y-89791750D01*
X140898438Y-89923367D01*
X141040483Y-90267143D01*
X141303273Y-90530392D01*
X141646801Y-90673038D01*
X142018767Y-90673362D01*
X142362543Y-90531317D01*
X142625792Y-90268527D01*
X142768438Y-89924999D01*
X142768762Y-89553033D01*
X142626717Y-89209257D01*
X142363927Y-88946008D01*
X142075906Y-88826411D01*
X139685888Y-86231000D01*
X147790049Y-86231000D01*
X147532379Y-86403170D01*
X147156278Y-86966044D01*
X147024209Y-87630000D01*
X147156278Y-88293956D01*
X147532379Y-88856830D01*
X148095253Y-89232931D01*
X148759209Y-89365000D01*
X148827191Y-89365000D01*
X149491147Y-89232931D01*
X149708702Y-89087565D01*
X149769110Y-89181441D01*
X149981310Y-89326431D01*
X150233200Y-89377440D01*
X152433200Y-89377440D01*
X152668517Y-89333162D01*
X152884641Y-89194090D01*
X153029631Y-88981890D01*
X153080640Y-88730000D01*
X153080640Y-86530000D01*
X153036362Y-86294683D01*
X152897290Y-86078559D01*
X152685090Y-85933569D01*
X152433200Y-85882560D01*
X152093200Y-85882560D01*
X152093200Y-84712264D01*
X152353992Y-84451927D01*
X152496638Y-84108399D01*
X152496962Y-83736433D01*
X152379324Y-83451726D01*
X154556498Y-85628900D01*
X154556498Y-85628900D01*
G37*
X154556498Y-85628900D02*
X154459440Y-95140645D01*
X154460171Y-95144525D01*
X154459400Y-95148400D01*
X154487590Y-95290120D01*
X154514321Y-95432059D01*
X154516481Y-95435365D01*
X154517252Y-95439239D01*
X154597524Y-95559375D01*
X154676544Y-95680290D01*
X154679805Y-95682517D01*
X154681999Y-95685801D01*
X157234699Y-98238501D01*
X157311246Y-98289648D01*
X157636100Y-98614502D01*
X157636100Y-98806160D01*
X157221100Y-98806160D01*
X156985783Y-98850438D01*
X156769659Y-98989510D01*
X156624669Y-99201710D01*
X156573660Y-99453600D01*
X156573660Y-99940650D01*
X156258540Y-99940476D01*
X156258540Y-99453600D01*
X156214262Y-99218283D01*
X156075190Y-99002159D01*
X155862990Y-98857169D01*
X155611100Y-98806160D01*
X155216173Y-98806160D01*
X155265238Y-98687999D01*
X155265562Y-98316033D01*
X155123517Y-97972257D01*
X154860727Y-97709008D01*
X154517199Y-97566362D01*
X154145233Y-97566038D01*
X153801457Y-97708083D01*
X153759575Y-97749892D01*
X151201490Y-97789247D01*
X151201562Y-97706433D01*
X151059517Y-97362657D01*
X150948494Y-97251440D01*
X152433200Y-97251440D01*
X152668517Y-97207162D01*
X152884641Y-97068090D01*
X153029631Y-96855890D01*
X153080640Y-96604000D01*
X153080640Y-94404000D01*
X153036362Y-94168683D01*
X152897290Y-93952559D01*
X152685090Y-93807569D01*
X152433200Y-93756560D01*
X150233200Y-93756560D01*
X149997883Y-93800838D01*
X149781759Y-93939910D01*
X149708889Y-94046559D01*
X149491147Y-93901069D01*
X148827191Y-93769000D01*
X148759209Y-93769000D01*
X148095253Y-93901069D01*
X147532379Y-94277170D01*
X147417730Y-94448755D01*
X147402362Y-94367083D01*
X147263290Y-94150959D01*
X147051090Y-94005969D01*
X146799200Y-93954960D01*
X145199200Y-93954960D01*
X144963883Y-93999238D01*
X144747759Y-94138310D01*
X144602769Y-94350510D01*
X144551760Y-94602400D01*
X144551760Y-96202400D01*
X144596038Y-96437717D01*
X144735110Y-96653841D01*
X144947310Y-96798831D01*
X145199200Y-96849840D01*
X146799200Y-96849840D01*
X147034517Y-96805562D01*
X147250641Y-96666490D01*
X147371348Y-96489830D01*
X147532379Y-96730830D01*
X148095253Y-97106931D01*
X148219272Y-97131600D01*
X138490798Y-97131600D01*
X138158232Y-96799039D01*
X138351087Y-96837400D01*
X138407313Y-96837400D01*
X138956464Y-96728167D01*
X139422011Y-96417098D01*
X139628471Y-96108109D01*
X139628438Y-96146367D01*
X139770483Y-96490143D01*
X140033273Y-96753392D01*
X140376801Y-96896038D01*
X140748767Y-96896362D01*
X141092543Y-96754317D01*
X141355792Y-96491527D01*
X141498438Y-96147999D01*
X141498472Y-96108600D01*
X142155500Y-95463840D01*
X142791600Y-95463840D01*
X142879454Y-95447309D01*
X142717808Y-95608673D01*
X142575162Y-95952201D01*
X142574838Y-96324167D01*
X142716883Y-96667943D01*
X142979673Y-96931192D01*
X143323201Y-97073838D01*
X143695167Y-97074162D01*
X144038943Y-96932117D01*
X144302192Y-96669327D01*
X144444838Y-96325799D01*
X144444965Y-96180040D01*
X144498600Y-95910400D01*
X144498600Y-90671439D01*
X144607296Y-90671439D01*
X144768159Y-91059823D01*
X145144066Y-91474789D01*
X145650159Y-91714314D01*
X145872200Y-91593029D01*
X145872200Y-90449400D01*
X146126200Y-90449400D01*
X146126200Y-91593029D01*
X146348241Y-91714314D01*
X146854334Y-91474789D01*
X147089034Y-91215702D01*
X147024209Y-91541600D01*
X147156278Y-92205556D01*
X147532379Y-92768430D01*
X148095253Y-93144531D01*
X148759209Y-93276600D01*
X148827191Y-93276600D01*
X149491147Y-93144531D01*
X149708702Y-92999165D01*
X149769110Y-93093041D01*
X149981310Y-93238031D01*
X150233200Y-93289040D01*
X152433200Y-93289040D01*
X152668517Y-93244762D01*
X152884641Y-93105690D01*
X153029631Y-92893490D01*
X153080640Y-92641600D01*
X153080640Y-90441600D01*
X153036362Y-90206283D01*
X152897290Y-89990159D01*
X152685090Y-89845169D01*
X152433200Y-89794160D01*
X150233200Y-89794160D01*
X149997883Y-89838438D01*
X149781759Y-89977510D01*
X149708889Y-90084159D01*
X149491147Y-89938669D01*
X148827191Y-89806600D01*
X148759209Y-89806600D01*
X148095253Y-89938669D01*
X147532379Y-90314770D01*
X147347315Y-90591737D01*
X147269115Y-90449400D01*
X146126200Y-90449400D01*
X145872200Y-90449400D01*
X144729285Y-90449400D01*
X144607296Y-90671439D01*
X144498600Y-90671439D01*
X144498600Y-89973361D01*
X144607296Y-89973361D01*
X144729285Y-90195400D01*
X145872200Y-90195400D01*
X145872200Y-89051771D01*
X146126200Y-89051771D01*
X146126200Y-90195400D01*
X147269115Y-90195400D01*
X147391104Y-89973361D01*
X147230241Y-89584977D01*
X146854334Y-89170011D01*
X146348241Y-88930486D01*
X146126200Y-89051771D01*
X145872200Y-89051771D01*
X145650159Y-88930486D01*
X145144066Y-89170011D01*
X144768159Y-89584977D01*
X144607296Y-89973361D01*
X144498600Y-89973361D01*
X144498600Y-88522663D01*
X144530792Y-88490527D01*
X144673438Y-88146999D01*
X144673762Y-87775033D01*
X144531717Y-87431257D01*
X144268927Y-87168008D01*
X143925399Y-87025362D01*
X143553433Y-87025038D01*
X143209657Y-87167083D01*
X142946408Y-87429873D01*
X142803762Y-87773401D01*
X142803438Y-88145367D01*
X142945483Y-88489143D01*
X142978600Y-88522318D01*
X142978600Y-90806828D01*
X142791600Y-90768960D01*
X141891600Y-90768960D01*
X141656283Y-90813238D01*
X141440159Y-90952310D01*
X141295169Y-91164510D01*
X141279845Y-91240184D01*
X141246327Y-91206608D01*
X140902799Y-91063962D01*
X140530833Y-91063638D01*
X140187057Y-91205683D01*
X139923808Y-91468473D01*
X139781162Y-91812001D01*
X139780838Y-92183967D01*
X139922883Y-92527743D01*
X140185673Y-92790992D01*
X140529201Y-92933638D01*
X140901167Y-92933962D01*
X141244943Y-92791917D01*
X141260487Y-92776400D01*
X141274266Y-92776400D01*
X141288438Y-92851717D01*
X141427510Y-93067841D01*
X141497311Y-93115534D01*
X141440159Y-93152310D01*
X141295169Y-93364510D01*
X141244160Y-93616400D01*
X141244160Y-94228533D01*
X140431433Y-95026084D01*
X140378433Y-95026038D01*
X140034657Y-95168083D01*
X139835292Y-95367101D01*
X139733080Y-94853249D01*
X139422011Y-94387702D01*
X138956464Y-94076633D01*
X138407313Y-93967400D01*
X138351087Y-93967400D01*
X137801936Y-94076633D01*
X137336389Y-94387702D01*
X137162737Y-94647590D01*
X137056882Y-93785068D01*
X137040360Y-93734954D01*
X137037005Y-93682288D01*
X136994344Y-93595380D01*
X136964033Y-93503442D01*
X136929590Y-93463464D01*
X136906336Y-93416092D01*
X136833667Y-93352127D01*
X136770478Y-93278784D01*
X136723358Y-93255030D01*
X136683747Y-93220164D01*
X136533523Y-93133065D01*
X136431080Y-92618049D01*
X136120011Y-92152502D01*
X135654464Y-91841433D01*
X135105313Y-91732200D01*
X135049087Y-91732200D01*
X134499936Y-91841433D01*
X134034389Y-92152502D01*
X133723320Y-92618049D01*
X133614087Y-93167200D01*
X133723320Y-93716351D01*
X134034389Y-94181898D01*
X134178665Y-94278301D01*
X134041883Y-94304038D01*
X133825759Y-94443110D01*
X133680769Y-94655310D01*
X133629760Y-94907200D01*
X133629760Y-96507200D01*
X133674038Y-96742517D01*
X133813110Y-96958641D01*
X134025310Y-97103631D01*
X134277200Y-97154640D01*
X135449838Y-97154640D01*
X137161355Y-98866157D01*
X136969659Y-98989510D01*
X136824669Y-99201710D01*
X136773660Y-99453600D01*
X136773660Y-99929687D01*
X136458540Y-99929512D01*
X136458540Y-99453600D01*
X136414262Y-99218283D01*
X136275190Y-99002159D01*
X136062990Y-98857169D01*
X135811100Y-98806160D01*
X135430800Y-98806160D01*
X135430800Y-98653600D01*
X135372948Y-98362761D01*
X135208201Y-98116199D01*
X134961639Y-97951452D01*
X134670800Y-97893600D01*
X133258402Y-97893600D01*
X128855888Y-93491086D01*
X128920313Y-93167200D01*
X128811080Y-92618049D01*
X128500011Y-92152502D01*
X128034464Y-91841433D01*
X127485313Y-91732200D01*
X127429087Y-91732200D01*
X126879936Y-91841433D01*
X126414389Y-92152502D01*
X126103320Y-92618049D01*
X125994087Y-93167200D01*
X126103320Y-93716351D01*
X126414389Y-94181898D01*
X126796475Y-94437200D01*
X126414389Y-94692502D01*
X126103320Y-95158049D01*
X125994087Y-95707200D01*
X126103320Y-96256351D01*
X126414389Y-96721898D01*
X126879936Y-97032967D01*
X127429087Y-97142200D01*
X127485313Y-97142200D01*
X127762302Y-97087104D01*
X129484484Y-98809286D01*
X129265783Y-98850438D01*
X129049659Y-98989510D01*
X128904669Y-99201710D01*
X128853660Y-99453600D01*
X128853660Y-99925301D01*
X128526100Y-99925120D01*
X128526100Y-99327290D01*
X128429427Y-99093901D01*
X128250798Y-98915273D01*
X128017409Y-98818600D01*
X127001850Y-98818600D01*
X126843100Y-98977350D01*
X126843100Y-99924188D01*
X126589100Y-99924047D01*
X126589100Y-98977350D01*
X126430350Y-98818600D01*
X125903472Y-98818600D01*
X125873620Y-90322400D01*
X136916087Y-90322400D01*
X137025320Y-90871551D01*
X137336389Y-91337098D01*
X137801936Y-91648167D01*
X138351087Y-91757400D01*
X138407313Y-91757400D01*
X138956464Y-91648167D01*
X139422011Y-91337098D01*
X139733080Y-90871551D01*
X139842313Y-90322400D01*
X139733080Y-89773249D01*
X139422011Y-89307702D01*
X138956464Y-88996633D01*
X138407313Y-88887400D01*
X138351087Y-88887400D01*
X137801936Y-88996633D01*
X137336389Y-89307702D01*
X137025320Y-89773249D01*
X136916087Y-90322400D01*
X125873620Y-90322400D01*
X125867359Y-88540707D01*
X126429400Y-88540707D01*
X126429400Y-88598893D01*
X126542439Y-89167178D01*
X126864346Y-89648947D01*
X127346115Y-89970854D01*
X127914400Y-90083893D01*
X128482685Y-89970854D01*
X128964454Y-89648947D01*
X129184400Y-89319774D01*
X129404346Y-89648947D01*
X129886115Y-89970854D01*
X130454400Y-90083893D01*
X131022685Y-89970854D01*
X131504454Y-89648947D01*
X131532250Y-89607348D01*
X131541238Y-89655117D01*
X131680310Y-89871241D01*
X131892510Y-90016231D01*
X132144400Y-90067240D01*
X133844400Y-90067240D01*
X134079717Y-90022962D01*
X134295841Y-89883890D01*
X134440831Y-89671690D01*
X134491840Y-89419800D01*
X134491840Y-87719800D01*
X134447562Y-87484483D01*
X134308490Y-87268359D01*
X134096290Y-87123369D01*
X133844400Y-87072360D01*
X132144400Y-87072360D01*
X131909083Y-87116638D01*
X131692959Y-87255710D01*
X131547969Y-87467910D01*
X131534314Y-87535341D01*
X131504454Y-87490653D01*
X131022685Y-87168746D01*
X130454400Y-87055707D01*
X129886115Y-87168746D01*
X129404346Y-87490653D01*
X129184400Y-87819826D01*
X128964454Y-87490653D01*
X128482685Y-87168746D01*
X127914400Y-87055707D01*
X127346115Y-87168746D01*
X126864346Y-87490653D01*
X126542439Y-87972422D01*
X126429400Y-88540707D01*
X125867359Y-88540707D01*
X125852211Y-84229613D01*
X126446461Y-84823863D01*
X126542439Y-85306378D01*
X126864346Y-85788147D01*
X127346115Y-86110054D01*
X127914400Y-86223093D01*
X128482685Y-86110054D01*
X128964454Y-85788147D01*
X129184400Y-85458974D01*
X129404346Y-85788147D01*
X129886115Y-86110054D01*
X130454400Y-86223093D01*
X131022685Y-86110054D01*
X131504454Y-85788147D01*
X131532250Y-85746548D01*
X131541238Y-85794317D01*
X131680310Y-86010441D01*
X131892510Y-86155431D01*
X132144400Y-86206440D01*
X132289746Y-86206440D01*
X132292252Y-86219039D01*
X132363916Y-86326291D01*
X132429936Y-86437100D01*
X132445920Y-86449020D01*
X132456999Y-86465601D01*
X132564245Y-86537261D01*
X132667650Y-86614374D01*
X133201051Y-86868374D01*
X133220382Y-86873270D01*
X133236961Y-86884348D01*
X133363473Y-86909513D01*
X133488510Y-86941183D01*
X133508241Y-86938309D01*
X133527800Y-86942200D01*
X138274507Y-86942200D01*
X140898553Y-89791750D01*
X140898438Y-89923367D01*
X141040483Y-90267143D01*
X141303273Y-90530392D01*
X141646801Y-90673038D01*
X142018767Y-90673362D01*
X142362543Y-90531317D01*
X142625792Y-90268527D01*
X142768438Y-89924999D01*
X142768762Y-89553033D01*
X142626717Y-89209257D01*
X142363927Y-88946008D01*
X142075906Y-88826411D01*
X139685888Y-86231000D01*
X147790049Y-86231000D01*
X147532379Y-86403170D01*
X147156278Y-86966044D01*
X147024209Y-87630000D01*
X147156278Y-88293956D01*
X147532379Y-88856830D01*
X148095253Y-89232931D01*
X148759209Y-89365000D01*
X148827191Y-89365000D01*
X149491147Y-89232931D01*
X149708702Y-89087565D01*
X149769110Y-89181441D01*
X149981310Y-89326431D01*
X150233200Y-89377440D01*
X152433200Y-89377440D01*
X152668517Y-89333162D01*
X152884641Y-89194090D01*
X153029631Y-88981890D01*
X153080640Y-88730000D01*
X153080640Y-86530000D01*
X153036362Y-86294683D01*
X152897290Y-86078559D01*
X152685090Y-85933569D01*
X152433200Y-85882560D01*
X152093200Y-85882560D01*
X152093200Y-84712264D01*
X152353992Y-84451927D01*
X152496638Y-84108399D01*
X152496962Y-83736433D01*
X152379324Y-83451726D01*
X154556498Y-85628900D01*
G36*
X147836050Y-80432452D02*
X147594608Y-80673473D01*
X147451962Y-81017001D01*
X147451921Y-81063877D01*
X147208398Y-81307400D01*
X141557154Y-81307400D01*
X141363347Y-81017346D01*
X141034174Y-80797400D01*
X141363347Y-80577454D01*
X141557154Y-80287400D01*
X143408400Y-80287400D01*
X143699239Y-80229548D01*
X143945801Y-80064801D01*
X145249880Y-78760722D01*
X145295367Y-78760762D01*
X145639143Y-78618717D01*
X145830896Y-78427298D01*
X147836050Y-80432452D01*
X147836050Y-80432452D01*
G37*
X147836050Y-80432452D02*
X147594608Y-80673473D01*
X147451962Y-81017001D01*
X147451921Y-81063877D01*
X147208398Y-81307400D01*
X141557154Y-81307400D01*
X141363347Y-81017346D01*
X141034174Y-80797400D01*
X141363347Y-80577454D01*
X141557154Y-80287400D01*
X143408400Y-80287400D01*
X143699239Y-80229548D01*
X143945801Y-80064801D01*
X145249880Y-78760722D01*
X145295367Y-78760762D01*
X145639143Y-78618717D01*
X145830896Y-78427298D01*
X147836050Y-80432452D01*
G36*
X142474186Y-64389794D02*
X142588466Y-64504074D01*
X142321613Y-64602736D01*
X142095092Y-65212461D01*
X142119144Y-65862460D01*
X142321613Y-66351264D01*
X142588468Y-66449927D01*
X143561395Y-65477000D01*
X143547253Y-65462858D01*
X143726858Y-65283253D01*
X143741000Y-65297395D01*
X143755143Y-65283253D01*
X143934748Y-65462858D01*
X143920605Y-65477000D01*
X144893532Y-66449927D01*
X145160387Y-66351264D01*
X145386908Y-65741539D01*
X145362856Y-65091540D01*
X145160387Y-64602736D01*
X144893534Y-64504074D01*
X145007814Y-64389794D01*
X144929620Y-64311600D01*
X149052380Y-64311600D01*
X148974186Y-64389794D01*
X149088466Y-64504074D01*
X148821613Y-64602736D01*
X148595092Y-65212461D01*
X148619144Y-65862460D01*
X148821613Y-66351264D01*
X149088468Y-66449927D01*
X150061395Y-65477000D01*
X150047253Y-65462858D01*
X150226858Y-65283253D01*
X150241000Y-65297395D01*
X150255143Y-65283253D01*
X150434748Y-65462858D01*
X150420605Y-65477000D01*
X151393532Y-66449927D01*
X151660387Y-66351264D01*
X151838202Y-65872640D01*
X152056906Y-66401943D01*
X152516437Y-66862278D01*
X153117152Y-67111716D01*
X153767595Y-67112284D01*
X154368743Y-66863894D01*
X154829078Y-66404363D01*
X155078516Y-65803648D01*
X155079084Y-65153205D01*
X154830694Y-64552057D01*
X154590657Y-64311600D01*
X158796975Y-64311600D01*
X158558522Y-64549637D01*
X158489027Y-64717000D01*
X157027000Y-64717000D01*
X156736161Y-64774852D01*
X156489599Y-64939599D01*
X153786998Y-67642200D01*
X136321800Y-67642200D01*
X136030961Y-67700052D01*
X135784399Y-67864799D01*
X134844599Y-68804599D01*
X134679852Y-69051161D01*
X134622000Y-69342000D01*
X134622000Y-76434095D01*
X134480559Y-76525110D01*
X134362319Y-76698160D01*
X134356948Y-76671160D01*
X134192201Y-76424599D01*
X131435835Y-73668233D01*
X131442525Y-73634600D01*
X131336718Y-73102670D01*
X131035403Y-72651722D01*
X130605696Y-72364600D01*
X131035403Y-72077478D01*
X131336718Y-71626530D01*
X131442525Y-71094600D01*
X131336718Y-70562670D01*
X131035403Y-70111722D01*
X130586613Y-69811849D01*
X130659863Y-69790192D01*
X131083281Y-69447676D01*
X131343393Y-68969197D01*
X131357877Y-68896571D01*
X131235283Y-68681600D01*
X129387600Y-68681600D01*
X129387600Y-68701600D01*
X129133600Y-68701600D01*
X129133600Y-68681600D01*
X127285917Y-68681600D01*
X127163323Y-68896571D01*
X127177807Y-68969197D01*
X127437919Y-69447676D01*
X127861337Y-69790192D01*
X127934587Y-69811849D01*
X127485797Y-70111722D01*
X127184482Y-70562670D01*
X127078675Y-71094600D01*
X127184482Y-71626530D01*
X127485797Y-72077478D01*
X127915504Y-72364600D01*
X127485797Y-72651722D01*
X127184482Y-73102670D01*
X127078675Y-73634600D01*
X127184482Y-74166530D01*
X127485797Y-74617478D01*
X127915504Y-74904600D01*
X127485797Y-75191722D01*
X127336874Y-75414600D01*
X126898400Y-75414600D01*
X126607561Y-75472452D01*
X126360999Y-75637199D01*
X125823906Y-76174292D01*
X125805000Y-70793549D01*
X125805000Y-68212629D01*
X127163323Y-68212629D01*
X127285917Y-68427600D01*
X129133600Y-68427600D01*
X129133600Y-67164600D01*
X129387600Y-67164600D01*
X129387600Y-68427600D01*
X131235283Y-68427600D01*
X131357877Y-68212629D01*
X131343393Y-68140003D01*
X131083281Y-67661524D01*
X130659863Y-67319008D01*
X130137600Y-67164600D01*
X129387600Y-67164600D01*
X129133600Y-67164600D01*
X128383600Y-67164600D01*
X127861337Y-67319008D01*
X127437919Y-67661524D01*
X127177807Y-68140003D01*
X127163323Y-68212629D01*
X125805000Y-68212629D01*
X125805000Y-66629532D01*
X142768073Y-66629532D01*
X142866736Y-66896387D01*
X143476461Y-67122908D01*
X144126460Y-67098856D01*
X144615264Y-66896387D01*
X144713927Y-66629532D01*
X149268073Y-66629532D01*
X149366736Y-66896387D01*
X149976461Y-67122908D01*
X150626460Y-67098856D01*
X151115264Y-66896387D01*
X151213927Y-66629532D01*
X150241000Y-65656605D01*
X149268073Y-66629532D01*
X144713927Y-66629532D01*
X143741000Y-65656605D01*
X142768073Y-66629532D01*
X125805000Y-66629532D01*
X125805000Y-64311600D01*
X142552380Y-64311600D01*
X142474186Y-64389794D01*
X142474186Y-64389794D01*
G37*
X142474186Y-64389794D02*
X142588466Y-64504074D01*
X142321613Y-64602736D01*
X142095092Y-65212461D01*
X142119144Y-65862460D01*
X142321613Y-66351264D01*
X142588468Y-66449927D01*
X143561395Y-65477000D01*
X143547253Y-65462858D01*
X143726858Y-65283253D01*
X143741000Y-65297395D01*
X143755143Y-65283253D01*
X143934748Y-65462858D01*
X143920605Y-65477000D01*
X144893532Y-66449927D01*
X145160387Y-66351264D01*
X145386908Y-65741539D01*
X145362856Y-65091540D01*
X145160387Y-64602736D01*
X144893534Y-64504074D01*
X145007814Y-64389794D01*
X144929620Y-64311600D01*
X149052380Y-64311600D01*
X148974186Y-64389794D01*
X149088466Y-64504074D01*
X148821613Y-64602736D01*
X148595092Y-65212461D01*
X148619144Y-65862460D01*
X148821613Y-66351264D01*
X149088468Y-66449927D01*
X150061395Y-65477000D01*
X150047253Y-65462858D01*
X150226858Y-65283253D01*
X150241000Y-65297395D01*
X150255143Y-65283253D01*
X150434748Y-65462858D01*
X150420605Y-65477000D01*
X151393532Y-66449927D01*
X151660387Y-66351264D01*
X151838202Y-65872640D01*
X152056906Y-66401943D01*
X152516437Y-66862278D01*
X153117152Y-67111716D01*
X153767595Y-67112284D01*
X154368743Y-66863894D01*
X154829078Y-66404363D01*
X155078516Y-65803648D01*
X155079084Y-65153205D01*
X154830694Y-64552057D01*
X154590657Y-64311600D01*
X158796975Y-64311600D01*
X158558522Y-64549637D01*
X158489027Y-64717000D01*
X157027000Y-64717000D01*
X156736161Y-64774852D01*
X156489599Y-64939599D01*
X153786998Y-67642200D01*
X136321800Y-67642200D01*
X136030961Y-67700052D01*
X135784399Y-67864799D01*
X134844599Y-68804599D01*
X134679852Y-69051161D01*
X134622000Y-69342000D01*
X134622000Y-76434095D01*
X134480559Y-76525110D01*
X134362319Y-76698160D01*
X134356948Y-76671160D01*
X134192201Y-76424599D01*
X131435835Y-73668233D01*
X131442525Y-73634600D01*
X131336718Y-73102670D01*
X131035403Y-72651722D01*
X130605696Y-72364600D01*
X131035403Y-72077478D01*
X131336718Y-71626530D01*
X131442525Y-71094600D01*
X131336718Y-70562670D01*
X131035403Y-70111722D01*
X130586613Y-69811849D01*
X130659863Y-69790192D01*
X131083281Y-69447676D01*
X131343393Y-68969197D01*
X131357877Y-68896571D01*
X131235283Y-68681600D01*
X129387600Y-68681600D01*
X129387600Y-68701600D01*
X129133600Y-68701600D01*
X129133600Y-68681600D01*
X127285917Y-68681600D01*
X127163323Y-68896571D01*
X127177807Y-68969197D01*
X127437919Y-69447676D01*
X127861337Y-69790192D01*
X127934587Y-69811849D01*
X127485797Y-70111722D01*
X127184482Y-70562670D01*
X127078675Y-71094600D01*
X127184482Y-71626530D01*
X127485797Y-72077478D01*
X127915504Y-72364600D01*
X127485797Y-72651722D01*
X127184482Y-73102670D01*
X127078675Y-73634600D01*
X127184482Y-74166530D01*
X127485797Y-74617478D01*
X127915504Y-74904600D01*
X127485797Y-75191722D01*
X127336874Y-75414600D01*
X126898400Y-75414600D01*
X126607561Y-75472452D01*
X126360999Y-75637199D01*
X125823906Y-76174292D01*
X125805000Y-70793549D01*
X125805000Y-68212629D01*
X127163323Y-68212629D01*
X127285917Y-68427600D01*
X129133600Y-68427600D01*
X129133600Y-67164600D01*
X129387600Y-67164600D01*
X129387600Y-68427600D01*
X131235283Y-68427600D01*
X131357877Y-68212629D01*
X131343393Y-68140003D01*
X131083281Y-67661524D01*
X130659863Y-67319008D01*
X130137600Y-67164600D01*
X129387600Y-67164600D01*
X129133600Y-67164600D01*
X128383600Y-67164600D01*
X127861337Y-67319008D01*
X127437919Y-67661524D01*
X127177807Y-68140003D01*
X127163323Y-68212629D01*
X125805000Y-68212629D01*
X125805000Y-66629532D01*
X142768073Y-66629532D01*
X142866736Y-66896387D01*
X143476461Y-67122908D01*
X144126460Y-67098856D01*
X144615264Y-66896387D01*
X144713927Y-66629532D01*
X149268073Y-66629532D01*
X149366736Y-66896387D01*
X149976461Y-67122908D01*
X150626460Y-67098856D01*
X151115264Y-66896387D01*
X151213927Y-66629532D01*
X150241000Y-65656605D01*
X149268073Y-66629532D01*
X144713927Y-66629532D01*
X143741000Y-65656605D01*
X142768073Y-66629532D01*
X125805000Y-66629532D01*
X125805000Y-64311600D01*
X142552380Y-64311600D01*
X142474186Y-64389794D01*
G36*
X142106284Y-69650352D02*
X142105716Y-70300795D01*
X142354106Y-70901943D01*
X142813637Y-71362278D01*
X142981000Y-71431773D01*
X142981000Y-74416340D01*
X142717808Y-74679073D01*
X142575162Y-75022601D01*
X142574838Y-75394567D01*
X142716883Y-75738343D01*
X142979673Y-76001592D01*
X143112042Y-76056556D01*
X142941198Y-76227400D01*
X141557154Y-76227400D01*
X141363347Y-75937346D01*
X141022647Y-75709698D01*
X141165558Y-75642583D01*
X141555845Y-75214324D01*
X141725676Y-74804290D01*
X141604355Y-74574400D01*
X140411200Y-74574400D01*
X140411200Y-74594400D01*
X140157200Y-74594400D01*
X140157200Y-74574400D01*
X140137200Y-74574400D01*
X140137200Y-74320400D01*
X140157200Y-74320400D01*
X140157200Y-73126581D01*
X140411200Y-73126581D01*
X140411200Y-74320400D01*
X141604355Y-74320400D01*
X141725676Y-74090510D01*
X141555845Y-73680476D01*
X141165558Y-73252217D01*
X140641092Y-73005914D01*
X140411200Y-73126581D01*
X140157200Y-73126581D01*
X139927308Y-73005914D01*
X139402842Y-73252217D01*
X139215392Y-73457904D01*
X139197362Y-73362083D01*
X139058290Y-73145959D01*
X138846090Y-73000969D01*
X138594200Y-72949960D01*
X136894200Y-72949960D01*
X136658883Y-72994238D01*
X136442759Y-73133310D01*
X136297769Y-73345510D01*
X136246760Y-73597400D01*
X136246760Y-75297400D01*
X136291038Y-75532717D01*
X136430110Y-75748841D01*
X136642310Y-75893831D01*
X136709741Y-75907486D01*
X136665053Y-75937346D01*
X136343146Y-76419115D01*
X136314008Y-76565604D01*
X136296090Y-76537759D01*
X136142000Y-76432474D01*
X136142000Y-69656802D01*
X136636602Y-69162200D01*
X142308982Y-69162200D01*
X142106284Y-69650352D01*
X142106284Y-69650352D01*
G37*
X142106284Y-69650352D02*
X142105716Y-70300795D01*
X142354106Y-70901943D01*
X142813637Y-71362278D01*
X142981000Y-71431773D01*
X142981000Y-74416340D01*
X142717808Y-74679073D01*
X142575162Y-75022601D01*
X142574838Y-75394567D01*
X142716883Y-75738343D01*
X142979673Y-76001592D01*
X143112042Y-76056556D01*
X142941198Y-76227400D01*
X141557154Y-76227400D01*
X141363347Y-75937346D01*
X141022647Y-75709698D01*
X141165558Y-75642583D01*
X141555845Y-75214324D01*
X141725676Y-74804290D01*
X141604355Y-74574400D01*
X140411200Y-74574400D01*
X140411200Y-74594400D01*
X140157200Y-74594400D01*
X140157200Y-74574400D01*
X140137200Y-74574400D01*
X140137200Y-74320400D01*
X140157200Y-74320400D01*
X140157200Y-73126581D01*
X140411200Y-73126581D01*
X140411200Y-74320400D01*
X141604355Y-74320400D01*
X141725676Y-74090510D01*
X141555845Y-73680476D01*
X141165558Y-73252217D01*
X140641092Y-73005914D01*
X140411200Y-73126581D01*
X140157200Y-73126581D01*
X139927308Y-73005914D01*
X139402842Y-73252217D01*
X139215392Y-73457904D01*
X139197362Y-73362083D01*
X139058290Y-73145959D01*
X138846090Y-73000969D01*
X138594200Y-72949960D01*
X136894200Y-72949960D01*
X136658883Y-72994238D01*
X136442759Y-73133310D01*
X136297769Y-73345510D01*
X136246760Y-73597400D01*
X136246760Y-75297400D01*
X136291038Y-75532717D01*
X136430110Y-75748841D01*
X136642310Y-75893831D01*
X136709741Y-75907486D01*
X136665053Y-75937346D01*
X136343146Y-76419115D01*
X136314008Y-76565604D01*
X136296090Y-76537759D01*
X136142000Y-76432474D01*
X136142000Y-69656802D01*
X136636602Y-69162200D01*
X142308982Y-69162200D01*
X142106284Y-69650352D01*
M02*
