M48
;DRILL file {KiCad 4.0.7} date 04/12/18 23:57:30
;FORMAT={-:-/ absolute / inch / decimal}
FMAT,2
INCH,TZ
T1C0.016
T2C0.031
T3C0.039
T4C0.043
%
G90
G05
M72
T1
X4.988Y-3.888
X5.525Y-2.742
X5.534Y-3.778
X5.534Y-3.914
X5.54Y-3.622
X5.584Y-3.533
X5.65Y-2.961
X5.65Y-3.785
X5.659Y-3.463
X5.69Y-3.912
X5.707Y-3.011
X5.713Y-3.064
X5.717Y-3.153
X5.777Y-2.879
X5.834Y-3.037
X5.842Y-3.197
X5.916Y-3.854
X5.926Y-3.682
X5.9336Y-3.0346
X5.945Y-2.991
X5.967Y-3.304
X6.076Y-3.878
X6.328Y-2.877
X6.366Y-3.88
X6.486Y-3.294
X6.529Y-3.715
X6.587Y-3.773
X6.702Y-3.868
T2
X5.018Y-3.668
X5.018Y-3.768
X5.318Y-3.668
X5.318Y-3.768
X5.448Y-3.556
X5.448Y-3.756
X5.748Y-3.556
X5.748Y-3.756
X6.1862Y-3.668
X6.324Y-3.668
X6.555Y-3.511
X6.555Y-3.5897
T3
X5.036Y-3.335
X5.036Y-3.487
X5.089Y-2.699
X5.089Y-2.799
X5.089Y-2.899
X5.089Y-2.999
X5.089Y-3.099
X5.089Y-3.199
X5.136Y-3.335
X5.136Y-3.487
X5.236Y-3.335
X5.236Y-3.487
X5.423Y-2.931
X5.423Y-3.031
X5.423Y-3.131
X5.423Y-3.231
X5.523Y-2.931
X5.523Y-3.031
X5.523Y-3.131
X5.523Y-3.231
T4
X5.6591Y-2.5778
X5.6591Y-2.755
X5.858Y-3.45
X5.858Y-3.604
X5.858Y-3.76
X5.915Y-2.5778
X5.915Y-2.755
X5.958Y-3.45
X5.958Y-3.604
X5.958Y-3.76
X6.0411Y-2.5778
X6.0411Y-2.755
X6.297Y-2.5778
X6.297Y-2.755
X6.4241Y-2.5778
X6.4241Y-2.755
X6.68Y-2.5778
X6.68Y-2.755
T0
M30
