%TF.GenerationSoftware,KiCad,Pcbnew,(5.1.6)-1*%
%TF.CreationDate,2020-09-04T01:33:40+02:00*%
%TF.ProjectId,c64modem,6336346d-6f64-4656-9d2e-6b696361645f,rev?*%
%TF.SameCoordinates,Original*%
%TF.FileFunction,Copper,L2,Bot*%
%TF.FilePolarity,Positive*%
%FSLAX46Y46*%
G04 Gerber Fmt 4.6, Leading zero omitted, Abs format (unit mm)*
G04 Created by KiCad (PCBNEW (5.1.6)-1) date 2020-09-04 01:33:40*
%MOMM*%
%LPD*%
G01*
G04 APERTURE LIST*
%TA.AperFunction,ComponentPad*%
%ADD10O,1.700000X1.700000*%
%TD*%
%TA.AperFunction,ComponentPad*%
%ADD11R,1.700000X1.700000*%
%TD*%
%TA.AperFunction,ComponentPad*%
%ADD12O,1.600000X1.600000*%
%TD*%
%TA.AperFunction,ComponentPad*%
%ADD13R,1.600000X1.600000*%
%TD*%
%TA.AperFunction,ComponentPad*%
%ADD14C,2.000000*%
%TD*%
%TA.AperFunction,ComponentPad*%
%ADD15O,1.500000X1.500000*%
%TD*%
%TA.AperFunction,ComponentPad*%
%ADD16R,1.500000X1.500000*%
%TD*%
%TA.AperFunction,ComponentPad*%
%ADD17O,1.600000X2.400000*%
%TD*%
%TA.AperFunction,ComponentPad*%
%ADD18R,1.600000X2.400000*%
%TD*%
%TA.AperFunction,ComponentPad*%
%ADD19C,1.600000*%
%TD*%
%TA.AperFunction,ConnectorPad*%
%ADD20R,2.350000X11.100000*%
%TD*%
%TA.AperFunction,ViaPad*%
%ADD21C,0.600000*%
%TD*%
%TA.AperFunction,Conductor*%
%ADD22C,1.000000*%
%TD*%
%TA.AperFunction,Conductor*%
%ADD23C,0.250000*%
%TD*%
%TA.AperFunction,Conductor*%
%ADD24C,0.254000*%
%TD*%
G04 APERTURE END LIST*
D10*
%TO.P,ESP8266,8*%
%TO.N,VCC*%
X138557000Y-82550000D03*
%TO.P,ESP8266,7*%
%TO.N,/ESP_RX*%
X141097000Y-82550000D03*
%TO.P,ESP8266,6*%
%TO.N,/~ESP_RST*%
X138557000Y-80010000D03*
%TO.P,ESP8266,5*%
%TO.N,Net-(ESP8266-Pad5)*%
X141097000Y-80010000D03*
%TO.P,ESP8266,4*%
%TO.N,Net-(ESP8266-Pad4)*%
X138557000Y-77470000D03*
%TO.P,ESP8266,3*%
%TO.N,/ESP_DCD*%
X141097000Y-77470000D03*
%TO.P,ESP8266,2*%
%TO.N,/ESP_TX*%
X138557000Y-74930000D03*
D11*
%TO.P,ESP8266,1*%
%TO.N,GND*%
X141097000Y-74930000D03*
%TD*%
D12*
%TO.P,SW1,4*%
%TO.N,/C64_TX*%
X127317500Y-95250000D03*
%TO.P,SW1,2*%
%TO.N,/SP2*%
X134937500Y-92710000D03*
%TO.P,SW1,3*%
%TO.N,/C64_DSR*%
X127317500Y-92710000D03*
D13*
%TO.P,SW1,1*%
%TO.N,/SP1*%
X134937500Y-95250000D03*
%TD*%
D14*
%TO.P,SW4,1*%
%TO.N,Net-(ESP8266-Pad5)*%
X143741000Y-69977000D03*
%TO.P,SW4,2*%
%TO.N,GND*%
X143741000Y-65477000D03*
%TO.P,SW4,1*%
%TO.N,Net-(ESP8266-Pad5)*%
X150241000Y-69977000D03*
%TO.P,SW4,2*%
%TO.N,GND*%
X150241000Y-65477000D03*
%TD*%
%TO.P,SW3,1*%
%TO.N,/RST#*%
X163172000Y-69977000D03*
%TO.P,SW3,2*%
%TO.N,GND*%
X163172000Y-65477000D03*
%TO.P,SW3,1*%
%TO.N,/RST#*%
X169672000Y-69977000D03*
%TO.P,SW3,2*%
%TO.N,GND*%
X169672000Y-65477000D03*
%TD*%
%TO.P,SW2,1*%
%TO.N,GND*%
X153443800Y-69977000D03*
%TO.P,SW2,2*%
%TO.N,/~ESP_RST*%
X153443800Y-65477000D03*
%TO.P,SW2,1*%
%TO.N,GND*%
X159943800Y-69977000D03*
%TO.P,SW2,2*%
%TO.N,/~ESP_RST*%
X159943800Y-65477000D03*
%TD*%
%TO.P,R4,2*%
%TO.N,+5V*%
%TA.AperFunction,SMDPad,CuDef*%
G36*
G01*
X138880001Y-93285000D02*
X137979999Y-93285000D01*
G75*
G02*
X137730000Y-93035001I0J249999D01*
G01*
X137730000Y-92384999D01*
G75*
G02*
X137979999Y-92135000I249999J0D01*
G01*
X138880001Y-92135000D01*
G75*
G02*
X139130000Y-92384999I0J-249999D01*
G01*
X139130000Y-93035001D01*
G75*
G02*
X138880001Y-93285000I-249999J0D01*
G01*
G37*
%TD.AperFunction*%
%TO.P,R4,1*%
%TO.N,/C64_CTS*%
%TA.AperFunction,SMDPad,CuDef*%
G36*
G01*
X138880001Y-95335000D02*
X137979999Y-95335000D01*
G75*
G02*
X137730000Y-95085001I0J249999D01*
G01*
X137730000Y-94434999D01*
G75*
G02*
X137979999Y-94185000I249999J0D01*
G01*
X138880001Y-94185000D01*
G75*
G02*
X139130000Y-94434999I0J-249999D01*
G01*
X139130000Y-95085001D01*
G75*
G02*
X138880001Y-95335000I-249999J0D01*
G01*
G37*
%TD.AperFunction*%
%TD*%
%TO.P,R3,2*%
%TO.N,Net-(ESP8266-Pad4)*%
%TA.AperFunction,SMDPad,CuDef*%
G36*
G01*
X138487999Y-69538000D02*
X139388001Y-69538000D01*
G75*
G02*
X139638000Y-69787999I0J-249999D01*
G01*
X139638000Y-70438001D01*
G75*
G02*
X139388001Y-70688000I-249999J0D01*
G01*
X138487999Y-70688000D01*
G75*
G02*
X138238000Y-70438001I0J249999D01*
G01*
X138238000Y-69787999D01*
G75*
G02*
X138487999Y-69538000I249999J0D01*
G01*
G37*
%TD.AperFunction*%
%TO.P,R3,1*%
%TO.N,VCC*%
%TA.AperFunction,SMDPad,CuDef*%
G36*
G01*
X138487999Y-67488000D02*
X139388001Y-67488000D01*
G75*
G02*
X139638000Y-67737999I0J-249999D01*
G01*
X139638000Y-68388001D01*
G75*
G02*
X139388001Y-68638000I-249999J0D01*
G01*
X138487999Y-68638000D01*
G75*
G02*
X138238000Y-68388001I0J249999D01*
G01*
X138238000Y-67737999D01*
G75*
G02*
X138487999Y-67488000I249999J0D01*
G01*
G37*
%TD.AperFunction*%
%TD*%
%TO.P,R2,2*%
%TO.N,/~ESP_RST*%
%TA.AperFunction,SMDPad,CuDef*%
G36*
G01*
X135693999Y-69411000D02*
X136594001Y-69411000D01*
G75*
G02*
X136844000Y-69660999I0J-249999D01*
G01*
X136844000Y-70311001D01*
G75*
G02*
X136594001Y-70561000I-249999J0D01*
G01*
X135693999Y-70561000D01*
G75*
G02*
X135444000Y-70311001I0J249999D01*
G01*
X135444000Y-69660999D01*
G75*
G02*
X135693999Y-69411000I249999J0D01*
G01*
G37*
%TD.AperFunction*%
%TO.P,R2,1*%
%TO.N,VCC*%
%TA.AperFunction,SMDPad,CuDef*%
G36*
G01*
X135693999Y-67361000D02*
X136594001Y-67361000D01*
G75*
G02*
X136844000Y-67610999I0J-249999D01*
G01*
X136844000Y-68261001D01*
G75*
G02*
X136594001Y-68511000I-249999J0D01*
G01*
X135693999Y-68511000D01*
G75*
G02*
X135444000Y-68261001I0J249999D01*
G01*
X135444000Y-67610999D01*
G75*
G02*
X135693999Y-67361000I249999J0D01*
G01*
G37*
%TD.AperFunction*%
%TD*%
D10*
%TO.P,JP2,3*%
%TO.N,/FTDI_RX*%
X127914400Y-83820000D03*
%TO.P,JP2,2*%
%TO.N,/RX*%
X130454400Y-83820000D03*
D11*
%TO.P,JP2,1*%
%TO.N,/C64_RX*%
X132994400Y-83820000D03*
%TD*%
D10*
%TO.P,JP1,3*%
%TO.N,/FTDI_TX*%
X127914400Y-87884000D03*
%TO.P,JP1,2*%
%TO.N,/TX*%
X130454400Y-87884000D03*
D11*
%TO.P,JP1,1*%
%TO.N,/C64_TX*%
X132994400Y-87884000D03*
%TD*%
D10*
%TO.P,J1,6*%
%TO.N,N/C*%
X129540000Y-78740000D03*
%TO.P,J1,5*%
%TO.N,/FTDI_TX*%
X129540000Y-76200000D03*
%TO.P,J1,4*%
%TO.N,/FTDI_RX*%
X129540000Y-73660000D03*
%TO.P,J1,3*%
%TO.N,FTDI_PWR*%
X129540000Y-71120000D03*
%TO.P,J1,2*%
%TO.N,N/C*%
X129540000Y-68580000D03*
D11*
%TO.P,J1,1*%
%TO.N,GND*%
X129540000Y-66040000D03*
%TD*%
D15*
%TO.P,D5,2*%
%TO.N,Net-(D3-Pad1)*%
X150698200Y-87630000D03*
D16*
%TO.P,D5,1*%
%TO.N,Net-(C3-Pad1)*%
X153238200Y-87630000D03*
%TD*%
D15*
%TO.P,D3,2*%
%TO.N,Net-(D2-Pad1)*%
X150698200Y-91541600D03*
D16*
%TO.P,D3,1*%
%TO.N,Net-(D3-Pad1)*%
X153238200Y-91541600D03*
%TD*%
D15*
%TO.P,D2,2*%
%TO.N,Net-(D1-Pad1)*%
X150698200Y-95504000D03*
D16*
%TO.P,D2,1*%
%TO.N,Net-(D2-Pad1)*%
X153238200Y-95504000D03*
%TD*%
D17*
%TO.P,D1,4*%
%TO.N,9VAC2*%
X144145000Y-95885000D03*
%TO.P,D1,2*%
%TO.N,GND*%
X141605000Y-88265000D03*
%TO.P,D1,3*%
%TO.N,9VAC1*%
X141605000Y-95885000D03*
D18*
%TO.P,D1,1*%
%TO.N,Net-(D1-Pad1)*%
X144145000Y-88265000D03*
%TD*%
D19*
%TO.P,C6,2*%
%TO.N,GND*%
X167640000Y-92805000D03*
D13*
%TO.P,C6,1*%
%TO.N,VCC*%
X167640000Y-90805000D03*
%TD*%
%TO.P,C4,2*%
%TO.N,GND*%
%TA.AperFunction,SMDPad,CuDef*%
G36*
G01*
X159815000Y-87814999D02*
X159815000Y-88715001D01*
G75*
G02*
X159565001Y-88965000I-249999J0D01*
G01*
X158914999Y-88965000D01*
G75*
G02*
X158665000Y-88715001I0J249999D01*
G01*
X158665000Y-87814999D01*
G75*
G02*
X158914999Y-87565000I249999J0D01*
G01*
X159565001Y-87565000D01*
G75*
G02*
X159815000Y-87814999I0J-249999D01*
G01*
G37*
%TD.AperFunction*%
%TO.P,C4,1*%
%TO.N,Net-(C3-Pad1)*%
%TA.AperFunction,SMDPad,CuDef*%
G36*
G01*
X161865000Y-87814999D02*
X161865000Y-88715001D01*
G75*
G02*
X161615001Y-88965000I-249999J0D01*
G01*
X160964999Y-88965000D01*
G75*
G02*
X160715000Y-88715001I0J249999D01*
G01*
X160715000Y-87814999D01*
G75*
G02*
X160964999Y-87565000I249999J0D01*
G01*
X161615001Y-87565000D01*
G75*
G02*
X161865000Y-87814999I0J-249999D01*
G01*
G37*
%TD.AperFunction*%
%TD*%
D19*
%TO.P,C3,2*%
%TO.N,GND*%
X159385000Y-92075000D03*
D13*
%TO.P,C3,1*%
%TO.N,Net-(C3-Pad1)*%
X161385000Y-92075000D03*
%TD*%
D20*
%TO.P,CN1,N*%
%TO.N,GND*%
X126716100Y-105003600D03*
%TO.P,CN1,M*%
%TO.N,/C64_TX*%
X130676100Y-105003600D03*
%TO.P,CN1,L*%
%TO.N,/C64_DSR*%
X134636100Y-105003600D03*
%TO.P,CN1,K*%
%TO.N,/C64_CTS*%
X138596100Y-105003600D03*
%TO.P,CN1,J*%
%TO.N,N/C*%
X142556100Y-105003600D03*
%TO.P,CN1,H*%
%TO.N,/C64_DCD*%
X146516100Y-105003600D03*
%TO.P,CN1,F*%
%TO.N,N/C*%
X150476100Y-105003600D03*
%TO.P,CN1,E*%
X154436100Y-105003600D03*
%TO.P,CN1,D*%
%TO.N,/C64_RTS*%
X158396100Y-105003600D03*
%TO.P,CN1,C*%
%TO.N,/C64_RX*%
X162356100Y-105003600D03*
%TO.P,CN1,B*%
X166316100Y-105003600D03*
%TO.P,CN1,A*%
%TO.N,GND*%
X170276100Y-105003600D03*
%TD*%
D21*
%TO.N,GND*%
X151892000Y-78232000D03*
X127254000Y-98171000D03*
X155097000Y-76170000D03*
%TO.N,VCC*%
X138938000Y-66421000D03*
%TO.N,/C64_RX*%
X148590000Y-98171000D03*
%TO.N,/SP1*%
X137033000Y-91059000D03*
%TO.N,/RST#*%
X169799000Y-94869000D03*
%TO.N,+5V*%
X164719000Y-98552000D03*
%TO.N,/C64_DCD*%
X155448000Y-97536000D03*
%TO.N,/C64_RTS*%
X158242000Y-98615500D03*
%TO.N,/TX*%
X149225000Y-77978000D03*
%TO.N,Net-(ESP8266-Pad5)*%
X151384000Y-79248000D03*
%TO.N,/RX*%
X145825853Y-76954942D03*
%TO.N,Net-(C3-Pad1)*%
X158877000Y-79756000D03*
%TD*%
D22*
%TO.N,VCC*%
X138920000Y-67945000D02*
X136144000Y-67945000D01*
X138938000Y-66421000D02*
X138938000Y-67945000D01*
X138938000Y-67945000D02*
X138920000Y-67945000D01*
D23*
%TO.N,/C64_RX*%
X166316100Y-105003600D02*
X162356100Y-105003600D01*
X148590000Y-98171000D02*
X156845000Y-98171000D01*
X161142999Y-97990499D02*
X162356100Y-99203600D01*
X156845000Y-98171000D02*
X157941999Y-97990499D01*
X157941999Y-97990499D02*
X161142999Y-97990499D01*
X162356100Y-99203600D02*
X162356100Y-105003600D01*
%TO.N,/SP1*%
X137033000Y-92837000D02*
X134620000Y-95250000D01*
X137033000Y-91059000D02*
X137033000Y-92837000D01*
%TO.N,/RST#*%
X169799000Y-72644000D02*
X169672000Y-69977000D01*
X169799000Y-94869000D02*
X169799000Y-72644000D01*
%TO.N,+5V*%
X144780000Y-92710000D02*
X138430000Y-92710000D01*
X148463000Y-96901000D02*
X144780000Y-92710000D01*
X161671000Y-96901000D02*
X148463000Y-96901000D01*
X164719000Y-98552000D02*
X161671000Y-96901000D01*
%TO.N,/C64_TX*%
X130676100Y-98926100D02*
X127000000Y-95250000D01*
X130676100Y-105003600D02*
X130676100Y-98926100D01*
%TO.N,/C64_DSR*%
X134636100Y-100346100D02*
X127000000Y-92710000D01*
X134636100Y-105003600D02*
X134636100Y-100346100D01*
%TO.N,/C64_CTS*%
X138430000Y-98425000D02*
X138430000Y-94615000D01*
X138596100Y-99226100D02*
X138430000Y-98425000D01*
X138596100Y-105003600D02*
X138596100Y-99226100D01*
%TO.N,/C64_DCD*%
X146558000Y-98298000D02*
X146516100Y-105003600D01*
X155448000Y-97536000D02*
X147320000Y-97536000D01*
X147320000Y-97536000D02*
X146558000Y-98298000D01*
%TO.N,/C64_RTS*%
X158242000Y-98615500D02*
X158242000Y-104849500D01*
X158242000Y-104849500D02*
X158396100Y-105003600D01*
%TO.N,/TX*%
X149225000Y-77978000D02*
X149161500Y-80645000D01*
X143472489Y-86334011D02*
X131750389Y-86334011D01*
X149161500Y-80645000D02*
X143472489Y-86334011D01*
X131750389Y-86334011D02*
X130454400Y-87630000D01*
%TO.N,Net-(ESP8266-Pad5)*%
X150241000Y-69977000D02*
X150241000Y-78105000D01*
X150241000Y-78105000D02*
X151384000Y-79248000D01*
X150241000Y-69977000D02*
X143741000Y-69977000D01*
%TO.N,/RX*%
X131629401Y-82644999D02*
X134841999Y-82644999D01*
X130454400Y-83820000D02*
X131629401Y-82644999D01*
X134841999Y-82644999D02*
X137668000Y-85471000D01*
X137668000Y-85471000D02*
X143002000Y-85471000D01*
X143002000Y-85471000D02*
X145825853Y-82647147D01*
X145825853Y-82647147D02*
X145825853Y-76954942D01*
%TO.N,Net-(C3-Pad1)*%
X153238200Y-87630000D02*
X153628210Y-87239990D01*
X161385000Y-88360000D02*
X161290000Y-88265000D01*
X161385000Y-92075000D02*
X161385000Y-88360000D01*
X161385000Y-92075000D02*
X161417000Y-90551000D01*
X155651200Y-90043000D02*
X153238200Y-87630000D01*
X156210000Y-90551000D02*
X155651200Y-90043000D01*
X161417000Y-90551000D02*
X156210000Y-90551000D01*
X160264990Y-87239990D02*
X161290000Y-88265000D01*
X158242000Y-80264000D02*
X158242000Y-81915000D01*
X158242000Y-81915000D02*
X158233634Y-86859634D01*
X158233634Y-86859634D02*
X158623000Y-87239990D01*
X158877000Y-79756000D02*
X158242000Y-80264000D01*
X158623000Y-87239990D02*
X160264990Y-87239990D01*
%TO.N,Net-(D2-Pad1)*%
X153238200Y-95504000D02*
X153238200Y-94818200D01*
X150698200Y-92278200D02*
X150698200Y-91541600D01*
%TO.N,Net-(D3-Pad1)*%
X153238200Y-90170000D02*
X150698200Y-87630000D01*
X153238200Y-91541600D02*
X153238200Y-90170000D01*
%TO.N,/~ESP_RST*%
X136144000Y-69977000D02*
X136144000Y-79502000D01*
X136144000Y-79502000D02*
X137033000Y-80010000D01*
X152118799Y-64151999D02*
X135873001Y-64151999D01*
X153443800Y-65477000D02*
X152118799Y-64151999D01*
X137033000Y-80010000D02*
X138557000Y-80010000D01*
X134874000Y-64897000D02*
X134874000Y-69088000D01*
X135873001Y-64151999D02*
X134874000Y-64897000D01*
X134874000Y-69088000D02*
X136144000Y-69977000D01*
%TO.N,Net-(ESP8266-Pad4)*%
X139794999Y-76581000D02*
X138557000Y-77470000D01*
X139794999Y-72295001D02*
X139794999Y-76581000D01*
X138938000Y-70104000D02*
X139794999Y-72295001D01*
%TD*%
D24*
%TO.N,GND*%
G36*
X134321291Y-64372439D02*
G01*
X134306803Y-64385640D01*
X134274039Y-64430061D01*
X134239026Y-64472725D01*
X134229694Y-64490184D01*
X134217939Y-64506121D01*
X134194473Y-64556077D01*
X134168454Y-64604754D01*
X134162706Y-64623705D01*
X134154289Y-64641622D01*
X134141022Y-64695186D01*
X134124997Y-64748015D01*
X134123056Y-64767725D01*
X134118297Y-64786938D01*
X134115735Y-64842055D01*
X134114000Y-64859668D01*
X134114000Y-64879371D01*
X134111345Y-64936483D01*
X134114000Y-64954063D01*
X134114001Y-69042400D01*
X134110503Y-69071447D01*
X134114001Y-69117085D01*
X134114001Y-69125333D01*
X134116851Y-69154274D01*
X134121944Y-69220715D01*
X134124184Y-69228719D01*
X134124998Y-69236986D01*
X134144334Y-69300728D01*
X134162286Y-69364884D01*
X134166043Y-69372294D01*
X134168455Y-69380247D01*
X134199845Y-69438972D01*
X134229978Y-69498413D01*
X134235114Y-69504955D01*
X134239027Y-69512276D01*
X134281258Y-69563735D01*
X134322421Y-69616169D01*
X134328731Y-69621580D01*
X134334000Y-69628001D01*
X134385483Y-69670252D01*
X134407585Y-69689207D01*
X134414350Y-69693942D01*
X134449725Y-69722974D01*
X134475522Y-69736763D01*
X134805928Y-69968047D01*
X134805928Y-70311001D01*
X134822992Y-70484255D01*
X134873528Y-70650851D01*
X134955595Y-70804387D01*
X135066038Y-70938962D01*
X135200613Y-71049405D01*
X135354149Y-71131472D01*
X135384000Y-71140527D01*
X135384001Y-79491251D01*
X135382189Y-79555339D01*
X135390266Y-79602940D01*
X135394998Y-79650986D01*
X135402760Y-79676574D01*
X135407233Y-79702936D01*
X135424439Y-79748040D01*
X135438455Y-79794247D01*
X135451061Y-79817831D01*
X135460590Y-79842811D01*
X135486270Y-79883701D01*
X135509027Y-79926276D01*
X135525985Y-79946939D01*
X135540210Y-79969590D01*
X135573378Y-80004688D01*
X135604000Y-80042001D01*
X135624670Y-80058964D01*
X135643035Y-80078398D01*
X135682402Y-80106344D01*
X135719725Y-80136974D01*
X135776263Y-80167195D01*
X136600353Y-80638104D01*
X136608724Y-80644974D01*
X136665253Y-80675190D01*
X136688348Y-80688387D01*
X136698171Y-80692785D01*
X136740753Y-80715546D01*
X136766347Y-80723310D01*
X136790746Y-80734234D01*
X136837808Y-80744987D01*
X136884014Y-80759003D01*
X136910624Y-80761624D01*
X136936692Y-80767580D01*
X136984949Y-80768944D01*
X136995667Y-80770000D01*
X137022285Y-80770000D01*
X137086339Y-80771811D01*
X137097012Y-80770000D01*
X137278822Y-80770000D01*
X137403525Y-80956632D01*
X137610368Y-81163475D01*
X137784760Y-81280000D01*
X137610368Y-81396525D01*
X137403525Y-81603368D01*
X137241010Y-81846589D01*
X137129068Y-82116842D01*
X137072000Y-82403740D01*
X137072000Y-82696260D01*
X137129068Y-82983158D01*
X137241010Y-83253411D01*
X137403525Y-83496632D01*
X137610368Y-83703475D01*
X137853589Y-83865990D01*
X138123842Y-83977932D01*
X138410740Y-84035000D01*
X138703260Y-84035000D01*
X138990158Y-83977932D01*
X139260411Y-83865990D01*
X139503632Y-83703475D01*
X139710475Y-83496632D01*
X139827000Y-83322240D01*
X139943525Y-83496632D01*
X140150368Y-83703475D01*
X140393589Y-83865990D01*
X140663842Y-83977932D01*
X140950740Y-84035000D01*
X141243260Y-84035000D01*
X141530158Y-83977932D01*
X141800411Y-83865990D01*
X142043632Y-83703475D01*
X142250475Y-83496632D01*
X142412990Y-83253411D01*
X142524932Y-82983158D01*
X142582000Y-82696260D01*
X142582000Y-82403740D01*
X142524932Y-82116842D01*
X142412990Y-81846589D01*
X142250475Y-81603368D01*
X142043632Y-81396525D01*
X141869240Y-81280000D01*
X142043632Y-81163475D01*
X142250475Y-80956632D01*
X142412990Y-80713411D01*
X142524932Y-80443158D01*
X142582000Y-80156260D01*
X142582000Y-79863740D01*
X142524932Y-79576842D01*
X142412990Y-79306589D01*
X142250475Y-79063368D01*
X142043632Y-78856525D01*
X141869240Y-78740000D01*
X142043632Y-78623475D01*
X142250475Y-78416632D01*
X142412990Y-78173411D01*
X142524932Y-77903158D01*
X142582000Y-77616260D01*
X142582000Y-77323740D01*
X142524932Y-77036842D01*
X142412990Y-76766589D01*
X142250475Y-76523368D01*
X142118620Y-76391513D01*
X142191180Y-76369502D01*
X142301494Y-76310537D01*
X142398185Y-76231185D01*
X142477537Y-76134494D01*
X142536502Y-76024180D01*
X142572812Y-75904482D01*
X142585072Y-75780000D01*
X142582000Y-75215750D01*
X142423250Y-75057000D01*
X141224000Y-75057000D01*
X141224000Y-75077000D01*
X140970000Y-75077000D01*
X140970000Y-75057000D01*
X140950000Y-75057000D01*
X140950000Y-74803000D01*
X140970000Y-74803000D01*
X140970000Y-73603750D01*
X141224000Y-73603750D01*
X141224000Y-74803000D01*
X142423250Y-74803000D01*
X142582000Y-74644250D01*
X142585072Y-74080000D01*
X142572812Y-73955518D01*
X142536502Y-73835820D01*
X142477537Y-73725506D01*
X142398185Y-73628815D01*
X142301494Y-73549463D01*
X142191180Y-73490498D01*
X142071482Y-73454188D01*
X141947000Y-73441928D01*
X141382750Y-73445000D01*
X141224000Y-73603750D01*
X140970000Y-73603750D01*
X140811250Y-73445000D01*
X140554999Y-73443605D01*
X140554999Y-72339902D01*
X140558526Y-72310159D01*
X140554999Y-72265225D01*
X140554999Y-72257668D01*
X140552078Y-72228007D01*
X140546811Y-72160911D01*
X140544748Y-72153590D01*
X140544002Y-72146015D01*
X140524457Y-72081584D01*
X140516381Y-72052923D01*
X140513629Y-72045888D01*
X140500545Y-72002754D01*
X140486425Y-71976338D01*
X140093419Y-70971581D01*
X140126405Y-70931387D01*
X140208472Y-70777851D01*
X140259008Y-70611255D01*
X140276072Y-70438001D01*
X140276072Y-69787999D01*
X140259008Y-69614745D01*
X140208472Y-69448149D01*
X140126405Y-69294613D01*
X140015962Y-69160038D01*
X139928184Y-69088000D01*
X140015962Y-69015962D01*
X140126405Y-68881387D01*
X140208472Y-68727851D01*
X140259008Y-68561255D01*
X140276072Y-68388001D01*
X140276072Y-67737999D01*
X140259008Y-67564745D01*
X140208472Y-67398149D01*
X140126405Y-67244613D01*
X140073000Y-67179539D01*
X140073000Y-66612413D01*
X142785192Y-66612413D01*
X142880956Y-66876814D01*
X143170571Y-67017704D01*
X143482108Y-67099384D01*
X143803595Y-67118718D01*
X144122675Y-67074961D01*
X144427088Y-66969795D01*
X144601044Y-66876814D01*
X144696808Y-66612413D01*
X149285192Y-66612413D01*
X149380956Y-66876814D01*
X149670571Y-67017704D01*
X149982108Y-67099384D01*
X150303595Y-67118718D01*
X150622675Y-67074961D01*
X150927088Y-66969795D01*
X151101044Y-66876814D01*
X151196808Y-66612413D01*
X150241000Y-65656605D01*
X149285192Y-66612413D01*
X144696808Y-66612413D01*
X143741000Y-65656605D01*
X142785192Y-66612413D01*
X140073000Y-66612413D01*
X140073000Y-66365248D01*
X140056577Y-66198501D01*
X139991676Y-65984553D01*
X139886284Y-65787377D01*
X139744449Y-65614551D01*
X139571623Y-65472716D01*
X139374446Y-65367324D01*
X139160498Y-65302423D01*
X138938000Y-65280509D01*
X138715501Y-65302423D01*
X138501553Y-65367324D01*
X138304377Y-65472716D01*
X138131551Y-65614551D01*
X137989716Y-65787377D01*
X137884324Y-65984554D01*
X137819423Y-66198502D01*
X137803000Y-66365249D01*
X137803000Y-66810000D01*
X136970280Y-66810000D01*
X136933851Y-66790528D01*
X136767255Y-66739992D01*
X136594001Y-66722928D01*
X135693999Y-66722928D01*
X135634000Y-66728837D01*
X135634000Y-65278296D01*
X136125182Y-64911999D01*
X142198873Y-64911999D01*
X142118616Y-65218108D01*
X142099282Y-65539595D01*
X142143039Y-65858675D01*
X142248205Y-66163088D01*
X142341186Y-66337044D01*
X142605587Y-66432808D01*
X143561395Y-65477000D01*
X143547253Y-65462858D01*
X143726858Y-65283253D01*
X143741000Y-65297395D01*
X143755143Y-65283253D01*
X143934748Y-65462858D01*
X143920605Y-65477000D01*
X144876413Y-66432808D01*
X145140814Y-66337044D01*
X145281704Y-66047429D01*
X145363384Y-65735892D01*
X145382718Y-65414405D01*
X145338961Y-65095325D01*
X145275627Y-64911999D01*
X148698873Y-64911999D01*
X148618616Y-65218108D01*
X148599282Y-65539595D01*
X148643039Y-65858675D01*
X148748205Y-66163088D01*
X148841186Y-66337044D01*
X149105587Y-66432808D01*
X150061395Y-65477000D01*
X150047253Y-65462858D01*
X150226858Y-65283253D01*
X150241000Y-65297395D01*
X150255143Y-65283253D01*
X150434748Y-65462858D01*
X150420605Y-65477000D01*
X151376413Y-66432808D01*
X151640814Y-66337044D01*
X151781704Y-66047429D01*
X151843415Y-65812056D01*
X151871632Y-65953912D01*
X151994882Y-66251463D01*
X152173813Y-66519252D01*
X152401548Y-66746987D01*
X152669337Y-66925918D01*
X152966888Y-67049168D01*
X153282767Y-67112000D01*
X153604833Y-67112000D01*
X153920712Y-67049168D01*
X154218263Y-66925918D01*
X154486052Y-66746987D01*
X154713787Y-66519252D01*
X154892718Y-66251463D01*
X155015968Y-65953912D01*
X155078800Y-65638033D01*
X155078800Y-65315967D01*
X155015968Y-65000088D01*
X154892718Y-64702537D01*
X154713787Y-64434748D01*
X154662741Y-64383702D01*
X158722611Y-64385950D01*
X158673813Y-64434748D01*
X158494882Y-64702537D01*
X158371632Y-65000088D01*
X158308800Y-65315967D01*
X158308800Y-65638033D01*
X158371632Y-65953912D01*
X158494882Y-66251463D01*
X158673813Y-66519252D01*
X158901548Y-66746987D01*
X159169337Y-66925918D01*
X159466888Y-67049168D01*
X159782767Y-67112000D01*
X160104833Y-67112000D01*
X160420712Y-67049168D01*
X160718263Y-66925918D01*
X160986052Y-66746987D01*
X161120626Y-66612413D01*
X162216192Y-66612413D01*
X162311956Y-66876814D01*
X162601571Y-67017704D01*
X162913108Y-67099384D01*
X163234595Y-67118718D01*
X163553675Y-67074961D01*
X163858088Y-66969795D01*
X164032044Y-66876814D01*
X164127808Y-66612413D01*
X168716192Y-66612413D01*
X168811956Y-66876814D01*
X169101571Y-67017704D01*
X169413108Y-67099384D01*
X169734595Y-67118718D01*
X170053675Y-67074961D01*
X170358088Y-66969795D01*
X170532044Y-66876814D01*
X170627808Y-66612413D01*
X169672000Y-65656605D01*
X168716192Y-66612413D01*
X164127808Y-66612413D01*
X163172000Y-65656605D01*
X162216192Y-66612413D01*
X161120626Y-66612413D01*
X161213787Y-66519252D01*
X161392718Y-66251463D01*
X161515968Y-65953912D01*
X161558072Y-65742241D01*
X161574039Y-65858675D01*
X161679205Y-66163088D01*
X161772186Y-66337044D01*
X162036587Y-66432808D01*
X162992395Y-65477000D01*
X162978253Y-65462858D01*
X163157858Y-65283253D01*
X163172000Y-65297395D01*
X163186143Y-65283253D01*
X163365748Y-65462858D01*
X163351605Y-65477000D01*
X164307413Y-66432808D01*
X164571814Y-66337044D01*
X164712704Y-66047429D01*
X164794384Y-65735892D01*
X164813718Y-65414405D01*
X164769961Y-65095325D01*
X164664795Y-64790912D01*
X164571814Y-64616956D01*
X164307415Y-64521193D01*
X164423083Y-64405525D01*
X164406656Y-64389098D01*
X168435114Y-64391328D01*
X168420917Y-64405525D01*
X168536585Y-64521193D01*
X168272186Y-64616956D01*
X168131296Y-64906571D01*
X168049616Y-65218108D01*
X168030282Y-65539595D01*
X168074039Y-65858675D01*
X168179205Y-66163088D01*
X168272186Y-66337044D01*
X168536587Y-66432808D01*
X169492395Y-65477000D01*
X169478253Y-65462858D01*
X169657858Y-65283253D01*
X169672000Y-65297395D01*
X169686143Y-65283253D01*
X169865748Y-65462858D01*
X169851605Y-65477000D01*
X170807413Y-66432808D01*
X171071814Y-66337044D01*
X171212704Y-66047429D01*
X171294384Y-65735892D01*
X171313718Y-65414405D01*
X171269961Y-65095325D01*
X171164795Y-64790912D01*
X171071814Y-64616956D01*
X170807415Y-64521193D01*
X170923083Y-64405525D01*
X170910257Y-64392699D01*
X171375001Y-64392956D01*
X171375000Y-98815791D01*
X170561850Y-98818600D01*
X170403100Y-98977350D01*
X170403100Y-100282547D01*
X170149100Y-100282406D01*
X170149100Y-98977350D01*
X169990350Y-98818600D01*
X169101100Y-98815528D01*
X168976618Y-98827788D01*
X168856920Y-98864098D01*
X168746606Y-98923063D01*
X168649915Y-99002415D01*
X168570563Y-99099106D01*
X168511598Y-99209420D01*
X168475288Y-99329118D01*
X168463028Y-99453600D01*
X168463511Y-100281473D01*
X168129172Y-100281288D01*
X168129172Y-99453600D01*
X168116912Y-99329118D01*
X168080602Y-99209420D01*
X168021637Y-99099106D01*
X167942285Y-99002415D01*
X167845594Y-98923063D01*
X167735280Y-98864098D01*
X167615582Y-98827788D01*
X167491100Y-98815528D01*
X165619898Y-98815528D01*
X165654000Y-98644089D01*
X165654000Y-98459911D01*
X165618068Y-98279271D01*
X165547586Y-98109111D01*
X165445262Y-97955972D01*
X165315028Y-97825738D01*
X165161889Y-97723414D01*
X164991729Y-97652932D01*
X164811089Y-97617000D01*
X164626911Y-97617000D01*
X164598844Y-97622583D01*
X162096923Y-96267378D01*
X162095276Y-96266026D01*
X162030969Y-96231653D01*
X162000148Y-96214958D01*
X161998212Y-96214144D01*
X161963247Y-96195454D01*
X161929354Y-96185173D01*
X161896735Y-96171449D01*
X161857918Y-96163503D01*
X161819986Y-96151997D01*
X161784754Y-96148527D01*
X161750069Y-96141427D01*
X161710437Y-96141207D01*
X161708333Y-96141000D01*
X161673053Y-96141000D01*
X161600365Y-96140597D01*
X161598279Y-96141000D01*
X154626272Y-96141000D01*
X154626272Y-94754000D01*
X154614012Y-94629518D01*
X154577702Y-94509820D01*
X154518737Y-94399506D01*
X154439385Y-94302815D01*
X154342694Y-94223463D01*
X154232380Y-94164498D01*
X154112682Y-94128188D01*
X153988200Y-94115928D01*
X153536572Y-94115928D01*
X153530447Y-94112654D01*
X153387186Y-94069197D01*
X153238200Y-94054523D01*
X153089215Y-94069197D01*
X152945954Y-94112654D01*
X152939829Y-94115928D01*
X152488200Y-94115928D01*
X152363718Y-94128188D01*
X152244020Y-94164498D01*
X152133706Y-94223463D01*
X152037015Y-94302815D01*
X151957663Y-94399506D01*
X151898698Y-94509820D01*
X151862388Y-94629518D01*
X151851755Y-94737483D01*
X151773999Y-94621114D01*
X151581086Y-94428201D01*
X151354243Y-94276629D01*
X151102189Y-94172225D01*
X150834611Y-94119000D01*
X150561789Y-94119000D01*
X150294211Y-94172225D01*
X150042157Y-94276629D01*
X149815314Y-94428201D01*
X149622401Y-94621114D01*
X149470829Y-94847957D01*
X149366425Y-95100011D01*
X149313200Y-95367589D01*
X149313200Y-95640411D01*
X149366425Y-95907989D01*
X149462941Y-96141000D01*
X148806884Y-96141000D01*
X146747622Y-93797702D01*
X166826903Y-93797702D01*
X166898486Y-94041671D01*
X167153996Y-94162571D01*
X167428184Y-94231300D01*
X167710512Y-94245217D01*
X167990130Y-94203787D01*
X168256292Y-94108603D01*
X168381514Y-94041671D01*
X168453097Y-93797702D01*
X167640000Y-92984605D01*
X166826903Y-93797702D01*
X146747622Y-93797702D01*
X145359348Y-92217943D01*
X145320001Y-92169999D01*
X145281061Y-92138042D01*
X145244276Y-92103660D01*
X145223336Y-92090668D01*
X145204276Y-92075026D01*
X145159848Y-92051278D01*
X145117064Y-92024734D01*
X145093994Y-92016078D01*
X145072247Y-92004454D01*
X145024033Y-91989829D01*
X144976899Y-91972144D01*
X144952582Y-91968155D01*
X144928986Y-91960997D01*
X144878854Y-91956059D01*
X144829167Y-91947908D01*
X144767210Y-91950000D01*
X139649614Y-91950000D01*
X139618405Y-91891613D01*
X139507962Y-91757038D01*
X139373387Y-91646595D01*
X139219851Y-91564528D01*
X139053255Y-91513992D01*
X138880001Y-91496928D01*
X137979999Y-91496928D01*
X137856793Y-91509063D01*
X137861586Y-91501889D01*
X137932068Y-91331729D01*
X137968000Y-91151089D01*
X137968000Y-90966911D01*
X137932068Y-90786271D01*
X137861586Y-90616111D01*
X137759262Y-90462972D01*
X137629028Y-90332738D01*
X137475889Y-90230414D01*
X137305729Y-90159932D01*
X137125089Y-90124000D01*
X136940911Y-90124000D01*
X136760271Y-90159932D01*
X136590111Y-90230414D01*
X136436972Y-90332738D01*
X136306738Y-90462972D01*
X136204414Y-90616111D01*
X136133932Y-90786271D01*
X136098000Y-90966911D01*
X136098000Y-91151089D01*
X136133932Y-91331729D01*
X136204414Y-91501889D01*
X136273000Y-91604536D01*
X136273001Y-92184350D01*
X136209180Y-92030273D01*
X136052137Y-91795241D01*
X135852259Y-91595363D01*
X135617227Y-91438320D01*
X135356074Y-91330147D01*
X135078835Y-91275000D01*
X134796165Y-91275000D01*
X134518926Y-91330147D01*
X134257773Y-91438320D01*
X134022741Y-91595363D01*
X133822863Y-91795241D01*
X133665820Y-92030273D01*
X133557647Y-92291426D01*
X133502500Y-92568665D01*
X133502500Y-92851335D01*
X133557647Y-93128574D01*
X133665820Y-93389727D01*
X133822863Y-93624759D01*
X134021461Y-93823357D01*
X134013018Y-93824188D01*
X133893320Y-93860498D01*
X133783006Y-93919463D01*
X133686315Y-93998815D01*
X133606963Y-94095506D01*
X133547998Y-94205820D01*
X133511688Y-94325518D01*
X133499428Y-94450000D01*
X133499428Y-95679467D01*
X132149090Y-96784289D01*
X128637609Y-93272808D01*
X128697353Y-93128574D01*
X128752500Y-92851335D01*
X128752500Y-92568665D01*
X128697353Y-92291426D01*
X128589180Y-92030273D01*
X128432137Y-91795241D01*
X128232259Y-91595363D01*
X127997227Y-91438320D01*
X127736074Y-91330147D01*
X127458835Y-91275000D01*
X127176165Y-91275000D01*
X126898926Y-91330147D01*
X126637773Y-91438320D01*
X126402741Y-91595363D01*
X126202863Y-91795241D01*
X126045820Y-92030273D01*
X125937647Y-92291426D01*
X125882500Y-92568665D01*
X125882500Y-92851335D01*
X125937647Y-93128574D01*
X126045820Y-93389727D01*
X126202863Y-93624759D01*
X126402741Y-93824637D01*
X126635259Y-93980000D01*
X126402741Y-94135363D01*
X126202863Y-94335241D01*
X126045820Y-94570273D01*
X125937647Y-94831426D01*
X125882500Y-95108665D01*
X125882500Y-95391335D01*
X125937647Y-95668574D01*
X126045820Y-95929727D01*
X126202863Y-96164759D01*
X126402741Y-96364637D01*
X126637773Y-96521680D01*
X126898926Y-96629853D01*
X127176165Y-96685000D01*
X127360199Y-96685000D01*
X129491656Y-98816458D01*
X129376618Y-98827788D01*
X129256920Y-98864098D01*
X129146606Y-98923063D01*
X129049915Y-99002415D01*
X128970563Y-99099106D01*
X128911598Y-99209420D01*
X128875288Y-99329118D01*
X128863028Y-99453600D01*
X128863028Y-100259546D01*
X128528702Y-100259361D01*
X128529172Y-99453600D01*
X128516912Y-99329118D01*
X128480602Y-99209420D01*
X128421637Y-99099106D01*
X128342285Y-99002415D01*
X128245594Y-98923063D01*
X128135280Y-98864098D01*
X128015582Y-98827788D01*
X127891100Y-98815528D01*
X127001850Y-98818600D01*
X126843100Y-98977350D01*
X126843100Y-100258428D01*
X126589100Y-100258287D01*
X126589100Y-98977350D01*
X126430350Y-98818600D01*
X125888945Y-98816730D01*
X125835737Y-83673740D01*
X126429400Y-83673740D01*
X126429400Y-83966260D01*
X126486468Y-84253158D01*
X126598410Y-84523411D01*
X126760925Y-84766632D01*
X126967768Y-84973475D01*
X127210989Y-85135990D01*
X127481242Y-85247932D01*
X127768140Y-85305000D01*
X128060660Y-85305000D01*
X128347558Y-85247932D01*
X128617811Y-85135990D01*
X128861032Y-84973475D01*
X129067875Y-84766632D01*
X129184400Y-84592240D01*
X129300925Y-84766632D01*
X129507768Y-84973475D01*
X129750989Y-85135990D01*
X130021242Y-85247932D01*
X130308140Y-85305000D01*
X130600660Y-85305000D01*
X130887558Y-85247932D01*
X131157811Y-85135990D01*
X131401032Y-84973475D01*
X131532887Y-84841620D01*
X131554898Y-84914180D01*
X131613863Y-85024494D01*
X131693215Y-85121185D01*
X131789906Y-85200537D01*
X131900220Y-85259502D01*
X132019918Y-85295812D01*
X132144400Y-85308072D01*
X133844400Y-85308072D01*
X133968882Y-85295812D01*
X134088580Y-85259502D01*
X134198894Y-85200537D01*
X134295585Y-85121185D01*
X134374937Y-85024494D01*
X134433902Y-84914180D01*
X134470212Y-84794482D01*
X134482472Y-84670000D01*
X134482472Y-83404999D01*
X134527198Y-83404999D01*
X136696209Y-85574011D01*
X131787711Y-85574011D01*
X131750388Y-85570335D01*
X131713065Y-85574011D01*
X131713056Y-85574011D01*
X131601403Y-85585008D01*
X131458142Y-85628465D01*
X131326113Y-85699037D01*
X131210388Y-85794010D01*
X131186590Y-85823008D01*
X130608950Y-86400649D01*
X130600660Y-86399000D01*
X130308140Y-86399000D01*
X130021242Y-86456068D01*
X129750989Y-86568010D01*
X129507768Y-86730525D01*
X129300925Y-86937368D01*
X129184400Y-87111760D01*
X129067875Y-86937368D01*
X128861032Y-86730525D01*
X128617811Y-86568010D01*
X128347558Y-86456068D01*
X128060660Y-86399000D01*
X127768140Y-86399000D01*
X127481242Y-86456068D01*
X127210989Y-86568010D01*
X126967768Y-86730525D01*
X126760925Y-86937368D01*
X126598410Y-87180589D01*
X126486468Y-87450842D01*
X126429400Y-87737740D01*
X126429400Y-88030260D01*
X126486468Y-88317158D01*
X126598410Y-88587411D01*
X126760925Y-88830632D01*
X126967768Y-89037475D01*
X127210989Y-89199990D01*
X127481242Y-89311932D01*
X127768140Y-89369000D01*
X128060660Y-89369000D01*
X128347558Y-89311932D01*
X128617811Y-89199990D01*
X128861032Y-89037475D01*
X129067875Y-88830632D01*
X129184400Y-88656240D01*
X129300925Y-88830632D01*
X129507768Y-89037475D01*
X129750989Y-89199990D01*
X130021242Y-89311932D01*
X130308140Y-89369000D01*
X130600660Y-89369000D01*
X130887558Y-89311932D01*
X131157811Y-89199990D01*
X131401032Y-89037475D01*
X131532887Y-88905620D01*
X131554898Y-88978180D01*
X131613863Y-89088494D01*
X131693215Y-89185185D01*
X131789906Y-89264537D01*
X131900220Y-89323502D01*
X132019918Y-89359812D01*
X132144400Y-89372072D01*
X133844400Y-89372072D01*
X133968882Y-89359812D01*
X134088580Y-89323502D01*
X134198894Y-89264537D01*
X134295585Y-89185185D01*
X134374937Y-89088494D01*
X134433902Y-88978180D01*
X134470212Y-88858482D01*
X134482472Y-88734000D01*
X134482472Y-88392000D01*
X140170000Y-88392000D01*
X140170000Y-88792000D01*
X140222350Y-89069514D01*
X140327834Y-89331483D01*
X140482399Y-89567839D01*
X140680105Y-89769500D01*
X140913354Y-89928715D01*
X141173182Y-90039367D01*
X141255961Y-90056904D01*
X141478000Y-89934915D01*
X141478000Y-88392000D01*
X140170000Y-88392000D01*
X134482472Y-88392000D01*
X134482472Y-87094011D01*
X140396176Y-87094011D01*
X140327834Y-87198517D01*
X140222350Y-87460486D01*
X140170000Y-87738000D01*
X140170000Y-88138000D01*
X141478000Y-88138000D01*
X141478000Y-88118000D01*
X141732000Y-88118000D01*
X141732000Y-88138000D01*
X141752000Y-88138000D01*
X141752000Y-88392000D01*
X141732000Y-88392000D01*
X141732000Y-89934915D01*
X141954039Y-90056904D01*
X142036818Y-90039367D01*
X142296646Y-89928715D01*
X142529895Y-89769500D01*
X142718019Y-89577613D01*
X142719188Y-89589482D01*
X142755498Y-89709180D01*
X142814463Y-89819494D01*
X142893815Y-89916185D01*
X142990506Y-89995537D01*
X143100820Y-90054502D01*
X143220518Y-90090812D01*
X143345000Y-90103072D01*
X144945000Y-90103072D01*
X145069482Y-90090812D01*
X145189180Y-90054502D01*
X145299494Y-89995537D01*
X145396185Y-89916185D01*
X145475537Y-89819494D01*
X145534502Y-89709180D01*
X145570812Y-89589482D01*
X145583072Y-89465000D01*
X145583072Y-87493589D01*
X149313200Y-87493589D01*
X149313200Y-87766411D01*
X149366425Y-88033989D01*
X149470829Y-88286043D01*
X149622401Y-88512886D01*
X149815314Y-88705799D01*
X150042157Y-88857371D01*
X150294211Y-88961775D01*
X150561789Y-89015000D01*
X150834611Y-89015000D01*
X150979565Y-88986167D01*
X152212398Y-90219001D01*
X152133706Y-90261063D01*
X152037015Y-90340415D01*
X151957663Y-90437106D01*
X151898698Y-90547420D01*
X151862388Y-90667118D01*
X151851755Y-90775083D01*
X151773999Y-90658714D01*
X151581086Y-90465801D01*
X151354243Y-90314229D01*
X151102189Y-90209825D01*
X150834611Y-90156600D01*
X150561789Y-90156600D01*
X150294211Y-90209825D01*
X150042157Y-90314229D01*
X149815314Y-90465801D01*
X149622401Y-90658714D01*
X149470829Y-90885557D01*
X149366425Y-91137611D01*
X149313200Y-91405189D01*
X149313200Y-91678011D01*
X149366425Y-91945589D01*
X149470829Y-92197643D01*
X149622401Y-92424486D01*
X149815314Y-92617399D01*
X150042157Y-92768971D01*
X150156752Y-92816438D01*
X150158199Y-92818201D01*
X150273924Y-92913174D01*
X150405953Y-92983746D01*
X150549214Y-93027203D01*
X150698200Y-93041877D01*
X150847185Y-93027203D01*
X150990446Y-92983746D01*
X151122475Y-92913174D01*
X151238201Y-92818201D01*
X151239648Y-92816438D01*
X151354243Y-92768971D01*
X151581086Y-92617399D01*
X151773999Y-92424486D01*
X151851755Y-92308117D01*
X151862388Y-92416082D01*
X151898698Y-92535780D01*
X151957663Y-92646094D01*
X152037015Y-92742785D01*
X152133706Y-92822137D01*
X152244020Y-92881102D01*
X152363718Y-92917412D01*
X152488200Y-92929672D01*
X153988200Y-92929672D01*
X154112682Y-92917412D01*
X154232380Y-92881102D01*
X154342694Y-92822137D01*
X154439385Y-92742785D01*
X154518737Y-92646094D01*
X154577702Y-92535780D01*
X154614012Y-92416082D01*
X154626272Y-92291600D01*
X154626272Y-90791600D01*
X154614012Y-90667118D01*
X154577702Y-90547420D01*
X154518737Y-90437106D01*
X154439385Y-90340415D01*
X154342694Y-90261063D01*
X154232380Y-90202098D01*
X154112682Y-90165788D01*
X154000372Y-90154727D01*
X153998200Y-90132676D01*
X153998200Y-90132667D01*
X153987203Y-90021014D01*
X153943746Y-89877753D01*
X153873174Y-89745724D01*
X153843183Y-89709180D01*
X153801999Y-89658996D01*
X153801995Y-89658992D01*
X153778201Y-89629999D01*
X153749208Y-89606205D01*
X153161075Y-89018072D01*
X153551471Y-89018072D01*
X155100215Y-90566817D01*
X155112345Y-90580241D01*
X155126579Y-90593181D01*
X155140197Y-90606799D01*
X155154198Y-90618289D01*
X155657716Y-91076034D01*
X155669999Y-91091001D01*
X155712984Y-91126278D01*
X155726392Y-91138467D01*
X155741847Y-91149965D01*
X155785724Y-91185974D01*
X155801792Y-91194563D01*
X155816406Y-91205435D01*
X155867677Y-91229779D01*
X155917753Y-91256546D01*
X155935187Y-91261835D01*
X155951643Y-91269648D01*
X156006688Y-91283524D01*
X156061014Y-91300003D01*
X156079147Y-91301789D01*
X156096808Y-91306241D01*
X156153490Y-91309111D01*
X156172667Y-91311000D01*
X156190791Y-91311000D01*
X156246324Y-91313812D01*
X156265479Y-91311000D01*
X158224966Y-91311000D01*
X158148329Y-91333486D01*
X158027429Y-91588996D01*
X157958700Y-91863184D01*
X157944783Y-92145512D01*
X157986213Y-92425130D01*
X158081397Y-92691292D01*
X158148329Y-92816514D01*
X158392298Y-92888097D01*
X159205395Y-92075000D01*
X159191253Y-92060858D01*
X159370858Y-91881253D01*
X159385000Y-91895395D01*
X159399143Y-91881253D01*
X159578748Y-92060858D01*
X159564605Y-92075000D01*
X159578748Y-92089143D01*
X159399143Y-92268748D01*
X159385000Y-92254605D01*
X158571903Y-93067702D01*
X158643486Y-93311671D01*
X158898996Y-93432571D01*
X159173184Y-93501300D01*
X159455512Y-93515217D01*
X159735130Y-93473787D01*
X160001292Y-93378603D01*
X160123309Y-93313384D01*
X160133815Y-93326185D01*
X160230506Y-93405537D01*
X160340820Y-93464502D01*
X160460518Y-93500812D01*
X160585000Y-93513072D01*
X162185000Y-93513072D01*
X162309482Y-93500812D01*
X162429180Y-93464502D01*
X162539494Y-93405537D01*
X162636185Y-93326185D01*
X162715537Y-93229494D01*
X162774502Y-93119180D01*
X162810812Y-92999482D01*
X162823021Y-92875512D01*
X166199783Y-92875512D01*
X166241213Y-93155130D01*
X166336397Y-93421292D01*
X166403329Y-93546514D01*
X166647298Y-93618097D01*
X167460395Y-92805000D01*
X167446253Y-92790858D01*
X167625858Y-92611253D01*
X167640000Y-92625395D01*
X167654143Y-92611253D01*
X167833748Y-92790858D01*
X167819605Y-92805000D01*
X168632702Y-93618097D01*
X168876671Y-93546514D01*
X168997571Y-93291004D01*
X169039000Y-93125727D01*
X169039000Y-94323465D01*
X168970414Y-94426111D01*
X168899932Y-94596271D01*
X168864000Y-94776911D01*
X168864000Y-94961089D01*
X168899932Y-95141729D01*
X168970414Y-95311889D01*
X169072738Y-95465028D01*
X169202972Y-95595262D01*
X169356111Y-95697586D01*
X169526271Y-95768068D01*
X169706911Y-95804000D01*
X169891089Y-95804000D01*
X170071729Y-95768068D01*
X170241889Y-95697586D01*
X170395028Y-95595262D01*
X170525262Y-95465028D01*
X170627586Y-95311889D01*
X170698068Y-95141729D01*
X170734000Y-94961089D01*
X170734000Y-94776911D01*
X170698068Y-94596271D01*
X170627586Y-94426111D01*
X170559000Y-94323465D01*
X170559000Y-72663210D01*
X170559915Y-72645141D01*
X170559000Y-72625926D01*
X170559000Y-72606667D01*
X170557224Y-72588640D01*
X170500149Y-71390046D01*
X170714252Y-71246987D01*
X170941987Y-71019252D01*
X171120918Y-70751463D01*
X171244168Y-70453912D01*
X171307000Y-70138033D01*
X171307000Y-69815967D01*
X171244168Y-69500088D01*
X171120918Y-69202537D01*
X170941987Y-68934748D01*
X170714252Y-68707013D01*
X170446463Y-68528082D01*
X170148912Y-68404832D01*
X169833033Y-68342000D01*
X169510967Y-68342000D01*
X169195088Y-68404832D01*
X168897537Y-68528082D01*
X168629748Y-68707013D01*
X168402013Y-68934748D01*
X168223082Y-69202537D01*
X168099832Y-69500088D01*
X168037000Y-69815967D01*
X168037000Y-70138033D01*
X168099832Y-70453912D01*
X168223082Y-70751463D01*
X168402013Y-71019252D01*
X168629748Y-71246987D01*
X168897537Y-71425918D01*
X168981797Y-71460820D01*
X169039001Y-72662105D01*
X169039000Y-89792131D01*
X169029502Y-89760820D01*
X168970537Y-89650506D01*
X168891185Y-89553815D01*
X168794494Y-89474463D01*
X168684180Y-89415498D01*
X168564482Y-89379188D01*
X168440000Y-89366928D01*
X166840000Y-89366928D01*
X166715518Y-89379188D01*
X166595820Y-89415498D01*
X166485506Y-89474463D01*
X166388815Y-89553815D01*
X166309463Y-89650506D01*
X166250498Y-89760820D01*
X166214188Y-89880518D01*
X166201928Y-90005000D01*
X166201928Y-91605000D01*
X166214188Y-91729482D01*
X166250498Y-91849180D01*
X166309463Y-91959494D01*
X166388815Y-92056185D01*
X166401758Y-92066807D01*
X166282429Y-92318996D01*
X166213700Y-92593184D01*
X166199783Y-92875512D01*
X162823021Y-92875512D01*
X162823072Y-92875000D01*
X162823072Y-91275000D01*
X162810812Y-91150518D01*
X162774502Y-91030820D01*
X162715537Y-90920506D01*
X162636185Y-90823815D01*
X162539494Y-90744463D01*
X162429180Y-90685498D01*
X162309482Y-90649188D01*
X162185000Y-90636928D01*
X162175363Y-90636928D01*
X162176216Y-90596290D01*
X162180677Y-90551000D01*
X162174120Y-90484427D01*
X162168965Y-90417771D01*
X162166792Y-90410026D01*
X162166003Y-90402014D01*
X162146582Y-90337992D01*
X162145000Y-90332352D01*
X162145000Y-89423357D01*
X162242962Y-89342962D01*
X162353405Y-89208387D01*
X162435472Y-89054851D01*
X162486008Y-88888255D01*
X162503072Y-88715001D01*
X162503072Y-87814999D01*
X162486008Y-87641745D01*
X162435472Y-87475149D01*
X162353405Y-87321613D01*
X162242962Y-87187038D01*
X162108387Y-87076595D01*
X161954851Y-86994528D01*
X161788255Y-86943992D01*
X161615001Y-86926928D01*
X161026729Y-86926928D01*
X160828794Y-86728992D01*
X160804991Y-86699989D01*
X160689266Y-86605016D01*
X160557237Y-86534444D01*
X160413976Y-86490987D01*
X160302323Y-86479990D01*
X160302312Y-86479990D01*
X160264990Y-86476314D01*
X160227668Y-86479990D01*
X158994277Y-86479990D01*
X159001937Y-81952975D01*
X159002000Y-81952333D01*
X159002000Y-81915595D01*
X159002062Y-81878953D01*
X159002000Y-81878312D01*
X159002000Y-80684454D01*
X159149729Y-80655068D01*
X159319889Y-80584586D01*
X159473028Y-80482262D01*
X159603262Y-80352028D01*
X159705586Y-80198889D01*
X159776068Y-80028729D01*
X159812000Y-79848089D01*
X159812000Y-79663911D01*
X159776068Y-79483271D01*
X159705586Y-79313111D01*
X159603262Y-79159972D01*
X159473028Y-79029738D01*
X159319889Y-78927414D01*
X159149729Y-78856932D01*
X158969089Y-78821000D01*
X158784911Y-78821000D01*
X158604271Y-78856932D01*
X158434111Y-78927414D01*
X158280972Y-79029738D01*
X158150738Y-79159972D01*
X158048414Y-79313111D01*
X157977932Y-79483271D01*
X157973506Y-79505521D01*
X157821945Y-79626770D01*
X157817724Y-79629026D01*
X157763524Y-79673507D01*
X157738080Y-79693862D01*
X157734679Y-79697180D01*
X157701999Y-79723999D01*
X157681213Y-79749327D01*
X157657764Y-79772198D01*
X157633844Y-79807047D01*
X157607026Y-79839725D01*
X157591583Y-79868616D01*
X157573043Y-79895627D01*
X157556382Y-79934473D01*
X157536454Y-79971754D01*
X157526943Y-80003108D01*
X157514031Y-80033212D01*
X157505269Y-80074559D01*
X157492997Y-80115015D01*
X157489785Y-80147625D01*
X157482995Y-80179667D01*
X157482467Y-80221922D01*
X157482000Y-80226668D01*
X157482000Y-80259358D01*
X157481126Y-80329361D01*
X157482000Y-80334061D01*
X157482001Y-81914219D01*
X157473690Y-86826124D01*
X157470010Y-86868572D01*
X157477654Y-86937858D01*
X157484380Y-87007352D01*
X157485864Y-87012275D01*
X157486427Y-87017376D01*
X157507450Y-87083870D01*
X157527595Y-87150686D01*
X157530008Y-87155219D01*
X157531557Y-87160118D01*
X157565174Y-87221278D01*
X157597944Y-87282835D01*
X157601195Y-87286810D01*
X157603670Y-87291313D01*
X157648564Y-87344728D01*
X157692721Y-87398720D01*
X157725616Y-87425810D01*
X158028087Y-87721282D01*
X158030000Y-87979250D01*
X158188750Y-88138000D01*
X159113000Y-88138000D01*
X159113000Y-88118000D01*
X159367000Y-88118000D01*
X159367000Y-88138000D01*
X159387000Y-88138000D01*
X159387000Y-88392000D01*
X159367000Y-88392000D01*
X159367000Y-89441250D01*
X159525750Y-89600000D01*
X159815000Y-89603072D01*
X159939482Y-89590812D01*
X160059180Y-89554502D01*
X160169494Y-89495537D01*
X160266185Y-89416185D01*
X160331658Y-89336406D01*
X160337038Y-89342962D01*
X160471613Y-89453405D01*
X160625001Y-89535393D01*
X160625001Y-89791000D01*
X156503820Y-89791000D01*
X156175815Y-89492813D01*
X155648002Y-88965000D01*
X158026928Y-88965000D01*
X158039188Y-89089482D01*
X158075498Y-89209180D01*
X158134463Y-89319494D01*
X158213815Y-89416185D01*
X158310506Y-89495537D01*
X158420820Y-89554502D01*
X158540518Y-89590812D01*
X158665000Y-89603072D01*
X158954250Y-89600000D01*
X159113000Y-89441250D01*
X159113000Y-88392000D01*
X158188750Y-88392000D01*
X158030000Y-88550750D01*
X158026928Y-88965000D01*
X155648002Y-88965000D01*
X154626272Y-87943271D01*
X154626272Y-86880000D01*
X154614012Y-86755518D01*
X154577702Y-86635820D01*
X154518737Y-86525506D01*
X154439385Y-86428815D01*
X154342694Y-86349463D01*
X154232380Y-86290498D01*
X154112682Y-86254188D01*
X153988200Y-86241928D01*
X152488200Y-86241928D01*
X152363718Y-86254188D01*
X152244020Y-86290498D01*
X152133706Y-86349463D01*
X152037015Y-86428815D01*
X151957663Y-86525506D01*
X151898698Y-86635820D01*
X151862388Y-86755518D01*
X151851755Y-86863483D01*
X151773999Y-86747114D01*
X151581086Y-86554201D01*
X151354243Y-86402629D01*
X151102189Y-86298225D01*
X150834611Y-86245000D01*
X150561789Y-86245000D01*
X150294211Y-86298225D01*
X150042157Y-86402629D01*
X149815314Y-86554201D01*
X149622401Y-86747114D01*
X149470829Y-86973957D01*
X149366425Y-87226011D01*
X149313200Y-87493589D01*
X145583072Y-87493589D01*
X145583072Y-87065000D01*
X145570812Y-86940518D01*
X145534502Y-86820820D01*
X145475537Y-86710506D01*
X145396185Y-86613815D01*
X145299494Y-86534463D01*
X145189180Y-86475498D01*
X145069482Y-86439188D01*
X144945000Y-86426928D01*
X144454373Y-86426928D01*
X149666090Y-81215212D01*
X149688494Y-81197701D01*
X149718883Y-81162419D01*
X149725299Y-81156003D01*
X149743267Y-81134109D01*
X149786195Y-81084269D01*
X149790684Y-81076331D01*
X149796474Y-81069276D01*
X149827507Y-81011218D01*
X149859889Y-80953958D01*
X149862743Y-80945297D01*
X149867046Y-80937247D01*
X149886158Y-80874243D01*
X149906744Y-80811772D01*
X149907854Y-80802719D01*
X149910503Y-80793986D01*
X149916954Y-80728488D01*
X149920396Y-80700412D01*
X149920612Y-80691352D01*
X149925177Y-80645000D01*
X149922389Y-80616696D01*
X149963215Y-78902016D01*
X150460847Y-79399649D01*
X150484932Y-79520729D01*
X150555414Y-79690889D01*
X150657738Y-79844028D01*
X150787972Y-79974262D01*
X150941111Y-80076586D01*
X151111271Y-80147068D01*
X151291911Y-80183000D01*
X151476089Y-80183000D01*
X151656729Y-80147068D01*
X151826889Y-80076586D01*
X151980028Y-79974262D01*
X152110262Y-79844028D01*
X152212586Y-79690889D01*
X152283068Y-79520729D01*
X152319000Y-79340089D01*
X152319000Y-79155911D01*
X152283068Y-78975271D01*
X152212586Y-78805111D01*
X152110262Y-78651972D01*
X151980028Y-78521738D01*
X151826889Y-78419414D01*
X151656729Y-78348932D01*
X151535649Y-78324847D01*
X151001000Y-77790199D01*
X151001000Y-71431909D01*
X151015463Y-71425918D01*
X151283252Y-71246987D01*
X151417826Y-71112413D01*
X152487992Y-71112413D01*
X152583756Y-71376814D01*
X152873371Y-71517704D01*
X153184908Y-71599384D01*
X153506395Y-71618718D01*
X153825475Y-71574961D01*
X154129888Y-71469795D01*
X154303844Y-71376814D01*
X154399608Y-71112413D01*
X158987992Y-71112413D01*
X159083756Y-71376814D01*
X159373371Y-71517704D01*
X159684908Y-71599384D01*
X160006395Y-71618718D01*
X160325475Y-71574961D01*
X160629888Y-71469795D01*
X160803844Y-71376814D01*
X160899608Y-71112413D01*
X159943800Y-70156605D01*
X158987992Y-71112413D01*
X154399608Y-71112413D01*
X153443800Y-70156605D01*
X152487992Y-71112413D01*
X151417826Y-71112413D01*
X151510987Y-71019252D01*
X151689918Y-70751463D01*
X151813168Y-70453912D01*
X151840237Y-70317826D01*
X151845839Y-70358675D01*
X151951005Y-70663088D01*
X152043986Y-70837044D01*
X152308387Y-70932808D01*
X153264195Y-69977000D01*
X153623405Y-69977000D01*
X154579213Y-70932808D01*
X154843614Y-70837044D01*
X154984504Y-70547429D01*
X155066184Y-70235892D01*
X155077989Y-70039595D01*
X158302082Y-70039595D01*
X158345839Y-70358675D01*
X158451005Y-70663088D01*
X158543986Y-70837044D01*
X158808387Y-70932808D01*
X159764195Y-69977000D01*
X160123405Y-69977000D01*
X161079213Y-70932808D01*
X161343614Y-70837044D01*
X161484504Y-70547429D01*
X161560658Y-70256969D01*
X161599832Y-70453912D01*
X161723082Y-70751463D01*
X161902013Y-71019252D01*
X162129748Y-71246987D01*
X162397537Y-71425918D01*
X162695088Y-71549168D01*
X163010967Y-71612000D01*
X163333033Y-71612000D01*
X163648912Y-71549168D01*
X163946463Y-71425918D01*
X164214252Y-71246987D01*
X164441987Y-71019252D01*
X164620918Y-70751463D01*
X164744168Y-70453912D01*
X164807000Y-70138033D01*
X164807000Y-69815967D01*
X164744168Y-69500088D01*
X164620918Y-69202537D01*
X164441987Y-68934748D01*
X164214252Y-68707013D01*
X163946463Y-68528082D01*
X163648912Y-68404832D01*
X163333033Y-68342000D01*
X163010967Y-68342000D01*
X162695088Y-68404832D01*
X162397537Y-68528082D01*
X162129748Y-68707013D01*
X161902013Y-68934748D01*
X161723082Y-69202537D01*
X161599832Y-69500088D01*
X161557728Y-69711759D01*
X161541761Y-69595325D01*
X161436595Y-69290912D01*
X161343614Y-69116956D01*
X161079213Y-69021192D01*
X160123405Y-69977000D01*
X159764195Y-69977000D01*
X158808387Y-69021192D01*
X158543986Y-69116956D01*
X158403096Y-69406571D01*
X158321416Y-69718108D01*
X158302082Y-70039595D01*
X155077989Y-70039595D01*
X155085518Y-69914405D01*
X155041761Y-69595325D01*
X154936595Y-69290912D01*
X154843614Y-69116956D01*
X154579213Y-69021192D01*
X153623405Y-69977000D01*
X153264195Y-69977000D01*
X152308387Y-69021192D01*
X152043986Y-69116956D01*
X151903096Y-69406571D01*
X151841385Y-69641944D01*
X151813168Y-69500088D01*
X151689918Y-69202537D01*
X151510987Y-68934748D01*
X151417826Y-68841587D01*
X152487992Y-68841587D01*
X153443800Y-69797395D01*
X154399608Y-68841587D01*
X158987992Y-68841587D01*
X159943800Y-69797395D01*
X160899608Y-68841587D01*
X160803844Y-68577186D01*
X160514229Y-68436296D01*
X160202692Y-68354616D01*
X159881205Y-68335282D01*
X159562125Y-68379039D01*
X159257712Y-68484205D01*
X159083756Y-68577186D01*
X158987992Y-68841587D01*
X154399608Y-68841587D01*
X154303844Y-68577186D01*
X154014229Y-68436296D01*
X153702692Y-68354616D01*
X153381205Y-68335282D01*
X153062125Y-68379039D01*
X152757712Y-68484205D01*
X152583756Y-68577186D01*
X152487992Y-68841587D01*
X151417826Y-68841587D01*
X151283252Y-68707013D01*
X151015463Y-68528082D01*
X150717912Y-68404832D01*
X150402033Y-68342000D01*
X150079967Y-68342000D01*
X149764088Y-68404832D01*
X149466537Y-68528082D01*
X149198748Y-68707013D01*
X148971013Y-68934748D01*
X148792082Y-69202537D01*
X148786091Y-69217000D01*
X145195909Y-69217000D01*
X145189918Y-69202537D01*
X145010987Y-68934748D01*
X144783252Y-68707013D01*
X144515463Y-68528082D01*
X144217912Y-68404832D01*
X143902033Y-68342000D01*
X143579967Y-68342000D01*
X143264088Y-68404832D01*
X142966537Y-68528082D01*
X142698748Y-68707013D01*
X142471013Y-68934748D01*
X142292082Y-69202537D01*
X142168832Y-69500088D01*
X142106000Y-69815967D01*
X142106000Y-70138033D01*
X142168832Y-70453912D01*
X142292082Y-70751463D01*
X142471013Y-71019252D01*
X142698748Y-71246987D01*
X142966537Y-71425918D01*
X143264088Y-71549168D01*
X143579967Y-71612000D01*
X143902033Y-71612000D01*
X144217912Y-71549168D01*
X144515463Y-71425918D01*
X144783252Y-71246987D01*
X145010987Y-71019252D01*
X145189918Y-70751463D01*
X145195909Y-70737000D01*
X148786091Y-70737000D01*
X148792082Y-70751463D01*
X148971013Y-71019252D01*
X149198748Y-71246987D01*
X149466537Y-71425918D01*
X149481000Y-71431909D01*
X149481001Y-77075605D01*
X149317089Y-77043000D01*
X149132911Y-77043000D01*
X148952271Y-77078932D01*
X148782111Y-77149414D01*
X148628972Y-77251738D01*
X148498738Y-77381972D01*
X148396414Y-77535111D01*
X148325932Y-77705271D01*
X148290000Y-77885911D01*
X148290000Y-78070089D01*
X148325932Y-78250729D01*
X148396414Y-78420889D01*
X148452250Y-78504454D01*
X148408958Y-80322740D01*
X146585853Y-82145845D01*
X146585853Y-77500477D01*
X146654439Y-77397831D01*
X146724921Y-77227671D01*
X146760853Y-77047031D01*
X146760853Y-76862853D01*
X146724921Y-76682213D01*
X146654439Y-76512053D01*
X146552115Y-76358914D01*
X146421881Y-76228680D01*
X146268742Y-76126356D01*
X146098582Y-76055874D01*
X145917942Y-76019942D01*
X145733764Y-76019942D01*
X145553124Y-76055874D01*
X145382964Y-76126356D01*
X145229825Y-76228680D01*
X145099591Y-76358914D01*
X144997267Y-76512053D01*
X144926785Y-76682213D01*
X144890853Y-76862853D01*
X144890853Y-77047031D01*
X144926785Y-77227671D01*
X144997267Y-77397831D01*
X145065854Y-77500479D01*
X145065853Y-82332345D01*
X142687199Y-84711000D01*
X137982802Y-84711000D01*
X135405803Y-82134002D01*
X135382000Y-82104998D01*
X135266275Y-82010025D01*
X135134246Y-81939453D01*
X134990985Y-81895996D01*
X134879332Y-81884999D01*
X134879321Y-81884999D01*
X134841999Y-81881323D01*
X134804677Y-81884999D01*
X131666723Y-81884999D01*
X131629400Y-81881323D01*
X131592077Y-81884999D01*
X131592068Y-81884999D01*
X131480415Y-81895996D01*
X131337154Y-81939453D01*
X131205125Y-82010025D01*
X131089400Y-82104998D01*
X131065602Y-82133996D01*
X130820808Y-82378790D01*
X130600660Y-82335000D01*
X130308140Y-82335000D01*
X130021242Y-82392068D01*
X129750989Y-82504010D01*
X129507768Y-82666525D01*
X129300925Y-82873368D01*
X129184400Y-83047760D01*
X129067875Y-82873368D01*
X128861032Y-82666525D01*
X128617811Y-82504010D01*
X128347558Y-82392068D01*
X128060660Y-82335000D01*
X127768140Y-82335000D01*
X127481242Y-82392068D01*
X127210989Y-82504010D01*
X126967768Y-82666525D01*
X126760925Y-82873368D01*
X126598410Y-83116589D01*
X126486468Y-83386842D01*
X126429400Y-83673740D01*
X125835737Y-83673740D01*
X125805000Y-74926038D01*
X125805000Y-66890000D01*
X128051928Y-66890000D01*
X128064188Y-67014482D01*
X128100498Y-67134180D01*
X128159463Y-67244494D01*
X128238815Y-67341185D01*
X128335506Y-67420537D01*
X128445820Y-67479502D01*
X128518380Y-67501513D01*
X128386525Y-67633368D01*
X128224010Y-67876589D01*
X128112068Y-68146842D01*
X128055000Y-68433740D01*
X128055000Y-68726260D01*
X128112068Y-69013158D01*
X128224010Y-69283411D01*
X128386525Y-69526632D01*
X128593368Y-69733475D01*
X128767760Y-69850000D01*
X128593368Y-69966525D01*
X128386525Y-70173368D01*
X128224010Y-70416589D01*
X128112068Y-70686842D01*
X128055000Y-70973740D01*
X128055000Y-71266260D01*
X128112068Y-71553158D01*
X128224010Y-71823411D01*
X128386525Y-72066632D01*
X128593368Y-72273475D01*
X128767760Y-72390000D01*
X128593368Y-72506525D01*
X128386525Y-72713368D01*
X128224010Y-72956589D01*
X128112068Y-73226842D01*
X128055000Y-73513740D01*
X128055000Y-73806260D01*
X128112068Y-74093158D01*
X128224010Y-74363411D01*
X128386525Y-74606632D01*
X128593368Y-74813475D01*
X128767760Y-74930000D01*
X128593368Y-75046525D01*
X128386525Y-75253368D01*
X128224010Y-75496589D01*
X128112068Y-75766842D01*
X128055000Y-76053740D01*
X128055000Y-76346260D01*
X128112068Y-76633158D01*
X128224010Y-76903411D01*
X128386525Y-77146632D01*
X128593368Y-77353475D01*
X128767760Y-77470000D01*
X128593368Y-77586525D01*
X128386525Y-77793368D01*
X128224010Y-78036589D01*
X128112068Y-78306842D01*
X128055000Y-78593740D01*
X128055000Y-78886260D01*
X128112068Y-79173158D01*
X128224010Y-79443411D01*
X128386525Y-79686632D01*
X128593368Y-79893475D01*
X128836589Y-80055990D01*
X129106842Y-80167932D01*
X129393740Y-80225000D01*
X129686260Y-80225000D01*
X129973158Y-80167932D01*
X130243411Y-80055990D01*
X130486632Y-79893475D01*
X130693475Y-79686632D01*
X130855990Y-79443411D01*
X130967932Y-79173158D01*
X131025000Y-78886260D01*
X131025000Y-78593740D01*
X130967932Y-78306842D01*
X130855990Y-78036589D01*
X130693475Y-77793368D01*
X130486632Y-77586525D01*
X130312240Y-77470000D01*
X130486632Y-77353475D01*
X130693475Y-77146632D01*
X130855990Y-76903411D01*
X130967932Y-76633158D01*
X131025000Y-76346260D01*
X131025000Y-76053740D01*
X130967932Y-75766842D01*
X130855990Y-75496589D01*
X130693475Y-75253368D01*
X130486632Y-75046525D01*
X130312240Y-74930000D01*
X130486632Y-74813475D01*
X130693475Y-74606632D01*
X130855990Y-74363411D01*
X130967932Y-74093158D01*
X131025000Y-73806260D01*
X131025000Y-73513740D01*
X130967932Y-73226842D01*
X130855990Y-72956589D01*
X130693475Y-72713368D01*
X130486632Y-72506525D01*
X130312240Y-72390000D01*
X130486632Y-72273475D01*
X130693475Y-72066632D01*
X130855990Y-71823411D01*
X130967932Y-71553158D01*
X131025000Y-71266260D01*
X131025000Y-70973740D01*
X130967932Y-70686842D01*
X130855990Y-70416589D01*
X130693475Y-70173368D01*
X130486632Y-69966525D01*
X130312240Y-69850000D01*
X130486632Y-69733475D01*
X130693475Y-69526632D01*
X130855990Y-69283411D01*
X130967932Y-69013158D01*
X131025000Y-68726260D01*
X131025000Y-68433740D01*
X130967932Y-68146842D01*
X130855990Y-67876589D01*
X130693475Y-67633368D01*
X130561620Y-67501513D01*
X130634180Y-67479502D01*
X130744494Y-67420537D01*
X130841185Y-67341185D01*
X130920537Y-67244494D01*
X130979502Y-67134180D01*
X131015812Y-67014482D01*
X131028072Y-66890000D01*
X131025000Y-66325750D01*
X130866250Y-66167000D01*
X129667000Y-66167000D01*
X129667000Y-66187000D01*
X129413000Y-66187000D01*
X129413000Y-66167000D01*
X128213750Y-66167000D01*
X128055000Y-66325750D01*
X128051928Y-66890000D01*
X125805000Y-66890000D01*
X125805000Y-65190000D01*
X128051928Y-65190000D01*
X128055000Y-65754250D01*
X128213750Y-65913000D01*
X129413000Y-65913000D01*
X129413000Y-64713750D01*
X129667000Y-64713750D01*
X129667000Y-65913000D01*
X130866250Y-65913000D01*
X131025000Y-65754250D01*
X131028072Y-65190000D01*
X131015812Y-65065518D01*
X130979502Y-64945820D01*
X130920537Y-64835506D01*
X130841185Y-64738815D01*
X130744494Y-64659463D01*
X130634180Y-64600498D01*
X130514482Y-64564188D01*
X130390000Y-64551928D01*
X129825750Y-64555000D01*
X129667000Y-64713750D01*
X129413000Y-64713750D01*
X129254250Y-64555000D01*
X128690000Y-64551928D01*
X128565518Y-64564188D01*
X128445820Y-64600498D01*
X128335506Y-64659463D01*
X128238815Y-64738815D01*
X128159463Y-64835506D01*
X128100498Y-64945820D01*
X128064188Y-65065518D01*
X128051928Y-65190000D01*
X125805000Y-65190000D01*
X125805000Y-64367724D01*
X134321291Y-64372439D01*
G37*
X134321291Y-64372439D02*
X134306803Y-64385640D01*
X134274039Y-64430061D01*
X134239026Y-64472725D01*
X134229694Y-64490184D01*
X134217939Y-64506121D01*
X134194473Y-64556077D01*
X134168454Y-64604754D01*
X134162706Y-64623705D01*
X134154289Y-64641622D01*
X134141022Y-64695186D01*
X134124997Y-64748015D01*
X134123056Y-64767725D01*
X134118297Y-64786938D01*
X134115735Y-64842055D01*
X134114000Y-64859668D01*
X134114000Y-64879371D01*
X134111345Y-64936483D01*
X134114000Y-64954063D01*
X134114001Y-69042400D01*
X134110503Y-69071447D01*
X134114001Y-69117085D01*
X134114001Y-69125333D01*
X134116851Y-69154274D01*
X134121944Y-69220715D01*
X134124184Y-69228719D01*
X134124998Y-69236986D01*
X134144334Y-69300728D01*
X134162286Y-69364884D01*
X134166043Y-69372294D01*
X134168455Y-69380247D01*
X134199845Y-69438972D01*
X134229978Y-69498413D01*
X134235114Y-69504955D01*
X134239027Y-69512276D01*
X134281258Y-69563735D01*
X134322421Y-69616169D01*
X134328731Y-69621580D01*
X134334000Y-69628001D01*
X134385483Y-69670252D01*
X134407585Y-69689207D01*
X134414350Y-69693942D01*
X134449725Y-69722974D01*
X134475522Y-69736763D01*
X134805928Y-69968047D01*
X134805928Y-70311001D01*
X134822992Y-70484255D01*
X134873528Y-70650851D01*
X134955595Y-70804387D01*
X135066038Y-70938962D01*
X135200613Y-71049405D01*
X135354149Y-71131472D01*
X135384000Y-71140527D01*
X135384001Y-79491251D01*
X135382189Y-79555339D01*
X135390266Y-79602940D01*
X135394998Y-79650986D01*
X135402760Y-79676574D01*
X135407233Y-79702936D01*
X135424439Y-79748040D01*
X135438455Y-79794247D01*
X135451061Y-79817831D01*
X135460590Y-79842811D01*
X135486270Y-79883701D01*
X135509027Y-79926276D01*
X135525985Y-79946939D01*
X135540210Y-79969590D01*
X135573378Y-80004688D01*
X135604000Y-80042001D01*
X135624670Y-80058964D01*
X135643035Y-80078398D01*
X135682402Y-80106344D01*
X135719725Y-80136974D01*
X135776263Y-80167195D01*
X136600353Y-80638104D01*
X136608724Y-80644974D01*
X136665253Y-80675190D01*
X136688348Y-80688387D01*
X136698171Y-80692785D01*
X136740753Y-80715546D01*
X136766347Y-80723310D01*
X136790746Y-80734234D01*
X136837808Y-80744987D01*
X136884014Y-80759003D01*
X136910624Y-80761624D01*
X136936692Y-80767580D01*
X136984949Y-80768944D01*
X136995667Y-80770000D01*
X137022285Y-80770000D01*
X137086339Y-80771811D01*
X137097012Y-80770000D01*
X137278822Y-80770000D01*
X137403525Y-80956632D01*
X137610368Y-81163475D01*
X137784760Y-81280000D01*
X137610368Y-81396525D01*
X137403525Y-81603368D01*
X137241010Y-81846589D01*
X137129068Y-82116842D01*
X137072000Y-82403740D01*
X137072000Y-82696260D01*
X137129068Y-82983158D01*
X137241010Y-83253411D01*
X137403525Y-83496632D01*
X137610368Y-83703475D01*
X137853589Y-83865990D01*
X138123842Y-83977932D01*
X138410740Y-84035000D01*
X138703260Y-84035000D01*
X138990158Y-83977932D01*
X139260411Y-83865990D01*
X139503632Y-83703475D01*
X139710475Y-83496632D01*
X139827000Y-83322240D01*
X139943525Y-83496632D01*
X140150368Y-83703475D01*
X140393589Y-83865990D01*
X140663842Y-83977932D01*
X140950740Y-84035000D01*
X141243260Y-84035000D01*
X141530158Y-83977932D01*
X141800411Y-83865990D01*
X142043632Y-83703475D01*
X142250475Y-83496632D01*
X142412990Y-83253411D01*
X142524932Y-82983158D01*
X142582000Y-82696260D01*
X142582000Y-82403740D01*
X142524932Y-82116842D01*
X142412990Y-81846589D01*
X142250475Y-81603368D01*
X142043632Y-81396525D01*
X141869240Y-81280000D01*
X142043632Y-81163475D01*
X142250475Y-80956632D01*
X142412990Y-80713411D01*
X142524932Y-80443158D01*
X142582000Y-80156260D01*
X142582000Y-79863740D01*
X142524932Y-79576842D01*
X142412990Y-79306589D01*
X142250475Y-79063368D01*
X142043632Y-78856525D01*
X141869240Y-78740000D01*
X142043632Y-78623475D01*
X142250475Y-78416632D01*
X142412990Y-78173411D01*
X142524932Y-77903158D01*
X142582000Y-77616260D01*
X142582000Y-77323740D01*
X142524932Y-77036842D01*
X142412990Y-76766589D01*
X142250475Y-76523368D01*
X142118620Y-76391513D01*
X142191180Y-76369502D01*
X142301494Y-76310537D01*
X142398185Y-76231185D01*
X142477537Y-76134494D01*
X142536502Y-76024180D01*
X142572812Y-75904482D01*
X142585072Y-75780000D01*
X142582000Y-75215750D01*
X142423250Y-75057000D01*
X141224000Y-75057000D01*
X141224000Y-75077000D01*
X140970000Y-75077000D01*
X140970000Y-75057000D01*
X140950000Y-75057000D01*
X140950000Y-74803000D01*
X140970000Y-74803000D01*
X140970000Y-73603750D01*
X141224000Y-73603750D01*
X141224000Y-74803000D01*
X142423250Y-74803000D01*
X142582000Y-74644250D01*
X142585072Y-74080000D01*
X142572812Y-73955518D01*
X142536502Y-73835820D01*
X142477537Y-73725506D01*
X142398185Y-73628815D01*
X142301494Y-73549463D01*
X142191180Y-73490498D01*
X142071482Y-73454188D01*
X141947000Y-73441928D01*
X141382750Y-73445000D01*
X141224000Y-73603750D01*
X140970000Y-73603750D01*
X140811250Y-73445000D01*
X140554999Y-73443605D01*
X140554999Y-72339902D01*
X140558526Y-72310159D01*
X140554999Y-72265225D01*
X140554999Y-72257668D01*
X140552078Y-72228007D01*
X140546811Y-72160911D01*
X140544748Y-72153590D01*
X140544002Y-72146015D01*
X140524457Y-72081584D01*
X140516381Y-72052923D01*
X140513629Y-72045888D01*
X140500545Y-72002754D01*
X140486425Y-71976338D01*
X140093419Y-70971581D01*
X140126405Y-70931387D01*
X140208472Y-70777851D01*
X140259008Y-70611255D01*
X140276072Y-70438001D01*
X140276072Y-69787999D01*
X140259008Y-69614745D01*
X140208472Y-69448149D01*
X140126405Y-69294613D01*
X140015962Y-69160038D01*
X139928184Y-69088000D01*
X140015962Y-69015962D01*
X140126405Y-68881387D01*
X140208472Y-68727851D01*
X140259008Y-68561255D01*
X140276072Y-68388001D01*
X140276072Y-67737999D01*
X140259008Y-67564745D01*
X140208472Y-67398149D01*
X140126405Y-67244613D01*
X140073000Y-67179539D01*
X140073000Y-66612413D01*
X142785192Y-66612413D01*
X142880956Y-66876814D01*
X143170571Y-67017704D01*
X143482108Y-67099384D01*
X143803595Y-67118718D01*
X144122675Y-67074961D01*
X144427088Y-66969795D01*
X144601044Y-66876814D01*
X144696808Y-66612413D01*
X149285192Y-66612413D01*
X149380956Y-66876814D01*
X149670571Y-67017704D01*
X149982108Y-67099384D01*
X150303595Y-67118718D01*
X150622675Y-67074961D01*
X150927088Y-66969795D01*
X151101044Y-66876814D01*
X151196808Y-66612413D01*
X150241000Y-65656605D01*
X149285192Y-66612413D01*
X144696808Y-66612413D01*
X143741000Y-65656605D01*
X142785192Y-66612413D01*
X140073000Y-66612413D01*
X140073000Y-66365248D01*
X140056577Y-66198501D01*
X139991676Y-65984553D01*
X139886284Y-65787377D01*
X139744449Y-65614551D01*
X139571623Y-65472716D01*
X139374446Y-65367324D01*
X139160498Y-65302423D01*
X138938000Y-65280509D01*
X138715501Y-65302423D01*
X138501553Y-65367324D01*
X138304377Y-65472716D01*
X138131551Y-65614551D01*
X137989716Y-65787377D01*
X137884324Y-65984554D01*
X137819423Y-66198502D01*
X137803000Y-66365249D01*
X137803000Y-66810000D01*
X136970280Y-66810000D01*
X136933851Y-66790528D01*
X136767255Y-66739992D01*
X136594001Y-66722928D01*
X135693999Y-66722928D01*
X135634000Y-66728837D01*
X135634000Y-65278296D01*
X136125182Y-64911999D01*
X142198873Y-64911999D01*
X142118616Y-65218108D01*
X142099282Y-65539595D01*
X142143039Y-65858675D01*
X142248205Y-66163088D01*
X142341186Y-66337044D01*
X142605587Y-66432808D01*
X143561395Y-65477000D01*
X143547253Y-65462858D01*
X143726858Y-65283253D01*
X143741000Y-65297395D01*
X143755143Y-65283253D01*
X143934748Y-65462858D01*
X143920605Y-65477000D01*
X144876413Y-66432808D01*
X145140814Y-66337044D01*
X145281704Y-66047429D01*
X145363384Y-65735892D01*
X145382718Y-65414405D01*
X145338961Y-65095325D01*
X145275627Y-64911999D01*
X148698873Y-64911999D01*
X148618616Y-65218108D01*
X148599282Y-65539595D01*
X148643039Y-65858675D01*
X148748205Y-66163088D01*
X148841186Y-66337044D01*
X149105587Y-66432808D01*
X150061395Y-65477000D01*
X150047253Y-65462858D01*
X150226858Y-65283253D01*
X150241000Y-65297395D01*
X150255143Y-65283253D01*
X150434748Y-65462858D01*
X150420605Y-65477000D01*
X151376413Y-66432808D01*
X151640814Y-66337044D01*
X151781704Y-66047429D01*
X151843415Y-65812056D01*
X151871632Y-65953912D01*
X151994882Y-66251463D01*
X152173813Y-66519252D01*
X152401548Y-66746987D01*
X152669337Y-66925918D01*
X152966888Y-67049168D01*
X153282767Y-67112000D01*
X153604833Y-67112000D01*
X153920712Y-67049168D01*
X154218263Y-66925918D01*
X154486052Y-66746987D01*
X154713787Y-66519252D01*
X154892718Y-66251463D01*
X155015968Y-65953912D01*
X155078800Y-65638033D01*
X155078800Y-65315967D01*
X155015968Y-65000088D01*
X154892718Y-64702537D01*
X154713787Y-64434748D01*
X154662741Y-64383702D01*
X158722611Y-64385950D01*
X158673813Y-64434748D01*
X158494882Y-64702537D01*
X158371632Y-65000088D01*
X158308800Y-65315967D01*
X158308800Y-65638033D01*
X158371632Y-65953912D01*
X158494882Y-66251463D01*
X158673813Y-66519252D01*
X158901548Y-66746987D01*
X159169337Y-66925918D01*
X159466888Y-67049168D01*
X159782767Y-67112000D01*
X160104833Y-67112000D01*
X160420712Y-67049168D01*
X160718263Y-66925918D01*
X160986052Y-66746987D01*
X161120626Y-66612413D01*
X162216192Y-66612413D01*
X162311956Y-66876814D01*
X162601571Y-67017704D01*
X162913108Y-67099384D01*
X163234595Y-67118718D01*
X163553675Y-67074961D01*
X163858088Y-66969795D01*
X164032044Y-66876814D01*
X164127808Y-66612413D01*
X168716192Y-66612413D01*
X168811956Y-66876814D01*
X169101571Y-67017704D01*
X169413108Y-67099384D01*
X169734595Y-67118718D01*
X170053675Y-67074961D01*
X170358088Y-66969795D01*
X170532044Y-66876814D01*
X170627808Y-66612413D01*
X169672000Y-65656605D01*
X168716192Y-66612413D01*
X164127808Y-66612413D01*
X163172000Y-65656605D01*
X162216192Y-66612413D01*
X161120626Y-66612413D01*
X161213787Y-66519252D01*
X161392718Y-66251463D01*
X161515968Y-65953912D01*
X161558072Y-65742241D01*
X161574039Y-65858675D01*
X161679205Y-66163088D01*
X161772186Y-66337044D01*
X162036587Y-66432808D01*
X162992395Y-65477000D01*
X162978253Y-65462858D01*
X163157858Y-65283253D01*
X163172000Y-65297395D01*
X163186143Y-65283253D01*
X163365748Y-65462858D01*
X163351605Y-65477000D01*
X164307413Y-66432808D01*
X164571814Y-66337044D01*
X164712704Y-66047429D01*
X164794384Y-65735892D01*
X164813718Y-65414405D01*
X164769961Y-65095325D01*
X164664795Y-64790912D01*
X164571814Y-64616956D01*
X164307415Y-64521193D01*
X164423083Y-64405525D01*
X164406656Y-64389098D01*
X168435114Y-64391328D01*
X168420917Y-64405525D01*
X168536585Y-64521193D01*
X168272186Y-64616956D01*
X168131296Y-64906571D01*
X168049616Y-65218108D01*
X168030282Y-65539595D01*
X168074039Y-65858675D01*
X168179205Y-66163088D01*
X168272186Y-66337044D01*
X168536587Y-66432808D01*
X169492395Y-65477000D01*
X169478253Y-65462858D01*
X169657858Y-65283253D01*
X169672000Y-65297395D01*
X169686143Y-65283253D01*
X169865748Y-65462858D01*
X169851605Y-65477000D01*
X170807413Y-66432808D01*
X171071814Y-66337044D01*
X171212704Y-66047429D01*
X171294384Y-65735892D01*
X171313718Y-65414405D01*
X171269961Y-65095325D01*
X171164795Y-64790912D01*
X171071814Y-64616956D01*
X170807415Y-64521193D01*
X170923083Y-64405525D01*
X170910257Y-64392699D01*
X171375001Y-64392956D01*
X171375000Y-98815791D01*
X170561850Y-98818600D01*
X170403100Y-98977350D01*
X170403100Y-100282547D01*
X170149100Y-100282406D01*
X170149100Y-98977350D01*
X169990350Y-98818600D01*
X169101100Y-98815528D01*
X168976618Y-98827788D01*
X168856920Y-98864098D01*
X168746606Y-98923063D01*
X168649915Y-99002415D01*
X168570563Y-99099106D01*
X168511598Y-99209420D01*
X168475288Y-99329118D01*
X168463028Y-99453600D01*
X168463511Y-100281473D01*
X168129172Y-100281288D01*
X168129172Y-99453600D01*
X168116912Y-99329118D01*
X168080602Y-99209420D01*
X168021637Y-99099106D01*
X167942285Y-99002415D01*
X167845594Y-98923063D01*
X167735280Y-98864098D01*
X167615582Y-98827788D01*
X167491100Y-98815528D01*
X165619898Y-98815528D01*
X165654000Y-98644089D01*
X165654000Y-98459911D01*
X165618068Y-98279271D01*
X165547586Y-98109111D01*
X165445262Y-97955972D01*
X165315028Y-97825738D01*
X165161889Y-97723414D01*
X164991729Y-97652932D01*
X164811089Y-97617000D01*
X164626911Y-97617000D01*
X164598844Y-97622583D01*
X162096923Y-96267378D01*
X162095276Y-96266026D01*
X162030969Y-96231653D01*
X162000148Y-96214958D01*
X161998212Y-96214144D01*
X161963247Y-96195454D01*
X161929354Y-96185173D01*
X161896735Y-96171449D01*
X161857918Y-96163503D01*
X161819986Y-96151997D01*
X161784754Y-96148527D01*
X161750069Y-96141427D01*
X161710437Y-96141207D01*
X161708333Y-96141000D01*
X161673053Y-96141000D01*
X161600365Y-96140597D01*
X161598279Y-96141000D01*
X154626272Y-96141000D01*
X154626272Y-94754000D01*
X154614012Y-94629518D01*
X154577702Y-94509820D01*
X154518737Y-94399506D01*
X154439385Y-94302815D01*
X154342694Y-94223463D01*
X154232380Y-94164498D01*
X154112682Y-94128188D01*
X153988200Y-94115928D01*
X153536572Y-94115928D01*
X153530447Y-94112654D01*
X153387186Y-94069197D01*
X153238200Y-94054523D01*
X153089215Y-94069197D01*
X152945954Y-94112654D01*
X152939829Y-94115928D01*
X152488200Y-94115928D01*
X152363718Y-94128188D01*
X152244020Y-94164498D01*
X152133706Y-94223463D01*
X152037015Y-94302815D01*
X151957663Y-94399506D01*
X151898698Y-94509820D01*
X151862388Y-94629518D01*
X151851755Y-94737483D01*
X151773999Y-94621114D01*
X151581086Y-94428201D01*
X151354243Y-94276629D01*
X151102189Y-94172225D01*
X150834611Y-94119000D01*
X150561789Y-94119000D01*
X150294211Y-94172225D01*
X150042157Y-94276629D01*
X149815314Y-94428201D01*
X149622401Y-94621114D01*
X149470829Y-94847957D01*
X149366425Y-95100011D01*
X149313200Y-95367589D01*
X149313200Y-95640411D01*
X149366425Y-95907989D01*
X149462941Y-96141000D01*
X148806884Y-96141000D01*
X146747622Y-93797702D01*
X166826903Y-93797702D01*
X166898486Y-94041671D01*
X167153996Y-94162571D01*
X167428184Y-94231300D01*
X167710512Y-94245217D01*
X167990130Y-94203787D01*
X168256292Y-94108603D01*
X168381514Y-94041671D01*
X168453097Y-93797702D01*
X167640000Y-92984605D01*
X166826903Y-93797702D01*
X146747622Y-93797702D01*
X145359348Y-92217943D01*
X145320001Y-92169999D01*
X145281061Y-92138042D01*
X145244276Y-92103660D01*
X145223336Y-92090668D01*
X145204276Y-92075026D01*
X145159848Y-92051278D01*
X145117064Y-92024734D01*
X145093994Y-92016078D01*
X145072247Y-92004454D01*
X145024033Y-91989829D01*
X144976899Y-91972144D01*
X144952582Y-91968155D01*
X144928986Y-91960997D01*
X144878854Y-91956059D01*
X144829167Y-91947908D01*
X144767210Y-91950000D01*
X139649614Y-91950000D01*
X139618405Y-91891613D01*
X139507962Y-91757038D01*
X139373387Y-91646595D01*
X139219851Y-91564528D01*
X139053255Y-91513992D01*
X138880001Y-91496928D01*
X137979999Y-91496928D01*
X137856793Y-91509063D01*
X137861586Y-91501889D01*
X137932068Y-91331729D01*
X137968000Y-91151089D01*
X137968000Y-90966911D01*
X137932068Y-90786271D01*
X137861586Y-90616111D01*
X137759262Y-90462972D01*
X137629028Y-90332738D01*
X137475889Y-90230414D01*
X137305729Y-90159932D01*
X137125089Y-90124000D01*
X136940911Y-90124000D01*
X136760271Y-90159932D01*
X136590111Y-90230414D01*
X136436972Y-90332738D01*
X136306738Y-90462972D01*
X136204414Y-90616111D01*
X136133932Y-90786271D01*
X136098000Y-90966911D01*
X136098000Y-91151089D01*
X136133932Y-91331729D01*
X136204414Y-91501889D01*
X136273000Y-91604536D01*
X136273001Y-92184350D01*
X136209180Y-92030273D01*
X136052137Y-91795241D01*
X135852259Y-91595363D01*
X135617227Y-91438320D01*
X135356074Y-91330147D01*
X135078835Y-91275000D01*
X134796165Y-91275000D01*
X134518926Y-91330147D01*
X134257773Y-91438320D01*
X134022741Y-91595363D01*
X133822863Y-91795241D01*
X133665820Y-92030273D01*
X133557647Y-92291426D01*
X133502500Y-92568665D01*
X133502500Y-92851335D01*
X133557647Y-93128574D01*
X133665820Y-93389727D01*
X133822863Y-93624759D01*
X134021461Y-93823357D01*
X134013018Y-93824188D01*
X133893320Y-93860498D01*
X133783006Y-93919463D01*
X133686315Y-93998815D01*
X133606963Y-94095506D01*
X133547998Y-94205820D01*
X133511688Y-94325518D01*
X133499428Y-94450000D01*
X133499428Y-95679467D01*
X132149090Y-96784289D01*
X128637609Y-93272808D01*
X128697353Y-93128574D01*
X128752500Y-92851335D01*
X128752500Y-92568665D01*
X128697353Y-92291426D01*
X128589180Y-92030273D01*
X128432137Y-91795241D01*
X128232259Y-91595363D01*
X127997227Y-91438320D01*
X127736074Y-91330147D01*
X127458835Y-91275000D01*
X127176165Y-91275000D01*
X126898926Y-91330147D01*
X126637773Y-91438320D01*
X126402741Y-91595363D01*
X126202863Y-91795241D01*
X126045820Y-92030273D01*
X125937647Y-92291426D01*
X125882500Y-92568665D01*
X125882500Y-92851335D01*
X125937647Y-93128574D01*
X126045820Y-93389727D01*
X126202863Y-93624759D01*
X126402741Y-93824637D01*
X126635259Y-93980000D01*
X126402741Y-94135363D01*
X126202863Y-94335241D01*
X126045820Y-94570273D01*
X125937647Y-94831426D01*
X125882500Y-95108665D01*
X125882500Y-95391335D01*
X125937647Y-95668574D01*
X126045820Y-95929727D01*
X126202863Y-96164759D01*
X126402741Y-96364637D01*
X126637773Y-96521680D01*
X126898926Y-96629853D01*
X127176165Y-96685000D01*
X127360199Y-96685000D01*
X129491656Y-98816458D01*
X129376618Y-98827788D01*
X129256920Y-98864098D01*
X129146606Y-98923063D01*
X129049915Y-99002415D01*
X128970563Y-99099106D01*
X128911598Y-99209420D01*
X128875288Y-99329118D01*
X128863028Y-99453600D01*
X128863028Y-100259546D01*
X128528702Y-100259361D01*
X128529172Y-99453600D01*
X128516912Y-99329118D01*
X128480602Y-99209420D01*
X128421637Y-99099106D01*
X128342285Y-99002415D01*
X128245594Y-98923063D01*
X128135280Y-98864098D01*
X128015582Y-98827788D01*
X127891100Y-98815528D01*
X127001850Y-98818600D01*
X126843100Y-98977350D01*
X126843100Y-100258428D01*
X126589100Y-100258287D01*
X126589100Y-98977350D01*
X126430350Y-98818600D01*
X125888945Y-98816730D01*
X125835737Y-83673740D01*
X126429400Y-83673740D01*
X126429400Y-83966260D01*
X126486468Y-84253158D01*
X126598410Y-84523411D01*
X126760925Y-84766632D01*
X126967768Y-84973475D01*
X127210989Y-85135990D01*
X127481242Y-85247932D01*
X127768140Y-85305000D01*
X128060660Y-85305000D01*
X128347558Y-85247932D01*
X128617811Y-85135990D01*
X128861032Y-84973475D01*
X129067875Y-84766632D01*
X129184400Y-84592240D01*
X129300925Y-84766632D01*
X129507768Y-84973475D01*
X129750989Y-85135990D01*
X130021242Y-85247932D01*
X130308140Y-85305000D01*
X130600660Y-85305000D01*
X130887558Y-85247932D01*
X131157811Y-85135990D01*
X131401032Y-84973475D01*
X131532887Y-84841620D01*
X131554898Y-84914180D01*
X131613863Y-85024494D01*
X131693215Y-85121185D01*
X131789906Y-85200537D01*
X131900220Y-85259502D01*
X132019918Y-85295812D01*
X132144400Y-85308072D01*
X133844400Y-85308072D01*
X133968882Y-85295812D01*
X134088580Y-85259502D01*
X134198894Y-85200537D01*
X134295585Y-85121185D01*
X134374937Y-85024494D01*
X134433902Y-84914180D01*
X134470212Y-84794482D01*
X134482472Y-84670000D01*
X134482472Y-83404999D01*
X134527198Y-83404999D01*
X136696209Y-85574011D01*
X131787711Y-85574011D01*
X131750388Y-85570335D01*
X131713065Y-85574011D01*
X131713056Y-85574011D01*
X131601403Y-85585008D01*
X131458142Y-85628465D01*
X131326113Y-85699037D01*
X131210388Y-85794010D01*
X131186590Y-85823008D01*
X130608950Y-86400649D01*
X130600660Y-86399000D01*
X130308140Y-86399000D01*
X130021242Y-86456068D01*
X129750989Y-86568010D01*
X129507768Y-86730525D01*
X129300925Y-86937368D01*
X129184400Y-87111760D01*
X129067875Y-86937368D01*
X128861032Y-86730525D01*
X128617811Y-86568010D01*
X128347558Y-86456068D01*
X128060660Y-86399000D01*
X127768140Y-86399000D01*
X127481242Y-86456068D01*
X127210989Y-86568010D01*
X126967768Y-86730525D01*
X126760925Y-86937368D01*
X126598410Y-87180589D01*
X126486468Y-87450842D01*
X126429400Y-87737740D01*
X126429400Y-88030260D01*
X126486468Y-88317158D01*
X126598410Y-88587411D01*
X126760925Y-88830632D01*
X126967768Y-89037475D01*
X127210989Y-89199990D01*
X127481242Y-89311932D01*
X127768140Y-89369000D01*
X128060660Y-89369000D01*
X128347558Y-89311932D01*
X128617811Y-89199990D01*
X128861032Y-89037475D01*
X129067875Y-88830632D01*
X129184400Y-88656240D01*
X129300925Y-88830632D01*
X129507768Y-89037475D01*
X129750989Y-89199990D01*
X130021242Y-89311932D01*
X130308140Y-89369000D01*
X130600660Y-89369000D01*
X130887558Y-89311932D01*
X131157811Y-89199990D01*
X131401032Y-89037475D01*
X131532887Y-88905620D01*
X131554898Y-88978180D01*
X131613863Y-89088494D01*
X131693215Y-89185185D01*
X131789906Y-89264537D01*
X131900220Y-89323502D01*
X132019918Y-89359812D01*
X132144400Y-89372072D01*
X133844400Y-89372072D01*
X133968882Y-89359812D01*
X134088580Y-89323502D01*
X134198894Y-89264537D01*
X134295585Y-89185185D01*
X134374937Y-89088494D01*
X134433902Y-88978180D01*
X134470212Y-88858482D01*
X134482472Y-88734000D01*
X134482472Y-88392000D01*
X140170000Y-88392000D01*
X140170000Y-88792000D01*
X140222350Y-89069514D01*
X140327834Y-89331483D01*
X140482399Y-89567839D01*
X140680105Y-89769500D01*
X140913354Y-89928715D01*
X141173182Y-90039367D01*
X141255961Y-90056904D01*
X141478000Y-89934915D01*
X141478000Y-88392000D01*
X140170000Y-88392000D01*
X134482472Y-88392000D01*
X134482472Y-87094011D01*
X140396176Y-87094011D01*
X140327834Y-87198517D01*
X140222350Y-87460486D01*
X140170000Y-87738000D01*
X140170000Y-88138000D01*
X141478000Y-88138000D01*
X141478000Y-88118000D01*
X141732000Y-88118000D01*
X141732000Y-88138000D01*
X141752000Y-88138000D01*
X141752000Y-88392000D01*
X141732000Y-88392000D01*
X141732000Y-89934915D01*
X141954039Y-90056904D01*
X142036818Y-90039367D01*
X142296646Y-89928715D01*
X142529895Y-89769500D01*
X142718019Y-89577613D01*
X142719188Y-89589482D01*
X142755498Y-89709180D01*
X142814463Y-89819494D01*
X142893815Y-89916185D01*
X142990506Y-89995537D01*
X143100820Y-90054502D01*
X143220518Y-90090812D01*
X143345000Y-90103072D01*
X144945000Y-90103072D01*
X145069482Y-90090812D01*
X145189180Y-90054502D01*
X145299494Y-89995537D01*
X145396185Y-89916185D01*
X145475537Y-89819494D01*
X145534502Y-89709180D01*
X145570812Y-89589482D01*
X145583072Y-89465000D01*
X145583072Y-87493589D01*
X149313200Y-87493589D01*
X149313200Y-87766411D01*
X149366425Y-88033989D01*
X149470829Y-88286043D01*
X149622401Y-88512886D01*
X149815314Y-88705799D01*
X150042157Y-88857371D01*
X150294211Y-88961775D01*
X150561789Y-89015000D01*
X150834611Y-89015000D01*
X150979565Y-88986167D01*
X152212398Y-90219001D01*
X152133706Y-90261063D01*
X152037015Y-90340415D01*
X151957663Y-90437106D01*
X151898698Y-90547420D01*
X151862388Y-90667118D01*
X151851755Y-90775083D01*
X151773999Y-90658714D01*
X151581086Y-90465801D01*
X151354243Y-90314229D01*
X151102189Y-90209825D01*
X150834611Y-90156600D01*
X150561789Y-90156600D01*
X150294211Y-90209825D01*
X150042157Y-90314229D01*
X149815314Y-90465801D01*
X149622401Y-90658714D01*
X149470829Y-90885557D01*
X149366425Y-91137611D01*
X149313200Y-91405189D01*
X149313200Y-91678011D01*
X149366425Y-91945589D01*
X149470829Y-92197643D01*
X149622401Y-92424486D01*
X149815314Y-92617399D01*
X150042157Y-92768971D01*
X150156752Y-92816438D01*
X150158199Y-92818201D01*
X150273924Y-92913174D01*
X150405953Y-92983746D01*
X150549214Y-93027203D01*
X150698200Y-93041877D01*
X150847185Y-93027203D01*
X150990446Y-92983746D01*
X151122475Y-92913174D01*
X151238201Y-92818201D01*
X151239648Y-92816438D01*
X151354243Y-92768971D01*
X151581086Y-92617399D01*
X151773999Y-92424486D01*
X151851755Y-92308117D01*
X151862388Y-92416082D01*
X151898698Y-92535780D01*
X151957663Y-92646094D01*
X152037015Y-92742785D01*
X152133706Y-92822137D01*
X152244020Y-92881102D01*
X152363718Y-92917412D01*
X152488200Y-92929672D01*
X153988200Y-92929672D01*
X154112682Y-92917412D01*
X154232380Y-92881102D01*
X154342694Y-92822137D01*
X154439385Y-92742785D01*
X154518737Y-92646094D01*
X154577702Y-92535780D01*
X154614012Y-92416082D01*
X154626272Y-92291600D01*
X154626272Y-90791600D01*
X154614012Y-90667118D01*
X154577702Y-90547420D01*
X154518737Y-90437106D01*
X154439385Y-90340415D01*
X154342694Y-90261063D01*
X154232380Y-90202098D01*
X154112682Y-90165788D01*
X154000372Y-90154727D01*
X153998200Y-90132676D01*
X153998200Y-90132667D01*
X153987203Y-90021014D01*
X153943746Y-89877753D01*
X153873174Y-89745724D01*
X153843183Y-89709180D01*
X153801999Y-89658996D01*
X153801995Y-89658992D01*
X153778201Y-89629999D01*
X153749208Y-89606205D01*
X153161075Y-89018072D01*
X153551471Y-89018072D01*
X155100215Y-90566817D01*
X155112345Y-90580241D01*
X155126579Y-90593181D01*
X155140197Y-90606799D01*
X155154198Y-90618289D01*
X155657716Y-91076034D01*
X155669999Y-91091001D01*
X155712984Y-91126278D01*
X155726392Y-91138467D01*
X155741847Y-91149965D01*
X155785724Y-91185974D01*
X155801792Y-91194563D01*
X155816406Y-91205435D01*
X155867677Y-91229779D01*
X155917753Y-91256546D01*
X155935187Y-91261835D01*
X155951643Y-91269648D01*
X156006688Y-91283524D01*
X156061014Y-91300003D01*
X156079147Y-91301789D01*
X156096808Y-91306241D01*
X156153490Y-91309111D01*
X156172667Y-91311000D01*
X156190791Y-91311000D01*
X156246324Y-91313812D01*
X156265479Y-91311000D01*
X158224966Y-91311000D01*
X158148329Y-91333486D01*
X158027429Y-91588996D01*
X157958700Y-91863184D01*
X157944783Y-92145512D01*
X157986213Y-92425130D01*
X158081397Y-92691292D01*
X158148329Y-92816514D01*
X158392298Y-92888097D01*
X159205395Y-92075000D01*
X159191253Y-92060858D01*
X159370858Y-91881253D01*
X159385000Y-91895395D01*
X159399143Y-91881253D01*
X159578748Y-92060858D01*
X159564605Y-92075000D01*
X159578748Y-92089143D01*
X159399143Y-92268748D01*
X159385000Y-92254605D01*
X158571903Y-93067702D01*
X158643486Y-93311671D01*
X158898996Y-93432571D01*
X159173184Y-93501300D01*
X159455512Y-93515217D01*
X159735130Y-93473787D01*
X160001292Y-93378603D01*
X160123309Y-93313384D01*
X160133815Y-93326185D01*
X160230506Y-93405537D01*
X160340820Y-93464502D01*
X160460518Y-93500812D01*
X160585000Y-93513072D01*
X162185000Y-93513072D01*
X162309482Y-93500812D01*
X162429180Y-93464502D01*
X162539494Y-93405537D01*
X162636185Y-93326185D01*
X162715537Y-93229494D01*
X162774502Y-93119180D01*
X162810812Y-92999482D01*
X162823021Y-92875512D01*
X166199783Y-92875512D01*
X166241213Y-93155130D01*
X166336397Y-93421292D01*
X166403329Y-93546514D01*
X166647298Y-93618097D01*
X167460395Y-92805000D01*
X167446253Y-92790858D01*
X167625858Y-92611253D01*
X167640000Y-92625395D01*
X167654143Y-92611253D01*
X167833748Y-92790858D01*
X167819605Y-92805000D01*
X168632702Y-93618097D01*
X168876671Y-93546514D01*
X168997571Y-93291004D01*
X169039000Y-93125727D01*
X169039000Y-94323465D01*
X168970414Y-94426111D01*
X168899932Y-94596271D01*
X168864000Y-94776911D01*
X168864000Y-94961089D01*
X168899932Y-95141729D01*
X168970414Y-95311889D01*
X169072738Y-95465028D01*
X169202972Y-95595262D01*
X169356111Y-95697586D01*
X169526271Y-95768068D01*
X169706911Y-95804000D01*
X169891089Y-95804000D01*
X170071729Y-95768068D01*
X170241889Y-95697586D01*
X170395028Y-95595262D01*
X170525262Y-95465028D01*
X170627586Y-95311889D01*
X170698068Y-95141729D01*
X170734000Y-94961089D01*
X170734000Y-94776911D01*
X170698068Y-94596271D01*
X170627586Y-94426111D01*
X170559000Y-94323465D01*
X170559000Y-72663210D01*
X170559915Y-72645141D01*
X170559000Y-72625926D01*
X170559000Y-72606667D01*
X170557224Y-72588640D01*
X170500149Y-71390046D01*
X170714252Y-71246987D01*
X170941987Y-71019252D01*
X171120918Y-70751463D01*
X171244168Y-70453912D01*
X171307000Y-70138033D01*
X171307000Y-69815967D01*
X171244168Y-69500088D01*
X171120918Y-69202537D01*
X170941987Y-68934748D01*
X170714252Y-68707013D01*
X170446463Y-68528082D01*
X170148912Y-68404832D01*
X169833033Y-68342000D01*
X169510967Y-68342000D01*
X169195088Y-68404832D01*
X168897537Y-68528082D01*
X168629748Y-68707013D01*
X168402013Y-68934748D01*
X168223082Y-69202537D01*
X168099832Y-69500088D01*
X168037000Y-69815967D01*
X168037000Y-70138033D01*
X168099832Y-70453912D01*
X168223082Y-70751463D01*
X168402013Y-71019252D01*
X168629748Y-71246987D01*
X168897537Y-71425918D01*
X168981797Y-71460820D01*
X169039001Y-72662105D01*
X169039000Y-89792131D01*
X169029502Y-89760820D01*
X168970537Y-89650506D01*
X168891185Y-89553815D01*
X168794494Y-89474463D01*
X168684180Y-89415498D01*
X168564482Y-89379188D01*
X168440000Y-89366928D01*
X166840000Y-89366928D01*
X166715518Y-89379188D01*
X166595820Y-89415498D01*
X166485506Y-89474463D01*
X166388815Y-89553815D01*
X166309463Y-89650506D01*
X166250498Y-89760820D01*
X166214188Y-89880518D01*
X166201928Y-90005000D01*
X166201928Y-91605000D01*
X166214188Y-91729482D01*
X166250498Y-91849180D01*
X166309463Y-91959494D01*
X166388815Y-92056185D01*
X166401758Y-92066807D01*
X166282429Y-92318996D01*
X166213700Y-92593184D01*
X166199783Y-92875512D01*
X162823021Y-92875512D01*
X162823072Y-92875000D01*
X162823072Y-91275000D01*
X162810812Y-91150518D01*
X162774502Y-91030820D01*
X162715537Y-90920506D01*
X162636185Y-90823815D01*
X162539494Y-90744463D01*
X162429180Y-90685498D01*
X162309482Y-90649188D01*
X162185000Y-90636928D01*
X162175363Y-90636928D01*
X162176216Y-90596290D01*
X162180677Y-90551000D01*
X162174120Y-90484427D01*
X162168965Y-90417771D01*
X162166792Y-90410026D01*
X162166003Y-90402014D01*
X162146582Y-90337992D01*
X162145000Y-90332352D01*
X162145000Y-89423357D01*
X162242962Y-89342962D01*
X162353405Y-89208387D01*
X162435472Y-89054851D01*
X162486008Y-88888255D01*
X162503072Y-88715001D01*
X162503072Y-87814999D01*
X162486008Y-87641745D01*
X162435472Y-87475149D01*
X162353405Y-87321613D01*
X162242962Y-87187038D01*
X162108387Y-87076595D01*
X161954851Y-86994528D01*
X161788255Y-86943992D01*
X161615001Y-86926928D01*
X161026729Y-86926928D01*
X160828794Y-86728992D01*
X160804991Y-86699989D01*
X160689266Y-86605016D01*
X160557237Y-86534444D01*
X160413976Y-86490987D01*
X160302323Y-86479990D01*
X160302312Y-86479990D01*
X160264990Y-86476314D01*
X160227668Y-86479990D01*
X158994277Y-86479990D01*
X159001937Y-81952975D01*
X159002000Y-81952333D01*
X159002000Y-81915595D01*
X159002062Y-81878953D01*
X159002000Y-81878312D01*
X159002000Y-80684454D01*
X159149729Y-80655068D01*
X159319889Y-80584586D01*
X159473028Y-80482262D01*
X159603262Y-80352028D01*
X159705586Y-80198889D01*
X159776068Y-80028729D01*
X159812000Y-79848089D01*
X159812000Y-79663911D01*
X159776068Y-79483271D01*
X159705586Y-79313111D01*
X159603262Y-79159972D01*
X159473028Y-79029738D01*
X159319889Y-78927414D01*
X159149729Y-78856932D01*
X158969089Y-78821000D01*
X158784911Y-78821000D01*
X158604271Y-78856932D01*
X158434111Y-78927414D01*
X158280972Y-79029738D01*
X158150738Y-79159972D01*
X158048414Y-79313111D01*
X157977932Y-79483271D01*
X157973506Y-79505521D01*
X157821945Y-79626770D01*
X157817724Y-79629026D01*
X157763524Y-79673507D01*
X157738080Y-79693862D01*
X157734679Y-79697180D01*
X157701999Y-79723999D01*
X157681213Y-79749327D01*
X157657764Y-79772198D01*
X157633844Y-79807047D01*
X157607026Y-79839725D01*
X157591583Y-79868616D01*
X157573043Y-79895627D01*
X157556382Y-79934473D01*
X157536454Y-79971754D01*
X157526943Y-80003108D01*
X157514031Y-80033212D01*
X157505269Y-80074559D01*
X157492997Y-80115015D01*
X157489785Y-80147625D01*
X157482995Y-80179667D01*
X157482467Y-80221922D01*
X157482000Y-80226668D01*
X157482000Y-80259358D01*
X157481126Y-80329361D01*
X157482000Y-80334061D01*
X157482001Y-81914219D01*
X157473690Y-86826124D01*
X157470010Y-86868572D01*
X157477654Y-86937858D01*
X157484380Y-87007352D01*
X157485864Y-87012275D01*
X157486427Y-87017376D01*
X157507450Y-87083870D01*
X157527595Y-87150686D01*
X157530008Y-87155219D01*
X157531557Y-87160118D01*
X157565174Y-87221278D01*
X157597944Y-87282835D01*
X157601195Y-87286810D01*
X157603670Y-87291313D01*
X157648564Y-87344728D01*
X157692721Y-87398720D01*
X157725616Y-87425810D01*
X158028087Y-87721282D01*
X158030000Y-87979250D01*
X158188750Y-88138000D01*
X159113000Y-88138000D01*
X159113000Y-88118000D01*
X159367000Y-88118000D01*
X159367000Y-88138000D01*
X159387000Y-88138000D01*
X159387000Y-88392000D01*
X159367000Y-88392000D01*
X159367000Y-89441250D01*
X159525750Y-89600000D01*
X159815000Y-89603072D01*
X159939482Y-89590812D01*
X160059180Y-89554502D01*
X160169494Y-89495537D01*
X160266185Y-89416185D01*
X160331658Y-89336406D01*
X160337038Y-89342962D01*
X160471613Y-89453405D01*
X160625001Y-89535393D01*
X160625001Y-89791000D01*
X156503820Y-89791000D01*
X156175815Y-89492813D01*
X155648002Y-88965000D01*
X158026928Y-88965000D01*
X158039188Y-89089482D01*
X158075498Y-89209180D01*
X158134463Y-89319494D01*
X158213815Y-89416185D01*
X158310506Y-89495537D01*
X158420820Y-89554502D01*
X158540518Y-89590812D01*
X158665000Y-89603072D01*
X158954250Y-89600000D01*
X159113000Y-89441250D01*
X159113000Y-88392000D01*
X158188750Y-88392000D01*
X158030000Y-88550750D01*
X158026928Y-88965000D01*
X155648002Y-88965000D01*
X154626272Y-87943271D01*
X154626272Y-86880000D01*
X154614012Y-86755518D01*
X154577702Y-86635820D01*
X154518737Y-86525506D01*
X154439385Y-86428815D01*
X154342694Y-86349463D01*
X154232380Y-86290498D01*
X154112682Y-86254188D01*
X153988200Y-86241928D01*
X152488200Y-86241928D01*
X152363718Y-86254188D01*
X152244020Y-86290498D01*
X152133706Y-86349463D01*
X152037015Y-86428815D01*
X151957663Y-86525506D01*
X151898698Y-86635820D01*
X151862388Y-86755518D01*
X151851755Y-86863483D01*
X151773999Y-86747114D01*
X151581086Y-86554201D01*
X151354243Y-86402629D01*
X151102189Y-86298225D01*
X150834611Y-86245000D01*
X150561789Y-86245000D01*
X150294211Y-86298225D01*
X150042157Y-86402629D01*
X149815314Y-86554201D01*
X149622401Y-86747114D01*
X149470829Y-86973957D01*
X149366425Y-87226011D01*
X149313200Y-87493589D01*
X145583072Y-87493589D01*
X145583072Y-87065000D01*
X145570812Y-86940518D01*
X145534502Y-86820820D01*
X145475537Y-86710506D01*
X145396185Y-86613815D01*
X145299494Y-86534463D01*
X145189180Y-86475498D01*
X145069482Y-86439188D01*
X144945000Y-86426928D01*
X144454373Y-86426928D01*
X149666090Y-81215212D01*
X149688494Y-81197701D01*
X149718883Y-81162419D01*
X149725299Y-81156003D01*
X149743267Y-81134109D01*
X149786195Y-81084269D01*
X149790684Y-81076331D01*
X149796474Y-81069276D01*
X149827507Y-81011218D01*
X149859889Y-80953958D01*
X149862743Y-80945297D01*
X149867046Y-80937247D01*
X149886158Y-80874243D01*
X149906744Y-80811772D01*
X149907854Y-80802719D01*
X149910503Y-80793986D01*
X149916954Y-80728488D01*
X149920396Y-80700412D01*
X149920612Y-80691352D01*
X149925177Y-80645000D01*
X149922389Y-80616696D01*
X149963215Y-78902016D01*
X150460847Y-79399649D01*
X150484932Y-79520729D01*
X150555414Y-79690889D01*
X150657738Y-79844028D01*
X150787972Y-79974262D01*
X150941111Y-80076586D01*
X151111271Y-80147068D01*
X151291911Y-80183000D01*
X151476089Y-80183000D01*
X151656729Y-80147068D01*
X151826889Y-80076586D01*
X151980028Y-79974262D01*
X152110262Y-79844028D01*
X152212586Y-79690889D01*
X152283068Y-79520729D01*
X152319000Y-79340089D01*
X152319000Y-79155911D01*
X152283068Y-78975271D01*
X152212586Y-78805111D01*
X152110262Y-78651972D01*
X151980028Y-78521738D01*
X151826889Y-78419414D01*
X151656729Y-78348932D01*
X151535649Y-78324847D01*
X151001000Y-77790199D01*
X151001000Y-71431909D01*
X151015463Y-71425918D01*
X151283252Y-71246987D01*
X151417826Y-71112413D01*
X152487992Y-71112413D01*
X152583756Y-71376814D01*
X152873371Y-71517704D01*
X153184908Y-71599384D01*
X153506395Y-71618718D01*
X153825475Y-71574961D01*
X154129888Y-71469795D01*
X154303844Y-71376814D01*
X154399608Y-71112413D01*
X158987992Y-71112413D01*
X159083756Y-71376814D01*
X159373371Y-71517704D01*
X159684908Y-71599384D01*
X160006395Y-71618718D01*
X160325475Y-71574961D01*
X160629888Y-71469795D01*
X160803844Y-71376814D01*
X160899608Y-71112413D01*
X159943800Y-70156605D01*
X158987992Y-71112413D01*
X154399608Y-71112413D01*
X153443800Y-70156605D01*
X152487992Y-71112413D01*
X151417826Y-71112413D01*
X151510987Y-71019252D01*
X151689918Y-70751463D01*
X151813168Y-70453912D01*
X151840237Y-70317826D01*
X151845839Y-70358675D01*
X151951005Y-70663088D01*
X152043986Y-70837044D01*
X152308387Y-70932808D01*
X153264195Y-69977000D01*
X153623405Y-69977000D01*
X154579213Y-70932808D01*
X154843614Y-70837044D01*
X154984504Y-70547429D01*
X155066184Y-70235892D01*
X155077989Y-70039595D01*
X158302082Y-70039595D01*
X158345839Y-70358675D01*
X158451005Y-70663088D01*
X158543986Y-70837044D01*
X158808387Y-70932808D01*
X159764195Y-69977000D01*
X160123405Y-69977000D01*
X161079213Y-70932808D01*
X161343614Y-70837044D01*
X161484504Y-70547429D01*
X161560658Y-70256969D01*
X161599832Y-70453912D01*
X161723082Y-70751463D01*
X161902013Y-71019252D01*
X162129748Y-71246987D01*
X162397537Y-71425918D01*
X162695088Y-71549168D01*
X163010967Y-71612000D01*
X163333033Y-71612000D01*
X163648912Y-71549168D01*
X163946463Y-71425918D01*
X164214252Y-71246987D01*
X164441987Y-71019252D01*
X164620918Y-70751463D01*
X164744168Y-70453912D01*
X164807000Y-70138033D01*
X164807000Y-69815967D01*
X164744168Y-69500088D01*
X164620918Y-69202537D01*
X164441987Y-68934748D01*
X164214252Y-68707013D01*
X163946463Y-68528082D01*
X163648912Y-68404832D01*
X163333033Y-68342000D01*
X163010967Y-68342000D01*
X162695088Y-68404832D01*
X162397537Y-68528082D01*
X162129748Y-68707013D01*
X161902013Y-68934748D01*
X161723082Y-69202537D01*
X161599832Y-69500088D01*
X161557728Y-69711759D01*
X161541761Y-69595325D01*
X161436595Y-69290912D01*
X161343614Y-69116956D01*
X161079213Y-69021192D01*
X160123405Y-69977000D01*
X159764195Y-69977000D01*
X158808387Y-69021192D01*
X158543986Y-69116956D01*
X158403096Y-69406571D01*
X158321416Y-69718108D01*
X158302082Y-70039595D01*
X155077989Y-70039595D01*
X155085518Y-69914405D01*
X155041761Y-69595325D01*
X154936595Y-69290912D01*
X154843614Y-69116956D01*
X154579213Y-69021192D01*
X153623405Y-69977000D01*
X153264195Y-69977000D01*
X152308387Y-69021192D01*
X152043986Y-69116956D01*
X151903096Y-69406571D01*
X151841385Y-69641944D01*
X151813168Y-69500088D01*
X151689918Y-69202537D01*
X151510987Y-68934748D01*
X151417826Y-68841587D01*
X152487992Y-68841587D01*
X153443800Y-69797395D01*
X154399608Y-68841587D01*
X158987992Y-68841587D01*
X159943800Y-69797395D01*
X160899608Y-68841587D01*
X160803844Y-68577186D01*
X160514229Y-68436296D01*
X160202692Y-68354616D01*
X159881205Y-68335282D01*
X159562125Y-68379039D01*
X159257712Y-68484205D01*
X159083756Y-68577186D01*
X158987992Y-68841587D01*
X154399608Y-68841587D01*
X154303844Y-68577186D01*
X154014229Y-68436296D01*
X153702692Y-68354616D01*
X153381205Y-68335282D01*
X153062125Y-68379039D01*
X152757712Y-68484205D01*
X152583756Y-68577186D01*
X152487992Y-68841587D01*
X151417826Y-68841587D01*
X151283252Y-68707013D01*
X151015463Y-68528082D01*
X150717912Y-68404832D01*
X150402033Y-68342000D01*
X150079967Y-68342000D01*
X149764088Y-68404832D01*
X149466537Y-68528082D01*
X149198748Y-68707013D01*
X148971013Y-68934748D01*
X148792082Y-69202537D01*
X148786091Y-69217000D01*
X145195909Y-69217000D01*
X145189918Y-69202537D01*
X145010987Y-68934748D01*
X144783252Y-68707013D01*
X144515463Y-68528082D01*
X144217912Y-68404832D01*
X143902033Y-68342000D01*
X143579967Y-68342000D01*
X143264088Y-68404832D01*
X142966537Y-68528082D01*
X142698748Y-68707013D01*
X142471013Y-68934748D01*
X142292082Y-69202537D01*
X142168832Y-69500088D01*
X142106000Y-69815967D01*
X142106000Y-70138033D01*
X142168832Y-70453912D01*
X142292082Y-70751463D01*
X142471013Y-71019252D01*
X142698748Y-71246987D01*
X142966537Y-71425918D01*
X143264088Y-71549168D01*
X143579967Y-71612000D01*
X143902033Y-71612000D01*
X144217912Y-71549168D01*
X144515463Y-71425918D01*
X144783252Y-71246987D01*
X145010987Y-71019252D01*
X145189918Y-70751463D01*
X145195909Y-70737000D01*
X148786091Y-70737000D01*
X148792082Y-70751463D01*
X148971013Y-71019252D01*
X149198748Y-71246987D01*
X149466537Y-71425918D01*
X149481000Y-71431909D01*
X149481001Y-77075605D01*
X149317089Y-77043000D01*
X149132911Y-77043000D01*
X148952271Y-77078932D01*
X148782111Y-77149414D01*
X148628972Y-77251738D01*
X148498738Y-77381972D01*
X148396414Y-77535111D01*
X148325932Y-77705271D01*
X148290000Y-77885911D01*
X148290000Y-78070089D01*
X148325932Y-78250729D01*
X148396414Y-78420889D01*
X148452250Y-78504454D01*
X148408958Y-80322740D01*
X146585853Y-82145845D01*
X146585853Y-77500477D01*
X146654439Y-77397831D01*
X146724921Y-77227671D01*
X146760853Y-77047031D01*
X146760853Y-76862853D01*
X146724921Y-76682213D01*
X146654439Y-76512053D01*
X146552115Y-76358914D01*
X146421881Y-76228680D01*
X146268742Y-76126356D01*
X146098582Y-76055874D01*
X145917942Y-76019942D01*
X145733764Y-76019942D01*
X145553124Y-76055874D01*
X145382964Y-76126356D01*
X145229825Y-76228680D01*
X145099591Y-76358914D01*
X144997267Y-76512053D01*
X144926785Y-76682213D01*
X144890853Y-76862853D01*
X144890853Y-77047031D01*
X144926785Y-77227671D01*
X144997267Y-77397831D01*
X145065854Y-77500479D01*
X145065853Y-82332345D01*
X142687199Y-84711000D01*
X137982802Y-84711000D01*
X135405803Y-82134002D01*
X135382000Y-82104998D01*
X135266275Y-82010025D01*
X135134246Y-81939453D01*
X134990985Y-81895996D01*
X134879332Y-81884999D01*
X134879321Y-81884999D01*
X134841999Y-81881323D01*
X134804677Y-81884999D01*
X131666723Y-81884999D01*
X131629400Y-81881323D01*
X131592077Y-81884999D01*
X131592068Y-81884999D01*
X131480415Y-81895996D01*
X131337154Y-81939453D01*
X131205125Y-82010025D01*
X131089400Y-82104998D01*
X131065602Y-82133996D01*
X130820808Y-82378790D01*
X130600660Y-82335000D01*
X130308140Y-82335000D01*
X130021242Y-82392068D01*
X129750989Y-82504010D01*
X129507768Y-82666525D01*
X129300925Y-82873368D01*
X129184400Y-83047760D01*
X129067875Y-82873368D01*
X128861032Y-82666525D01*
X128617811Y-82504010D01*
X128347558Y-82392068D01*
X128060660Y-82335000D01*
X127768140Y-82335000D01*
X127481242Y-82392068D01*
X127210989Y-82504010D01*
X126967768Y-82666525D01*
X126760925Y-82873368D01*
X126598410Y-83116589D01*
X126486468Y-83386842D01*
X126429400Y-83673740D01*
X125835737Y-83673740D01*
X125805000Y-74926038D01*
X125805000Y-66890000D01*
X128051928Y-66890000D01*
X128064188Y-67014482D01*
X128100498Y-67134180D01*
X128159463Y-67244494D01*
X128238815Y-67341185D01*
X128335506Y-67420537D01*
X128445820Y-67479502D01*
X128518380Y-67501513D01*
X128386525Y-67633368D01*
X128224010Y-67876589D01*
X128112068Y-68146842D01*
X128055000Y-68433740D01*
X128055000Y-68726260D01*
X128112068Y-69013158D01*
X128224010Y-69283411D01*
X128386525Y-69526632D01*
X128593368Y-69733475D01*
X128767760Y-69850000D01*
X128593368Y-69966525D01*
X128386525Y-70173368D01*
X128224010Y-70416589D01*
X128112068Y-70686842D01*
X128055000Y-70973740D01*
X128055000Y-71266260D01*
X128112068Y-71553158D01*
X128224010Y-71823411D01*
X128386525Y-72066632D01*
X128593368Y-72273475D01*
X128767760Y-72390000D01*
X128593368Y-72506525D01*
X128386525Y-72713368D01*
X128224010Y-72956589D01*
X128112068Y-73226842D01*
X128055000Y-73513740D01*
X128055000Y-73806260D01*
X128112068Y-74093158D01*
X128224010Y-74363411D01*
X128386525Y-74606632D01*
X128593368Y-74813475D01*
X128767760Y-74930000D01*
X128593368Y-75046525D01*
X128386525Y-75253368D01*
X128224010Y-75496589D01*
X128112068Y-75766842D01*
X128055000Y-76053740D01*
X128055000Y-76346260D01*
X128112068Y-76633158D01*
X128224010Y-76903411D01*
X128386525Y-77146632D01*
X128593368Y-77353475D01*
X128767760Y-77470000D01*
X128593368Y-77586525D01*
X128386525Y-77793368D01*
X128224010Y-78036589D01*
X128112068Y-78306842D01*
X128055000Y-78593740D01*
X128055000Y-78886260D01*
X128112068Y-79173158D01*
X128224010Y-79443411D01*
X128386525Y-79686632D01*
X128593368Y-79893475D01*
X128836589Y-80055990D01*
X129106842Y-80167932D01*
X129393740Y-80225000D01*
X129686260Y-80225000D01*
X129973158Y-80167932D01*
X130243411Y-80055990D01*
X130486632Y-79893475D01*
X130693475Y-79686632D01*
X130855990Y-79443411D01*
X130967932Y-79173158D01*
X131025000Y-78886260D01*
X131025000Y-78593740D01*
X130967932Y-78306842D01*
X130855990Y-78036589D01*
X130693475Y-77793368D01*
X130486632Y-77586525D01*
X130312240Y-77470000D01*
X130486632Y-77353475D01*
X130693475Y-77146632D01*
X130855990Y-76903411D01*
X130967932Y-76633158D01*
X131025000Y-76346260D01*
X131025000Y-76053740D01*
X130967932Y-75766842D01*
X130855990Y-75496589D01*
X130693475Y-75253368D01*
X130486632Y-75046525D01*
X130312240Y-74930000D01*
X130486632Y-74813475D01*
X130693475Y-74606632D01*
X130855990Y-74363411D01*
X130967932Y-74093158D01*
X131025000Y-73806260D01*
X131025000Y-73513740D01*
X130967932Y-73226842D01*
X130855990Y-72956589D01*
X130693475Y-72713368D01*
X130486632Y-72506525D01*
X130312240Y-72390000D01*
X130486632Y-72273475D01*
X130693475Y-72066632D01*
X130855990Y-71823411D01*
X130967932Y-71553158D01*
X131025000Y-71266260D01*
X131025000Y-70973740D01*
X130967932Y-70686842D01*
X130855990Y-70416589D01*
X130693475Y-70173368D01*
X130486632Y-69966525D01*
X130312240Y-69850000D01*
X130486632Y-69733475D01*
X130693475Y-69526632D01*
X130855990Y-69283411D01*
X130967932Y-69013158D01*
X131025000Y-68726260D01*
X131025000Y-68433740D01*
X130967932Y-68146842D01*
X130855990Y-67876589D01*
X130693475Y-67633368D01*
X130561620Y-67501513D01*
X130634180Y-67479502D01*
X130744494Y-67420537D01*
X130841185Y-67341185D01*
X130920537Y-67244494D01*
X130979502Y-67134180D01*
X131015812Y-67014482D01*
X131028072Y-66890000D01*
X131025000Y-66325750D01*
X130866250Y-66167000D01*
X129667000Y-66167000D01*
X129667000Y-66187000D01*
X129413000Y-66187000D01*
X129413000Y-66167000D01*
X128213750Y-66167000D01*
X128055000Y-66325750D01*
X128051928Y-66890000D01*
X125805000Y-66890000D01*
X125805000Y-65190000D01*
X128051928Y-65190000D01*
X128055000Y-65754250D01*
X128213750Y-65913000D01*
X129413000Y-65913000D01*
X129413000Y-64713750D01*
X129667000Y-64713750D01*
X129667000Y-65913000D01*
X130866250Y-65913000D01*
X131025000Y-65754250D01*
X131028072Y-65190000D01*
X131015812Y-65065518D01*
X130979502Y-64945820D01*
X130920537Y-64835506D01*
X130841185Y-64738815D01*
X130744494Y-64659463D01*
X130634180Y-64600498D01*
X130514482Y-64564188D01*
X130390000Y-64551928D01*
X129825750Y-64555000D01*
X129667000Y-64713750D01*
X129413000Y-64713750D01*
X129254250Y-64555000D01*
X128690000Y-64551928D01*
X128565518Y-64564188D01*
X128445820Y-64600498D01*
X128335506Y-64659463D01*
X128238815Y-64738815D01*
X128159463Y-64835506D01*
X128100498Y-64945820D01*
X128064188Y-65065518D01*
X128051928Y-65190000D01*
X125805000Y-65190000D01*
X125805000Y-64367724D01*
X134321291Y-64372439D01*
%TD*%
M02*
