G04 #@! TF.FileFunction,Legend,Top*
%FSLAX46Y46*%
G04 Gerber Fmt 4.6, Leading zero omitted, Abs format (unit mm)*
G04 Created by KiCad (PCBNEW 4.0.7) date 04/08/18 22:28:08*
%MOMM*%
%LPD*%
G01*
G04 APERTURE LIST*
%ADD10C,0.100000*%
%ADD11C,0.120000*%
%ADD12C,0.150000*%
%ADD13C,0.101600*%
G04 APERTURE END LIST*
D10*
D11*
X139419200Y-97302400D02*
X141189200Y-97302400D01*
X139419200Y-88702400D02*
X139419200Y-97302400D01*
X144959200Y-88702400D02*
X139419200Y-88702400D01*
X144959200Y-97302400D02*
X144959200Y-88702400D01*
X143189200Y-97302400D02*
X144959200Y-97302400D01*
X141189200Y-97302400D02*
G75*
G02X143189200Y-97302400I1000000J0D01*
G01*
X133705600Y-60736400D02*
X126085600Y-60736400D01*
X133705600Y-65176400D02*
X126085600Y-65176400D01*
X133705600Y-67076400D02*
X126085600Y-67076400D01*
X141325600Y-67076400D02*
X141325600Y-60736400D01*
X126085600Y-67076400D02*
X126085600Y-60736400D01*
X133705600Y-65176400D02*
X141325600Y-65176400D01*
X141325600Y-67076400D02*
X133705600Y-67076400D01*
X133705600Y-60736400D02*
X141325600Y-60736400D01*
X129429200Y-81035200D02*
X134629200Y-81035200D01*
X129429200Y-73355200D02*
X129429200Y-81035200D01*
X134629200Y-70755200D02*
X134629200Y-81035200D01*
X129429200Y-73355200D02*
X132029200Y-73355200D01*
X132029200Y-73355200D02*
X132029200Y-70755200D01*
X132029200Y-70755200D02*
X134629200Y-70755200D01*
X129429200Y-72085200D02*
X129429200Y-70755200D01*
X129429200Y-70755200D02*
X130759200Y-70755200D01*
X134324400Y-89722000D02*
X134324400Y-87062000D01*
X129184400Y-89722000D02*
X134324400Y-89722000D01*
X129184400Y-87062000D02*
X134324400Y-87062000D01*
X129184400Y-89722000D02*
X129184400Y-87062000D01*
X127914400Y-89722000D02*
X126584400Y-89722000D01*
X126584400Y-89722000D02*
X126584400Y-88392000D01*
X134324400Y-86064400D02*
X134324400Y-83404400D01*
X129184400Y-86064400D02*
X134324400Y-86064400D01*
X129184400Y-83404400D02*
X134324400Y-83404400D01*
X129184400Y-86064400D02*
X129184400Y-83404400D01*
X127914400Y-86064400D02*
X126584400Y-86064400D01*
X126584400Y-86064400D02*
X126584400Y-84734400D01*
X165854000Y-98876400D02*
X164854000Y-98876400D01*
X164854000Y-97516400D02*
X165854000Y-97516400D01*
X129102400Y-76817600D02*
X129102400Y-77817600D01*
X127742400Y-77817600D02*
X127742400Y-76817600D01*
X136477200Y-98387200D02*
X136477200Y-97117200D01*
X136477200Y-98387200D02*
X133937200Y-98387200D01*
X136277200Y-98187200D02*
X126257200Y-98187200D01*
X126257200Y-98187200D02*
X126257200Y-90687200D01*
X126257200Y-90687200D02*
X136277200Y-90687200D01*
X136277200Y-90687200D02*
X136277200Y-98187200D01*
X133297200Y-96342200D02*
X133297200Y-95072200D01*
X133297200Y-95072200D02*
X129237200Y-95072200D01*
X129237200Y-95072200D02*
X129237200Y-96342200D01*
X129237200Y-96342200D02*
X133297200Y-96342200D01*
X131267200Y-96342200D02*
X131267200Y-95072200D01*
X133297200Y-93802200D02*
X133297200Y-92532200D01*
X133297200Y-92532200D02*
X129237200Y-92532200D01*
X129237200Y-92532200D02*
X129237200Y-93802200D01*
X129237200Y-93802200D02*
X133297200Y-93802200D01*
X131267200Y-93802200D02*
X131267200Y-92532200D01*
X158867600Y-60844800D02*
X154367600Y-60844800D01*
X160117600Y-64844800D02*
X160117600Y-63344800D01*
X154367600Y-67344800D02*
X158867600Y-67344800D01*
X153117600Y-63344800D02*
X153117600Y-64844800D01*
X168621200Y-60844800D02*
X164121200Y-60844800D01*
X169871200Y-64844800D02*
X169871200Y-63344800D01*
X164121200Y-67344800D02*
X168621200Y-67344800D01*
X162871200Y-63344800D02*
X162871200Y-64844800D01*
X149164800Y-60895600D02*
X144664800Y-60895600D01*
X150414800Y-64895600D02*
X150414800Y-63395600D01*
X144664800Y-67395600D02*
X149164800Y-67395600D01*
X143414800Y-63395600D02*
X143414800Y-64895600D01*
D12*
X138137000Y-73321000D02*
X138137000Y-73446000D01*
X142787000Y-73321000D02*
X142787000Y-73546000D01*
X142787000Y-78571000D02*
X142787000Y-78346000D01*
X138137000Y-78571000D02*
X138137000Y-78346000D01*
X138137000Y-73321000D02*
X142787000Y-73321000D01*
X138137000Y-78571000D02*
X142787000Y-78571000D01*
X138137000Y-73446000D02*
X136787000Y-73446000D01*
D11*
X162969600Y-93167200D02*
G75*
G03X162969600Y-93167200I-4090000J0D01*
G01*
X158879600Y-97217200D02*
X158879600Y-89117200D01*
X158839600Y-97217200D02*
X158839600Y-89117200D01*
X158799600Y-97217200D02*
X158799600Y-89117200D01*
X158759600Y-97216200D02*
X158759600Y-89118200D01*
X158719600Y-97214200D02*
X158719600Y-89120200D01*
X158679600Y-97213200D02*
X158679600Y-89121200D01*
X158639600Y-97210200D02*
X158639600Y-89124200D01*
X158599600Y-97208200D02*
X158599600Y-89126200D01*
X158559600Y-97205200D02*
X158559600Y-89129200D01*
X158519600Y-97202200D02*
X158519600Y-89132200D01*
X158479600Y-97198200D02*
X158479600Y-89136200D01*
X158439600Y-97194200D02*
X158439600Y-89140200D01*
X158399600Y-97189200D02*
X158399600Y-89145200D01*
X158359600Y-97184200D02*
X158359600Y-89150200D01*
X158319600Y-97179200D02*
X158319600Y-89155200D01*
X158279600Y-97173200D02*
X158279600Y-89161200D01*
X158239600Y-97167200D02*
X158239600Y-89167200D01*
X158199600Y-97161200D02*
X158199600Y-89173200D01*
X158158600Y-97154200D02*
X158158600Y-89180200D01*
X158118600Y-97146200D02*
X158118600Y-89188200D01*
X158078600Y-97138200D02*
X158078600Y-94147200D01*
X158078600Y-92187200D02*
X158078600Y-89196200D01*
X158038600Y-97130200D02*
X158038600Y-94147200D01*
X158038600Y-92187200D02*
X158038600Y-89204200D01*
X157998600Y-97122200D02*
X157998600Y-94147200D01*
X157998600Y-92187200D02*
X157998600Y-89212200D01*
X157958600Y-97113200D02*
X157958600Y-94147200D01*
X157958600Y-92187200D02*
X157958600Y-89221200D01*
X157918600Y-97103200D02*
X157918600Y-94147200D01*
X157918600Y-92187200D02*
X157918600Y-89231200D01*
X157878600Y-97093200D02*
X157878600Y-94147200D01*
X157878600Y-92187200D02*
X157878600Y-89241200D01*
X157838600Y-97083200D02*
X157838600Y-94147200D01*
X157838600Y-92187200D02*
X157838600Y-89251200D01*
X157798600Y-97072200D02*
X157798600Y-94147200D01*
X157798600Y-92187200D02*
X157798600Y-89262200D01*
X157758600Y-97061200D02*
X157758600Y-94147200D01*
X157758600Y-92187200D02*
X157758600Y-89273200D01*
X157718600Y-97050200D02*
X157718600Y-94147200D01*
X157718600Y-92187200D02*
X157718600Y-89284200D01*
X157678600Y-97037200D02*
X157678600Y-94147200D01*
X157678600Y-92187200D02*
X157678600Y-89297200D01*
X157638600Y-97025200D02*
X157638600Y-94147200D01*
X157638600Y-92187200D02*
X157638600Y-89309200D01*
X157598600Y-97012200D02*
X157598600Y-94147200D01*
X157598600Y-92187200D02*
X157598600Y-89322200D01*
X157558600Y-96999200D02*
X157558600Y-94147200D01*
X157558600Y-92187200D02*
X157558600Y-89335200D01*
X157518600Y-96985200D02*
X157518600Y-94147200D01*
X157518600Y-92187200D02*
X157518600Y-89349200D01*
X157478600Y-96970200D02*
X157478600Y-94147200D01*
X157478600Y-92187200D02*
X157478600Y-89364200D01*
X157438600Y-96956200D02*
X157438600Y-94147200D01*
X157438600Y-92187200D02*
X157438600Y-89378200D01*
X157398600Y-96940200D02*
X157398600Y-94147200D01*
X157398600Y-92187200D02*
X157398600Y-89394200D01*
X157358600Y-96925200D02*
X157358600Y-94147200D01*
X157358600Y-92187200D02*
X157358600Y-89409200D01*
X157318600Y-96908200D02*
X157318600Y-94147200D01*
X157318600Y-92187200D02*
X157318600Y-89426200D01*
X157278600Y-96892200D02*
X157278600Y-94147200D01*
X157278600Y-92187200D02*
X157278600Y-89442200D01*
X157238600Y-96874200D02*
X157238600Y-94147200D01*
X157238600Y-92187200D02*
X157238600Y-89460200D01*
X157198600Y-96857200D02*
X157198600Y-94147200D01*
X157198600Y-92187200D02*
X157198600Y-89477200D01*
X157158600Y-96838200D02*
X157158600Y-94147200D01*
X157158600Y-92187200D02*
X157158600Y-89496200D01*
X157118600Y-96819200D02*
X157118600Y-94147200D01*
X157118600Y-92187200D02*
X157118600Y-89515200D01*
X157078600Y-96800200D02*
X157078600Y-94147200D01*
X157078600Y-92187200D02*
X157078600Y-89534200D01*
X157038600Y-96780200D02*
X157038600Y-94147200D01*
X157038600Y-92187200D02*
X157038600Y-89554200D01*
X156998600Y-96760200D02*
X156998600Y-94147200D01*
X156998600Y-92187200D02*
X156998600Y-89574200D01*
X156958600Y-96739200D02*
X156958600Y-94147200D01*
X156958600Y-92187200D02*
X156958600Y-89595200D01*
X156918600Y-96717200D02*
X156918600Y-94147200D01*
X156918600Y-92187200D02*
X156918600Y-89617200D01*
X156878600Y-96695200D02*
X156878600Y-94147200D01*
X156878600Y-92187200D02*
X156878600Y-89639200D01*
X156838600Y-96672200D02*
X156838600Y-94147200D01*
X156838600Y-92187200D02*
X156838600Y-89662200D01*
X156798600Y-96649200D02*
X156798600Y-94147200D01*
X156798600Y-92187200D02*
X156798600Y-89685200D01*
X156758600Y-96625200D02*
X156758600Y-94147200D01*
X156758600Y-92187200D02*
X156758600Y-89709200D01*
X156718600Y-96601200D02*
X156718600Y-94147200D01*
X156718600Y-92187200D02*
X156718600Y-89733200D01*
X156678600Y-96575200D02*
X156678600Y-94147200D01*
X156678600Y-92187200D02*
X156678600Y-89759200D01*
X156638600Y-96550200D02*
X156638600Y-94147200D01*
X156638600Y-92187200D02*
X156638600Y-89784200D01*
X156598600Y-96523200D02*
X156598600Y-94147200D01*
X156598600Y-92187200D02*
X156598600Y-89811200D01*
X156558600Y-96496200D02*
X156558600Y-94147200D01*
X156558600Y-92187200D02*
X156558600Y-89838200D01*
X156518600Y-96468200D02*
X156518600Y-94147200D01*
X156518600Y-92187200D02*
X156518600Y-89866200D01*
X156478600Y-96439200D02*
X156478600Y-94147200D01*
X156478600Y-92187200D02*
X156478600Y-89895200D01*
X156438600Y-96410200D02*
X156438600Y-94147200D01*
X156438600Y-92187200D02*
X156438600Y-89924200D01*
X156398600Y-96380200D02*
X156398600Y-94147200D01*
X156398600Y-92187200D02*
X156398600Y-89954200D01*
X156358600Y-96349200D02*
X156358600Y-94147200D01*
X156358600Y-92187200D02*
X156358600Y-89985200D01*
X156318600Y-96317200D02*
X156318600Y-94147200D01*
X156318600Y-92187200D02*
X156318600Y-90017200D01*
X156278600Y-96285200D02*
X156278600Y-94147200D01*
X156278600Y-92187200D02*
X156278600Y-90049200D01*
X156238600Y-96251200D02*
X156238600Y-94147200D01*
X156238600Y-92187200D02*
X156238600Y-90083200D01*
X156198600Y-96217200D02*
X156198600Y-94147200D01*
X156198600Y-92187200D02*
X156198600Y-90117200D01*
X156158600Y-96182200D02*
X156158600Y-94147200D01*
X156158600Y-92187200D02*
X156158600Y-90152200D01*
X156118600Y-96146200D02*
X156118600Y-90188200D01*
X156078600Y-96109200D02*
X156078600Y-90225200D01*
X156038600Y-96071200D02*
X156038600Y-90263200D01*
X155998600Y-96032200D02*
X155998600Y-90302200D01*
X155958600Y-95991200D02*
X155958600Y-90343200D01*
X155918600Y-95950200D02*
X155918600Y-90384200D01*
X155878600Y-95907200D02*
X155878600Y-90427200D01*
X155838600Y-95864200D02*
X155838600Y-90470200D01*
X155798600Y-95819200D02*
X155798600Y-90515200D01*
X155758600Y-95772200D02*
X155758600Y-90562200D01*
X155718600Y-95724200D02*
X155718600Y-90610200D01*
X155678600Y-95675200D02*
X155678600Y-90659200D01*
X155638600Y-95624200D02*
X155638600Y-90710200D01*
X155598600Y-95571200D02*
X155598600Y-90763200D01*
X155558600Y-95516200D02*
X155558600Y-90818200D01*
X155518600Y-95460200D02*
X155518600Y-90874200D01*
X155478600Y-95401200D02*
X155478600Y-90933200D01*
X155438600Y-95340200D02*
X155438600Y-90994200D01*
X155398600Y-95276200D02*
X155398600Y-91058200D01*
X155358600Y-95210200D02*
X155358600Y-91124200D01*
X155318600Y-95141200D02*
X155318600Y-91193200D01*
X155278600Y-95069200D02*
X155278600Y-91265200D01*
X155238600Y-94993200D02*
X155238600Y-91341200D01*
X155198600Y-94912200D02*
X155198600Y-91422200D01*
X155158600Y-94827200D02*
X155158600Y-91507200D01*
X155118600Y-94737200D02*
X155118600Y-91597200D01*
X155078600Y-94640200D02*
X155078600Y-91694200D01*
X155038600Y-94536200D02*
X155038600Y-91798200D01*
X154998600Y-94421200D02*
X154998600Y-91913200D01*
X154958600Y-94294200D02*
X154958600Y-92040200D01*
X154918600Y-94150200D02*
X154918600Y-92184200D01*
X154878600Y-93981200D02*
X154878600Y-92353200D01*
X154838600Y-93765200D02*
X154838600Y-92569200D01*
X154798600Y-93413200D02*
X154798600Y-92921200D01*
X162829600Y-93167200D02*
X161629600Y-93167200D01*
X162229600Y-93817200D02*
X162229600Y-92517200D01*
X155190278Y-87082523D02*
G75*
G03X159801580Y-87082800I2305722J1179723D01*
G01*
X155190278Y-84723077D02*
G75*
G02X159801580Y-84722800I2305722J-1179723D01*
G01*
X155190278Y-84723077D02*
G75*
G03X155190420Y-87082800I2305722J-1179723D01*
G01*
X157496000Y-88452800D02*
X157496000Y-83352800D01*
X157456000Y-88452800D02*
X157456000Y-86882800D01*
X157456000Y-84922800D02*
X157456000Y-83352800D01*
X157416000Y-88451800D02*
X157416000Y-86882800D01*
X157416000Y-84922800D02*
X157416000Y-83353800D01*
X157376000Y-88450800D02*
X157376000Y-86882800D01*
X157376000Y-84922800D02*
X157376000Y-83354800D01*
X157336000Y-88448800D02*
X157336000Y-86882800D01*
X157336000Y-84922800D02*
X157336000Y-83356800D01*
X157296000Y-88445800D02*
X157296000Y-86882800D01*
X157296000Y-84922800D02*
X157296000Y-83359800D01*
X157256000Y-88441800D02*
X157256000Y-86882800D01*
X157256000Y-84922800D02*
X157256000Y-83363800D01*
X157216000Y-88437800D02*
X157216000Y-86882800D01*
X157216000Y-84922800D02*
X157216000Y-83367800D01*
X157176000Y-88433800D02*
X157176000Y-86882800D01*
X157176000Y-84922800D02*
X157176000Y-83371800D01*
X157136000Y-88427800D02*
X157136000Y-86882800D01*
X157136000Y-84922800D02*
X157136000Y-83377800D01*
X157096000Y-88421800D02*
X157096000Y-86882800D01*
X157096000Y-84922800D02*
X157096000Y-83383800D01*
X157056000Y-88415800D02*
X157056000Y-86882800D01*
X157056000Y-84922800D02*
X157056000Y-83389800D01*
X157016000Y-88408800D02*
X157016000Y-86882800D01*
X157016000Y-84922800D02*
X157016000Y-83396800D01*
X156976000Y-88400800D02*
X156976000Y-86882800D01*
X156976000Y-84922800D02*
X156976000Y-83404800D01*
X156936000Y-88391800D02*
X156936000Y-86882800D01*
X156936000Y-84922800D02*
X156936000Y-83413800D01*
X156896000Y-88382800D02*
X156896000Y-86882800D01*
X156896000Y-84922800D02*
X156896000Y-83422800D01*
X156856000Y-88372800D02*
X156856000Y-86882800D01*
X156856000Y-84922800D02*
X156856000Y-83432800D01*
X156816000Y-88362800D02*
X156816000Y-86882800D01*
X156816000Y-84922800D02*
X156816000Y-83442800D01*
X156775000Y-88350800D02*
X156775000Y-86882800D01*
X156775000Y-84922800D02*
X156775000Y-83454800D01*
X156735000Y-88338800D02*
X156735000Y-86882800D01*
X156735000Y-84922800D02*
X156735000Y-83466800D01*
X156695000Y-88326800D02*
X156695000Y-86882800D01*
X156695000Y-84922800D02*
X156695000Y-83478800D01*
X156655000Y-88312800D02*
X156655000Y-86882800D01*
X156655000Y-84922800D02*
X156655000Y-83492800D01*
X156615000Y-88298800D02*
X156615000Y-86882800D01*
X156615000Y-84922800D02*
X156615000Y-83506800D01*
X156575000Y-88284800D02*
X156575000Y-86882800D01*
X156575000Y-84922800D02*
X156575000Y-83520800D01*
X156535000Y-88268800D02*
X156535000Y-86882800D01*
X156535000Y-84922800D02*
X156535000Y-83536800D01*
X156495000Y-88252800D02*
X156495000Y-86882800D01*
X156495000Y-84922800D02*
X156495000Y-83552800D01*
X156455000Y-88235800D02*
X156455000Y-86882800D01*
X156455000Y-84922800D02*
X156455000Y-83569800D01*
X156415000Y-88217800D02*
X156415000Y-86882800D01*
X156415000Y-84922800D02*
X156415000Y-83587800D01*
X156375000Y-88198800D02*
X156375000Y-86882800D01*
X156375000Y-84922800D02*
X156375000Y-83606800D01*
X156335000Y-88178800D02*
X156335000Y-86882800D01*
X156335000Y-84922800D02*
X156335000Y-83626800D01*
X156295000Y-88158800D02*
X156295000Y-86882800D01*
X156295000Y-84922800D02*
X156295000Y-83646800D01*
X156255000Y-88136800D02*
X156255000Y-86882800D01*
X156255000Y-84922800D02*
X156255000Y-83668800D01*
X156215000Y-88114800D02*
X156215000Y-86882800D01*
X156215000Y-84922800D02*
X156215000Y-83690800D01*
X156175000Y-88091800D02*
X156175000Y-86882800D01*
X156175000Y-84922800D02*
X156175000Y-83713800D01*
X156135000Y-88067800D02*
X156135000Y-86882800D01*
X156135000Y-84922800D02*
X156135000Y-83737800D01*
X156095000Y-88042800D02*
X156095000Y-86882800D01*
X156095000Y-84922800D02*
X156095000Y-83762800D01*
X156055000Y-88015800D02*
X156055000Y-86882800D01*
X156055000Y-84922800D02*
X156055000Y-83789800D01*
X156015000Y-87988800D02*
X156015000Y-86882800D01*
X156015000Y-84922800D02*
X156015000Y-83816800D01*
X155975000Y-87960800D02*
X155975000Y-86882800D01*
X155975000Y-84922800D02*
X155975000Y-83844800D01*
X155935000Y-87930800D02*
X155935000Y-86882800D01*
X155935000Y-84922800D02*
X155935000Y-83874800D01*
X155895000Y-87899800D02*
X155895000Y-86882800D01*
X155895000Y-84922800D02*
X155895000Y-83905800D01*
X155855000Y-87867800D02*
X155855000Y-86882800D01*
X155855000Y-84922800D02*
X155855000Y-83937800D01*
X155815000Y-87834800D02*
X155815000Y-86882800D01*
X155815000Y-84922800D02*
X155815000Y-83970800D01*
X155775000Y-87799800D02*
X155775000Y-86882800D01*
X155775000Y-84922800D02*
X155775000Y-84005800D01*
X155735000Y-87763800D02*
X155735000Y-86882800D01*
X155735000Y-84922800D02*
X155735000Y-84041800D01*
X155695000Y-87725800D02*
X155695000Y-86882800D01*
X155695000Y-84922800D02*
X155695000Y-84079800D01*
X155655000Y-87685800D02*
X155655000Y-86882800D01*
X155655000Y-84922800D02*
X155655000Y-84119800D01*
X155615000Y-87644800D02*
X155615000Y-86882800D01*
X155615000Y-84922800D02*
X155615000Y-84160800D01*
X155575000Y-87601800D02*
X155575000Y-86882800D01*
X155575000Y-84922800D02*
X155575000Y-84203800D01*
X155535000Y-87556800D02*
X155535000Y-86882800D01*
X155535000Y-84922800D02*
X155535000Y-84248800D01*
X155495000Y-87508800D02*
X155495000Y-84296800D01*
X155455000Y-87458800D02*
X155455000Y-84346800D01*
X155415000Y-87406800D02*
X155415000Y-84398800D01*
X155375000Y-87350800D02*
X155375000Y-84454800D01*
X155335000Y-87292800D02*
X155335000Y-84512800D01*
X155295000Y-87229800D02*
X155295000Y-84575800D01*
X155255000Y-87163800D02*
X155255000Y-84641800D01*
X155215000Y-87091800D02*
X155215000Y-84713800D01*
X155175000Y-87014800D02*
X155175000Y-84790800D01*
X155135000Y-86930800D02*
X155135000Y-84874800D01*
X155095000Y-86836800D02*
X155095000Y-84968800D01*
X155055000Y-86731800D02*
X155055000Y-85073800D01*
X155015000Y-86609800D02*
X155015000Y-85195800D01*
X154975000Y-86461800D02*
X154975000Y-85343800D01*
X154935000Y-86256800D02*
X154935000Y-85548800D01*
X160696000Y-85902800D02*
X159496000Y-85902800D01*
X160096000Y-86552800D02*
X160096000Y-85252800D01*
X149936200Y-94224000D02*
X149936200Y-93335000D01*
X149936200Y-93779500D02*
X149343533Y-94224000D01*
X149343533Y-94224000D02*
X149343533Y-93335000D01*
X149343533Y-93335000D02*
X149936200Y-93779500D01*
X150105800Y-94370495D02*
G75*
G02X150075684Y-96604000I1227400J-1133505D01*
G01*
X149936200Y-90261600D02*
X149936200Y-89372600D01*
X149936200Y-89817100D02*
X149343533Y-90261600D01*
X149343533Y-90261600D02*
X149343533Y-89372600D01*
X149343533Y-89372600D02*
X149936200Y-89817100D01*
X150105800Y-90408095D02*
G75*
G02X150075684Y-92641600I1227400J-1133505D01*
G01*
X150191600Y-71208000D02*
X150191600Y-69508000D01*
X150191600Y-69508000D02*
X147641600Y-69508000D01*
X150191600Y-71208000D02*
X147641600Y-71208000D01*
X149936200Y-86350000D02*
X149936200Y-85461000D01*
X149936200Y-85905500D02*
X149343533Y-86350000D01*
X149343533Y-86350000D02*
X149343533Y-85461000D01*
X149343533Y-85461000D02*
X149936200Y-85905500D01*
X150105800Y-86496495D02*
G75*
G02X150075684Y-88730000I1227400J-1133505D01*
G01*
X158396400Y-78060400D02*
X158396400Y-79260400D01*
X158396400Y-79260400D02*
X155696400Y-79260400D01*
X154396400Y-74460400D02*
X158396400Y-74460400D01*
X158396400Y-74460400D02*
X158396400Y-75660400D01*
D13*
X148677690Y-113365643D02*
X148620238Y-113423095D01*
X148447881Y-113480548D01*
X148332976Y-113480548D01*
X148160619Y-113423095D01*
X148045714Y-113308190D01*
X147988262Y-113193286D01*
X147930810Y-112963476D01*
X147930810Y-112791119D01*
X147988262Y-112561310D01*
X148045714Y-112446405D01*
X148160619Y-112331500D01*
X148332976Y-112274048D01*
X148447881Y-112274048D01*
X148620238Y-112331500D01*
X148677690Y-112388952D01*
X149194762Y-113480548D02*
X149194762Y-112274048D01*
X149884190Y-113480548D01*
X149884190Y-112274048D01*
X151090690Y-113480548D02*
X150401262Y-113480548D01*
X150745976Y-113480548D02*
X150745976Y-112274048D01*
X150631071Y-112446405D01*
X150516166Y-112561310D01*
X150401262Y-112618762D01*
X170703334Y-113799318D02*
X170013906Y-113799318D01*
X170358620Y-113799318D02*
X170358620Y-112592818D01*
X170243715Y-112765175D01*
X170128810Y-112880080D01*
X170013906Y-112937532D01*
X125983610Y-113911078D02*
X125294182Y-113911078D01*
X125638896Y-113911078D02*
X125638896Y-112704578D01*
X125523991Y-112876935D01*
X125409086Y-112991840D01*
X125294182Y-113049292D01*
X126443230Y-112819482D02*
X126500682Y-112762030D01*
X126615587Y-112704578D01*
X126902849Y-112704578D01*
X127017753Y-112762030D01*
X127075206Y-112819482D01*
X127132658Y-112934387D01*
X127132658Y-113049292D01*
X127075206Y-113221649D01*
X126385777Y-113911078D01*
X127132658Y-113911078D01*
D12*
X141461105Y-98554781D02*
X141461105Y-97554781D01*
X141699200Y-97554781D01*
X141842058Y-97602400D01*
X141937296Y-97697638D01*
X141984915Y-97792876D01*
X142032534Y-97983352D01*
X142032534Y-98126210D01*
X141984915Y-98316686D01*
X141937296Y-98411924D01*
X141842058Y-98507162D01*
X141699200Y-98554781D01*
X141461105Y-98554781D01*
X142984915Y-98554781D02*
X142413486Y-98554781D01*
X142699200Y-98554781D02*
X142699200Y-97554781D01*
X142603962Y-97697638D01*
X142508724Y-97792876D01*
X142413486Y-97840495D01*
X133372267Y-67108781D02*
X133372267Y-67823067D01*
X133324647Y-67965924D01*
X133229409Y-68061162D01*
X133086552Y-68108781D01*
X132991314Y-68108781D01*
X134372267Y-68108781D02*
X133800838Y-68108781D01*
X134086552Y-68108781D02*
X134086552Y-67108781D01*
X133991314Y-67251638D01*
X133896076Y-67346876D01*
X133800838Y-67394495D01*
X131695867Y-69207581D02*
X131695867Y-69921867D01*
X131648247Y-70064724D01*
X131553009Y-70159962D01*
X131410152Y-70207581D01*
X131314914Y-70207581D01*
X132124438Y-69302819D02*
X132172057Y-69255200D01*
X132267295Y-69207581D01*
X132505391Y-69207581D01*
X132600629Y-69255200D01*
X132648248Y-69302819D01*
X132695867Y-69398057D01*
X132695867Y-69493295D01*
X132648248Y-69636152D01*
X132076819Y-70207581D01*
X132695867Y-70207581D01*
X125436381Y-89225333D02*
X126150667Y-89225333D01*
X126293524Y-89272953D01*
X126388762Y-89368191D01*
X126436381Y-89511048D01*
X126436381Y-89606286D01*
X126436381Y-88749143D02*
X125436381Y-88749143D01*
X125436381Y-88368190D01*
X125484000Y-88272952D01*
X125531619Y-88225333D01*
X125626857Y-88177714D01*
X125769714Y-88177714D01*
X125864952Y-88225333D01*
X125912571Y-88272952D01*
X125960190Y-88368190D01*
X125960190Y-88749143D01*
X126436381Y-87225333D02*
X126436381Y-87796762D01*
X126436381Y-87511048D02*
X125436381Y-87511048D01*
X125579238Y-87606286D01*
X125674476Y-87701524D01*
X125722095Y-87796762D01*
X125436381Y-85542333D02*
X126150667Y-85542333D01*
X126293524Y-85589953D01*
X126388762Y-85685191D01*
X126436381Y-85828048D01*
X126436381Y-85923286D01*
X126436381Y-85066143D02*
X125436381Y-85066143D01*
X125436381Y-84685190D01*
X125484000Y-84589952D01*
X125531619Y-84542333D01*
X125626857Y-84494714D01*
X125769714Y-84494714D01*
X125864952Y-84542333D01*
X125912571Y-84589952D01*
X125960190Y-84685190D01*
X125960190Y-85066143D01*
X125531619Y-84113762D02*
X125484000Y-84066143D01*
X125436381Y-83970905D01*
X125436381Y-83732809D01*
X125484000Y-83637571D01*
X125531619Y-83589952D01*
X125626857Y-83542333D01*
X125722095Y-83542333D01*
X125864952Y-83589952D01*
X126436381Y-84161381D01*
X126436381Y-83542333D01*
X168235334Y-98597981D02*
X167902000Y-98121790D01*
X167663905Y-98597981D02*
X167663905Y-97597981D01*
X168044858Y-97597981D01*
X168140096Y-97645600D01*
X168187715Y-97693219D01*
X168235334Y-97788457D01*
X168235334Y-97931314D01*
X168187715Y-98026552D01*
X168140096Y-98074171D01*
X168044858Y-98121790D01*
X167663905Y-98121790D01*
X169187715Y-98597981D02*
X168616286Y-98597981D01*
X168902000Y-98597981D02*
X168902000Y-97597981D01*
X168806762Y-97740838D01*
X168711524Y-97836076D01*
X168616286Y-97883695D01*
X127424781Y-77484266D02*
X126948590Y-77817600D01*
X127424781Y-78055695D02*
X126424781Y-78055695D01*
X126424781Y-77674742D01*
X126472400Y-77579504D01*
X126520019Y-77531885D01*
X126615257Y-77484266D01*
X126758114Y-77484266D01*
X126853352Y-77531885D01*
X126900971Y-77579504D01*
X126948590Y-77674742D01*
X126948590Y-78055695D01*
X126424781Y-77150933D02*
X126424781Y-76531885D01*
X126805733Y-76865219D01*
X126805733Y-76722361D01*
X126853352Y-76627123D01*
X126900971Y-76579504D01*
X126996210Y-76531885D01*
X127234305Y-76531885D01*
X127329543Y-76579504D01*
X127377162Y-76627123D01*
X127424781Y-76722361D01*
X127424781Y-77008076D01*
X127377162Y-77103314D01*
X127329543Y-77150933D01*
X129933867Y-99591962D02*
X130076724Y-99639581D01*
X130314820Y-99639581D01*
X130410058Y-99591962D01*
X130457677Y-99544343D01*
X130505296Y-99449105D01*
X130505296Y-99353867D01*
X130457677Y-99258629D01*
X130410058Y-99211010D01*
X130314820Y-99163390D01*
X130124343Y-99115771D01*
X130029105Y-99068152D01*
X129981486Y-99020533D01*
X129933867Y-98925295D01*
X129933867Y-98830057D01*
X129981486Y-98734819D01*
X130029105Y-98687200D01*
X130124343Y-98639581D01*
X130362439Y-98639581D01*
X130505296Y-98687200D01*
X130838629Y-98639581D02*
X131076724Y-99639581D01*
X131267201Y-98925295D01*
X131457677Y-99639581D01*
X131695772Y-98639581D01*
X132600534Y-99639581D02*
X132029105Y-99639581D01*
X132314819Y-99639581D02*
X132314819Y-98639581D01*
X132219581Y-98782438D01*
X132124343Y-98877676D01*
X132029105Y-98925295D01*
X153689028Y-68273371D02*
X154022362Y-68273371D01*
X154165219Y-68797181D02*
X153689028Y-68797181D01*
X153689028Y-67797181D01*
X154165219Y-67797181D01*
X154546171Y-68749562D02*
X154689028Y-68797181D01*
X154927124Y-68797181D01*
X155022362Y-68749562D01*
X155069981Y-68701943D01*
X155117600Y-68606705D01*
X155117600Y-68511467D01*
X155069981Y-68416229D01*
X155022362Y-68368610D01*
X154927124Y-68320990D01*
X154736647Y-68273371D01*
X154641409Y-68225752D01*
X154593790Y-68178133D01*
X154546171Y-68082895D01*
X154546171Y-67987657D01*
X154593790Y-67892419D01*
X154641409Y-67844800D01*
X154736647Y-67797181D01*
X154974743Y-67797181D01*
X155117600Y-67844800D01*
X155546171Y-68797181D02*
X155546171Y-67797181D01*
X155927124Y-67797181D01*
X156022362Y-67844800D01*
X156069981Y-67892419D01*
X156117600Y-67987657D01*
X156117600Y-68130514D01*
X156069981Y-68225752D01*
X156022362Y-68273371D01*
X155927124Y-68320990D01*
X155546171Y-68320990D01*
X157879505Y-68797181D02*
X157546171Y-68320990D01*
X157308076Y-68797181D02*
X157308076Y-67797181D01*
X157689029Y-67797181D01*
X157784267Y-67844800D01*
X157831886Y-67892419D01*
X157879505Y-67987657D01*
X157879505Y-68130514D01*
X157831886Y-68225752D01*
X157784267Y-68273371D01*
X157689029Y-68320990D01*
X157308076Y-68320990D01*
X158260457Y-68749562D02*
X158403314Y-68797181D01*
X158641410Y-68797181D01*
X158736648Y-68749562D01*
X158784267Y-68701943D01*
X158831886Y-68606705D01*
X158831886Y-68511467D01*
X158784267Y-68416229D01*
X158736648Y-68368610D01*
X158641410Y-68320990D01*
X158450933Y-68273371D01*
X158355695Y-68225752D01*
X158308076Y-68178133D01*
X158260457Y-68082895D01*
X158260457Y-67987657D01*
X158308076Y-67892419D01*
X158355695Y-67844800D01*
X158450933Y-67797181D01*
X158689029Y-67797181D01*
X158831886Y-67844800D01*
X159117600Y-67797181D02*
X159689029Y-67797181D01*
X159403314Y-68797181D02*
X159403314Y-67797181D01*
X163990248Y-68701943D02*
X163942629Y-68749562D01*
X163799772Y-68797181D01*
X163704534Y-68797181D01*
X163561676Y-68749562D01*
X163466438Y-68654324D01*
X163418819Y-68559086D01*
X163371200Y-68368610D01*
X163371200Y-68225752D01*
X163418819Y-68035276D01*
X163466438Y-67940038D01*
X163561676Y-67844800D01*
X163704534Y-67797181D01*
X163799772Y-67797181D01*
X163942629Y-67844800D01*
X163990248Y-67892419D01*
X164847391Y-67797181D02*
X164656914Y-67797181D01*
X164561676Y-67844800D01*
X164514057Y-67892419D01*
X164418819Y-68035276D01*
X164371200Y-68225752D01*
X164371200Y-68606705D01*
X164418819Y-68701943D01*
X164466438Y-68749562D01*
X164561676Y-68797181D01*
X164752153Y-68797181D01*
X164847391Y-68749562D01*
X164895010Y-68701943D01*
X164942629Y-68606705D01*
X164942629Y-68368610D01*
X164895010Y-68273371D01*
X164847391Y-68225752D01*
X164752153Y-68178133D01*
X164561676Y-68178133D01*
X164466438Y-68225752D01*
X164418819Y-68273371D01*
X164371200Y-68368610D01*
X165799772Y-68130514D02*
X165799772Y-68797181D01*
X165561676Y-67749562D02*
X165323581Y-68463848D01*
X165942629Y-68463848D01*
X167656915Y-68797181D02*
X167323581Y-68320990D01*
X167085486Y-68797181D02*
X167085486Y-67797181D01*
X167466439Y-67797181D01*
X167561677Y-67844800D01*
X167609296Y-67892419D01*
X167656915Y-67987657D01*
X167656915Y-68130514D01*
X167609296Y-68225752D01*
X167561677Y-68273371D01*
X167466439Y-68320990D01*
X167085486Y-68320990D01*
X168037867Y-68749562D02*
X168180724Y-68797181D01*
X168418820Y-68797181D01*
X168514058Y-68749562D01*
X168561677Y-68701943D01*
X168609296Y-68606705D01*
X168609296Y-68511467D01*
X168561677Y-68416229D01*
X168514058Y-68368610D01*
X168418820Y-68320990D01*
X168228343Y-68273371D01*
X168133105Y-68225752D01*
X168085486Y-68178133D01*
X168037867Y-68082895D01*
X168037867Y-67987657D01*
X168085486Y-67892419D01*
X168133105Y-67844800D01*
X168228343Y-67797181D01*
X168466439Y-67797181D01*
X168609296Y-67844800D01*
X168895010Y-67797181D02*
X169466439Y-67797181D01*
X169180724Y-68797181D02*
X169180724Y-67797181D01*
X143319562Y-68324171D02*
X143652896Y-68324171D01*
X143795753Y-68847981D02*
X143319562Y-68847981D01*
X143319562Y-67847981D01*
X143795753Y-67847981D01*
X144176705Y-68800362D02*
X144319562Y-68847981D01*
X144557658Y-68847981D01*
X144652896Y-68800362D01*
X144700515Y-68752743D01*
X144748134Y-68657505D01*
X144748134Y-68562267D01*
X144700515Y-68467029D01*
X144652896Y-68419410D01*
X144557658Y-68371790D01*
X144367181Y-68324171D01*
X144271943Y-68276552D01*
X144224324Y-68228933D01*
X144176705Y-68133695D01*
X144176705Y-68038457D01*
X144224324Y-67943219D01*
X144271943Y-67895600D01*
X144367181Y-67847981D01*
X144605277Y-67847981D01*
X144748134Y-67895600D01*
X145176705Y-68847981D02*
X145176705Y-67847981D01*
X145557658Y-67847981D01*
X145652896Y-67895600D01*
X145700515Y-67943219D01*
X145748134Y-68038457D01*
X145748134Y-68181314D01*
X145700515Y-68276552D01*
X145652896Y-68324171D01*
X145557658Y-68371790D01*
X145176705Y-68371790D01*
X146938610Y-68847981D02*
X146938610Y-67847981D01*
X147319563Y-67847981D01*
X147414801Y-67895600D01*
X147462420Y-67943219D01*
X147510039Y-68038457D01*
X147510039Y-68181314D01*
X147462420Y-68276552D01*
X147414801Y-68324171D01*
X147319563Y-68371790D01*
X146938610Y-68371790D01*
X148510039Y-68847981D02*
X148176705Y-68371790D01*
X147938610Y-68847981D02*
X147938610Y-67847981D01*
X148319563Y-67847981D01*
X148414801Y-67895600D01*
X148462420Y-67943219D01*
X148510039Y-68038457D01*
X148510039Y-68181314D01*
X148462420Y-68276552D01*
X148414801Y-68324171D01*
X148319563Y-68371790D01*
X147938610Y-68371790D01*
X149129086Y-67847981D02*
X149319563Y-67847981D01*
X149414801Y-67895600D01*
X149510039Y-67990838D01*
X149557658Y-68181314D01*
X149557658Y-68514648D01*
X149510039Y-68705124D01*
X149414801Y-68800362D01*
X149319563Y-68847981D01*
X149129086Y-68847981D01*
X149033848Y-68800362D01*
X148938610Y-68705124D01*
X148890991Y-68514648D01*
X148890991Y-68181314D01*
X148938610Y-67990838D01*
X149033848Y-67895600D01*
X149129086Y-67847981D01*
X150510039Y-67895600D02*
X150414801Y-67847981D01*
X150271944Y-67847981D01*
X150129086Y-67895600D01*
X150033848Y-67990838D01*
X149986229Y-68086076D01*
X149938610Y-68276552D01*
X149938610Y-68419410D01*
X149986229Y-68609886D01*
X150033848Y-68705124D01*
X150129086Y-68800362D01*
X150271944Y-68847981D01*
X150367182Y-68847981D01*
X150510039Y-68800362D01*
X150557658Y-68752743D01*
X150557658Y-68419410D01*
X150367182Y-68419410D01*
X139700095Y-71848381D02*
X139700095Y-72657905D01*
X139747714Y-72753143D01*
X139795333Y-72800762D01*
X139890571Y-72848381D01*
X140081048Y-72848381D01*
X140176286Y-72800762D01*
X140223905Y-72753143D01*
X140271524Y-72657905D01*
X140271524Y-71848381D01*
X141271524Y-72848381D02*
X140700095Y-72848381D01*
X140985809Y-72848381D02*
X140985809Y-71848381D01*
X140890571Y-71991238D01*
X140795333Y-72086476D01*
X140700095Y-72134095D01*
X164018934Y-93422743D02*
X163971315Y-93470362D01*
X163828458Y-93517981D01*
X163733220Y-93517981D01*
X163590362Y-93470362D01*
X163495124Y-93375124D01*
X163447505Y-93279886D01*
X163399886Y-93089410D01*
X163399886Y-92946552D01*
X163447505Y-92756076D01*
X163495124Y-92660838D01*
X163590362Y-92565600D01*
X163733220Y-92517981D01*
X163828458Y-92517981D01*
X163971315Y-92565600D01*
X164018934Y-92613219D01*
X164352267Y-92517981D02*
X164971315Y-92517981D01*
X164637981Y-92898933D01*
X164780839Y-92898933D01*
X164876077Y-92946552D01*
X164923696Y-92994171D01*
X164971315Y-93089410D01*
X164971315Y-93327505D01*
X164923696Y-93422743D01*
X164876077Y-93470362D01*
X164780839Y-93517981D01*
X164495124Y-93517981D01*
X164399886Y-93470362D01*
X164352267Y-93422743D01*
X161834534Y-86259943D02*
X161786915Y-86307562D01*
X161644058Y-86355181D01*
X161548820Y-86355181D01*
X161405962Y-86307562D01*
X161310724Y-86212324D01*
X161263105Y-86117086D01*
X161215486Y-85926610D01*
X161215486Y-85783752D01*
X161263105Y-85593276D01*
X161310724Y-85498038D01*
X161405962Y-85402800D01*
X161548820Y-85355181D01*
X161644058Y-85355181D01*
X161786915Y-85402800D01*
X161834534Y-85450419D01*
X162691677Y-85355181D02*
X162501200Y-85355181D01*
X162405962Y-85402800D01*
X162358343Y-85450419D01*
X162263105Y-85593276D01*
X162215486Y-85783752D01*
X162215486Y-86164705D01*
X162263105Y-86259943D01*
X162310724Y-86307562D01*
X162405962Y-86355181D01*
X162596439Y-86355181D01*
X162691677Y-86307562D01*
X162739296Y-86259943D01*
X162786915Y-86164705D01*
X162786915Y-85926610D01*
X162739296Y-85831371D01*
X162691677Y-85783752D01*
X162596439Y-85736133D01*
X162405962Y-85736133D01*
X162310724Y-85783752D01*
X162263105Y-85831371D01*
X162215486Y-85926610D01*
X153185905Y-96108781D02*
X153185905Y-95108781D01*
X153424000Y-95108781D01*
X153566858Y-95156400D01*
X153662096Y-95251638D01*
X153709715Y-95346876D01*
X153757334Y-95537352D01*
X153757334Y-95680210D01*
X153709715Y-95870686D01*
X153662096Y-95965924D01*
X153566858Y-96061162D01*
X153424000Y-96108781D01*
X153185905Y-96108781D01*
X154138286Y-95204019D02*
X154185905Y-95156400D01*
X154281143Y-95108781D01*
X154519239Y-95108781D01*
X154614477Y-95156400D01*
X154662096Y-95204019D01*
X154709715Y-95299257D01*
X154709715Y-95394495D01*
X154662096Y-95537352D01*
X154090667Y-96108781D01*
X154709715Y-96108781D01*
X153084305Y-92349581D02*
X153084305Y-91349581D01*
X153322400Y-91349581D01*
X153465258Y-91397200D01*
X153560496Y-91492438D01*
X153608115Y-91587676D01*
X153655734Y-91778152D01*
X153655734Y-91921010D01*
X153608115Y-92111486D01*
X153560496Y-92206724D01*
X153465258Y-92301962D01*
X153322400Y-92349581D01*
X153084305Y-92349581D01*
X153989067Y-91349581D02*
X154608115Y-91349581D01*
X154274781Y-91730533D01*
X154417639Y-91730533D01*
X154512877Y-91778152D01*
X154560496Y-91825771D01*
X154608115Y-91921010D01*
X154608115Y-92159105D01*
X154560496Y-92254343D01*
X154512877Y-92301962D01*
X154417639Y-92349581D01*
X154131924Y-92349581D01*
X154036686Y-92301962D01*
X153989067Y-92254343D01*
X147953505Y-72660381D02*
X147953505Y-71660381D01*
X148191600Y-71660381D01*
X148334458Y-71708000D01*
X148429696Y-71803238D01*
X148477315Y-71898476D01*
X148524934Y-72088952D01*
X148524934Y-72231810D01*
X148477315Y-72422286D01*
X148429696Y-72517524D01*
X148334458Y-72612762D01*
X148191600Y-72660381D01*
X147953505Y-72660381D01*
X149382077Y-71993714D02*
X149382077Y-72660381D01*
X149143981Y-71612762D02*
X148905886Y-72327048D01*
X149524934Y-72327048D01*
X153185905Y-87980781D02*
X153185905Y-86980781D01*
X153424000Y-86980781D01*
X153566858Y-87028400D01*
X153662096Y-87123638D01*
X153709715Y-87218876D01*
X153757334Y-87409352D01*
X153757334Y-87552210D01*
X153709715Y-87742686D01*
X153662096Y-87837924D01*
X153566858Y-87933162D01*
X153424000Y-87980781D01*
X153185905Y-87980781D01*
X154662096Y-86980781D02*
X154185905Y-86980781D01*
X154138286Y-87456971D01*
X154185905Y-87409352D01*
X154281143Y-87361733D01*
X154519239Y-87361733D01*
X154614477Y-87409352D01*
X154662096Y-87456971D01*
X154709715Y-87552210D01*
X154709715Y-87790305D01*
X154662096Y-87885543D01*
X154614477Y-87933162D01*
X154519239Y-87980781D01*
X154281143Y-87980781D01*
X154185905Y-87933162D01*
X154138286Y-87885543D01*
X156304495Y-73012781D02*
X156304495Y-73822305D01*
X156352114Y-73917543D01*
X156399733Y-73965162D01*
X156494971Y-74012781D01*
X156685448Y-74012781D01*
X156780686Y-73965162D01*
X156828305Y-73917543D01*
X156875924Y-73822305D01*
X156875924Y-73012781D01*
X157304495Y-73108019D02*
X157352114Y-73060400D01*
X157447352Y-73012781D01*
X157685448Y-73012781D01*
X157780686Y-73060400D01*
X157828305Y-73108019D01*
X157875924Y-73203257D01*
X157875924Y-73298495D01*
X157828305Y-73441352D01*
X157256876Y-74012781D01*
X157875924Y-74012781D01*
M02*
