G04 #@! TF.FileFunction,Copper,L2,Bot,Signal*
%FSLAX46Y46*%
G04 Gerber Fmt 4.6, Leading zero omitted, Abs format (unit mm)*
G04 Created by KiCad (PCBNEW 4.0.7) date 04/08/18 22:28:08*
%MOMM*%
%LPD*%
G01*
G04 APERTURE LIST*
%ADD10C,0.100000*%
%ADD11R,2.350000X11.100000*%
%ADD12R,1.200000X0.750000*%
%ADD13O,1.600000X1.600000*%
%ADD14R,1.600000X1.600000*%
%ADD15O,1.510000X3.010000*%
%ADD16R,1.700000X1.700000*%
%ADD17O,1.700000X1.700000*%
%ADD18R,0.900000X1.200000*%
%ADD19C,2.000000*%
%ADD20C,1.600000*%
%ADD21R,2.200000X2.200000*%
%ADD22O,2.200000X2.200000*%
%ADD23C,0.600000*%
%ADD24C,0.250000*%
%ADD25C,0.254000*%
G04 APERTURE END LIST*
D10*
D11*
X126716100Y-105003600D03*
X130676100Y-105003600D03*
X134636100Y-105003600D03*
X138596100Y-105003600D03*
X142556100Y-105003600D03*
X146516100Y-105003600D03*
X150476100Y-105003600D03*
X154436100Y-105003600D03*
X158396100Y-105003600D03*
X162356100Y-105003600D03*
X166316100Y-105003600D03*
X170276100Y-105003600D03*
D12*
X160086000Y-81635600D03*
X161986000Y-81635600D03*
X158379200Y-88595200D03*
X156479200Y-88595200D03*
D13*
X138379200Y-95402400D03*
X145999200Y-90322400D03*
X138379200Y-90322400D03*
D14*
X145999200Y-95402400D03*
D15*
X140055600Y-63906400D03*
X137515600Y-63906400D03*
X134975600Y-63906400D03*
X132435600Y-63906400D03*
X129895600Y-63906400D03*
X127355600Y-63906400D03*
D16*
X130759200Y-72085200D03*
D17*
X133299200Y-72085200D03*
X130759200Y-74625200D03*
X133299200Y-74625200D03*
X130759200Y-77165200D03*
X133299200Y-77165200D03*
X130759200Y-79705200D03*
X133299200Y-79705200D03*
D16*
X127914400Y-88392000D03*
D17*
X130454400Y-88392000D03*
X132994400Y-88392000D03*
D16*
X127914400Y-84734400D03*
D17*
X130454400Y-84734400D03*
X132994400Y-84734400D03*
D18*
X128422400Y-78417600D03*
X128422400Y-76217600D03*
X142341600Y-94216400D03*
X142341600Y-92016400D03*
D14*
X135077200Y-95707200D03*
D13*
X127457200Y-93167200D03*
X135077200Y-93167200D03*
X127457200Y-95707200D03*
D19*
X159867600Y-61844800D03*
X159867600Y-66344800D03*
X153367600Y-61844800D03*
X153367600Y-66344800D03*
X169621200Y-61844800D03*
X169621200Y-66344800D03*
X163121200Y-61844800D03*
X163121200Y-66344800D03*
X150164800Y-61895600D03*
X150164800Y-66395600D03*
X143664800Y-61895600D03*
X143664800Y-66395600D03*
D14*
X160629600Y-93167200D03*
D20*
X157129600Y-93167200D03*
D12*
X159700000Y-95758000D03*
X157800000Y-95758000D03*
X159039600Y-90779600D03*
X157139600Y-90779600D03*
D14*
X158496000Y-85902800D03*
D20*
X156496000Y-85902800D03*
D12*
X161986000Y-83210400D03*
X160086000Y-83210400D03*
D21*
X151333200Y-95504000D03*
D22*
X148793200Y-95504000D03*
D21*
X151333200Y-91541600D03*
D22*
X148793200Y-91541600D03*
D21*
X151333200Y-87630000D03*
D22*
X148793200Y-87630000D03*
D23*
X143408400Y-72796400D03*
X137515600Y-72796400D03*
X170230800Y-98247200D03*
X126695200Y-98755200D03*
X139496800Y-77673200D03*
X144983200Y-76657200D03*
X144932400Y-74726800D03*
X152450800Y-75184000D03*
X161950400Y-80010000D03*
X161696400Y-98552000D03*
X142544800Y-89560400D03*
X144272000Y-89712800D03*
X150266400Y-97891600D03*
X154330400Y-98501200D03*
X163728400Y-94691200D03*
X155702000Y-93929200D03*
X168706800Y-94691200D03*
X140563600Y-95961200D03*
X140563600Y-99415600D03*
X144526000Y-99364800D03*
X157784800Y-97688400D03*
X153873200Y-91440000D03*
X153670000Y-85039200D03*
X145745200Y-79298800D03*
X142290800Y-79349600D03*
X139446000Y-74879200D03*
X142138400Y-69697600D03*
X135991600Y-76809600D03*
X141833600Y-77876400D03*
X137058400Y-85953600D03*
X139547600Y-78892400D03*
X141224000Y-77216000D03*
X152247600Y-78486000D03*
X151587200Y-76250800D03*
X151434800Y-84074000D03*
D24*
X137515600Y-72796400D02*
X137464800Y-72745600D01*
X170230800Y-98247200D02*
X170276100Y-98292500D01*
X170276100Y-98292500D02*
X170276100Y-105003600D01*
X126716100Y-105003600D02*
X126716100Y-98776100D01*
X126716100Y-98776100D02*
X126695200Y-98755200D01*
X158816000Y-96774000D02*
X157800000Y-95758000D01*
X165201600Y-96824800D02*
X158816000Y-96774000D01*
X169113200Y-96926400D02*
X165201600Y-96824800D01*
X170276100Y-98241700D02*
X169164000Y-96977200D01*
X144932400Y-74726800D02*
X144932400Y-76606400D01*
X144932400Y-76606400D02*
X144983200Y-76657200D01*
X157129600Y-93167200D02*
X157800000Y-93837600D01*
X157800000Y-93837600D02*
X157800000Y-95758000D01*
X156479200Y-88595200D02*
X157129600Y-89245600D01*
X157129600Y-89245600D02*
X157129600Y-90779600D01*
X157129600Y-90779600D02*
X157129600Y-93167200D01*
X156496000Y-85902800D02*
X156479200Y-85919600D01*
X156479200Y-85919600D02*
X156479200Y-88595200D01*
X160086000Y-83210400D02*
X160001200Y-83295200D01*
X160086000Y-81635600D02*
X160086000Y-83210400D01*
X161986000Y-81635600D02*
X161935200Y-80025200D01*
X161935200Y-80025200D02*
X161950400Y-80010000D01*
X158379200Y-88595200D02*
X158379200Y-90119200D01*
X158379200Y-90119200D02*
X159039600Y-90779600D01*
X130759200Y-79705200D02*
X129710000Y-79705200D01*
X129710000Y-79705200D02*
X128422400Y-78417600D01*
X158496000Y-85902800D02*
X158379200Y-86019600D01*
X158379200Y-86019600D02*
X158379200Y-88595200D01*
X161986000Y-83210400D02*
X162001200Y-83225600D01*
X162001200Y-83225600D02*
X158496000Y-85902800D01*
X161986000Y-81635600D02*
X161986000Y-83210400D01*
X161696400Y-98552000D02*
X162356100Y-100634100D01*
X162356100Y-100634100D02*
X162356100Y-105003600D01*
X162356100Y-105003600D02*
X166316100Y-105003600D01*
X142544800Y-89560400D02*
X142697200Y-89712800D01*
X142697200Y-89712800D02*
X144272000Y-89712800D01*
X166316100Y-105003600D02*
X166268400Y-104955900D01*
X136601993Y-96317619D02*
X136302542Y-93877646D01*
X136302542Y-93877646D02*
X135077200Y-93167200D01*
X138176000Y-97891600D02*
X136601993Y-96317619D01*
X136601993Y-96317619D02*
X136576593Y-96292219D01*
X138277600Y-97891600D02*
X138176000Y-97891600D01*
X150266400Y-97891600D02*
X138277600Y-97891600D01*
X137922000Y-98552000D02*
X135077200Y-95707200D01*
X154330400Y-98501200D02*
X151028400Y-98552000D01*
X151028400Y-98552000D02*
X137922000Y-98552000D01*
X142341600Y-92016400D02*
X144018000Y-93827600D01*
X146050000Y-93980000D02*
X155702000Y-93929200D01*
X144018000Y-93827600D02*
X146050000Y-93980000D01*
X163728400Y-94691200D02*
X168706800Y-94691200D01*
X130676100Y-105003600D02*
X130708400Y-104971300D01*
X130708400Y-104971300D02*
X130708400Y-98958400D01*
X130708400Y-98958400D02*
X127457200Y-95707200D01*
X130676100Y-105003600D02*
X131318000Y-104361700D01*
X131318000Y-104361700D02*
X131318000Y-99568000D01*
X134636100Y-105003600D02*
X134670800Y-104968900D01*
X134670800Y-104968900D02*
X134670800Y-98653600D01*
X134670800Y-98653600D02*
X132943600Y-98653600D01*
X132943600Y-98653600D02*
X127457200Y-93167200D01*
X138596100Y-101383100D02*
X140563600Y-99415600D01*
X140563600Y-95961200D02*
X142341600Y-94216400D01*
X138596100Y-101383100D02*
X138596100Y-105003600D01*
X138596100Y-105003600D02*
X138596100Y-105003600D01*
X146516100Y-105003600D02*
X146516100Y-101354900D01*
X146516100Y-101354900D02*
X144526000Y-99364800D01*
X158396100Y-98299700D02*
X158396100Y-105003600D01*
X157784800Y-97688400D02*
X158396100Y-98299700D01*
X153873200Y-85242400D02*
X153873200Y-91440000D01*
X153670000Y-85039200D02*
X153873200Y-85242400D01*
X142341600Y-79298800D02*
X145745200Y-79298800D01*
X142290800Y-79349600D02*
X142341600Y-79298800D01*
X158396100Y-105003600D02*
X158345300Y-104952800D01*
X132435600Y-63906400D02*
X132435600Y-64617600D01*
X132435600Y-64617600D02*
X129336800Y-68122800D01*
X129336800Y-68122800D02*
X128016000Y-68122800D01*
X128016000Y-68122800D02*
X127050800Y-69088000D01*
X127050800Y-69088000D02*
X127050800Y-80772000D01*
X127050800Y-80772000D02*
X129387600Y-83108800D01*
X129387600Y-83108800D02*
X131368800Y-83108800D01*
X131368800Y-83108800D02*
X132994400Y-84734400D01*
X129895600Y-63906400D02*
X129895600Y-64566800D01*
X129895600Y-64566800D02*
X126187200Y-68681600D01*
X126187200Y-68681600D02*
X126187200Y-85953600D01*
X126187200Y-85953600D02*
X127000000Y-86766400D01*
X127000000Y-86766400D02*
X131368800Y-86766400D01*
X131368800Y-86766400D02*
X132994400Y-88392000D01*
X135534400Y-74574400D02*
X133299200Y-74625200D01*
X139446000Y-74879200D02*
X135534400Y-74574400D01*
X128117600Y-68986400D02*
X128117600Y-75912800D01*
X128117600Y-75912800D02*
X128422400Y-76217600D01*
X130759200Y-77165200D02*
X130759200Y-77165200D01*
X130759200Y-77165200D02*
X128422400Y-76217600D01*
X128117600Y-68986400D02*
X155041600Y-68986400D01*
X155041600Y-68986400D02*
X159867600Y-62992000D01*
X159867600Y-62992000D02*
X159867600Y-61844800D01*
X135991600Y-76809600D02*
X138531600Y-76098400D01*
X142138400Y-74168000D02*
X142138400Y-69697600D01*
X138531600Y-76098400D02*
X142138400Y-74168000D01*
X133299200Y-77165200D02*
X135382000Y-76911200D01*
X135382000Y-76911200D02*
X135991600Y-76809600D01*
X140004800Y-79705200D02*
X133299200Y-79705200D01*
X141833600Y-77876400D02*
X140004800Y-79705200D01*
X130454400Y-89966800D02*
X130454400Y-88392000D01*
X130759200Y-90271600D02*
X130454400Y-89966800D01*
X134670800Y-90271600D02*
X130759200Y-90271600D01*
X136194800Y-88290400D02*
X134670800Y-90271600D01*
X137007600Y-86004400D02*
X136194800Y-88290400D01*
X137058400Y-85953600D02*
X137007600Y-86004400D01*
X141224000Y-77216000D02*
X139547600Y-78892400D01*
X151434800Y-76403200D02*
X152247600Y-78486000D01*
X151587200Y-76250800D02*
X151434800Y-76403200D01*
X151333200Y-87630000D02*
X151333200Y-84175600D01*
X151333200Y-84175600D02*
X151434800Y-84074000D01*
X160629600Y-93167200D02*
X159700000Y-94096800D01*
X159700000Y-94096800D02*
X159700000Y-95758000D01*
D25*
G36*
X168412729Y-60699251D02*
X168354386Y-60757594D01*
X168468666Y-60871874D01*
X168201813Y-60970536D01*
X167975292Y-61580261D01*
X167999344Y-62230260D01*
X168201813Y-62719064D01*
X168468668Y-62817727D01*
X169441595Y-61844800D01*
X169427453Y-61830658D01*
X169607058Y-61651053D01*
X169621200Y-61665195D01*
X169635343Y-61651053D01*
X169814948Y-61830658D01*
X169800805Y-61844800D01*
X170773732Y-62817727D01*
X171040587Y-62719064D01*
X171267108Y-62109339D01*
X171243056Y-61459340D01*
X171040587Y-60970536D01*
X170773734Y-60871874D01*
X170888014Y-60757594D01*
X170835054Y-60704634D01*
X171323000Y-60705718D01*
X171323000Y-98818600D01*
X170561850Y-98818600D01*
X170403100Y-98977350D01*
X170403100Y-104876600D01*
X170423100Y-104876600D01*
X170423100Y-105130600D01*
X170403100Y-105130600D01*
X170403100Y-105150600D01*
X170149100Y-105150600D01*
X170149100Y-105130600D01*
X168624850Y-105130600D01*
X168466100Y-105289350D01*
X168466100Y-110356368D01*
X168138540Y-110355640D01*
X168138540Y-99453600D01*
X168114774Y-99327290D01*
X168466100Y-99327290D01*
X168466100Y-104717850D01*
X168624850Y-104876600D01*
X170149100Y-104876600D01*
X170149100Y-98977350D01*
X169990350Y-98818600D01*
X168974791Y-98818600D01*
X168741402Y-98915273D01*
X168562773Y-99093901D01*
X168466100Y-99327290D01*
X168114774Y-99327290D01*
X168094262Y-99218283D01*
X167955190Y-99002159D01*
X167742990Y-98857169D01*
X167491100Y-98806160D01*
X165141100Y-98806160D01*
X164905783Y-98850438D01*
X164689659Y-98989510D01*
X164544669Y-99201710D01*
X164493660Y-99453600D01*
X164493660Y-104243600D01*
X164178540Y-104243600D01*
X164178540Y-99453600D01*
X164134262Y-99218283D01*
X163995190Y-99002159D01*
X163782990Y-98857169D01*
X163531100Y-98806160D01*
X162603267Y-98806160D01*
X162631238Y-98738799D01*
X162631562Y-98366833D01*
X162489517Y-98023057D01*
X162226727Y-97759808D01*
X161883199Y-97617162D01*
X161511233Y-97616838D01*
X161167457Y-97758883D01*
X160904208Y-98021673D01*
X160761562Y-98365201D01*
X160761238Y-98737167D01*
X160836971Y-98920456D01*
X160729659Y-98989510D01*
X160584669Y-99201710D01*
X160533660Y-99453600D01*
X160533660Y-110338741D01*
X160218540Y-110338041D01*
X160218540Y-99453600D01*
X160174262Y-99218283D01*
X160035190Y-99002159D01*
X159822990Y-98857169D01*
X159571100Y-98806160D01*
X159156100Y-98806160D01*
X159156100Y-98299700D01*
X159098248Y-98008861D01*
X158933501Y-97762299D01*
X158719922Y-97548720D01*
X158719962Y-97503233D01*
X158577917Y-97159457D01*
X158315127Y-96896208D01*
X157971599Y-96753562D01*
X157927002Y-96753523D01*
X157927002Y-96609252D01*
X158085750Y-96768000D01*
X158526309Y-96768000D01*
X158759698Y-96671327D01*
X158761068Y-96669957D01*
X158848110Y-96729431D01*
X159100000Y-96780440D01*
X160300000Y-96780440D01*
X160535317Y-96736162D01*
X160751441Y-96597090D01*
X160896431Y-96384890D01*
X160947440Y-96133000D01*
X160947440Y-95383000D01*
X160903162Y-95147683D01*
X160764090Y-94931559D01*
X160683314Y-94876367D01*
X162793238Y-94876367D01*
X162935283Y-95220143D01*
X163198073Y-95483392D01*
X163541601Y-95626038D01*
X163913567Y-95626362D01*
X164257343Y-95484317D01*
X164290518Y-95451200D01*
X168144337Y-95451200D01*
X168176473Y-95483392D01*
X168520001Y-95626038D01*
X168891967Y-95626362D01*
X169235743Y-95484317D01*
X169498992Y-95221527D01*
X169641638Y-94877999D01*
X169641962Y-94506033D01*
X169499917Y-94162257D01*
X169237127Y-93899008D01*
X168893599Y-93756362D01*
X168521633Y-93756038D01*
X168177857Y-93898083D01*
X168144682Y-93931200D01*
X164290863Y-93931200D01*
X164258727Y-93899008D01*
X163915199Y-93756362D01*
X163543233Y-93756038D01*
X163199457Y-93898083D01*
X162936208Y-94160873D01*
X162793562Y-94504401D01*
X162793238Y-94876367D01*
X160683314Y-94876367D01*
X160551890Y-94786569D01*
X160460000Y-94767961D01*
X160460000Y-94614640D01*
X161429600Y-94614640D01*
X161664917Y-94570362D01*
X161881041Y-94431290D01*
X162026031Y-94219090D01*
X162077040Y-93967200D01*
X162077040Y-92367200D01*
X162032762Y-92131883D01*
X161893690Y-91915759D01*
X161681490Y-91770769D01*
X161429600Y-91719760D01*
X159933974Y-91719760D01*
X160091041Y-91618690D01*
X160236031Y-91406490D01*
X160287040Y-91154600D01*
X160287040Y-90404600D01*
X160242762Y-90169283D01*
X160103690Y-89953159D01*
X159891490Y-89808169D01*
X159639600Y-89757160D01*
X159139200Y-89757160D01*
X159139200Y-89587534D01*
X159214517Y-89573362D01*
X159430641Y-89434290D01*
X159575631Y-89222090D01*
X159626640Y-88970200D01*
X159626640Y-88220200D01*
X159582362Y-87984883D01*
X159443290Y-87768759D01*
X159231090Y-87623769D01*
X159139200Y-87605161D01*
X159139200Y-87350240D01*
X159296000Y-87350240D01*
X159531317Y-87305962D01*
X159747441Y-87166890D01*
X159892431Y-86954690D01*
X159943440Y-86702800D01*
X159943440Y-85753595D01*
X161934532Y-84232840D01*
X162586000Y-84232840D01*
X162821317Y-84188562D01*
X163037441Y-84049490D01*
X163182431Y-83837290D01*
X163233440Y-83585400D01*
X163233440Y-82835400D01*
X163189162Y-82600083D01*
X163074023Y-82421151D01*
X163182431Y-82262490D01*
X163233440Y-82010600D01*
X163233440Y-81260600D01*
X163189162Y-81025283D01*
X163050090Y-80809159D01*
X162837890Y-80664169D01*
X162714949Y-80639273D01*
X162712767Y-80570100D01*
X162742592Y-80540327D01*
X162885238Y-80196799D01*
X162885562Y-79824833D01*
X162743517Y-79481057D01*
X162480727Y-79217808D01*
X162137199Y-79075162D01*
X161765233Y-79074838D01*
X161421457Y-79216883D01*
X161158208Y-79479673D01*
X161015562Y-79823201D01*
X161015238Y-80195167D01*
X161157283Y-80538943D01*
X161192129Y-80573850D01*
X161194506Y-80649192D01*
X161150683Y-80657438D01*
X161047354Y-80723929D01*
X161045698Y-80722273D01*
X160812309Y-80625600D01*
X160371750Y-80625600D01*
X160213000Y-80784350D01*
X160213000Y-81508600D01*
X160233000Y-81508600D01*
X160233000Y-81762600D01*
X160213000Y-81762600D01*
X160213000Y-83083400D01*
X160233000Y-83083400D01*
X160233000Y-83337400D01*
X160213000Y-83337400D01*
X160213000Y-83357400D01*
X159959000Y-83357400D01*
X159959000Y-83337400D01*
X159009750Y-83337400D01*
X158851000Y-83496150D01*
X158851000Y-83711710D01*
X158947673Y-83945099D01*
X159126302Y-84123727D01*
X159359691Y-84220400D01*
X159446640Y-84220400D01*
X159139012Y-84455360D01*
X157696000Y-84455360D01*
X157460683Y-84499638D01*
X157244559Y-84638710D01*
X157240023Y-84645348D01*
X156712777Y-84455835D01*
X156142546Y-84483022D01*
X155741995Y-84648936D01*
X155667861Y-84895055D01*
X156496000Y-85723195D01*
X156510142Y-85709052D01*
X156689748Y-85888658D01*
X156675605Y-85902800D01*
X156689748Y-85916943D01*
X156510142Y-86096548D01*
X156496000Y-86082405D01*
X155667861Y-86910545D01*
X155741995Y-87156664D01*
X156279223Y-87349765D01*
X156849454Y-87322578D01*
X157240947Y-87160416D01*
X157444110Y-87299231D01*
X157619200Y-87334688D01*
X157619200Y-87602866D01*
X157543883Y-87617038D01*
X157440554Y-87683529D01*
X157438898Y-87681873D01*
X157205509Y-87585200D01*
X156764950Y-87585200D01*
X156606200Y-87743950D01*
X156606200Y-88468200D01*
X156626200Y-88468200D01*
X156626200Y-88722200D01*
X156606200Y-88722200D01*
X156606200Y-89446450D01*
X156764950Y-89605200D01*
X157205509Y-89605200D01*
X157438898Y-89508527D01*
X157440268Y-89507157D01*
X157527310Y-89566631D01*
X157619200Y-89585239D01*
X157619200Y-89769600D01*
X157425350Y-89769600D01*
X157266600Y-89928350D01*
X157266600Y-90652600D01*
X157286600Y-90652600D01*
X157286600Y-90906600D01*
X157266600Y-90906600D01*
X157266600Y-90926600D01*
X157012600Y-90926600D01*
X157012600Y-90906600D01*
X156063350Y-90906600D01*
X155904600Y-91065350D01*
X155904600Y-91280910D01*
X156001273Y-91514299D01*
X156179902Y-91692927D01*
X156413291Y-91789600D01*
X156674320Y-91789600D01*
X156375595Y-91913336D01*
X156301461Y-92159455D01*
X157129600Y-92987595D01*
X157957739Y-92159455D01*
X157883605Y-91913336D01*
X157539358Y-91789600D01*
X157865909Y-91789600D01*
X158099298Y-91692927D01*
X158100668Y-91691557D01*
X158187710Y-91751031D01*
X158439600Y-91802040D01*
X159535226Y-91802040D01*
X159378159Y-91903110D01*
X159233169Y-92115310D01*
X159182160Y-92367200D01*
X159182160Y-93539838D01*
X159162599Y-93559399D01*
X158997852Y-93805961D01*
X158940000Y-94096800D01*
X158940000Y-94765666D01*
X158864683Y-94779838D01*
X158761354Y-94846329D01*
X158759698Y-94844673D01*
X158526309Y-94748000D01*
X158085750Y-94748000D01*
X157927000Y-94906750D01*
X157927000Y-95631000D01*
X157947000Y-95631000D01*
X157947000Y-95885000D01*
X157927000Y-95885000D01*
X157927000Y-95905000D01*
X157673000Y-95905000D01*
X157673000Y-95885000D01*
X156723750Y-95885000D01*
X156565000Y-96043750D01*
X156565000Y-96259310D01*
X156661673Y-96492699D01*
X156840302Y-96671327D01*
X157073691Y-96768000D01*
X157514250Y-96768000D01*
X157672998Y-96609252D01*
X157672998Y-96753302D01*
X157599633Y-96753238D01*
X157255857Y-96895283D01*
X156992608Y-97158073D01*
X156849962Y-97501601D01*
X156849638Y-97873567D01*
X156991683Y-98217343D01*
X157254473Y-98480592D01*
X157598001Y-98623238D01*
X157636100Y-98623271D01*
X157636100Y-98806160D01*
X157221100Y-98806160D01*
X156985783Y-98850438D01*
X156769659Y-98989510D01*
X156624669Y-99201710D01*
X156573660Y-99453600D01*
X156573660Y-110329941D01*
X156258540Y-110329241D01*
X156258540Y-99453600D01*
X156214262Y-99218283D01*
X156075190Y-99002159D01*
X155862990Y-98857169D01*
X155611100Y-98806160D01*
X155216173Y-98806160D01*
X155265238Y-98687999D01*
X155265562Y-98316033D01*
X155123517Y-97972257D01*
X154860727Y-97709008D01*
X154517199Y-97566362D01*
X154145233Y-97566038D01*
X153801457Y-97708083D01*
X153759575Y-97749892D01*
X151201490Y-97789247D01*
X151201562Y-97706433D01*
X151059517Y-97362657D01*
X150948494Y-97251440D01*
X152433200Y-97251440D01*
X152668517Y-97207162D01*
X152884641Y-97068090D01*
X153029631Y-96855890D01*
X153080640Y-96604000D01*
X153080640Y-95256690D01*
X156565000Y-95256690D01*
X156565000Y-95472250D01*
X156723750Y-95631000D01*
X157673000Y-95631000D01*
X157673000Y-94906750D01*
X157514250Y-94748000D01*
X157073691Y-94748000D01*
X156840302Y-94844673D01*
X156661673Y-95023301D01*
X156565000Y-95256690D01*
X153080640Y-95256690D01*
X153080640Y-94703007D01*
X155142487Y-94692155D01*
X155171673Y-94721392D01*
X155515201Y-94864038D01*
X155887167Y-94864362D01*
X156230943Y-94722317D01*
X156491124Y-94462590D01*
X156912823Y-94614165D01*
X157483054Y-94586978D01*
X157883605Y-94421064D01*
X157957739Y-94174945D01*
X157129600Y-93346805D01*
X157115458Y-93360948D01*
X156935852Y-93181342D01*
X156949995Y-93167200D01*
X157309205Y-93167200D01*
X158137345Y-93995339D01*
X158383464Y-93921205D01*
X158576565Y-93383977D01*
X158549378Y-92813746D01*
X158383464Y-92413195D01*
X158137345Y-92339061D01*
X157309205Y-93167200D01*
X156949995Y-93167200D01*
X156121855Y-92339061D01*
X155875736Y-92413195D01*
X155682635Y-92950423D01*
X155684721Y-92994184D01*
X155516833Y-92994038D01*
X155173057Y-93136083D01*
X155136913Y-93172164D01*
X152761912Y-93184664D01*
X152884641Y-93105690D01*
X153029631Y-92893490D01*
X153080640Y-92641600D01*
X153080640Y-91969501D01*
X153342873Y-92232192D01*
X153686401Y-92374838D01*
X154058367Y-92375162D01*
X154402143Y-92233117D01*
X154665392Y-91970327D01*
X154808038Y-91626799D01*
X154808362Y-91254833D01*
X154666317Y-90911057D01*
X154633200Y-90877882D01*
X154633200Y-90278290D01*
X155904600Y-90278290D01*
X155904600Y-90493850D01*
X156063350Y-90652600D01*
X157012600Y-90652600D01*
X157012600Y-89928350D01*
X156853850Y-89769600D01*
X156413291Y-89769600D01*
X156179902Y-89866273D01*
X156001273Y-90044901D01*
X155904600Y-90278290D01*
X154633200Y-90278290D01*
X154633200Y-88880950D01*
X155244200Y-88880950D01*
X155244200Y-89096510D01*
X155340873Y-89329899D01*
X155519502Y-89508527D01*
X155752891Y-89605200D01*
X156193450Y-89605200D01*
X156352200Y-89446450D01*
X156352200Y-88722200D01*
X155402950Y-88722200D01*
X155244200Y-88880950D01*
X154633200Y-88880950D01*
X154633200Y-88093890D01*
X155244200Y-88093890D01*
X155244200Y-88309450D01*
X155402950Y-88468200D01*
X156352200Y-88468200D01*
X156352200Y-87743950D01*
X156193450Y-87585200D01*
X155752891Y-87585200D01*
X155519502Y-87681873D01*
X155340873Y-87860501D01*
X155244200Y-88093890D01*
X154633200Y-88093890D01*
X154633200Y-85686023D01*
X155049035Y-85686023D01*
X155076222Y-86256254D01*
X155242136Y-86656805D01*
X155488255Y-86730939D01*
X156316395Y-85902800D01*
X155488255Y-85074661D01*
X155242136Y-85148795D01*
X155049035Y-85686023D01*
X154633200Y-85686023D01*
X154633200Y-85242400D01*
X154604947Y-85100366D01*
X154605162Y-84854033D01*
X154463117Y-84510257D01*
X154200327Y-84247008D01*
X153856799Y-84104362D01*
X153484833Y-84104038D01*
X153141057Y-84246083D01*
X152877808Y-84508873D01*
X152735162Y-84852401D01*
X152734838Y-85224367D01*
X152876883Y-85568143D01*
X153113200Y-85804873D01*
X153113200Y-90877537D01*
X153081008Y-90909673D01*
X153080640Y-90910559D01*
X153080640Y-90441600D01*
X153036362Y-90206283D01*
X152897290Y-89990159D01*
X152685090Y-89845169D01*
X152433200Y-89794160D01*
X150233200Y-89794160D01*
X149997883Y-89838438D01*
X149781759Y-89977510D01*
X149708889Y-90084159D01*
X149491147Y-89938669D01*
X148827191Y-89806600D01*
X148759209Y-89806600D01*
X148095253Y-89938669D01*
X147532379Y-90314770D01*
X147347315Y-90591737D01*
X147269115Y-90449400D01*
X146126200Y-90449400D01*
X146126200Y-91593029D01*
X146348241Y-91714314D01*
X146854334Y-91474789D01*
X147089034Y-91215702D01*
X147024209Y-91541600D01*
X147156278Y-92205556D01*
X147532379Y-92768430D01*
X148095253Y-93144531D01*
X148412110Y-93207558D01*
X146076462Y-93219851D01*
X144372796Y-93092076D01*
X143439040Y-92083236D01*
X143439040Y-91416400D01*
X143394762Y-91181083D01*
X143255690Y-90964959D01*
X143043490Y-90819969D01*
X142791600Y-90768960D01*
X141891600Y-90768960D01*
X141656283Y-90813238D01*
X141440159Y-90952310D01*
X141295169Y-91164510D01*
X141244160Y-91416400D01*
X141244160Y-92616400D01*
X141288438Y-92851717D01*
X141427510Y-93067841D01*
X141497311Y-93115534D01*
X141440159Y-93152310D01*
X141295169Y-93364510D01*
X141244160Y-93616400D01*
X141244160Y-94228533D01*
X140431433Y-95026084D01*
X140378433Y-95026038D01*
X140034657Y-95168083D01*
X139835292Y-95367101D01*
X139733080Y-94853249D01*
X139422011Y-94387702D01*
X138956464Y-94076633D01*
X138407313Y-93967400D01*
X138351087Y-93967400D01*
X137801936Y-94076633D01*
X137336389Y-94387702D01*
X137162737Y-94647590D01*
X137056882Y-93785068D01*
X137040360Y-93734954D01*
X137037005Y-93682288D01*
X136994344Y-93595380D01*
X136964033Y-93503442D01*
X136929590Y-93463464D01*
X136906336Y-93416092D01*
X136833667Y-93352127D01*
X136770478Y-93278784D01*
X136723358Y-93255030D01*
X136683747Y-93220164D01*
X136533523Y-93133065D01*
X136431080Y-92618049D01*
X136120011Y-92152502D01*
X135654464Y-91841433D01*
X135105313Y-91732200D01*
X135049087Y-91732200D01*
X134499936Y-91841433D01*
X134034389Y-92152502D01*
X133723320Y-92618049D01*
X133614087Y-93167200D01*
X133723320Y-93716351D01*
X134034389Y-94181898D01*
X134178665Y-94278301D01*
X134041883Y-94304038D01*
X133825759Y-94443110D01*
X133680769Y-94655310D01*
X133629760Y-94907200D01*
X133629760Y-96507200D01*
X133674038Y-96742517D01*
X133813110Y-96958641D01*
X134025310Y-97103631D01*
X134277200Y-97154640D01*
X135449838Y-97154640D01*
X137161355Y-98866157D01*
X136969659Y-98989510D01*
X136824669Y-99201710D01*
X136773660Y-99453600D01*
X136773660Y-110285941D01*
X136458540Y-110285241D01*
X136458540Y-99453600D01*
X136414262Y-99218283D01*
X136275190Y-99002159D01*
X136062990Y-98857169D01*
X135811100Y-98806160D01*
X135430800Y-98806160D01*
X135430800Y-98653600D01*
X135372948Y-98362761D01*
X135208201Y-98116199D01*
X134961639Y-97951452D01*
X134670800Y-97893600D01*
X133258402Y-97893600D01*
X128855888Y-93491086D01*
X128920313Y-93167200D01*
X128811080Y-92618049D01*
X128500011Y-92152502D01*
X128034464Y-91841433D01*
X127485313Y-91732200D01*
X127429087Y-91732200D01*
X126879936Y-91841433D01*
X126414389Y-92152502D01*
X126103320Y-92618049D01*
X125994087Y-93167200D01*
X126103320Y-93716351D01*
X126414389Y-94181898D01*
X126796475Y-94437200D01*
X126414389Y-94692502D01*
X126103320Y-95158049D01*
X125994087Y-95707200D01*
X126103320Y-96256351D01*
X126414389Y-96721898D01*
X126879936Y-97032967D01*
X127429087Y-97142200D01*
X127485313Y-97142200D01*
X127762302Y-97087104D01*
X129484484Y-98809286D01*
X129265783Y-98850438D01*
X129049659Y-98989510D01*
X128904669Y-99201710D01*
X128853660Y-99453600D01*
X128853660Y-110268341D01*
X128526100Y-110267613D01*
X128526100Y-105289350D01*
X128367350Y-105130600D01*
X126843100Y-105130600D01*
X126843100Y-105150600D01*
X126589100Y-105150600D01*
X126589100Y-105130600D01*
X126569100Y-105130600D01*
X126569100Y-104876600D01*
X126589100Y-104876600D01*
X126589100Y-98977350D01*
X126843100Y-98977350D01*
X126843100Y-104876600D01*
X128367350Y-104876600D01*
X128526100Y-104717850D01*
X128526100Y-99327290D01*
X128429427Y-99093901D01*
X128250798Y-98915273D01*
X128017409Y-98818600D01*
X127001850Y-98818600D01*
X126843100Y-98977350D01*
X126589100Y-98977350D01*
X126430350Y-98818600D01*
X125857000Y-98818600D01*
X125857000Y-86698202D01*
X126462599Y-87303801D01*
X126464887Y-87305330D01*
X126416960Y-87542000D01*
X126416960Y-89242000D01*
X126461238Y-89477317D01*
X126600310Y-89693441D01*
X126812510Y-89838431D01*
X127064400Y-89889440D01*
X128764400Y-89889440D01*
X128999717Y-89845162D01*
X129215841Y-89706090D01*
X129360831Y-89493890D01*
X129374486Y-89426459D01*
X129404346Y-89471147D01*
X129694400Y-89664954D01*
X129694400Y-89966800D01*
X129752252Y-90257639D01*
X129916999Y-90504201D01*
X130221799Y-90809001D01*
X130468360Y-90973748D01*
X130759200Y-91031600D01*
X134670800Y-91031600D01*
X134719528Y-91021907D01*
X134769098Y-91025216D01*
X134863697Y-90993230D01*
X134961639Y-90973748D01*
X135002948Y-90946146D01*
X135050012Y-90930233D01*
X135125169Y-90864481D01*
X135208201Y-90809001D01*
X135235802Y-90767692D01*
X135273194Y-90734980D01*
X135590563Y-90322400D01*
X136916087Y-90322400D01*
X137025320Y-90871551D01*
X137336389Y-91337098D01*
X137801936Y-91648167D01*
X138351087Y-91757400D01*
X138407313Y-91757400D01*
X138956464Y-91648167D01*
X139422011Y-91337098D01*
X139733080Y-90871551D01*
X139842313Y-90322400D01*
X139733080Y-89773249D01*
X139714584Y-89745567D01*
X141609638Y-89745567D01*
X141751683Y-90089343D01*
X142014473Y-90352592D01*
X142358001Y-90495238D01*
X142729967Y-90495562D01*
X142785055Y-90472800D01*
X143709537Y-90472800D01*
X143741673Y-90504992D01*
X144085201Y-90647638D01*
X144457167Y-90647962D01*
X144668071Y-90560818D01*
X144607296Y-90671439D01*
X144768159Y-91059823D01*
X145144066Y-91474789D01*
X145650159Y-91714314D01*
X145872200Y-91593029D01*
X145872200Y-90449400D01*
X145852200Y-90449400D01*
X145852200Y-90195400D01*
X145872200Y-90195400D01*
X145872200Y-89051771D01*
X146126200Y-89051771D01*
X146126200Y-90195400D01*
X147269115Y-90195400D01*
X147391104Y-89973361D01*
X147230241Y-89584977D01*
X146854334Y-89170011D01*
X146348241Y-88930486D01*
X146126200Y-89051771D01*
X145872200Y-89051771D01*
X145650159Y-88930486D01*
X145144066Y-89170011D01*
X145085918Y-89234200D01*
X145065117Y-89183857D01*
X144802327Y-88920608D01*
X144458799Y-88777962D01*
X144086833Y-88777638D01*
X143743057Y-88919683D01*
X143709882Y-88952800D01*
X143259397Y-88952800D01*
X143075127Y-88768208D01*
X142731599Y-88625562D01*
X142359633Y-88625238D01*
X142015857Y-88767283D01*
X141752608Y-89030073D01*
X141609962Y-89373601D01*
X141609638Y-89745567D01*
X139714584Y-89745567D01*
X139422011Y-89307702D01*
X138956464Y-88996633D01*
X138407313Y-88887400D01*
X138351087Y-88887400D01*
X137801936Y-88996633D01*
X137336389Y-89307702D01*
X137025320Y-89773249D01*
X136916087Y-90322400D01*
X135590563Y-90322400D01*
X136797194Y-88753780D01*
X136849933Y-88647157D01*
X136910883Y-88545007D01*
X137236218Y-87630000D01*
X147024209Y-87630000D01*
X147156278Y-88293956D01*
X147532379Y-88856830D01*
X148095253Y-89232931D01*
X148759209Y-89365000D01*
X148827191Y-89365000D01*
X149491147Y-89232931D01*
X149708702Y-89087565D01*
X149769110Y-89181441D01*
X149981310Y-89326431D01*
X150233200Y-89377440D01*
X152433200Y-89377440D01*
X152668517Y-89333162D01*
X152884641Y-89194090D01*
X153029631Y-88981890D01*
X153080640Y-88730000D01*
X153080640Y-86530000D01*
X153036362Y-86294683D01*
X152897290Y-86078559D01*
X152685090Y-85933569D01*
X152433200Y-85882560D01*
X152093200Y-85882560D01*
X152093200Y-84737886D01*
X152226992Y-84604327D01*
X152369638Y-84260799D01*
X152369962Y-83888833D01*
X152227917Y-83545057D01*
X151965127Y-83281808D01*
X151621599Y-83139162D01*
X151249633Y-83138838D01*
X150905857Y-83280883D01*
X150642608Y-83543673D01*
X150499962Y-83887201D01*
X150499638Y-84259167D01*
X150573200Y-84437201D01*
X150573200Y-85882560D01*
X150233200Y-85882560D01*
X149997883Y-85926838D01*
X149781759Y-86065910D01*
X149708889Y-86172559D01*
X149491147Y-86027069D01*
X148827191Y-85895000D01*
X148759209Y-85895000D01*
X148095253Y-86027069D01*
X147532379Y-86403170D01*
X147156278Y-86966044D01*
X147024209Y-87630000D01*
X137236218Y-87630000D01*
X137543891Y-86764671D01*
X137587343Y-86746717D01*
X137850592Y-86483927D01*
X137993238Y-86140399D01*
X137993562Y-85768433D01*
X137851517Y-85424657D01*
X137588727Y-85161408D01*
X137245199Y-85018762D01*
X136873233Y-85018438D01*
X136529457Y-85160483D01*
X136266208Y-85423273D01*
X136123562Y-85766801D01*
X136123238Y-86138767D01*
X136139350Y-86177761D01*
X135519033Y-87922406D01*
X134296575Y-89511600D01*
X133983912Y-89511600D01*
X134044454Y-89471147D01*
X134366361Y-88989378D01*
X134479400Y-88421093D01*
X134479400Y-88362907D01*
X134366361Y-87794622D01*
X134044454Y-87312853D01*
X133562685Y-86990946D01*
X132994400Y-86877907D01*
X132627992Y-86950790D01*
X131906201Y-86228999D01*
X131659639Y-86064252D01*
X131368800Y-86006400D01*
X131215828Y-86006400D01*
X131504454Y-85813547D01*
X131724400Y-85484374D01*
X131944346Y-85813547D01*
X132426115Y-86135454D01*
X132994400Y-86248493D01*
X133562685Y-86135454D01*
X134044454Y-85813547D01*
X134366361Y-85331778D01*
X134479400Y-84763493D01*
X134479400Y-84705307D01*
X134366361Y-84137022D01*
X134044454Y-83655253D01*
X133562685Y-83333346D01*
X132994400Y-83220307D01*
X132627992Y-83293190D01*
X131906201Y-82571399D01*
X131659639Y-82406652D01*
X131368800Y-82348800D01*
X129702402Y-82348800D01*
X129274952Y-81921350D01*
X158851000Y-81921350D01*
X158851000Y-82136910D01*
X158947673Y-82370299D01*
X159000374Y-82423000D01*
X158947673Y-82475701D01*
X158851000Y-82709090D01*
X158851000Y-82924650D01*
X159009750Y-83083400D01*
X159959000Y-83083400D01*
X159959000Y-81762600D01*
X159009750Y-81762600D01*
X158851000Y-81921350D01*
X129274952Y-81921350D01*
X127810800Y-80457198D01*
X127810800Y-79632315D01*
X127972400Y-79665040D01*
X128595038Y-79665040D01*
X129172599Y-80242601D01*
X129419160Y-80407348D01*
X129451948Y-80413870D01*
X129680053Y-80755254D01*
X130161822Y-81077161D01*
X130730107Y-81190200D01*
X130788293Y-81190200D01*
X131356578Y-81077161D01*
X131838347Y-80755254D01*
X132029200Y-80469622D01*
X132220053Y-80755254D01*
X132701822Y-81077161D01*
X133270107Y-81190200D01*
X133328293Y-81190200D01*
X133609371Y-81134290D01*
X158851000Y-81134290D01*
X158851000Y-81349850D01*
X159009750Y-81508600D01*
X159959000Y-81508600D01*
X159959000Y-80784350D01*
X159800250Y-80625600D01*
X159359691Y-80625600D01*
X159126302Y-80722273D01*
X158947673Y-80900901D01*
X158851000Y-81134290D01*
X133609371Y-81134290D01*
X133896578Y-81077161D01*
X134378347Y-80755254D01*
X134572154Y-80465200D01*
X140004800Y-80465200D01*
X140295639Y-80407348D01*
X140542201Y-80242601D01*
X141355730Y-79429072D01*
X141355638Y-79534767D01*
X141497683Y-79878543D01*
X141760473Y-80141792D01*
X142104001Y-80284438D01*
X142475967Y-80284762D01*
X142819743Y-80142717D01*
X142903807Y-80058800D01*
X145182737Y-80058800D01*
X145214873Y-80090992D01*
X145558401Y-80233638D01*
X145930367Y-80233962D01*
X146274143Y-80091917D01*
X146537392Y-79829127D01*
X146680038Y-79485599D01*
X146680362Y-79113633D01*
X146538317Y-78769857D01*
X146275527Y-78506608D01*
X145931999Y-78363962D01*
X145560033Y-78363638D01*
X145216257Y-78505683D01*
X145183082Y-78538800D01*
X142776314Y-78538800D01*
X142576573Y-78455860D01*
X142625792Y-78406727D01*
X142768438Y-78063199D01*
X142768762Y-77691233D01*
X142626717Y-77347457D01*
X142363927Y-77084208D01*
X142143375Y-76992627D01*
X142017117Y-76687057D01*
X141766465Y-76435967D01*
X150652038Y-76435967D01*
X150707317Y-76569752D01*
X150726801Y-76679492D01*
X151336538Y-78241943D01*
X151312762Y-78299201D01*
X151312438Y-78671167D01*
X151454483Y-79014943D01*
X151717273Y-79278192D01*
X152060801Y-79420838D01*
X152432767Y-79421162D01*
X152776543Y-79279117D01*
X153039792Y-79016327D01*
X153182438Y-78672799D01*
X153182762Y-78300833D01*
X153040717Y-77957057D01*
X152777927Y-77693808D01*
X152749698Y-77682086D01*
X152389038Y-76757896D01*
X152522038Y-76437599D01*
X152522362Y-76065633D01*
X152380317Y-75721857D01*
X152117527Y-75458608D01*
X151773999Y-75315962D01*
X151402033Y-75315638D01*
X151058257Y-75457683D01*
X150795008Y-75720473D01*
X150652362Y-76064001D01*
X150652038Y-76435967D01*
X141766465Y-76435967D01*
X141754327Y-76423808D01*
X141410799Y-76281162D01*
X141038833Y-76280838D01*
X140695057Y-76422883D01*
X140431808Y-76685673D01*
X140289162Y-77029201D01*
X140289121Y-77076077D01*
X139407920Y-77957278D01*
X139362433Y-77957238D01*
X139018657Y-78099283D01*
X138755408Y-78362073D01*
X138612762Y-78705601D01*
X138612553Y-78945200D01*
X134572154Y-78945200D01*
X134378347Y-78655146D01*
X134049174Y-78435200D01*
X134378347Y-78215254D01*
X134680987Y-77762320D01*
X135474002Y-77665611D01*
X135490056Y-77660332D01*
X135506943Y-77660859D01*
X135575860Y-77649373D01*
X135804801Y-77744438D01*
X136176767Y-77744762D01*
X136520543Y-77602717D01*
X136732154Y-77391475D01*
X138736518Y-76830253D01*
X138810673Y-76792644D01*
X138890226Y-76768465D01*
X142497026Y-74838065D01*
X142583136Y-74767318D01*
X142675801Y-74705401D01*
X142696862Y-74673881D01*
X142726149Y-74649819D01*
X142778630Y-74551507D01*
X142840548Y-74458839D01*
X142847943Y-74421661D01*
X142865794Y-74388221D01*
X142876657Y-74277309D01*
X142898400Y-74168000D01*
X142898400Y-70260063D01*
X142930592Y-70227927D01*
X143073238Y-69884399D01*
X143073358Y-69746400D01*
X155041600Y-69746400D01*
X155082082Y-69738347D01*
X155123191Y-69742007D01*
X155226373Y-69709646D01*
X155332439Y-69688548D01*
X155366757Y-69665617D01*
X155406139Y-69653266D01*
X155489084Y-69583882D01*
X155579001Y-69523801D01*
X155601932Y-69489483D01*
X155633589Y-69463001D01*
X157216118Y-67497332D01*
X158894673Y-67497332D01*
X158993336Y-67764187D01*
X159603061Y-67990708D01*
X160253060Y-67966656D01*
X160741864Y-67764187D01*
X160840527Y-67497332D01*
X159867600Y-66524405D01*
X158894673Y-67497332D01*
X157216118Y-67497332D01*
X158227637Y-66240920D01*
X158245744Y-66730260D01*
X158448213Y-67219064D01*
X158715068Y-67317727D01*
X159687995Y-66344800D01*
X160047205Y-66344800D01*
X161020132Y-67317727D01*
X161286987Y-67219064D01*
X161488853Y-66675703D01*
X161734306Y-67269743D01*
X162193837Y-67730078D01*
X162794552Y-67979516D01*
X163444995Y-67980084D01*
X164046143Y-67731694D01*
X164506478Y-67272163D01*
X164755916Y-66671448D01*
X164755918Y-66668595D01*
X167985916Y-66668595D01*
X168234306Y-67269743D01*
X168693837Y-67730078D01*
X169294552Y-67979516D01*
X169944995Y-67980084D01*
X170546143Y-67731694D01*
X171006478Y-67272163D01*
X171255916Y-66671448D01*
X171256484Y-66021005D01*
X171008094Y-65419857D01*
X170548563Y-64959522D01*
X169947848Y-64710084D01*
X169297405Y-64709516D01*
X168696257Y-64957906D01*
X168235922Y-65417437D01*
X167986484Y-66018152D01*
X167985916Y-66668595D01*
X164755918Y-66668595D01*
X164756484Y-66021005D01*
X164508094Y-65419857D01*
X164048563Y-64959522D01*
X163447848Y-64710084D01*
X162797405Y-64709516D01*
X162196257Y-64957906D01*
X161735922Y-65417437D01*
X161491211Y-66006768D01*
X161489456Y-65959340D01*
X161286987Y-65470536D01*
X161020132Y-65371873D01*
X160047205Y-66344800D01*
X159687995Y-66344800D01*
X159673853Y-66330658D01*
X159853458Y-66151053D01*
X159867600Y-66165195D01*
X160840527Y-65192268D01*
X160741864Y-64925413D01*
X160132139Y-64698892D01*
X159482140Y-64722944D01*
X159433524Y-64743081D01*
X160459589Y-63468601D01*
X160509668Y-63372755D01*
X160531986Y-63339354D01*
X160792543Y-63231694D01*
X161027315Y-62997332D01*
X162148273Y-62997332D01*
X162246936Y-63264187D01*
X162856661Y-63490708D01*
X163506660Y-63466656D01*
X163995464Y-63264187D01*
X164094127Y-62997332D01*
X168648273Y-62997332D01*
X168746936Y-63264187D01*
X169356661Y-63490708D01*
X170006660Y-63466656D01*
X170495464Y-63264187D01*
X170594127Y-62997332D01*
X169621200Y-62024405D01*
X168648273Y-62997332D01*
X164094127Y-62997332D01*
X163121200Y-62024405D01*
X162148273Y-62997332D01*
X161027315Y-62997332D01*
X161252878Y-62772163D01*
X161497589Y-62182832D01*
X161499344Y-62230260D01*
X161701813Y-62719064D01*
X161968668Y-62817727D01*
X162941595Y-61844800D01*
X162927453Y-61830658D01*
X163107058Y-61651053D01*
X163121200Y-61665195D01*
X163135343Y-61651053D01*
X163314948Y-61830658D01*
X163300805Y-61844800D01*
X164273732Y-62817727D01*
X164540587Y-62719064D01*
X164767108Y-62109339D01*
X164743056Y-61459340D01*
X164540587Y-60970536D01*
X164273734Y-60871874D01*
X164388014Y-60757594D01*
X164320577Y-60690157D01*
X168412729Y-60699251D01*
X168412729Y-60699251D01*
G37*
X168412729Y-60699251D02*
X168354386Y-60757594D01*
X168468666Y-60871874D01*
X168201813Y-60970536D01*
X167975292Y-61580261D01*
X167999344Y-62230260D01*
X168201813Y-62719064D01*
X168468668Y-62817727D01*
X169441595Y-61844800D01*
X169427453Y-61830658D01*
X169607058Y-61651053D01*
X169621200Y-61665195D01*
X169635343Y-61651053D01*
X169814948Y-61830658D01*
X169800805Y-61844800D01*
X170773732Y-62817727D01*
X171040587Y-62719064D01*
X171267108Y-62109339D01*
X171243056Y-61459340D01*
X171040587Y-60970536D01*
X170773734Y-60871874D01*
X170888014Y-60757594D01*
X170835054Y-60704634D01*
X171323000Y-60705718D01*
X171323000Y-98818600D01*
X170561850Y-98818600D01*
X170403100Y-98977350D01*
X170403100Y-104876600D01*
X170423100Y-104876600D01*
X170423100Y-105130600D01*
X170403100Y-105130600D01*
X170403100Y-105150600D01*
X170149100Y-105150600D01*
X170149100Y-105130600D01*
X168624850Y-105130600D01*
X168466100Y-105289350D01*
X168466100Y-110356368D01*
X168138540Y-110355640D01*
X168138540Y-99453600D01*
X168114774Y-99327290D01*
X168466100Y-99327290D01*
X168466100Y-104717850D01*
X168624850Y-104876600D01*
X170149100Y-104876600D01*
X170149100Y-98977350D01*
X169990350Y-98818600D01*
X168974791Y-98818600D01*
X168741402Y-98915273D01*
X168562773Y-99093901D01*
X168466100Y-99327290D01*
X168114774Y-99327290D01*
X168094262Y-99218283D01*
X167955190Y-99002159D01*
X167742990Y-98857169D01*
X167491100Y-98806160D01*
X165141100Y-98806160D01*
X164905783Y-98850438D01*
X164689659Y-98989510D01*
X164544669Y-99201710D01*
X164493660Y-99453600D01*
X164493660Y-104243600D01*
X164178540Y-104243600D01*
X164178540Y-99453600D01*
X164134262Y-99218283D01*
X163995190Y-99002159D01*
X163782990Y-98857169D01*
X163531100Y-98806160D01*
X162603267Y-98806160D01*
X162631238Y-98738799D01*
X162631562Y-98366833D01*
X162489517Y-98023057D01*
X162226727Y-97759808D01*
X161883199Y-97617162D01*
X161511233Y-97616838D01*
X161167457Y-97758883D01*
X160904208Y-98021673D01*
X160761562Y-98365201D01*
X160761238Y-98737167D01*
X160836971Y-98920456D01*
X160729659Y-98989510D01*
X160584669Y-99201710D01*
X160533660Y-99453600D01*
X160533660Y-110338741D01*
X160218540Y-110338041D01*
X160218540Y-99453600D01*
X160174262Y-99218283D01*
X160035190Y-99002159D01*
X159822990Y-98857169D01*
X159571100Y-98806160D01*
X159156100Y-98806160D01*
X159156100Y-98299700D01*
X159098248Y-98008861D01*
X158933501Y-97762299D01*
X158719922Y-97548720D01*
X158719962Y-97503233D01*
X158577917Y-97159457D01*
X158315127Y-96896208D01*
X157971599Y-96753562D01*
X157927002Y-96753523D01*
X157927002Y-96609252D01*
X158085750Y-96768000D01*
X158526309Y-96768000D01*
X158759698Y-96671327D01*
X158761068Y-96669957D01*
X158848110Y-96729431D01*
X159100000Y-96780440D01*
X160300000Y-96780440D01*
X160535317Y-96736162D01*
X160751441Y-96597090D01*
X160896431Y-96384890D01*
X160947440Y-96133000D01*
X160947440Y-95383000D01*
X160903162Y-95147683D01*
X160764090Y-94931559D01*
X160683314Y-94876367D01*
X162793238Y-94876367D01*
X162935283Y-95220143D01*
X163198073Y-95483392D01*
X163541601Y-95626038D01*
X163913567Y-95626362D01*
X164257343Y-95484317D01*
X164290518Y-95451200D01*
X168144337Y-95451200D01*
X168176473Y-95483392D01*
X168520001Y-95626038D01*
X168891967Y-95626362D01*
X169235743Y-95484317D01*
X169498992Y-95221527D01*
X169641638Y-94877999D01*
X169641962Y-94506033D01*
X169499917Y-94162257D01*
X169237127Y-93899008D01*
X168893599Y-93756362D01*
X168521633Y-93756038D01*
X168177857Y-93898083D01*
X168144682Y-93931200D01*
X164290863Y-93931200D01*
X164258727Y-93899008D01*
X163915199Y-93756362D01*
X163543233Y-93756038D01*
X163199457Y-93898083D01*
X162936208Y-94160873D01*
X162793562Y-94504401D01*
X162793238Y-94876367D01*
X160683314Y-94876367D01*
X160551890Y-94786569D01*
X160460000Y-94767961D01*
X160460000Y-94614640D01*
X161429600Y-94614640D01*
X161664917Y-94570362D01*
X161881041Y-94431290D01*
X162026031Y-94219090D01*
X162077040Y-93967200D01*
X162077040Y-92367200D01*
X162032762Y-92131883D01*
X161893690Y-91915759D01*
X161681490Y-91770769D01*
X161429600Y-91719760D01*
X159933974Y-91719760D01*
X160091041Y-91618690D01*
X160236031Y-91406490D01*
X160287040Y-91154600D01*
X160287040Y-90404600D01*
X160242762Y-90169283D01*
X160103690Y-89953159D01*
X159891490Y-89808169D01*
X159639600Y-89757160D01*
X159139200Y-89757160D01*
X159139200Y-89587534D01*
X159214517Y-89573362D01*
X159430641Y-89434290D01*
X159575631Y-89222090D01*
X159626640Y-88970200D01*
X159626640Y-88220200D01*
X159582362Y-87984883D01*
X159443290Y-87768759D01*
X159231090Y-87623769D01*
X159139200Y-87605161D01*
X159139200Y-87350240D01*
X159296000Y-87350240D01*
X159531317Y-87305962D01*
X159747441Y-87166890D01*
X159892431Y-86954690D01*
X159943440Y-86702800D01*
X159943440Y-85753595D01*
X161934532Y-84232840D01*
X162586000Y-84232840D01*
X162821317Y-84188562D01*
X163037441Y-84049490D01*
X163182431Y-83837290D01*
X163233440Y-83585400D01*
X163233440Y-82835400D01*
X163189162Y-82600083D01*
X163074023Y-82421151D01*
X163182431Y-82262490D01*
X163233440Y-82010600D01*
X163233440Y-81260600D01*
X163189162Y-81025283D01*
X163050090Y-80809159D01*
X162837890Y-80664169D01*
X162714949Y-80639273D01*
X162712767Y-80570100D01*
X162742592Y-80540327D01*
X162885238Y-80196799D01*
X162885562Y-79824833D01*
X162743517Y-79481057D01*
X162480727Y-79217808D01*
X162137199Y-79075162D01*
X161765233Y-79074838D01*
X161421457Y-79216883D01*
X161158208Y-79479673D01*
X161015562Y-79823201D01*
X161015238Y-80195167D01*
X161157283Y-80538943D01*
X161192129Y-80573850D01*
X161194506Y-80649192D01*
X161150683Y-80657438D01*
X161047354Y-80723929D01*
X161045698Y-80722273D01*
X160812309Y-80625600D01*
X160371750Y-80625600D01*
X160213000Y-80784350D01*
X160213000Y-81508600D01*
X160233000Y-81508600D01*
X160233000Y-81762600D01*
X160213000Y-81762600D01*
X160213000Y-83083400D01*
X160233000Y-83083400D01*
X160233000Y-83337400D01*
X160213000Y-83337400D01*
X160213000Y-83357400D01*
X159959000Y-83357400D01*
X159959000Y-83337400D01*
X159009750Y-83337400D01*
X158851000Y-83496150D01*
X158851000Y-83711710D01*
X158947673Y-83945099D01*
X159126302Y-84123727D01*
X159359691Y-84220400D01*
X159446640Y-84220400D01*
X159139012Y-84455360D01*
X157696000Y-84455360D01*
X157460683Y-84499638D01*
X157244559Y-84638710D01*
X157240023Y-84645348D01*
X156712777Y-84455835D01*
X156142546Y-84483022D01*
X155741995Y-84648936D01*
X155667861Y-84895055D01*
X156496000Y-85723195D01*
X156510142Y-85709052D01*
X156689748Y-85888658D01*
X156675605Y-85902800D01*
X156689748Y-85916943D01*
X156510142Y-86096548D01*
X156496000Y-86082405D01*
X155667861Y-86910545D01*
X155741995Y-87156664D01*
X156279223Y-87349765D01*
X156849454Y-87322578D01*
X157240947Y-87160416D01*
X157444110Y-87299231D01*
X157619200Y-87334688D01*
X157619200Y-87602866D01*
X157543883Y-87617038D01*
X157440554Y-87683529D01*
X157438898Y-87681873D01*
X157205509Y-87585200D01*
X156764950Y-87585200D01*
X156606200Y-87743950D01*
X156606200Y-88468200D01*
X156626200Y-88468200D01*
X156626200Y-88722200D01*
X156606200Y-88722200D01*
X156606200Y-89446450D01*
X156764950Y-89605200D01*
X157205509Y-89605200D01*
X157438898Y-89508527D01*
X157440268Y-89507157D01*
X157527310Y-89566631D01*
X157619200Y-89585239D01*
X157619200Y-89769600D01*
X157425350Y-89769600D01*
X157266600Y-89928350D01*
X157266600Y-90652600D01*
X157286600Y-90652600D01*
X157286600Y-90906600D01*
X157266600Y-90906600D01*
X157266600Y-90926600D01*
X157012600Y-90926600D01*
X157012600Y-90906600D01*
X156063350Y-90906600D01*
X155904600Y-91065350D01*
X155904600Y-91280910D01*
X156001273Y-91514299D01*
X156179902Y-91692927D01*
X156413291Y-91789600D01*
X156674320Y-91789600D01*
X156375595Y-91913336D01*
X156301461Y-92159455D01*
X157129600Y-92987595D01*
X157957739Y-92159455D01*
X157883605Y-91913336D01*
X157539358Y-91789600D01*
X157865909Y-91789600D01*
X158099298Y-91692927D01*
X158100668Y-91691557D01*
X158187710Y-91751031D01*
X158439600Y-91802040D01*
X159535226Y-91802040D01*
X159378159Y-91903110D01*
X159233169Y-92115310D01*
X159182160Y-92367200D01*
X159182160Y-93539838D01*
X159162599Y-93559399D01*
X158997852Y-93805961D01*
X158940000Y-94096800D01*
X158940000Y-94765666D01*
X158864683Y-94779838D01*
X158761354Y-94846329D01*
X158759698Y-94844673D01*
X158526309Y-94748000D01*
X158085750Y-94748000D01*
X157927000Y-94906750D01*
X157927000Y-95631000D01*
X157947000Y-95631000D01*
X157947000Y-95885000D01*
X157927000Y-95885000D01*
X157927000Y-95905000D01*
X157673000Y-95905000D01*
X157673000Y-95885000D01*
X156723750Y-95885000D01*
X156565000Y-96043750D01*
X156565000Y-96259310D01*
X156661673Y-96492699D01*
X156840302Y-96671327D01*
X157073691Y-96768000D01*
X157514250Y-96768000D01*
X157672998Y-96609252D01*
X157672998Y-96753302D01*
X157599633Y-96753238D01*
X157255857Y-96895283D01*
X156992608Y-97158073D01*
X156849962Y-97501601D01*
X156849638Y-97873567D01*
X156991683Y-98217343D01*
X157254473Y-98480592D01*
X157598001Y-98623238D01*
X157636100Y-98623271D01*
X157636100Y-98806160D01*
X157221100Y-98806160D01*
X156985783Y-98850438D01*
X156769659Y-98989510D01*
X156624669Y-99201710D01*
X156573660Y-99453600D01*
X156573660Y-110329941D01*
X156258540Y-110329241D01*
X156258540Y-99453600D01*
X156214262Y-99218283D01*
X156075190Y-99002159D01*
X155862990Y-98857169D01*
X155611100Y-98806160D01*
X155216173Y-98806160D01*
X155265238Y-98687999D01*
X155265562Y-98316033D01*
X155123517Y-97972257D01*
X154860727Y-97709008D01*
X154517199Y-97566362D01*
X154145233Y-97566038D01*
X153801457Y-97708083D01*
X153759575Y-97749892D01*
X151201490Y-97789247D01*
X151201562Y-97706433D01*
X151059517Y-97362657D01*
X150948494Y-97251440D01*
X152433200Y-97251440D01*
X152668517Y-97207162D01*
X152884641Y-97068090D01*
X153029631Y-96855890D01*
X153080640Y-96604000D01*
X153080640Y-95256690D01*
X156565000Y-95256690D01*
X156565000Y-95472250D01*
X156723750Y-95631000D01*
X157673000Y-95631000D01*
X157673000Y-94906750D01*
X157514250Y-94748000D01*
X157073691Y-94748000D01*
X156840302Y-94844673D01*
X156661673Y-95023301D01*
X156565000Y-95256690D01*
X153080640Y-95256690D01*
X153080640Y-94703007D01*
X155142487Y-94692155D01*
X155171673Y-94721392D01*
X155515201Y-94864038D01*
X155887167Y-94864362D01*
X156230943Y-94722317D01*
X156491124Y-94462590D01*
X156912823Y-94614165D01*
X157483054Y-94586978D01*
X157883605Y-94421064D01*
X157957739Y-94174945D01*
X157129600Y-93346805D01*
X157115458Y-93360948D01*
X156935852Y-93181342D01*
X156949995Y-93167200D01*
X157309205Y-93167200D01*
X158137345Y-93995339D01*
X158383464Y-93921205D01*
X158576565Y-93383977D01*
X158549378Y-92813746D01*
X158383464Y-92413195D01*
X158137345Y-92339061D01*
X157309205Y-93167200D01*
X156949995Y-93167200D01*
X156121855Y-92339061D01*
X155875736Y-92413195D01*
X155682635Y-92950423D01*
X155684721Y-92994184D01*
X155516833Y-92994038D01*
X155173057Y-93136083D01*
X155136913Y-93172164D01*
X152761912Y-93184664D01*
X152884641Y-93105690D01*
X153029631Y-92893490D01*
X153080640Y-92641600D01*
X153080640Y-91969501D01*
X153342873Y-92232192D01*
X153686401Y-92374838D01*
X154058367Y-92375162D01*
X154402143Y-92233117D01*
X154665392Y-91970327D01*
X154808038Y-91626799D01*
X154808362Y-91254833D01*
X154666317Y-90911057D01*
X154633200Y-90877882D01*
X154633200Y-90278290D01*
X155904600Y-90278290D01*
X155904600Y-90493850D01*
X156063350Y-90652600D01*
X157012600Y-90652600D01*
X157012600Y-89928350D01*
X156853850Y-89769600D01*
X156413291Y-89769600D01*
X156179902Y-89866273D01*
X156001273Y-90044901D01*
X155904600Y-90278290D01*
X154633200Y-90278290D01*
X154633200Y-88880950D01*
X155244200Y-88880950D01*
X155244200Y-89096510D01*
X155340873Y-89329899D01*
X155519502Y-89508527D01*
X155752891Y-89605200D01*
X156193450Y-89605200D01*
X156352200Y-89446450D01*
X156352200Y-88722200D01*
X155402950Y-88722200D01*
X155244200Y-88880950D01*
X154633200Y-88880950D01*
X154633200Y-88093890D01*
X155244200Y-88093890D01*
X155244200Y-88309450D01*
X155402950Y-88468200D01*
X156352200Y-88468200D01*
X156352200Y-87743950D01*
X156193450Y-87585200D01*
X155752891Y-87585200D01*
X155519502Y-87681873D01*
X155340873Y-87860501D01*
X155244200Y-88093890D01*
X154633200Y-88093890D01*
X154633200Y-85686023D01*
X155049035Y-85686023D01*
X155076222Y-86256254D01*
X155242136Y-86656805D01*
X155488255Y-86730939D01*
X156316395Y-85902800D01*
X155488255Y-85074661D01*
X155242136Y-85148795D01*
X155049035Y-85686023D01*
X154633200Y-85686023D01*
X154633200Y-85242400D01*
X154604947Y-85100366D01*
X154605162Y-84854033D01*
X154463117Y-84510257D01*
X154200327Y-84247008D01*
X153856799Y-84104362D01*
X153484833Y-84104038D01*
X153141057Y-84246083D01*
X152877808Y-84508873D01*
X152735162Y-84852401D01*
X152734838Y-85224367D01*
X152876883Y-85568143D01*
X153113200Y-85804873D01*
X153113200Y-90877537D01*
X153081008Y-90909673D01*
X153080640Y-90910559D01*
X153080640Y-90441600D01*
X153036362Y-90206283D01*
X152897290Y-89990159D01*
X152685090Y-89845169D01*
X152433200Y-89794160D01*
X150233200Y-89794160D01*
X149997883Y-89838438D01*
X149781759Y-89977510D01*
X149708889Y-90084159D01*
X149491147Y-89938669D01*
X148827191Y-89806600D01*
X148759209Y-89806600D01*
X148095253Y-89938669D01*
X147532379Y-90314770D01*
X147347315Y-90591737D01*
X147269115Y-90449400D01*
X146126200Y-90449400D01*
X146126200Y-91593029D01*
X146348241Y-91714314D01*
X146854334Y-91474789D01*
X147089034Y-91215702D01*
X147024209Y-91541600D01*
X147156278Y-92205556D01*
X147532379Y-92768430D01*
X148095253Y-93144531D01*
X148412110Y-93207558D01*
X146076462Y-93219851D01*
X144372796Y-93092076D01*
X143439040Y-92083236D01*
X143439040Y-91416400D01*
X143394762Y-91181083D01*
X143255690Y-90964959D01*
X143043490Y-90819969D01*
X142791600Y-90768960D01*
X141891600Y-90768960D01*
X141656283Y-90813238D01*
X141440159Y-90952310D01*
X141295169Y-91164510D01*
X141244160Y-91416400D01*
X141244160Y-92616400D01*
X141288438Y-92851717D01*
X141427510Y-93067841D01*
X141497311Y-93115534D01*
X141440159Y-93152310D01*
X141295169Y-93364510D01*
X141244160Y-93616400D01*
X141244160Y-94228533D01*
X140431433Y-95026084D01*
X140378433Y-95026038D01*
X140034657Y-95168083D01*
X139835292Y-95367101D01*
X139733080Y-94853249D01*
X139422011Y-94387702D01*
X138956464Y-94076633D01*
X138407313Y-93967400D01*
X138351087Y-93967400D01*
X137801936Y-94076633D01*
X137336389Y-94387702D01*
X137162737Y-94647590D01*
X137056882Y-93785068D01*
X137040360Y-93734954D01*
X137037005Y-93682288D01*
X136994344Y-93595380D01*
X136964033Y-93503442D01*
X136929590Y-93463464D01*
X136906336Y-93416092D01*
X136833667Y-93352127D01*
X136770478Y-93278784D01*
X136723358Y-93255030D01*
X136683747Y-93220164D01*
X136533523Y-93133065D01*
X136431080Y-92618049D01*
X136120011Y-92152502D01*
X135654464Y-91841433D01*
X135105313Y-91732200D01*
X135049087Y-91732200D01*
X134499936Y-91841433D01*
X134034389Y-92152502D01*
X133723320Y-92618049D01*
X133614087Y-93167200D01*
X133723320Y-93716351D01*
X134034389Y-94181898D01*
X134178665Y-94278301D01*
X134041883Y-94304038D01*
X133825759Y-94443110D01*
X133680769Y-94655310D01*
X133629760Y-94907200D01*
X133629760Y-96507200D01*
X133674038Y-96742517D01*
X133813110Y-96958641D01*
X134025310Y-97103631D01*
X134277200Y-97154640D01*
X135449838Y-97154640D01*
X137161355Y-98866157D01*
X136969659Y-98989510D01*
X136824669Y-99201710D01*
X136773660Y-99453600D01*
X136773660Y-110285941D01*
X136458540Y-110285241D01*
X136458540Y-99453600D01*
X136414262Y-99218283D01*
X136275190Y-99002159D01*
X136062990Y-98857169D01*
X135811100Y-98806160D01*
X135430800Y-98806160D01*
X135430800Y-98653600D01*
X135372948Y-98362761D01*
X135208201Y-98116199D01*
X134961639Y-97951452D01*
X134670800Y-97893600D01*
X133258402Y-97893600D01*
X128855888Y-93491086D01*
X128920313Y-93167200D01*
X128811080Y-92618049D01*
X128500011Y-92152502D01*
X128034464Y-91841433D01*
X127485313Y-91732200D01*
X127429087Y-91732200D01*
X126879936Y-91841433D01*
X126414389Y-92152502D01*
X126103320Y-92618049D01*
X125994087Y-93167200D01*
X126103320Y-93716351D01*
X126414389Y-94181898D01*
X126796475Y-94437200D01*
X126414389Y-94692502D01*
X126103320Y-95158049D01*
X125994087Y-95707200D01*
X126103320Y-96256351D01*
X126414389Y-96721898D01*
X126879936Y-97032967D01*
X127429087Y-97142200D01*
X127485313Y-97142200D01*
X127762302Y-97087104D01*
X129484484Y-98809286D01*
X129265783Y-98850438D01*
X129049659Y-98989510D01*
X128904669Y-99201710D01*
X128853660Y-99453600D01*
X128853660Y-110268341D01*
X128526100Y-110267613D01*
X128526100Y-105289350D01*
X128367350Y-105130600D01*
X126843100Y-105130600D01*
X126843100Y-105150600D01*
X126589100Y-105150600D01*
X126589100Y-105130600D01*
X126569100Y-105130600D01*
X126569100Y-104876600D01*
X126589100Y-104876600D01*
X126589100Y-98977350D01*
X126843100Y-98977350D01*
X126843100Y-104876600D01*
X128367350Y-104876600D01*
X128526100Y-104717850D01*
X128526100Y-99327290D01*
X128429427Y-99093901D01*
X128250798Y-98915273D01*
X128017409Y-98818600D01*
X127001850Y-98818600D01*
X126843100Y-98977350D01*
X126589100Y-98977350D01*
X126430350Y-98818600D01*
X125857000Y-98818600D01*
X125857000Y-86698202D01*
X126462599Y-87303801D01*
X126464887Y-87305330D01*
X126416960Y-87542000D01*
X126416960Y-89242000D01*
X126461238Y-89477317D01*
X126600310Y-89693441D01*
X126812510Y-89838431D01*
X127064400Y-89889440D01*
X128764400Y-89889440D01*
X128999717Y-89845162D01*
X129215841Y-89706090D01*
X129360831Y-89493890D01*
X129374486Y-89426459D01*
X129404346Y-89471147D01*
X129694400Y-89664954D01*
X129694400Y-89966800D01*
X129752252Y-90257639D01*
X129916999Y-90504201D01*
X130221799Y-90809001D01*
X130468360Y-90973748D01*
X130759200Y-91031600D01*
X134670800Y-91031600D01*
X134719528Y-91021907D01*
X134769098Y-91025216D01*
X134863697Y-90993230D01*
X134961639Y-90973748D01*
X135002948Y-90946146D01*
X135050012Y-90930233D01*
X135125169Y-90864481D01*
X135208201Y-90809001D01*
X135235802Y-90767692D01*
X135273194Y-90734980D01*
X135590563Y-90322400D01*
X136916087Y-90322400D01*
X137025320Y-90871551D01*
X137336389Y-91337098D01*
X137801936Y-91648167D01*
X138351087Y-91757400D01*
X138407313Y-91757400D01*
X138956464Y-91648167D01*
X139422011Y-91337098D01*
X139733080Y-90871551D01*
X139842313Y-90322400D01*
X139733080Y-89773249D01*
X139714584Y-89745567D01*
X141609638Y-89745567D01*
X141751683Y-90089343D01*
X142014473Y-90352592D01*
X142358001Y-90495238D01*
X142729967Y-90495562D01*
X142785055Y-90472800D01*
X143709537Y-90472800D01*
X143741673Y-90504992D01*
X144085201Y-90647638D01*
X144457167Y-90647962D01*
X144668071Y-90560818D01*
X144607296Y-90671439D01*
X144768159Y-91059823D01*
X145144066Y-91474789D01*
X145650159Y-91714314D01*
X145872200Y-91593029D01*
X145872200Y-90449400D01*
X145852200Y-90449400D01*
X145852200Y-90195400D01*
X145872200Y-90195400D01*
X145872200Y-89051771D01*
X146126200Y-89051771D01*
X146126200Y-90195400D01*
X147269115Y-90195400D01*
X147391104Y-89973361D01*
X147230241Y-89584977D01*
X146854334Y-89170011D01*
X146348241Y-88930486D01*
X146126200Y-89051771D01*
X145872200Y-89051771D01*
X145650159Y-88930486D01*
X145144066Y-89170011D01*
X145085918Y-89234200D01*
X145065117Y-89183857D01*
X144802327Y-88920608D01*
X144458799Y-88777962D01*
X144086833Y-88777638D01*
X143743057Y-88919683D01*
X143709882Y-88952800D01*
X143259397Y-88952800D01*
X143075127Y-88768208D01*
X142731599Y-88625562D01*
X142359633Y-88625238D01*
X142015857Y-88767283D01*
X141752608Y-89030073D01*
X141609962Y-89373601D01*
X141609638Y-89745567D01*
X139714584Y-89745567D01*
X139422011Y-89307702D01*
X138956464Y-88996633D01*
X138407313Y-88887400D01*
X138351087Y-88887400D01*
X137801936Y-88996633D01*
X137336389Y-89307702D01*
X137025320Y-89773249D01*
X136916087Y-90322400D01*
X135590563Y-90322400D01*
X136797194Y-88753780D01*
X136849933Y-88647157D01*
X136910883Y-88545007D01*
X137236218Y-87630000D01*
X147024209Y-87630000D01*
X147156278Y-88293956D01*
X147532379Y-88856830D01*
X148095253Y-89232931D01*
X148759209Y-89365000D01*
X148827191Y-89365000D01*
X149491147Y-89232931D01*
X149708702Y-89087565D01*
X149769110Y-89181441D01*
X149981310Y-89326431D01*
X150233200Y-89377440D01*
X152433200Y-89377440D01*
X152668517Y-89333162D01*
X152884641Y-89194090D01*
X153029631Y-88981890D01*
X153080640Y-88730000D01*
X153080640Y-86530000D01*
X153036362Y-86294683D01*
X152897290Y-86078559D01*
X152685090Y-85933569D01*
X152433200Y-85882560D01*
X152093200Y-85882560D01*
X152093200Y-84737886D01*
X152226992Y-84604327D01*
X152369638Y-84260799D01*
X152369962Y-83888833D01*
X152227917Y-83545057D01*
X151965127Y-83281808D01*
X151621599Y-83139162D01*
X151249633Y-83138838D01*
X150905857Y-83280883D01*
X150642608Y-83543673D01*
X150499962Y-83887201D01*
X150499638Y-84259167D01*
X150573200Y-84437201D01*
X150573200Y-85882560D01*
X150233200Y-85882560D01*
X149997883Y-85926838D01*
X149781759Y-86065910D01*
X149708889Y-86172559D01*
X149491147Y-86027069D01*
X148827191Y-85895000D01*
X148759209Y-85895000D01*
X148095253Y-86027069D01*
X147532379Y-86403170D01*
X147156278Y-86966044D01*
X147024209Y-87630000D01*
X137236218Y-87630000D01*
X137543891Y-86764671D01*
X137587343Y-86746717D01*
X137850592Y-86483927D01*
X137993238Y-86140399D01*
X137993562Y-85768433D01*
X137851517Y-85424657D01*
X137588727Y-85161408D01*
X137245199Y-85018762D01*
X136873233Y-85018438D01*
X136529457Y-85160483D01*
X136266208Y-85423273D01*
X136123562Y-85766801D01*
X136123238Y-86138767D01*
X136139350Y-86177761D01*
X135519033Y-87922406D01*
X134296575Y-89511600D01*
X133983912Y-89511600D01*
X134044454Y-89471147D01*
X134366361Y-88989378D01*
X134479400Y-88421093D01*
X134479400Y-88362907D01*
X134366361Y-87794622D01*
X134044454Y-87312853D01*
X133562685Y-86990946D01*
X132994400Y-86877907D01*
X132627992Y-86950790D01*
X131906201Y-86228999D01*
X131659639Y-86064252D01*
X131368800Y-86006400D01*
X131215828Y-86006400D01*
X131504454Y-85813547D01*
X131724400Y-85484374D01*
X131944346Y-85813547D01*
X132426115Y-86135454D01*
X132994400Y-86248493D01*
X133562685Y-86135454D01*
X134044454Y-85813547D01*
X134366361Y-85331778D01*
X134479400Y-84763493D01*
X134479400Y-84705307D01*
X134366361Y-84137022D01*
X134044454Y-83655253D01*
X133562685Y-83333346D01*
X132994400Y-83220307D01*
X132627992Y-83293190D01*
X131906201Y-82571399D01*
X131659639Y-82406652D01*
X131368800Y-82348800D01*
X129702402Y-82348800D01*
X129274952Y-81921350D01*
X158851000Y-81921350D01*
X158851000Y-82136910D01*
X158947673Y-82370299D01*
X159000374Y-82423000D01*
X158947673Y-82475701D01*
X158851000Y-82709090D01*
X158851000Y-82924650D01*
X159009750Y-83083400D01*
X159959000Y-83083400D01*
X159959000Y-81762600D01*
X159009750Y-81762600D01*
X158851000Y-81921350D01*
X129274952Y-81921350D01*
X127810800Y-80457198D01*
X127810800Y-79632315D01*
X127972400Y-79665040D01*
X128595038Y-79665040D01*
X129172599Y-80242601D01*
X129419160Y-80407348D01*
X129451948Y-80413870D01*
X129680053Y-80755254D01*
X130161822Y-81077161D01*
X130730107Y-81190200D01*
X130788293Y-81190200D01*
X131356578Y-81077161D01*
X131838347Y-80755254D01*
X132029200Y-80469622D01*
X132220053Y-80755254D01*
X132701822Y-81077161D01*
X133270107Y-81190200D01*
X133328293Y-81190200D01*
X133609371Y-81134290D01*
X158851000Y-81134290D01*
X158851000Y-81349850D01*
X159009750Y-81508600D01*
X159959000Y-81508600D01*
X159959000Y-80784350D01*
X159800250Y-80625600D01*
X159359691Y-80625600D01*
X159126302Y-80722273D01*
X158947673Y-80900901D01*
X158851000Y-81134290D01*
X133609371Y-81134290D01*
X133896578Y-81077161D01*
X134378347Y-80755254D01*
X134572154Y-80465200D01*
X140004800Y-80465200D01*
X140295639Y-80407348D01*
X140542201Y-80242601D01*
X141355730Y-79429072D01*
X141355638Y-79534767D01*
X141497683Y-79878543D01*
X141760473Y-80141792D01*
X142104001Y-80284438D01*
X142475967Y-80284762D01*
X142819743Y-80142717D01*
X142903807Y-80058800D01*
X145182737Y-80058800D01*
X145214873Y-80090992D01*
X145558401Y-80233638D01*
X145930367Y-80233962D01*
X146274143Y-80091917D01*
X146537392Y-79829127D01*
X146680038Y-79485599D01*
X146680362Y-79113633D01*
X146538317Y-78769857D01*
X146275527Y-78506608D01*
X145931999Y-78363962D01*
X145560033Y-78363638D01*
X145216257Y-78505683D01*
X145183082Y-78538800D01*
X142776314Y-78538800D01*
X142576573Y-78455860D01*
X142625792Y-78406727D01*
X142768438Y-78063199D01*
X142768762Y-77691233D01*
X142626717Y-77347457D01*
X142363927Y-77084208D01*
X142143375Y-76992627D01*
X142017117Y-76687057D01*
X141766465Y-76435967D01*
X150652038Y-76435967D01*
X150707317Y-76569752D01*
X150726801Y-76679492D01*
X151336538Y-78241943D01*
X151312762Y-78299201D01*
X151312438Y-78671167D01*
X151454483Y-79014943D01*
X151717273Y-79278192D01*
X152060801Y-79420838D01*
X152432767Y-79421162D01*
X152776543Y-79279117D01*
X153039792Y-79016327D01*
X153182438Y-78672799D01*
X153182762Y-78300833D01*
X153040717Y-77957057D01*
X152777927Y-77693808D01*
X152749698Y-77682086D01*
X152389038Y-76757896D01*
X152522038Y-76437599D01*
X152522362Y-76065633D01*
X152380317Y-75721857D01*
X152117527Y-75458608D01*
X151773999Y-75315962D01*
X151402033Y-75315638D01*
X151058257Y-75457683D01*
X150795008Y-75720473D01*
X150652362Y-76064001D01*
X150652038Y-76435967D01*
X141766465Y-76435967D01*
X141754327Y-76423808D01*
X141410799Y-76281162D01*
X141038833Y-76280838D01*
X140695057Y-76422883D01*
X140431808Y-76685673D01*
X140289162Y-77029201D01*
X140289121Y-77076077D01*
X139407920Y-77957278D01*
X139362433Y-77957238D01*
X139018657Y-78099283D01*
X138755408Y-78362073D01*
X138612762Y-78705601D01*
X138612553Y-78945200D01*
X134572154Y-78945200D01*
X134378347Y-78655146D01*
X134049174Y-78435200D01*
X134378347Y-78215254D01*
X134680987Y-77762320D01*
X135474002Y-77665611D01*
X135490056Y-77660332D01*
X135506943Y-77660859D01*
X135575860Y-77649373D01*
X135804801Y-77744438D01*
X136176767Y-77744762D01*
X136520543Y-77602717D01*
X136732154Y-77391475D01*
X138736518Y-76830253D01*
X138810673Y-76792644D01*
X138890226Y-76768465D01*
X142497026Y-74838065D01*
X142583136Y-74767318D01*
X142675801Y-74705401D01*
X142696862Y-74673881D01*
X142726149Y-74649819D01*
X142778630Y-74551507D01*
X142840548Y-74458839D01*
X142847943Y-74421661D01*
X142865794Y-74388221D01*
X142876657Y-74277309D01*
X142898400Y-74168000D01*
X142898400Y-70260063D01*
X142930592Y-70227927D01*
X143073238Y-69884399D01*
X143073358Y-69746400D01*
X155041600Y-69746400D01*
X155082082Y-69738347D01*
X155123191Y-69742007D01*
X155226373Y-69709646D01*
X155332439Y-69688548D01*
X155366757Y-69665617D01*
X155406139Y-69653266D01*
X155489084Y-69583882D01*
X155579001Y-69523801D01*
X155601932Y-69489483D01*
X155633589Y-69463001D01*
X157216118Y-67497332D01*
X158894673Y-67497332D01*
X158993336Y-67764187D01*
X159603061Y-67990708D01*
X160253060Y-67966656D01*
X160741864Y-67764187D01*
X160840527Y-67497332D01*
X159867600Y-66524405D01*
X158894673Y-67497332D01*
X157216118Y-67497332D01*
X158227637Y-66240920D01*
X158245744Y-66730260D01*
X158448213Y-67219064D01*
X158715068Y-67317727D01*
X159687995Y-66344800D01*
X160047205Y-66344800D01*
X161020132Y-67317727D01*
X161286987Y-67219064D01*
X161488853Y-66675703D01*
X161734306Y-67269743D01*
X162193837Y-67730078D01*
X162794552Y-67979516D01*
X163444995Y-67980084D01*
X164046143Y-67731694D01*
X164506478Y-67272163D01*
X164755916Y-66671448D01*
X164755918Y-66668595D01*
X167985916Y-66668595D01*
X168234306Y-67269743D01*
X168693837Y-67730078D01*
X169294552Y-67979516D01*
X169944995Y-67980084D01*
X170546143Y-67731694D01*
X171006478Y-67272163D01*
X171255916Y-66671448D01*
X171256484Y-66021005D01*
X171008094Y-65419857D01*
X170548563Y-64959522D01*
X169947848Y-64710084D01*
X169297405Y-64709516D01*
X168696257Y-64957906D01*
X168235922Y-65417437D01*
X167986484Y-66018152D01*
X167985916Y-66668595D01*
X164755918Y-66668595D01*
X164756484Y-66021005D01*
X164508094Y-65419857D01*
X164048563Y-64959522D01*
X163447848Y-64710084D01*
X162797405Y-64709516D01*
X162196257Y-64957906D01*
X161735922Y-65417437D01*
X161491211Y-66006768D01*
X161489456Y-65959340D01*
X161286987Y-65470536D01*
X161020132Y-65371873D01*
X160047205Y-66344800D01*
X159687995Y-66344800D01*
X159673853Y-66330658D01*
X159853458Y-66151053D01*
X159867600Y-66165195D01*
X160840527Y-65192268D01*
X160741864Y-64925413D01*
X160132139Y-64698892D01*
X159482140Y-64722944D01*
X159433524Y-64743081D01*
X160459589Y-63468601D01*
X160509668Y-63372755D01*
X160531986Y-63339354D01*
X160792543Y-63231694D01*
X161027315Y-62997332D01*
X162148273Y-62997332D01*
X162246936Y-63264187D01*
X162856661Y-63490708D01*
X163506660Y-63466656D01*
X163995464Y-63264187D01*
X164094127Y-62997332D01*
X168648273Y-62997332D01*
X168746936Y-63264187D01*
X169356661Y-63490708D01*
X170006660Y-63466656D01*
X170495464Y-63264187D01*
X170594127Y-62997332D01*
X169621200Y-62024405D01*
X168648273Y-62997332D01*
X164094127Y-62997332D01*
X163121200Y-62024405D01*
X162148273Y-62997332D01*
X161027315Y-62997332D01*
X161252878Y-62772163D01*
X161497589Y-62182832D01*
X161499344Y-62230260D01*
X161701813Y-62719064D01*
X161968668Y-62817727D01*
X162941595Y-61844800D01*
X162927453Y-61830658D01*
X163107058Y-61651053D01*
X163121200Y-61665195D01*
X163135343Y-61651053D01*
X163314948Y-61830658D01*
X163300805Y-61844800D01*
X164273732Y-62817727D01*
X164540587Y-62719064D01*
X164767108Y-62109339D01*
X164743056Y-61459340D01*
X164540587Y-60970536D01*
X164273734Y-60871874D01*
X164388014Y-60757594D01*
X164320577Y-60690157D01*
X168412729Y-60699251D01*
G36*
X141203238Y-69882767D02*
X141345283Y-70226543D01*
X141378400Y-70259718D01*
X141378400Y-73712754D01*
X140221065Y-74332173D01*
X139976327Y-74087008D01*
X139632799Y-73944362D01*
X139260833Y-73944038D01*
X138938239Y-74077331D01*
X135593442Y-73816697D01*
X135555134Y-73821261D01*
X135517132Y-73814596D01*
X134552983Y-73836508D01*
X134378347Y-73575146D01*
X134037647Y-73347498D01*
X134180558Y-73280383D01*
X134570845Y-72852124D01*
X134740676Y-72442090D01*
X134619355Y-72212200D01*
X133426200Y-72212200D01*
X133426200Y-72232200D01*
X133172200Y-72232200D01*
X133172200Y-72212200D01*
X133152200Y-72212200D01*
X133152200Y-71958200D01*
X133172200Y-71958200D01*
X133172200Y-70764381D01*
X133426200Y-70764381D01*
X133426200Y-71958200D01*
X134619355Y-71958200D01*
X134740676Y-71728310D01*
X134570845Y-71318276D01*
X134180558Y-70890017D01*
X133656092Y-70643714D01*
X133426200Y-70764381D01*
X133172200Y-70764381D01*
X132942308Y-70643714D01*
X132417842Y-70890017D01*
X132230392Y-71095704D01*
X132212362Y-70999883D01*
X132073290Y-70783759D01*
X131861090Y-70638769D01*
X131609200Y-70587760D01*
X129909200Y-70587760D01*
X129673883Y-70632038D01*
X129457759Y-70771110D01*
X129312769Y-70983310D01*
X129261760Y-71235200D01*
X129261760Y-72935200D01*
X129306038Y-73170517D01*
X129445110Y-73386641D01*
X129657310Y-73531631D01*
X129724741Y-73545286D01*
X129680053Y-73575146D01*
X129358146Y-74056915D01*
X129245107Y-74625200D01*
X129358146Y-75193485D01*
X129680053Y-75675254D01*
X130009226Y-75895200D01*
X129873464Y-75985913D01*
X129519840Y-75842515D01*
X129519840Y-75617600D01*
X129475562Y-75382283D01*
X129336490Y-75166159D01*
X129124290Y-75021169D01*
X128877600Y-74971213D01*
X128877600Y-69746400D01*
X141203357Y-69746400D01*
X141203238Y-69882767D01*
X141203238Y-69882767D01*
G37*
X141203238Y-69882767D02*
X141345283Y-70226543D01*
X141378400Y-70259718D01*
X141378400Y-73712754D01*
X140221065Y-74332173D01*
X139976327Y-74087008D01*
X139632799Y-73944362D01*
X139260833Y-73944038D01*
X138938239Y-74077331D01*
X135593442Y-73816697D01*
X135555134Y-73821261D01*
X135517132Y-73814596D01*
X134552983Y-73836508D01*
X134378347Y-73575146D01*
X134037647Y-73347498D01*
X134180558Y-73280383D01*
X134570845Y-72852124D01*
X134740676Y-72442090D01*
X134619355Y-72212200D01*
X133426200Y-72212200D01*
X133426200Y-72232200D01*
X133172200Y-72232200D01*
X133172200Y-72212200D01*
X133152200Y-72212200D01*
X133152200Y-71958200D01*
X133172200Y-71958200D01*
X133172200Y-70764381D01*
X133426200Y-70764381D01*
X133426200Y-71958200D01*
X134619355Y-71958200D01*
X134740676Y-71728310D01*
X134570845Y-71318276D01*
X134180558Y-70890017D01*
X133656092Y-70643714D01*
X133426200Y-70764381D01*
X133172200Y-70764381D01*
X132942308Y-70643714D01*
X132417842Y-70890017D01*
X132230392Y-71095704D01*
X132212362Y-70999883D01*
X132073290Y-70783759D01*
X131861090Y-70638769D01*
X131609200Y-70587760D01*
X129909200Y-70587760D01*
X129673883Y-70632038D01*
X129457759Y-70771110D01*
X129312769Y-70983310D01*
X129261760Y-71235200D01*
X129261760Y-72935200D01*
X129306038Y-73170517D01*
X129445110Y-73386641D01*
X129657310Y-73531631D01*
X129724741Y-73545286D01*
X129680053Y-73575146D01*
X129358146Y-74056915D01*
X129245107Y-74625200D01*
X129358146Y-75193485D01*
X129680053Y-75675254D01*
X130009226Y-75895200D01*
X129873464Y-75985913D01*
X129519840Y-75842515D01*
X129519840Y-75617600D01*
X129475562Y-75382283D01*
X129336490Y-75166159D01*
X129124290Y-75021169D01*
X128877600Y-74971213D01*
X128877600Y-69746400D01*
X141203357Y-69746400D01*
X141203238Y-69882767D01*
G36*
X142691873Y-60743068D02*
X143664800Y-61715995D01*
X144637727Y-60743068D01*
X144604796Y-60654000D01*
X148049772Y-60654000D01*
X149223839Y-60656609D01*
X149191873Y-60743068D01*
X150164800Y-61715995D01*
X151137727Y-60743068D01*
X151107308Y-60660794D01*
X152236899Y-60663305D01*
X151982322Y-60917437D01*
X151761465Y-61449322D01*
X151584187Y-61021336D01*
X151317332Y-60922673D01*
X150344405Y-61895600D01*
X151317332Y-62868527D01*
X151584187Y-62769864D01*
X151771940Y-62264491D01*
X151980706Y-62769743D01*
X152440237Y-63230078D01*
X153040952Y-63479516D01*
X153691395Y-63480084D01*
X154292543Y-63231694D01*
X154752878Y-62772163D01*
X155002316Y-62171448D01*
X155002884Y-61521005D01*
X154754494Y-60919857D01*
X154503417Y-60668341D01*
X158722462Y-60677717D01*
X158482322Y-60917437D01*
X158232884Y-61518152D01*
X158232316Y-62168595D01*
X158480706Y-62769743D01*
X158807381Y-63096990D01*
X154677771Y-68226400D01*
X130259622Y-68226400D01*
X131591901Y-66719395D01*
X142029516Y-66719395D01*
X142277906Y-67320543D01*
X142737437Y-67780878D01*
X143338152Y-68030316D01*
X143988595Y-68030884D01*
X144589743Y-67782494D01*
X145050078Y-67322963D01*
X145299516Y-66722248D01*
X145299518Y-66719395D01*
X148529516Y-66719395D01*
X148777906Y-67320543D01*
X149237437Y-67780878D01*
X149838152Y-68030316D01*
X150488595Y-68030884D01*
X151089743Y-67782494D01*
X151375403Y-67497332D01*
X152394673Y-67497332D01*
X152493336Y-67764187D01*
X153103061Y-67990708D01*
X153753060Y-67966656D01*
X154241864Y-67764187D01*
X154340527Y-67497332D01*
X153367600Y-66524405D01*
X152394673Y-67497332D01*
X151375403Y-67497332D01*
X151550078Y-67322963D01*
X151770935Y-66791078D01*
X151948213Y-67219064D01*
X152215068Y-67317727D01*
X153187995Y-66344800D01*
X153547205Y-66344800D01*
X154520132Y-67317727D01*
X154786987Y-67219064D01*
X155013508Y-66609339D01*
X154989456Y-65959340D01*
X154786987Y-65470536D01*
X154520132Y-65371873D01*
X153547205Y-66344800D01*
X153187995Y-66344800D01*
X152215068Y-65371873D01*
X151948213Y-65470536D01*
X151760460Y-65975909D01*
X151551694Y-65470657D01*
X151273792Y-65192268D01*
X152394673Y-65192268D01*
X153367600Y-66165195D01*
X154340527Y-65192268D01*
X154241864Y-64925413D01*
X153632139Y-64698892D01*
X152982140Y-64722944D01*
X152493336Y-64925413D01*
X152394673Y-65192268D01*
X151273792Y-65192268D01*
X151092163Y-65010322D01*
X150491448Y-64760884D01*
X149841005Y-64760316D01*
X149239857Y-65008706D01*
X148779522Y-65468237D01*
X148530084Y-66068952D01*
X148529516Y-66719395D01*
X145299518Y-66719395D01*
X145300084Y-66071805D01*
X145051694Y-65470657D01*
X144592163Y-65010322D01*
X143991448Y-64760884D01*
X143341005Y-64760316D01*
X142739857Y-65008706D01*
X142279522Y-65468237D01*
X142030084Y-66068952D01*
X142029516Y-66719395D01*
X131591901Y-66719395D01*
X132192545Y-66039979D01*
X132435600Y-66088325D01*
X132967530Y-65982518D01*
X133418478Y-65681203D01*
X133705600Y-65251496D01*
X133992722Y-65681203D01*
X134443670Y-65982518D01*
X134975600Y-66088325D01*
X135507530Y-65982518D01*
X135958478Y-65681203D01*
X136245600Y-65251496D01*
X136532722Y-65681203D01*
X136983670Y-65982518D01*
X137515600Y-66088325D01*
X138047530Y-65982518D01*
X138498478Y-65681203D01*
X138798351Y-65232413D01*
X138820008Y-65305663D01*
X139162524Y-65729081D01*
X139641003Y-65989193D01*
X139713629Y-66003677D01*
X139928600Y-65881083D01*
X139928600Y-64033400D01*
X140182600Y-64033400D01*
X140182600Y-65881083D01*
X140397571Y-66003677D01*
X140470197Y-65989193D01*
X140948676Y-65729081D01*
X141291192Y-65305663D01*
X141445600Y-64783400D01*
X141445600Y-64033400D01*
X140182600Y-64033400D01*
X139928600Y-64033400D01*
X139908600Y-64033400D01*
X139908600Y-63779400D01*
X139928600Y-63779400D01*
X139928600Y-61931717D01*
X140182600Y-61931717D01*
X140182600Y-63779400D01*
X141445600Y-63779400D01*
X141445600Y-63048132D01*
X142691873Y-63048132D01*
X142790536Y-63314987D01*
X143400261Y-63541508D01*
X144050260Y-63517456D01*
X144539064Y-63314987D01*
X144637727Y-63048132D01*
X149191873Y-63048132D01*
X149290536Y-63314987D01*
X149900261Y-63541508D01*
X150550260Y-63517456D01*
X151039064Y-63314987D01*
X151137727Y-63048132D01*
X150164800Y-62075205D01*
X149191873Y-63048132D01*
X144637727Y-63048132D01*
X143664800Y-62075205D01*
X142691873Y-63048132D01*
X141445600Y-63048132D01*
X141445600Y-63029400D01*
X141291192Y-62507137D01*
X140948676Y-62083719D01*
X140470197Y-61823607D01*
X140397571Y-61809123D01*
X140182600Y-61931717D01*
X139928600Y-61931717D01*
X139713629Y-61809123D01*
X139641003Y-61823607D01*
X139162524Y-62083719D01*
X138820008Y-62507137D01*
X138798351Y-62580387D01*
X138498478Y-62131597D01*
X138047530Y-61830282D01*
X137515600Y-61724475D01*
X136983670Y-61830282D01*
X136532722Y-62131597D01*
X136245600Y-62561304D01*
X135958478Y-62131597D01*
X135507530Y-61830282D01*
X134975600Y-61724475D01*
X134443670Y-61830282D01*
X133992722Y-62131597D01*
X133705600Y-62561304D01*
X133418478Y-62131597D01*
X132967530Y-61830282D01*
X132435600Y-61724475D01*
X131903670Y-61830282D01*
X131452722Y-62131597D01*
X131165600Y-62561304D01*
X130878478Y-62131597D01*
X130427530Y-61830282D01*
X129895600Y-61724475D01*
X129363670Y-61830282D01*
X128912722Y-62131597D01*
X128625600Y-62561304D01*
X128338478Y-62131597D01*
X127887530Y-61830282D01*
X127355600Y-61724475D01*
X126823670Y-61830282D01*
X126372722Y-62131597D01*
X126071407Y-62582545D01*
X125965600Y-63114475D01*
X125965600Y-64698325D01*
X126071407Y-65230255D01*
X126372722Y-65681203D01*
X126823670Y-65982518D01*
X127355600Y-66088325D01*
X127533058Y-66053027D01*
X125857000Y-67912762D01*
X125857000Y-61631061D01*
X142018892Y-61631061D01*
X142042944Y-62281060D01*
X142245413Y-62769864D01*
X142512268Y-62868527D01*
X143485195Y-61895600D01*
X143844405Y-61895600D01*
X144817332Y-62868527D01*
X145084187Y-62769864D01*
X145310708Y-62160139D01*
X145291131Y-61631061D01*
X148518892Y-61631061D01*
X148542944Y-62281060D01*
X148745413Y-62769864D01*
X149012268Y-62868527D01*
X149985195Y-61895600D01*
X149012268Y-60922673D01*
X148745413Y-61021336D01*
X148518892Y-61631061D01*
X145291131Y-61631061D01*
X145286656Y-61510140D01*
X145084187Y-61021336D01*
X144817332Y-60922673D01*
X143844405Y-61895600D01*
X143485195Y-61895600D01*
X142512268Y-60922673D01*
X142245413Y-61021336D01*
X142018892Y-61631061D01*
X125857000Y-61631061D01*
X125857000Y-60654000D01*
X142724804Y-60654000D01*
X142691873Y-60743068D01*
X142691873Y-60743068D01*
G37*
X142691873Y-60743068D02*
X143664800Y-61715995D01*
X144637727Y-60743068D01*
X144604796Y-60654000D01*
X148049772Y-60654000D01*
X149223839Y-60656609D01*
X149191873Y-60743068D01*
X150164800Y-61715995D01*
X151137727Y-60743068D01*
X151107308Y-60660794D01*
X152236899Y-60663305D01*
X151982322Y-60917437D01*
X151761465Y-61449322D01*
X151584187Y-61021336D01*
X151317332Y-60922673D01*
X150344405Y-61895600D01*
X151317332Y-62868527D01*
X151584187Y-62769864D01*
X151771940Y-62264491D01*
X151980706Y-62769743D01*
X152440237Y-63230078D01*
X153040952Y-63479516D01*
X153691395Y-63480084D01*
X154292543Y-63231694D01*
X154752878Y-62772163D01*
X155002316Y-62171448D01*
X155002884Y-61521005D01*
X154754494Y-60919857D01*
X154503417Y-60668341D01*
X158722462Y-60677717D01*
X158482322Y-60917437D01*
X158232884Y-61518152D01*
X158232316Y-62168595D01*
X158480706Y-62769743D01*
X158807381Y-63096990D01*
X154677771Y-68226400D01*
X130259622Y-68226400D01*
X131591901Y-66719395D01*
X142029516Y-66719395D01*
X142277906Y-67320543D01*
X142737437Y-67780878D01*
X143338152Y-68030316D01*
X143988595Y-68030884D01*
X144589743Y-67782494D01*
X145050078Y-67322963D01*
X145299516Y-66722248D01*
X145299518Y-66719395D01*
X148529516Y-66719395D01*
X148777906Y-67320543D01*
X149237437Y-67780878D01*
X149838152Y-68030316D01*
X150488595Y-68030884D01*
X151089743Y-67782494D01*
X151375403Y-67497332D01*
X152394673Y-67497332D01*
X152493336Y-67764187D01*
X153103061Y-67990708D01*
X153753060Y-67966656D01*
X154241864Y-67764187D01*
X154340527Y-67497332D01*
X153367600Y-66524405D01*
X152394673Y-67497332D01*
X151375403Y-67497332D01*
X151550078Y-67322963D01*
X151770935Y-66791078D01*
X151948213Y-67219064D01*
X152215068Y-67317727D01*
X153187995Y-66344800D01*
X153547205Y-66344800D01*
X154520132Y-67317727D01*
X154786987Y-67219064D01*
X155013508Y-66609339D01*
X154989456Y-65959340D01*
X154786987Y-65470536D01*
X154520132Y-65371873D01*
X153547205Y-66344800D01*
X153187995Y-66344800D01*
X152215068Y-65371873D01*
X151948213Y-65470536D01*
X151760460Y-65975909D01*
X151551694Y-65470657D01*
X151273792Y-65192268D01*
X152394673Y-65192268D01*
X153367600Y-66165195D01*
X154340527Y-65192268D01*
X154241864Y-64925413D01*
X153632139Y-64698892D01*
X152982140Y-64722944D01*
X152493336Y-64925413D01*
X152394673Y-65192268D01*
X151273792Y-65192268D01*
X151092163Y-65010322D01*
X150491448Y-64760884D01*
X149841005Y-64760316D01*
X149239857Y-65008706D01*
X148779522Y-65468237D01*
X148530084Y-66068952D01*
X148529516Y-66719395D01*
X145299518Y-66719395D01*
X145300084Y-66071805D01*
X145051694Y-65470657D01*
X144592163Y-65010322D01*
X143991448Y-64760884D01*
X143341005Y-64760316D01*
X142739857Y-65008706D01*
X142279522Y-65468237D01*
X142030084Y-66068952D01*
X142029516Y-66719395D01*
X131591901Y-66719395D01*
X132192545Y-66039979D01*
X132435600Y-66088325D01*
X132967530Y-65982518D01*
X133418478Y-65681203D01*
X133705600Y-65251496D01*
X133992722Y-65681203D01*
X134443670Y-65982518D01*
X134975600Y-66088325D01*
X135507530Y-65982518D01*
X135958478Y-65681203D01*
X136245600Y-65251496D01*
X136532722Y-65681203D01*
X136983670Y-65982518D01*
X137515600Y-66088325D01*
X138047530Y-65982518D01*
X138498478Y-65681203D01*
X138798351Y-65232413D01*
X138820008Y-65305663D01*
X139162524Y-65729081D01*
X139641003Y-65989193D01*
X139713629Y-66003677D01*
X139928600Y-65881083D01*
X139928600Y-64033400D01*
X140182600Y-64033400D01*
X140182600Y-65881083D01*
X140397571Y-66003677D01*
X140470197Y-65989193D01*
X140948676Y-65729081D01*
X141291192Y-65305663D01*
X141445600Y-64783400D01*
X141445600Y-64033400D01*
X140182600Y-64033400D01*
X139928600Y-64033400D01*
X139908600Y-64033400D01*
X139908600Y-63779400D01*
X139928600Y-63779400D01*
X139928600Y-61931717D01*
X140182600Y-61931717D01*
X140182600Y-63779400D01*
X141445600Y-63779400D01*
X141445600Y-63048132D01*
X142691873Y-63048132D01*
X142790536Y-63314987D01*
X143400261Y-63541508D01*
X144050260Y-63517456D01*
X144539064Y-63314987D01*
X144637727Y-63048132D01*
X149191873Y-63048132D01*
X149290536Y-63314987D01*
X149900261Y-63541508D01*
X150550260Y-63517456D01*
X151039064Y-63314987D01*
X151137727Y-63048132D01*
X150164800Y-62075205D01*
X149191873Y-63048132D01*
X144637727Y-63048132D01*
X143664800Y-62075205D01*
X142691873Y-63048132D01*
X141445600Y-63048132D01*
X141445600Y-63029400D01*
X141291192Y-62507137D01*
X140948676Y-62083719D01*
X140470197Y-61823607D01*
X140397571Y-61809123D01*
X140182600Y-61931717D01*
X139928600Y-61931717D01*
X139713629Y-61809123D01*
X139641003Y-61823607D01*
X139162524Y-62083719D01*
X138820008Y-62507137D01*
X138798351Y-62580387D01*
X138498478Y-62131597D01*
X138047530Y-61830282D01*
X137515600Y-61724475D01*
X136983670Y-61830282D01*
X136532722Y-62131597D01*
X136245600Y-62561304D01*
X135958478Y-62131597D01*
X135507530Y-61830282D01*
X134975600Y-61724475D01*
X134443670Y-61830282D01*
X133992722Y-62131597D01*
X133705600Y-62561304D01*
X133418478Y-62131597D01*
X132967530Y-61830282D01*
X132435600Y-61724475D01*
X131903670Y-61830282D01*
X131452722Y-62131597D01*
X131165600Y-62561304D01*
X130878478Y-62131597D01*
X130427530Y-61830282D01*
X129895600Y-61724475D01*
X129363670Y-61830282D01*
X128912722Y-62131597D01*
X128625600Y-62561304D01*
X128338478Y-62131597D01*
X127887530Y-61830282D01*
X127355600Y-61724475D01*
X126823670Y-61830282D01*
X126372722Y-62131597D01*
X126071407Y-62582545D01*
X125965600Y-63114475D01*
X125965600Y-64698325D01*
X126071407Y-65230255D01*
X126372722Y-65681203D01*
X126823670Y-65982518D01*
X127355600Y-66088325D01*
X127533058Y-66053027D01*
X125857000Y-67912762D01*
X125857000Y-61631061D01*
X142018892Y-61631061D01*
X142042944Y-62281060D01*
X142245413Y-62769864D01*
X142512268Y-62868527D01*
X143485195Y-61895600D01*
X143844405Y-61895600D01*
X144817332Y-62868527D01*
X145084187Y-62769864D01*
X145310708Y-62160139D01*
X145291131Y-61631061D01*
X148518892Y-61631061D01*
X148542944Y-62281060D01*
X148745413Y-62769864D01*
X149012268Y-62868527D01*
X149985195Y-61895600D01*
X149012268Y-60922673D01*
X148745413Y-61021336D01*
X148518892Y-61631061D01*
X145291131Y-61631061D01*
X145286656Y-61510140D01*
X145084187Y-61021336D01*
X144817332Y-60922673D01*
X143844405Y-61895600D01*
X143485195Y-61895600D01*
X142512268Y-60922673D01*
X142245413Y-61021336D01*
X142018892Y-61631061D01*
X125857000Y-61631061D01*
X125857000Y-60654000D01*
X142724804Y-60654000D01*
X142691873Y-60743068D01*
M02*
