M48
;DRILL file {KiCad 4.0.7} date 04/08/18 22:28:13
;FORMAT={-:-/ absolute / inch / decimal}
FMAT,2
INCH,TZ
T1C0.016
T2C0.031
T3C0.039
T4C0.043
%
G90
G05
M72
T1
X4.988Y-3.888
X5.354Y-3.024
X5.396Y-3.384
X5.414Y-2.866
X5.49Y-2.948
X5.492Y-3.058
X5.494Y-3.106
X5.534Y-3.778
X5.534Y-3.914
X5.56Y-3.04
X5.584Y-3.066
X5.596Y-2.744
X5.602Y-3.124
X5.612Y-3.526
X5.646Y-2.866
X5.68Y-3.532
X5.69Y-3.912
X5.706Y-2.942
X5.708Y-3.018
X5.738Y-3.122
X5.916Y-3.854
X5.962Y-3.31
X5.968Y-3.002
X5.994Y-3.09
X6.002Y-2.96
X6.05Y-3.348
X6.058Y-3.6
X6.076Y-3.878
X6.13Y-3.698
X6.212Y-3.846
X6.366Y-3.88
X6.376Y-3.15
X6.446Y-3.728
X6.642Y-3.728
X6.702Y-3.868
T2
X5.018Y-3.668
X5.018Y-3.768
X5.318Y-3.668
X5.318Y-3.768
X5.448Y-3.556
X5.448Y-3.756
X5.748Y-3.556
X5.748Y-3.756
X6.1613Y-3.382
X6.1862Y-3.668
X6.24Y-3.382
X6.324Y-3.668
T3
X5.014Y-2.516
X5.036Y-3.336
X5.036Y-3.48
X5.114Y-2.516
X5.136Y-3.336
X5.136Y-3.48
X5.148Y-2.838
X5.148Y-2.938
X5.148Y-3.038
X5.148Y-3.138
X5.214Y-2.516
X5.236Y-3.336
X5.236Y-3.48
X5.248Y-2.838
X5.248Y-2.938
X5.248Y-3.038
X5.248Y-3.138
X5.314Y-2.516
X5.414Y-2.516
X5.514Y-2.516
T4
X5.6561Y-2.4368
X5.6561Y-2.614
X5.858Y-3.45
X5.858Y-3.604
X5.858Y-3.76
X5.912Y-2.4368
X5.912Y-2.614
X5.958Y-3.45
X5.958Y-3.604
X5.958Y-3.76
X6.0381Y-2.4348
X6.0381Y-2.612
X6.294Y-2.4348
X6.294Y-2.612
X6.4221Y-2.4348
X6.4221Y-2.612
X6.678Y-2.4348
X6.678Y-2.612
T0
M30
