%TF.GenerationSoftware,KiCad,Pcbnew,(5.1.6)-1*%
%TF.CreationDate,2020-09-04T01:40:23+02:00*%
%TF.ProjectId,c64modem,6336346d-6f64-4656-9d2e-6b696361645f,rev?*%
%TF.SameCoordinates,Original*%
%TF.FileFunction,Copper,L1,Top*%
%TF.FilePolarity,Positive*%
%FSLAX46Y46*%
G04 Gerber Fmt 4.6, Leading zero omitted, Abs format (unit mm)*
G04 Created by KiCad (PCBNEW (5.1.6)-1) date 2020-09-04 01:40:23*
%MOMM*%
%LPD*%
G01*
G04 APERTURE LIST*
%TA.AperFunction,ComponentPad*%
%ADD10O,1.700000X1.700000*%
%TD*%
%TA.AperFunction,ComponentPad*%
%ADD11R,1.700000X1.700000*%
%TD*%
%TA.AperFunction,ComponentPad*%
%ADD12O,1.600000X1.600000*%
%TD*%
%TA.AperFunction,ComponentPad*%
%ADD13R,1.600000X1.600000*%
%TD*%
%TA.AperFunction,SMDPad,CuDef*%
%ADD14R,2.000000X1.500000*%
%TD*%
%TA.AperFunction,SMDPad,CuDef*%
%ADD15R,2.000000X3.800000*%
%TD*%
%TA.AperFunction,ComponentPad*%
%ADD16C,2.000000*%
%TD*%
%TA.AperFunction,ComponentPad*%
%ADD17O,1.500000X1.500000*%
%TD*%
%TA.AperFunction,ComponentPad*%
%ADD18R,1.500000X1.500000*%
%TD*%
%TA.AperFunction,SMDPad,CuDef*%
%ADD19R,0.600000X0.450000*%
%TD*%
%TA.AperFunction,ComponentPad*%
%ADD20O,1.600000X2.400000*%
%TD*%
%TA.AperFunction,ComponentPad*%
%ADD21R,1.600000X2.400000*%
%TD*%
%TA.AperFunction,ComponentPad*%
%ADD22C,1.600000*%
%TD*%
%TA.AperFunction,ConnectorPad*%
%ADD23R,2.350000X11.100000*%
%TD*%
%TA.AperFunction,ConnectorPad*%
%ADD24R,2.350000X11.000000*%
%TD*%
%TA.AperFunction,ViaPad*%
%ADD25C,0.600000*%
%TD*%
%TA.AperFunction,Conductor*%
%ADD26C,0.250000*%
%TD*%
%TA.AperFunction,Conductor*%
%ADD27C,0.500000*%
%TD*%
%TA.AperFunction,Conductor*%
%ADD28C,0.254000*%
%TD*%
G04 APERTURE END LIST*
%TO.P,U1,14*%
%TO.N,VCC*%
%TA.AperFunction,SMDPad,CuDef*%
G36*
G01*
X152747000Y-75605000D02*
X152747000Y-75405000D01*
G75*
G02*
X152847000Y-75305000I100000J0D01*
G01*
X154122000Y-75305000D01*
G75*
G02*
X154222000Y-75405000I0J-100000D01*
G01*
X154222000Y-75605000D01*
G75*
G02*
X154122000Y-75705000I-100000J0D01*
G01*
X152847000Y-75705000D01*
G75*
G02*
X152747000Y-75605000I0J100000D01*
G01*
G37*
%TD.AperFunction*%
%TO.P,U1,13*%
%TO.N,GND*%
%TA.AperFunction,SMDPad,CuDef*%
G36*
G01*
X152747000Y-76255000D02*
X152747000Y-76055000D01*
G75*
G02*
X152847000Y-75955000I100000J0D01*
G01*
X154122000Y-75955000D01*
G75*
G02*
X154222000Y-76055000I0J-100000D01*
G01*
X154222000Y-76255000D01*
G75*
G02*
X154122000Y-76355000I-100000J0D01*
G01*
X152847000Y-76355000D01*
G75*
G02*
X152747000Y-76255000I0J100000D01*
G01*
G37*
%TD.AperFunction*%
%TO.P,U1,12*%
%TO.N,/ESP_DCD*%
%TA.AperFunction,SMDPad,CuDef*%
G36*
G01*
X152747000Y-76905000D02*
X152747000Y-76705000D01*
G75*
G02*
X152847000Y-76605000I100000J0D01*
G01*
X154122000Y-76605000D01*
G75*
G02*
X154222000Y-76705000I0J-100000D01*
G01*
X154222000Y-76905000D01*
G75*
G02*
X154122000Y-77005000I-100000J0D01*
G01*
X152847000Y-77005000D01*
G75*
G02*
X152747000Y-76905000I0J100000D01*
G01*
G37*
%TD.AperFunction*%
%TO.P,U1,11*%
%TO.N,/C64_DCD*%
%TA.AperFunction,SMDPad,CuDef*%
G36*
G01*
X152747000Y-77555000D02*
X152747000Y-77355000D01*
G75*
G02*
X152847000Y-77255000I100000J0D01*
G01*
X154122000Y-77255000D01*
G75*
G02*
X154222000Y-77355000I0J-100000D01*
G01*
X154222000Y-77555000D01*
G75*
G02*
X154122000Y-77655000I-100000J0D01*
G01*
X152847000Y-77655000D01*
G75*
G02*
X152747000Y-77555000I0J100000D01*
G01*
G37*
%TD.AperFunction*%
%TO.P,U1,10*%
%TO.N,/C64_RTS*%
%TA.AperFunction,SMDPad,CuDef*%
G36*
G01*
X152747000Y-78205000D02*
X152747000Y-78005000D01*
G75*
G02*
X152847000Y-77905000I100000J0D01*
G01*
X154122000Y-77905000D01*
G75*
G02*
X154222000Y-78005000I0J-100000D01*
G01*
X154222000Y-78205000D01*
G75*
G02*
X154122000Y-78305000I-100000J0D01*
G01*
X152847000Y-78305000D01*
G75*
G02*
X152747000Y-78205000I0J100000D01*
G01*
G37*
%TD.AperFunction*%
%TO.P,U1,9*%
%TO.N,GND*%
%TA.AperFunction,SMDPad,CuDef*%
G36*
G01*
X152747000Y-78855000D02*
X152747000Y-78655000D01*
G75*
G02*
X152847000Y-78555000I100000J0D01*
G01*
X154122000Y-78555000D01*
G75*
G02*
X154222000Y-78655000I0J-100000D01*
G01*
X154222000Y-78855000D01*
G75*
G02*
X154122000Y-78955000I-100000J0D01*
G01*
X152847000Y-78955000D01*
G75*
G02*
X152747000Y-78855000I0J100000D01*
G01*
G37*
%TD.AperFunction*%
%TO.P,U1,8*%
%TO.N,Net-(ESP8266-Pad5)*%
%TA.AperFunction,SMDPad,CuDef*%
G36*
G01*
X152747000Y-79505000D02*
X152747000Y-79305000D01*
G75*
G02*
X152847000Y-79205000I100000J0D01*
G01*
X154122000Y-79205000D01*
G75*
G02*
X154222000Y-79305000I0J-100000D01*
G01*
X154222000Y-79505000D01*
G75*
G02*
X154122000Y-79605000I-100000J0D01*
G01*
X152847000Y-79605000D01*
G75*
G02*
X152747000Y-79505000I0J100000D01*
G01*
G37*
%TD.AperFunction*%
%TO.P,U1,7*%
%TO.N,GND*%
%TA.AperFunction,SMDPad,CuDef*%
G36*
G01*
X147022000Y-79505000D02*
X147022000Y-79305000D01*
G75*
G02*
X147122000Y-79205000I100000J0D01*
G01*
X148397000Y-79205000D01*
G75*
G02*
X148497000Y-79305000I0J-100000D01*
G01*
X148497000Y-79505000D01*
G75*
G02*
X148397000Y-79605000I-100000J0D01*
G01*
X147122000Y-79605000D01*
G75*
G02*
X147022000Y-79505000I0J100000D01*
G01*
G37*
%TD.AperFunction*%
%TO.P,U1,6*%
%TO.N,/ESP_RX*%
%TA.AperFunction,SMDPad,CuDef*%
G36*
G01*
X147022000Y-78855000D02*
X147022000Y-78655000D01*
G75*
G02*
X147122000Y-78555000I100000J0D01*
G01*
X148397000Y-78555000D01*
G75*
G02*
X148497000Y-78655000I0J-100000D01*
G01*
X148497000Y-78855000D01*
G75*
G02*
X148397000Y-78955000I-100000J0D01*
G01*
X147122000Y-78955000D01*
G75*
G02*
X147022000Y-78855000I0J100000D01*
G01*
G37*
%TD.AperFunction*%
%TO.P,U1,5*%
%TO.N,/TX*%
%TA.AperFunction,SMDPad,CuDef*%
G36*
G01*
X147022000Y-78205000D02*
X147022000Y-78005000D01*
G75*
G02*
X147122000Y-77905000I100000J0D01*
G01*
X148397000Y-77905000D01*
G75*
G02*
X148497000Y-78005000I0J-100000D01*
G01*
X148497000Y-78205000D01*
G75*
G02*
X148397000Y-78305000I-100000J0D01*
G01*
X147122000Y-78305000D01*
G75*
G02*
X147022000Y-78205000I0J100000D01*
G01*
G37*
%TD.AperFunction*%
%TO.P,U1,4*%
%TO.N,GND*%
%TA.AperFunction,SMDPad,CuDef*%
G36*
G01*
X147022000Y-77555000D02*
X147022000Y-77355000D01*
G75*
G02*
X147122000Y-77255000I100000J0D01*
G01*
X148397000Y-77255000D01*
G75*
G02*
X148497000Y-77355000I0J-100000D01*
G01*
X148497000Y-77555000D01*
G75*
G02*
X148397000Y-77655000I-100000J0D01*
G01*
X147122000Y-77655000D01*
G75*
G02*
X147022000Y-77555000I0J100000D01*
G01*
G37*
%TD.AperFunction*%
%TO.P,U1,3*%
%TO.N,/RX*%
%TA.AperFunction,SMDPad,CuDef*%
G36*
G01*
X147022000Y-76905000D02*
X147022000Y-76705000D01*
G75*
G02*
X147122000Y-76605000I100000J0D01*
G01*
X148397000Y-76605000D01*
G75*
G02*
X148497000Y-76705000I0J-100000D01*
G01*
X148497000Y-76905000D01*
G75*
G02*
X148397000Y-77005000I-100000J0D01*
G01*
X147122000Y-77005000D01*
G75*
G02*
X147022000Y-76905000I0J100000D01*
G01*
G37*
%TD.AperFunction*%
%TO.P,U1,2*%
%TO.N,/ESP_TX*%
%TA.AperFunction,SMDPad,CuDef*%
G36*
G01*
X147022000Y-76255000D02*
X147022000Y-76055000D01*
G75*
G02*
X147122000Y-75955000I100000J0D01*
G01*
X148397000Y-75955000D01*
G75*
G02*
X148497000Y-76055000I0J-100000D01*
G01*
X148497000Y-76255000D01*
G75*
G02*
X148397000Y-76355000I-100000J0D01*
G01*
X147122000Y-76355000D01*
G75*
G02*
X147022000Y-76255000I0J100000D01*
G01*
G37*
%TD.AperFunction*%
%TO.P,U1,1*%
%TO.N,GND*%
%TA.AperFunction,SMDPad,CuDef*%
G36*
G01*
X147022000Y-75605000D02*
X147022000Y-75405000D01*
G75*
G02*
X147122000Y-75305000I100000J0D01*
G01*
X148397000Y-75305000D01*
G75*
G02*
X148497000Y-75405000I0J-100000D01*
G01*
X148497000Y-75605000D01*
G75*
G02*
X148397000Y-75705000I-100000J0D01*
G01*
X147122000Y-75705000D01*
G75*
G02*
X147022000Y-75605000I0J100000D01*
G01*
G37*
%TD.AperFunction*%
%TD*%
D10*
%TO.P,ESP8266,8*%
%TO.N,VCC*%
X138557000Y-82550000D03*
%TO.P,ESP8266,7*%
%TO.N,/ESP_RX*%
X141097000Y-82550000D03*
%TO.P,ESP8266,6*%
%TO.N,/~ESP_RST*%
X138557000Y-80010000D03*
%TO.P,ESP8266,5*%
%TO.N,Net-(ESP8266-Pad5)*%
X141097000Y-80010000D03*
%TO.P,ESP8266,4*%
%TO.N,Net-(ESP8266-Pad4)*%
X138557000Y-77470000D03*
%TO.P,ESP8266,3*%
%TO.N,/ESP_DCD*%
X141097000Y-77470000D03*
%TO.P,ESP8266,2*%
%TO.N,/ESP_TX*%
X138557000Y-74930000D03*
D11*
%TO.P,ESP8266,1*%
%TO.N,GND*%
X141097000Y-74930000D03*
%TD*%
D12*
%TO.P,SW1,4*%
%TO.N,/C64_TX*%
X127317500Y-95250000D03*
%TO.P,SW1,2*%
%TO.N,/SP2*%
X134937500Y-92710000D03*
%TO.P,SW1,3*%
%TO.N,/C64_DSR*%
X127317500Y-92710000D03*
D13*
%TO.P,SW1,1*%
%TO.N,/SP1*%
X134937500Y-95250000D03*
%TD*%
D14*
%TO.P,U2,1*%
%TO.N,GND*%
X161315000Y-75170000D03*
%TO.P,U2,3*%
%TO.N,Net-(C3-Pad1)*%
X161315000Y-79770000D03*
%TO.P,U2,2*%
%TO.N,VCC*%
X161315000Y-77470000D03*
D15*
%TO.P,U2,4*%
%TO.N,N/C*%
X167615000Y-77470000D03*
%TD*%
D16*
%TO.P,SW4,1*%
%TO.N,Net-(ESP8266-Pad5)*%
X143741000Y-69977000D03*
%TO.P,SW4,2*%
%TO.N,GND*%
X143741000Y-65477000D03*
%TO.P,SW4,1*%
%TO.N,Net-(ESP8266-Pad5)*%
X150241000Y-69977000D03*
%TO.P,SW4,2*%
%TO.N,GND*%
X150241000Y-65477000D03*
%TD*%
%TO.P,SW3,1*%
%TO.N,/RST#*%
X163172000Y-69977000D03*
%TO.P,SW3,2*%
%TO.N,GND*%
X163172000Y-65477000D03*
%TO.P,SW3,1*%
%TO.N,/RST#*%
X169672000Y-69977000D03*
%TO.P,SW3,2*%
%TO.N,GND*%
X169672000Y-65477000D03*
%TD*%
%TO.P,SW2,1*%
%TO.N,GND*%
X153443800Y-69977000D03*
%TO.P,SW2,2*%
%TO.N,/~ESP_RST*%
X153443800Y-65477000D03*
%TO.P,SW2,1*%
%TO.N,GND*%
X159943800Y-69977000D03*
%TO.P,SW2,2*%
%TO.N,/~ESP_RST*%
X159943800Y-65477000D03*
%TD*%
%TO.P,R1,2*%
%TO.N,+5V*%
%TA.AperFunction,SMDPad,CuDef*%
G36*
G01*
X166185000Y-96970001D02*
X166185000Y-96069999D01*
G75*
G02*
X166434999Y-95820000I249999J0D01*
G01*
X167085001Y-95820000D01*
G75*
G02*
X167335000Y-96069999I0J-249999D01*
G01*
X167335000Y-96970001D01*
G75*
G02*
X167085001Y-97220000I-249999J0D01*
G01*
X166434999Y-97220000D01*
G75*
G02*
X166185000Y-96970001I0J249999D01*
G01*
G37*
%TD.AperFunction*%
%TO.P,R1,1*%
%TO.N,/RST#*%
%TA.AperFunction,SMDPad,CuDef*%
G36*
G01*
X164135000Y-96970001D02*
X164135000Y-96069999D01*
G75*
G02*
X164384999Y-95820000I249999J0D01*
G01*
X165035001Y-95820000D01*
G75*
G02*
X165285000Y-96069999I0J-249999D01*
G01*
X165285000Y-96970001D01*
G75*
G02*
X165035001Y-97220000I-249999J0D01*
G01*
X164384999Y-97220000D01*
G75*
G02*
X164135000Y-96970001I0J249999D01*
G01*
G37*
%TD.AperFunction*%
%TD*%
D10*
%TO.P,JP2,3*%
%TO.N,/FTDI_RX*%
X127914400Y-83820000D03*
%TO.P,JP2,2*%
%TO.N,/RX*%
X130454400Y-83820000D03*
D11*
%TO.P,JP2,1*%
%TO.N,/C64_RX*%
X132994400Y-83820000D03*
%TD*%
D10*
%TO.P,JP1,3*%
%TO.N,/FTDI_TX*%
X127914400Y-87884000D03*
%TO.P,JP1,2*%
%TO.N,/TX*%
X130454400Y-87884000D03*
D11*
%TO.P,JP1,1*%
%TO.N,/C64_TX*%
X132994400Y-87884000D03*
%TD*%
D10*
%TO.P,J1,6*%
%TO.N,N/C*%
X129540000Y-78740000D03*
%TO.P,J1,5*%
%TO.N,/FTDI_TX*%
X129540000Y-76200000D03*
%TO.P,J1,4*%
%TO.N,/FTDI_RX*%
X129540000Y-73660000D03*
%TO.P,J1,3*%
%TO.N,FTDI_PWR*%
X129540000Y-71120000D03*
%TO.P,J1,2*%
%TO.N,N/C*%
X129540000Y-68580000D03*
D11*
%TO.P,J1,1*%
%TO.N,GND*%
X129540000Y-66040000D03*
%TD*%
D17*
%TO.P,D5,2*%
%TO.N,Net-(D3-Pad1)*%
X150698200Y-87630000D03*
D18*
%TO.P,D5,1*%
%TO.N,Net-(C3-Pad1)*%
X153238200Y-87630000D03*
%TD*%
D19*
%TO.P,D4,2*%
%TO.N,FTDI_PWR*%
X136745000Y-86995000D03*
%TO.P,D4,1*%
%TO.N,Net-(C3-Pad1)*%
X138845000Y-86995000D03*
%TD*%
D17*
%TO.P,D3,2*%
%TO.N,Net-(D2-Pad1)*%
X150698200Y-91541600D03*
D18*
%TO.P,D3,1*%
%TO.N,Net-(D3-Pad1)*%
X153238200Y-91541600D03*
%TD*%
D17*
%TO.P,D2,2*%
%TO.N,Net-(D1-Pad1)*%
X150698200Y-95504000D03*
D18*
%TO.P,D2,1*%
%TO.N,Net-(D2-Pad1)*%
X153238200Y-95504000D03*
%TD*%
D20*
%TO.P,D1,4*%
%TO.N,9VAC2*%
X144145000Y-95885000D03*
%TO.P,D1,2*%
%TO.N,GND*%
X141605000Y-88265000D03*
%TO.P,D1,3*%
%TO.N,9VAC1*%
X141605000Y-95885000D03*
D21*
%TO.P,D1,1*%
%TO.N,Net-(D1-Pad1)*%
X144145000Y-88265000D03*
%TD*%
%TO.P,C7,2*%
%TO.N,GND*%
%TA.AperFunction,SMDPad,CuDef*%
G36*
G01*
X165792999Y-85295000D02*
X166693001Y-85295000D01*
G75*
G02*
X166943000Y-85544999I0J-249999D01*
G01*
X166943000Y-86195001D01*
G75*
G02*
X166693001Y-86445000I-249999J0D01*
G01*
X165792999Y-86445000D01*
G75*
G02*
X165543000Y-86195001I0J249999D01*
G01*
X165543000Y-85544999D01*
G75*
G02*
X165792999Y-85295000I249999J0D01*
G01*
G37*
%TD.AperFunction*%
%TO.P,C7,1*%
%TO.N,VCC*%
%TA.AperFunction,SMDPad,CuDef*%
G36*
G01*
X165792999Y-83245000D02*
X166693001Y-83245000D01*
G75*
G02*
X166943000Y-83494999I0J-249999D01*
G01*
X166943000Y-84145001D01*
G75*
G02*
X166693001Y-84395000I-249999J0D01*
G01*
X165792999Y-84395000D01*
G75*
G02*
X165543000Y-84145001I0J249999D01*
G01*
X165543000Y-83494999D01*
G75*
G02*
X165792999Y-83245000I249999J0D01*
G01*
G37*
%TD.AperFunction*%
%TD*%
D22*
%TO.P,C6,2*%
%TO.N,GND*%
X167640000Y-92805000D03*
D13*
%TO.P,C6,1*%
%TO.N,VCC*%
X167640000Y-90805000D03*
%TD*%
%TO.P,C5,2*%
%TO.N,GND*%
%TA.AperFunction,SMDPad,CuDef*%
G36*
G01*
X159188999Y-85295000D02*
X160089001Y-85295000D01*
G75*
G02*
X160339000Y-85544999I0J-249999D01*
G01*
X160339000Y-86195001D01*
G75*
G02*
X160089001Y-86445000I-249999J0D01*
G01*
X159188999Y-86445000D01*
G75*
G02*
X158939000Y-86195001I0J249999D01*
G01*
X158939000Y-85544999D01*
G75*
G02*
X159188999Y-85295000I249999J0D01*
G01*
G37*
%TD.AperFunction*%
%TO.P,C5,1*%
%TO.N,VCC*%
%TA.AperFunction,SMDPad,CuDef*%
G36*
G01*
X159188999Y-83245000D02*
X160089001Y-83245000D01*
G75*
G02*
X160339000Y-83494999I0J-249999D01*
G01*
X160339000Y-84145001D01*
G75*
G02*
X160089001Y-84395000I-249999J0D01*
G01*
X159188999Y-84395000D01*
G75*
G02*
X158939000Y-84145001I0J249999D01*
G01*
X158939000Y-83494999D01*
G75*
G02*
X159188999Y-83245000I249999J0D01*
G01*
G37*
%TD.AperFunction*%
%TD*%
D22*
%TO.P,C3,2*%
%TO.N,GND*%
X159385000Y-92075000D03*
D13*
%TO.P,C3,1*%
%TO.N,Net-(C3-Pad1)*%
X161385000Y-92075000D03*
%TD*%
%TO.P,C2,2*%
%TO.N,GND*%
%TA.AperFunction,SMDPad,CuDef*%
G36*
G01*
X162490999Y-85295000D02*
X163391001Y-85295000D01*
G75*
G02*
X163641000Y-85544999I0J-249999D01*
G01*
X163641000Y-86195001D01*
G75*
G02*
X163391001Y-86445000I-249999J0D01*
G01*
X162490999Y-86445000D01*
G75*
G02*
X162241000Y-86195001I0J249999D01*
G01*
X162241000Y-85544999D01*
G75*
G02*
X162490999Y-85295000I249999J0D01*
G01*
G37*
%TD.AperFunction*%
%TO.P,C2,1*%
%TO.N,VCC*%
%TA.AperFunction,SMDPad,CuDef*%
G36*
G01*
X162490999Y-83245000D02*
X163391001Y-83245000D01*
G75*
G02*
X163641000Y-83494999I0J-249999D01*
G01*
X163641000Y-84145001D01*
G75*
G02*
X163391001Y-84395000I-249999J0D01*
G01*
X162490999Y-84395000D01*
G75*
G02*
X162241000Y-84145001I0J249999D01*
G01*
X162241000Y-83494999D01*
G75*
G02*
X162490999Y-83245000I249999J0D01*
G01*
G37*
%TD.AperFunction*%
%TD*%
%TO.P,C1,2*%
%TO.N,VCC*%
%TA.AperFunction,SMDPad,CuDef*%
G36*
G01*
X169995001Y-84395000D02*
X169094999Y-84395000D01*
G75*
G02*
X168845000Y-84145001I0J249999D01*
G01*
X168845000Y-83494999D01*
G75*
G02*
X169094999Y-83245000I249999J0D01*
G01*
X169995001Y-83245000D01*
G75*
G02*
X170245000Y-83494999I0J-249999D01*
G01*
X170245000Y-84145001D01*
G75*
G02*
X169995001Y-84395000I-249999J0D01*
G01*
G37*
%TD.AperFunction*%
%TO.P,C1,1*%
%TO.N,GND*%
%TA.AperFunction,SMDPad,CuDef*%
G36*
G01*
X169995001Y-86445000D02*
X169094999Y-86445000D01*
G75*
G02*
X168845000Y-86195001I0J249999D01*
G01*
X168845000Y-85544999D01*
G75*
G02*
X169094999Y-85295000I249999J0D01*
G01*
X169995001Y-85295000D01*
G75*
G02*
X170245000Y-85544999I0J-249999D01*
G01*
X170245000Y-86195001D01*
G75*
G02*
X169995001Y-86445000I-249999J0D01*
G01*
G37*
%TD.AperFunction*%
%TD*%
D23*
%TO.P,CN1,12*%
%TO.N,GND*%
X126716100Y-105003600D03*
%TO.P,CN1,11*%
%TO.N,9VAC1*%
X130676100Y-105003600D03*
%TO.P,CN1,10*%
%TO.N,9VAC2*%
X134636100Y-105003600D03*
D24*
%TO.P,CN1,9*%
%TO.N,N/C*%
X138596100Y-105003600D03*
D23*
%TO.P,CN1,8*%
X142556100Y-105003600D03*
%TO.P,CN1,7*%
%TO.N,/C64_RX*%
X146516100Y-105003600D03*
%TO.P,CN1,6*%
%TO.N,/SP2*%
X150476100Y-105003600D03*
%TO.P,CN1,5*%
%TO.N,/SP1*%
X154436100Y-105003600D03*
%TO.P,CN1,4*%
%TO.N,N/C*%
X158396100Y-105003600D03*
%TO.P,CN1,3*%
%TO.N,/RST#*%
X162356100Y-105003600D03*
%TO.P,CN1,2*%
%TO.N,+5V*%
X166316100Y-105003600D03*
%TO.P,CN1,1*%
%TO.N,GND*%
X170276100Y-105003600D03*
%TD*%
D25*
%TO.N,GND*%
X151892000Y-78232000D03*
X127254000Y-98171000D03*
X155097000Y-76170000D03*
%TO.N,VCC*%
X138938000Y-66421000D03*
%TO.N,/C64_RX*%
X148590000Y-98171000D03*
%TO.N,/SP1*%
X137033000Y-91059000D03*
%TO.N,/RST#*%
X169799000Y-94869000D03*
%TO.N,+5V*%
X164719000Y-98552000D03*
%TO.N,/C64_DCD*%
X155448000Y-97536000D03*
%TO.N,/C64_RTS*%
X158242000Y-98615500D03*
%TO.N,/TX*%
X149225000Y-77978000D03*
%TO.N,Net-(ESP8266-Pad5)*%
X151384000Y-79248000D03*
%TO.N,/RX*%
X145825853Y-76954942D03*
%TO.N,Net-(C3-Pad1)*%
X158877000Y-79756000D03*
%TD*%
D26*
%TO.N,GND*%
X153357500Y-78770000D02*
X152430000Y-78770000D01*
X152430000Y-78770000D02*
X151892000Y-78232000D01*
X126716100Y-105003600D02*
X126716100Y-98708900D01*
X126716100Y-98708900D02*
X127254000Y-98171000D01*
X155097000Y-76170000D02*
X153357500Y-76170000D01*
X159943800Y-73798800D02*
X161315000Y-75170000D01*
X159943800Y-69977000D02*
X159943800Y-73798800D01*
D27*
X159639000Y-85870000D02*
X162941000Y-85870000D01*
D26*
X170276100Y-105003600D02*
X170276100Y-97820900D01*
X170276100Y-97820900D02*
X170815000Y-97282000D01*
X170815000Y-94959998D02*
X168660002Y-92805000D01*
X168660002Y-92805000D02*
X167640000Y-92805000D01*
X170815000Y-97282000D02*
X170815000Y-94959998D01*
X147759500Y-75505000D02*
X148784000Y-75505000D01*
X148784000Y-75505000D02*
X149225000Y-75946000D01*
X149225000Y-75946000D02*
X149225000Y-77089000D01*
X148859000Y-77455000D02*
X147759500Y-77455000D01*
X149225000Y-77089000D02*
X148859000Y-77455000D01*
X149225000Y-77089000D02*
X150495000Y-77089000D01*
X151429000Y-76155000D02*
X153484500Y-76155000D01*
X150495000Y-77089000D02*
X151429000Y-76155000D01*
X148723002Y-79405000D02*
X150495000Y-77633002D01*
X150495000Y-77633002D02*
X150495000Y-77089000D01*
X147759500Y-79405000D02*
X148723002Y-79405000D01*
X167640000Y-92805000D02*
X168815000Y-92805000D01*
X169545000Y-92075000D02*
X169545000Y-85870000D01*
X168815000Y-92805000D02*
X169545000Y-92075000D01*
X162941000Y-85870000D02*
X166243000Y-85870000D01*
X162941000Y-85870000D02*
X162941000Y-89535000D01*
X166211000Y-92805000D02*
X167640000Y-92805000D01*
X162941000Y-89535000D02*
X166211000Y-92805000D01*
D27*
%TO.N,VCC*%
X167894000Y-89154000D02*
X167640000Y-90805000D01*
X166243000Y-83820000D02*
X167894000Y-84201000D01*
X167894000Y-84201000D02*
X167894000Y-89154000D01*
D26*
X153484500Y-75505000D02*
X153484500Y-74861500D01*
X153484500Y-74861500D02*
X153924000Y-74422000D01*
X153924000Y-74422000D02*
X156591000Y-74422000D01*
X159639000Y-77470000D02*
X161315000Y-77470000D01*
X156591000Y-74422000D02*
X159639000Y-77470000D01*
%TO.N,9VAC1*%
X141605000Y-97409000D02*
X141605000Y-95885000D01*
X130676100Y-99203600D02*
X131454700Y-98425000D01*
X130676100Y-105003600D02*
X130676100Y-99203600D01*
X131454700Y-98425000D02*
X136523590Y-98425000D01*
X136523590Y-98425000D02*
X137032295Y-97916295D01*
X141097000Y-97917000D02*
X141605000Y-97409000D01*
X137032295Y-97916295D02*
X141097000Y-97917000D01*
%TO.N,9VAC2*%
X144145000Y-97790000D02*
X144145000Y-95885000D01*
X143510000Y-98552000D02*
X144145000Y-97790000D01*
X137287000Y-98552000D02*
X143510000Y-98552000D01*
X134636100Y-105003600D02*
X134636100Y-100948900D01*
X134636100Y-100948900D02*
X137287000Y-98552000D01*
%TO.N,/C64_RX*%
X146558000Y-99187000D02*
X146516100Y-105003600D01*
X148590000Y-98171000D02*
X147701000Y-98171000D01*
X147701000Y-98171000D02*
X146558000Y-99187000D01*
X134493000Y-90170000D02*
X134493000Y-85318600D01*
X133223000Y-95885000D02*
X133223000Y-91440000D01*
X133877499Y-96774000D02*
X133223000Y-95885000D01*
X133223000Y-91440000D02*
X134493000Y-90170000D01*
X138811000Y-96774000D02*
X133877499Y-96774000D01*
X144526000Y-93599000D02*
X140208000Y-93599000D01*
X148590000Y-98171000D02*
X144526000Y-93599000D01*
X140208000Y-93599000D02*
X139573000Y-94107000D01*
X139573000Y-94107000D02*
X139573000Y-96012000D01*
X134493000Y-85318600D02*
X132994400Y-83820000D01*
X139573000Y-96012000D02*
X138811000Y-96774000D01*
%TO.N,/SP2*%
X150114000Y-98679000D02*
X144780000Y-92710000D01*
X150476100Y-105003600D02*
X150495000Y-99060000D01*
X144780000Y-92710000D02*
X134620000Y-92710000D01*
X150495000Y-99060000D02*
X150114000Y-98679000D01*
%TO.N,/SP1*%
X144399000Y-91059000D02*
X137033000Y-91059000D01*
X154436100Y-101159600D02*
X154432000Y-99060000D01*
X154436100Y-105003600D02*
X154436100Y-101159600D01*
X154178000Y-98806000D02*
X151257000Y-98806000D01*
X154432000Y-99060000D02*
X154178000Y-98806000D01*
X151257000Y-98806000D02*
X144399000Y-91059000D01*
%TO.N,/RST#*%
X162356100Y-98873900D02*
X164710000Y-96520000D01*
X162356100Y-105003600D02*
X162356100Y-98873900D01*
X169672000Y-69977000D02*
X163172000Y-69977000D01*
X169799000Y-94869000D02*
X165989000Y-94869000D01*
X165989000Y-94869000D02*
X164710000Y-96520000D01*
%TO.N,+5V*%
X166760000Y-98670000D02*
X166760000Y-96520000D01*
X166316100Y-105003600D02*
X166316100Y-99113900D01*
X166316100Y-99113900D02*
X166760000Y-98670000D01*
X164719000Y-98552000D02*
X166316100Y-99113900D01*
%TO.N,/C64_TX*%
X132994400Y-90525600D02*
X132994400Y-87630000D01*
X127317500Y-95250000D02*
X132994400Y-90525600D01*
%TO.N,/C64_DCD*%
X155194000Y-77470000D02*
X153357500Y-77470000D01*
X155448000Y-97536000D02*
X155448000Y-77851000D01*
X155448000Y-77851000D02*
X155194000Y-77470000D01*
%TO.N,/C64_RTS*%
X154813000Y-78359000D02*
X154813000Y-85090000D01*
X153484500Y-78105000D02*
X154559000Y-78105000D01*
X154559000Y-78105000D02*
X154813000Y-78359000D01*
X158242000Y-98615500D02*
X155638500Y-98615500D01*
X154822999Y-85099999D02*
X154813000Y-85090000D01*
X154822999Y-97799999D02*
X154822999Y-85099999D01*
X155638500Y-98615500D02*
X154822999Y-97799999D01*
%TO.N,Net-(D1-Pad1)*%
X144145000Y-88950800D02*
X150698200Y-95504000D01*
X144145000Y-88265000D02*
X144145000Y-88950800D01*
%TO.N,FTDI_PWR*%
X131445000Y-73025000D02*
X129540000Y-71120000D01*
X135890000Y-86995000D02*
X135509000Y-86614000D01*
X136745000Y-86995000D02*
X135890000Y-86995000D01*
X135509000Y-86614000D02*
X135509000Y-83566000D01*
X135509000Y-83566000D02*
X131445000Y-79375000D01*
X131445000Y-79375000D02*
X131445000Y-73025000D01*
%TO.N,/FTDI_RX*%
X129540000Y-73660000D02*
X128270000Y-73660000D01*
X128270000Y-73660000D02*
X127914400Y-74015600D01*
X127914400Y-74015600D02*
X127914400Y-83820000D01*
%TO.N,/FTDI_TX*%
X129089401Y-86454999D02*
X127914400Y-87630000D01*
X129540000Y-76200000D02*
X128364410Y-77375590D01*
X128364410Y-79303412D02*
X128364410Y-77375590D01*
X129089401Y-86454999D02*
X129089401Y-80028403D01*
X129089401Y-80028403D02*
X128364410Y-79303412D01*
%TO.N,/ESP_TX*%
X147602500Y-76200000D02*
X147632500Y-76170000D01*
X139782000Y-76155000D02*
X138557000Y-74930000D01*
X147759500Y-76155000D02*
X139782000Y-76155000D01*
%TO.N,/ESP_RX*%
X144892000Y-78755000D02*
X141097000Y-82550000D01*
X147759500Y-78755000D02*
X144892000Y-78755000D01*
%TO.N,/TX*%
X149034500Y-78105000D02*
X147759500Y-78105000D01*
X149225000Y-77978000D02*
X149034500Y-78105000D01*
%TO.N,Net-(ESP8266-Pad5)*%
X151556000Y-79420000D02*
X153357500Y-79420000D01*
X151384000Y-79248000D02*
X151556000Y-79420000D01*
%TO.N,/RX*%
X147554000Y-76898500D02*
X147632500Y-76820000D01*
X145960795Y-76820000D02*
X147632500Y-76820000D01*
X145825853Y-76954942D02*
X145960795Y-76820000D01*
%TO.N,Net-(C3-Pad1)*%
X138845000Y-86995000D02*
X139480000Y-86360000D01*
X151968200Y-86360000D02*
X153238200Y-87630000D01*
X139480000Y-86360000D02*
X151968200Y-86360000D01*
X153238200Y-87630000D02*
X153455000Y-87630000D01*
X158877000Y-79756000D02*
X161315000Y-79770000D01*
%TO.N,Net-(D2-Pad1)*%
X150698200Y-92964000D02*
X153238200Y-95504000D01*
X150698200Y-91541600D02*
X150698200Y-92964000D01*
%TO.N,/~ESP_RST*%
X153443800Y-65477000D02*
X159943800Y-65477000D01*
%TO.N,Net-(ESP8266-Pad5)*%
X137795000Y-78740000D02*
X139827000Y-78740000D01*
X140693000Y-73025000D02*
X138430000Y-73025000D01*
X143741000Y-69977000D02*
X140693000Y-73025000D01*
X138430000Y-73025000D02*
X137160000Y-74295000D01*
X139827000Y-78740000D02*
X141097000Y-80010000D01*
X137160000Y-74295000D02*
X137160000Y-78232000D01*
X137160000Y-78232000D02*
X137795000Y-78740000D01*
%TO.N,/ESP_DCD*%
X142272001Y-78645001D02*
X141097000Y-77470000D01*
X141986000Y-83820000D02*
X140716000Y-83820000D01*
X146050000Y-80137000D02*
X141986000Y-83820000D01*
X152303000Y-76805000D02*
X148971000Y-80137000D01*
X139921999Y-81985999D02*
X140532999Y-81374999D01*
X148971000Y-80137000D02*
X146050000Y-80137000D01*
X140716000Y-83820000D02*
X139921999Y-83114001D01*
X153484500Y-76805000D02*
X152303000Y-76805000D01*
X139921999Y-83114001D02*
X139921999Y-81985999D01*
X140532999Y-81374999D02*
X141471003Y-81374999D01*
X141471003Y-81374999D02*
X142272001Y-80574001D01*
X142272001Y-80574001D02*
X142272001Y-78645001D01*
%TD*%
D28*
%TO.N,+5V*%
G36*
X169356111Y-95697586D02*
G01*
X169526271Y-95768068D01*
X169706911Y-95804000D01*
X169891089Y-95804000D01*
X170055001Y-95771396D01*
X170055000Y-96967198D01*
X169765098Y-97257101D01*
X169736100Y-97280899D01*
X169712302Y-97309897D01*
X169712301Y-97309898D01*
X169641126Y-97396624D01*
X169570554Y-97528654D01*
X169546728Y-97607201D01*
X169529196Y-97665000D01*
X169527098Y-97671915D01*
X169512424Y-97820900D01*
X169516101Y-97858232D01*
X169516101Y-98815528D01*
X169101100Y-98815528D01*
X168976618Y-98827788D01*
X168856920Y-98864098D01*
X168746606Y-98923063D01*
X168649915Y-99002415D01*
X168570563Y-99099106D01*
X168511598Y-99209420D01*
X168475288Y-99329118D01*
X168463028Y-99453600D01*
X168463028Y-99949000D01*
X168128883Y-99949000D01*
X168129172Y-99453600D01*
X168116912Y-99329118D01*
X168080602Y-99209420D01*
X168021637Y-99099106D01*
X167942285Y-99002415D01*
X167845594Y-98923063D01*
X167735280Y-98864098D01*
X167615582Y-98827788D01*
X167491100Y-98815528D01*
X166601850Y-98818600D01*
X166443100Y-98977350D01*
X166443100Y-99949000D01*
X166189100Y-99949000D01*
X166189100Y-98977350D01*
X166030350Y-98818600D01*
X165141100Y-98815528D01*
X165016618Y-98827788D01*
X164896920Y-98864098D01*
X164786606Y-98923063D01*
X164689915Y-99002415D01*
X164610563Y-99099106D01*
X164551598Y-99209420D01*
X164515288Y-99329118D01*
X164503028Y-99453600D01*
X164503317Y-99949000D01*
X164169172Y-99949000D01*
X164169172Y-99453600D01*
X164156912Y-99329118D01*
X164120602Y-99209420D01*
X164061637Y-99099106D01*
X163982285Y-99002415D01*
X163885594Y-98923063D01*
X163775280Y-98864098D01*
X163655582Y-98827788D01*
X163531100Y-98815528D01*
X163489273Y-98815528D01*
X164446730Y-97858072D01*
X165035001Y-97858072D01*
X165208255Y-97841008D01*
X165374851Y-97790472D01*
X165528387Y-97708405D01*
X165662962Y-97597962D01*
X165668342Y-97591406D01*
X165733815Y-97671185D01*
X165830506Y-97750537D01*
X165940820Y-97809502D01*
X166060518Y-97845812D01*
X166185000Y-97858072D01*
X166474250Y-97855000D01*
X166633000Y-97696250D01*
X166633000Y-96647000D01*
X166887000Y-96647000D01*
X166887000Y-97696250D01*
X167045750Y-97855000D01*
X167335000Y-97858072D01*
X167459482Y-97845812D01*
X167579180Y-97809502D01*
X167689494Y-97750537D01*
X167786185Y-97671185D01*
X167865537Y-97574494D01*
X167924502Y-97464180D01*
X167960812Y-97344482D01*
X167973072Y-97220000D01*
X167970000Y-96805750D01*
X167811250Y-96647000D01*
X166887000Y-96647000D01*
X166633000Y-96647000D01*
X166613000Y-96647000D01*
X166613000Y-96393000D01*
X166633000Y-96393000D01*
X166633000Y-96373000D01*
X166887000Y-96373000D01*
X166887000Y-96393000D01*
X167811250Y-96393000D01*
X167970000Y-96234250D01*
X167973072Y-95820000D01*
X167960812Y-95695518D01*
X167940634Y-95629000D01*
X169253465Y-95629000D01*
X169356111Y-95697586D01*
G37*
X169356111Y-95697586D02*
X169526271Y-95768068D01*
X169706911Y-95804000D01*
X169891089Y-95804000D01*
X170055001Y-95771396D01*
X170055000Y-96967198D01*
X169765098Y-97257101D01*
X169736100Y-97280899D01*
X169712302Y-97309897D01*
X169712301Y-97309898D01*
X169641126Y-97396624D01*
X169570554Y-97528654D01*
X169546728Y-97607201D01*
X169529196Y-97665000D01*
X169527098Y-97671915D01*
X169512424Y-97820900D01*
X169516101Y-97858232D01*
X169516101Y-98815528D01*
X169101100Y-98815528D01*
X168976618Y-98827788D01*
X168856920Y-98864098D01*
X168746606Y-98923063D01*
X168649915Y-99002415D01*
X168570563Y-99099106D01*
X168511598Y-99209420D01*
X168475288Y-99329118D01*
X168463028Y-99453600D01*
X168463028Y-99949000D01*
X168128883Y-99949000D01*
X168129172Y-99453600D01*
X168116912Y-99329118D01*
X168080602Y-99209420D01*
X168021637Y-99099106D01*
X167942285Y-99002415D01*
X167845594Y-98923063D01*
X167735280Y-98864098D01*
X167615582Y-98827788D01*
X167491100Y-98815528D01*
X166601850Y-98818600D01*
X166443100Y-98977350D01*
X166443100Y-99949000D01*
X166189100Y-99949000D01*
X166189100Y-98977350D01*
X166030350Y-98818600D01*
X165141100Y-98815528D01*
X165016618Y-98827788D01*
X164896920Y-98864098D01*
X164786606Y-98923063D01*
X164689915Y-99002415D01*
X164610563Y-99099106D01*
X164551598Y-99209420D01*
X164515288Y-99329118D01*
X164503028Y-99453600D01*
X164503317Y-99949000D01*
X164169172Y-99949000D01*
X164169172Y-99453600D01*
X164156912Y-99329118D01*
X164120602Y-99209420D01*
X164061637Y-99099106D01*
X163982285Y-99002415D01*
X163885594Y-98923063D01*
X163775280Y-98864098D01*
X163655582Y-98827788D01*
X163531100Y-98815528D01*
X163489273Y-98815528D01*
X164446730Y-97858072D01*
X165035001Y-97858072D01*
X165208255Y-97841008D01*
X165374851Y-97790472D01*
X165528387Y-97708405D01*
X165662962Y-97597962D01*
X165668342Y-97591406D01*
X165733815Y-97671185D01*
X165830506Y-97750537D01*
X165940820Y-97809502D01*
X166060518Y-97845812D01*
X166185000Y-97858072D01*
X166474250Y-97855000D01*
X166633000Y-97696250D01*
X166633000Y-96647000D01*
X166887000Y-96647000D01*
X166887000Y-97696250D01*
X167045750Y-97855000D01*
X167335000Y-97858072D01*
X167459482Y-97845812D01*
X167579180Y-97809502D01*
X167689494Y-97750537D01*
X167786185Y-97671185D01*
X167865537Y-97574494D01*
X167924502Y-97464180D01*
X167960812Y-97344482D01*
X167973072Y-97220000D01*
X167970000Y-96805750D01*
X167811250Y-96647000D01*
X166887000Y-96647000D01*
X166633000Y-96647000D01*
X166613000Y-96647000D01*
X166613000Y-96393000D01*
X166633000Y-96393000D01*
X166633000Y-96373000D01*
X166887000Y-96373000D01*
X166887000Y-96393000D01*
X167811250Y-96393000D01*
X167970000Y-96234250D01*
X167973072Y-95820000D01*
X167960812Y-95695518D01*
X167940634Y-95629000D01*
X169253465Y-95629000D01*
X169356111Y-95697586D01*
%TO.N,VCC*%
G36*
X142533163Y-64372598D02*
G01*
X142471013Y-64434748D01*
X142292082Y-64702537D01*
X142168832Y-65000088D01*
X142106000Y-65315967D01*
X142106000Y-65638033D01*
X142168832Y-65953912D01*
X142292082Y-66251463D01*
X142471013Y-66519252D01*
X142698748Y-66746987D01*
X142966537Y-66925918D01*
X143264088Y-67049168D01*
X143579967Y-67112000D01*
X143902033Y-67112000D01*
X144217912Y-67049168D01*
X144515463Y-66925918D01*
X144783252Y-66746987D01*
X145010987Y-66519252D01*
X145189918Y-66251463D01*
X145313168Y-65953912D01*
X145376000Y-65638033D01*
X145376000Y-65315967D01*
X145313168Y-65000088D01*
X145189918Y-64702537D01*
X145010987Y-64434748D01*
X144954217Y-64377978D01*
X149018750Y-64387011D01*
X148971013Y-64434748D01*
X148792082Y-64702537D01*
X148668832Y-65000088D01*
X148606000Y-65315967D01*
X148606000Y-65638033D01*
X148668832Y-65953912D01*
X148792082Y-66251463D01*
X148971013Y-66519252D01*
X149198748Y-66746987D01*
X149466537Y-66925918D01*
X149764088Y-67049168D01*
X150079967Y-67112000D01*
X150402033Y-67112000D01*
X150717912Y-67049168D01*
X151015463Y-66925918D01*
X151283252Y-66746987D01*
X151510987Y-66519252D01*
X151689918Y-66251463D01*
X151813168Y-65953912D01*
X151842400Y-65806952D01*
X151871632Y-65953912D01*
X151994882Y-66251463D01*
X152173813Y-66519252D01*
X152401548Y-66746987D01*
X152669337Y-66925918D01*
X152966888Y-67049168D01*
X153282767Y-67112000D01*
X153604833Y-67112000D01*
X153920712Y-67049168D01*
X154218263Y-66925918D01*
X154486052Y-66746987D01*
X154713787Y-66519252D01*
X154892718Y-66251463D01*
X154898709Y-66237000D01*
X158488891Y-66237000D01*
X158494882Y-66251463D01*
X158673813Y-66519252D01*
X158901548Y-66746987D01*
X159169337Y-66925918D01*
X159466888Y-67049168D01*
X159782767Y-67112000D01*
X160104833Y-67112000D01*
X160420712Y-67049168D01*
X160718263Y-66925918D01*
X160986052Y-66746987D01*
X161213787Y-66519252D01*
X161392718Y-66251463D01*
X161515968Y-65953912D01*
X161557900Y-65743105D01*
X161599832Y-65953912D01*
X161723082Y-66251463D01*
X161902013Y-66519252D01*
X162129748Y-66746987D01*
X162397537Y-66925918D01*
X162695088Y-67049168D01*
X163010967Y-67112000D01*
X163333033Y-67112000D01*
X163648912Y-67049168D01*
X163946463Y-66925918D01*
X164214252Y-66746987D01*
X164441987Y-66519252D01*
X164620918Y-66251463D01*
X164744168Y-65953912D01*
X164807000Y-65638033D01*
X164807000Y-65315967D01*
X164744168Y-65000088D01*
X164620918Y-64702537D01*
X164441987Y-64434748D01*
X164428494Y-64421255D01*
X168406666Y-64430095D01*
X168402013Y-64434748D01*
X168223082Y-64702537D01*
X168099832Y-65000088D01*
X168037000Y-65315967D01*
X168037000Y-65638033D01*
X168099832Y-65953912D01*
X168223082Y-66251463D01*
X168402013Y-66519252D01*
X168629748Y-66746987D01*
X168897537Y-66925918D01*
X169195088Y-67049168D01*
X169510967Y-67112000D01*
X169833033Y-67112000D01*
X170148912Y-67049168D01*
X170446463Y-66925918D01*
X170714252Y-66746987D01*
X170941987Y-66519252D01*
X171120918Y-66251463D01*
X171244168Y-65953912D01*
X171307000Y-65638033D01*
X171307000Y-65315967D01*
X171244168Y-65000088D01*
X171120918Y-64702537D01*
X170942644Y-64435731D01*
X171375001Y-64436691D01*
X171375001Y-74316765D01*
X171323637Y-84518808D01*
X170870681Y-84519914D01*
X170870812Y-84519482D01*
X170883072Y-84395000D01*
X170880000Y-84105750D01*
X170721250Y-83947000D01*
X169672000Y-83947000D01*
X169672000Y-83967000D01*
X169418000Y-83967000D01*
X169418000Y-83947000D01*
X168368750Y-83947000D01*
X168210000Y-84105750D01*
X168206928Y-84395000D01*
X168219188Y-84519482D01*
X168221280Y-84526380D01*
X167566235Y-84527979D01*
X167568812Y-84519482D01*
X167581072Y-84395000D01*
X167578000Y-84105750D01*
X167419250Y-83947000D01*
X166370000Y-83947000D01*
X166370000Y-83967000D01*
X166116000Y-83967000D01*
X166116000Y-83947000D01*
X165066750Y-83947000D01*
X164908000Y-84105750D01*
X164904928Y-84395000D01*
X164917188Y-84519482D01*
X164921723Y-84534433D01*
X164261788Y-84536044D01*
X164266812Y-84519482D01*
X164279072Y-84395000D01*
X164276000Y-84105750D01*
X164117250Y-83947000D01*
X163068000Y-83947000D01*
X163068000Y-83967000D01*
X162814000Y-83967000D01*
X162814000Y-83947000D01*
X161764750Y-83947000D01*
X161606000Y-84105750D01*
X161602928Y-84395000D01*
X161615188Y-84519482D01*
X161622166Y-84542486D01*
X160957342Y-84544109D01*
X160964812Y-84519482D01*
X160977072Y-84395000D01*
X160974000Y-84105750D01*
X160815250Y-83947000D01*
X159766000Y-83947000D01*
X159766000Y-83967000D01*
X159512000Y-83967000D01*
X159512000Y-83947000D01*
X158462750Y-83947000D01*
X158304000Y-84105750D01*
X158300928Y-84395000D01*
X158313188Y-84519482D01*
X158322609Y-84550539D01*
X156208000Y-84555700D01*
X156208000Y-83245000D01*
X158300928Y-83245000D01*
X158304000Y-83534250D01*
X158462750Y-83693000D01*
X159512000Y-83693000D01*
X159512000Y-82768750D01*
X159766000Y-82768750D01*
X159766000Y-83693000D01*
X160815250Y-83693000D01*
X160974000Y-83534250D01*
X160977072Y-83245000D01*
X161602928Y-83245000D01*
X161606000Y-83534250D01*
X161764750Y-83693000D01*
X162814000Y-83693000D01*
X162814000Y-82768750D01*
X163068000Y-82768750D01*
X163068000Y-83693000D01*
X164117250Y-83693000D01*
X164276000Y-83534250D01*
X164279072Y-83245000D01*
X164904928Y-83245000D01*
X164908000Y-83534250D01*
X165066750Y-83693000D01*
X166116000Y-83693000D01*
X166116000Y-82768750D01*
X166370000Y-82768750D01*
X166370000Y-83693000D01*
X167419250Y-83693000D01*
X167578000Y-83534250D01*
X167581072Y-83245000D01*
X168206928Y-83245000D01*
X168210000Y-83534250D01*
X168368750Y-83693000D01*
X169418000Y-83693000D01*
X169418000Y-82768750D01*
X169672000Y-82768750D01*
X169672000Y-83693000D01*
X170721250Y-83693000D01*
X170880000Y-83534250D01*
X170883072Y-83245000D01*
X170870812Y-83120518D01*
X170834502Y-83000820D01*
X170775537Y-82890506D01*
X170696185Y-82793815D01*
X170599494Y-82714463D01*
X170489180Y-82655498D01*
X170369482Y-82619188D01*
X170245000Y-82606928D01*
X169830750Y-82610000D01*
X169672000Y-82768750D01*
X169418000Y-82768750D01*
X169259250Y-82610000D01*
X168845000Y-82606928D01*
X168720518Y-82619188D01*
X168600820Y-82655498D01*
X168490506Y-82714463D01*
X168393815Y-82793815D01*
X168314463Y-82890506D01*
X168255498Y-83000820D01*
X168219188Y-83120518D01*
X168206928Y-83245000D01*
X167581072Y-83245000D01*
X167568812Y-83120518D01*
X167532502Y-83000820D01*
X167473537Y-82890506D01*
X167394185Y-82793815D01*
X167297494Y-82714463D01*
X167187180Y-82655498D01*
X167067482Y-82619188D01*
X166943000Y-82606928D01*
X166528750Y-82610000D01*
X166370000Y-82768750D01*
X166116000Y-82768750D01*
X165957250Y-82610000D01*
X165543000Y-82606928D01*
X165418518Y-82619188D01*
X165298820Y-82655498D01*
X165188506Y-82714463D01*
X165091815Y-82793815D01*
X165012463Y-82890506D01*
X164953498Y-83000820D01*
X164917188Y-83120518D01*
X164904928Y-83245000D01*
X164279072Y-83245000D01*
X164266812Y-83120518D01*
X164230502Y-83000820D01*
X164171537Y-82890506D01*
X164092185Y-82793815D01*
X163995494Y-82714463D01*
X163885180Y-82655498D01*
X163765482Y-82619188D01*
X163641000Y-82606928D01*
X163226750Y-82610000D01*
X163068000Y-82768750D01*
X162814000Y-82768750D01*
X162655250Y-82610000D01*
X162241000Y-82606928D01*
X162116518Y-82619188D01*
X161996820Y-82655498D01*
X161886506Y-82714463D01*
X161789815Y-82793815D01*
X161710463Y-82890506D01*
X161651498Y-83000820D01*
X161615188Y-83120518D01*
X161602928Y-83245000D01*
X160977072Y-83245000D01*
X160964812Y-83120518D01*
X160928502Y-83000820D01*
X160869537Y-82890506D01*
X160790185Y-82793815D01*
X160693494Y-82714463D01*
X160583180Y-82655498D01*
X160463482Y-82619188D01*
X160339000Y-82606928D01*
X159924750Y-82610000D01*
X159766000Y-82768750D01*
X159512000Y-82768750D01*
X159353250Y-82610000D01*
X158939000Y-82606928D01*
X158814518Y-82619188D01*
X158694820Y-82655498D01*
X158584506Y-82714463D01*
X158487815Y-82793815D01*
X158408463Y-82890506D01*
X158349498Y-83000820D01*
X158313188Y-83120518D01*
X158300928Y-83245000D01*
X156208000Y-83245000D01*
X156208000Y-79663911D01*
X157942000Y-79663911D01*
X157942000Y-79848089D01*
X157977932Y-80028729D01*
X158048414Y-80198889D01*
X158150738Y-80352028D01*
X158280972Y-80482262D01*
X158434111Y-80584586D01*
X158604271Y-80655068D01*
X158784911Y-80691000D01*
X158969089Y-80691000D01*
X159149729Y-80655068D01*
X159319889Y-80584586D01*
X159417869Y-80519118D01*
X159676988Y-80520606D01*
X159689188Y-80644482D01*
X159725498Y-80764180D01*
X159784463Y-80874494D01*
X159863815Y-80971185D01*
X159960506Y-81050537D01*
X160070820Y-81109502D01*
X160190518Y-81145812D01*
X160315000Y-81158072D01*
X162315000Y-81158072D01*
X162439482Y-81145812D01*
X162559180Y-81109502D01*
X162669494Y-81050537D01*
X162766185Y-80971185D01*
X162845537Y-80874494D01*
X162904502Y-80764180D01*
X162940812Y-80644482D01*
X162953072Y-80520000D01*
X162953072Y-79020000D01*
X162940812Y-78895518D01*
X162904502Y-78775820D01*
X162845537Y-78665506D01*
X162808191Y-78620000D01*
X162845537Y-78574494D01*
X162904502Y-78464180D01*
X162940812Y-78344482D01*
X162953072Y-78220000D01*
X162950000Y-77755750D01*
X162791250Y-77597000D01*
X161442000Y-77597000D01*
X161442000Y-77617000D01*
X161188000Y-77617000D01*
X161188000Y-77597000D01*
X159838750Y-77597000D01*
X159680000Y-77755750D01*
X159676928Y-78220000D01*
X159689188Y-78344482D01*
X159725498Y-78464180D01*
X159784463Y-78574494D01*
X159821809Y-78620000D01*
X159784463Y-78665506D01*
X159725498Y-78775820D01*
X159689188Y-78895518D01*
X159678839Y-79000593D01*
X159427247Y-78999148D01*
X159319889Y-78927414D01*
X159149729Y-78856932D01*
X158969089Y-78821000D01*
X158784911Y-78821000D01*
X158604271Y-78856932D01*
X158434111Y-78927414D01*
X158280972Y-79029738D01*
X158150738Y-79159972D01*
X158048414Y-79313111D01*
X157977932Y-79483271D01*
X157942000Y-79663911D01*
X156208000Y-79663911D01*
X156208000Y-77888724D01*
X156211676Y-77851798D01*
X156208000Y-77814068D01*
X156208000Y-77813667D01*
X156204383Y-77776948D01*
X156197159Y-77702797D01*
X156197042Y-77702410D01*
X156197003Y-77702014D01*
X156175319Y-77630531D01*
X156153850Y-77559491D01*
X156153664Y-77559142D01*
X156153546Y-77558753D01*
X156118044Y-77492334D01*
X156101066Y-77460491D01*
X156100850Y-77460166D01*
X156082974Y-77426724D01*
X156059425Y-77398030D01*
X155846848Y-77079164D01*
X155828974Y-77045724D01*
X155781441Y-76987805D01*
X155734565Y-76930565D01*
X155734259Y-76930313D01*
X155734001Y-76929999D01*
X155692953Y-76896312D01*
X155693028Y-76896262D01*
X155823262Y-76766028D01*
X155925586Y-76612889D01*
X155996068Y-76442729D01*
X156032000Y-76262089D01*
X156032000Y-76077911D01*
X155996068Y-75897271D01*
X155925586Y-75727111D01*
X155823262Y-75573972D01*
X155693028Y-75443738D01*
X155539889Y-75341414D01*
X155369729Y-75270932D01*
X155189089Y-75235000D01*
X155004911Y-75235000D01*
X154856058Y-75264609D01*
X154845868Y-75171117D01*
X154807761Y-75051979D01*
X154747144Y-74942564D01*
X154666346Y-74847078D01*
X154568471Y-74769189D01*
X154457282Y-74711891D01*
X154337052Y-74677386D01*
X154212400Y-74667000D01*
X153770250Y-74670000D01*
X153611500Y-74828750D01*
X153611500Y-75316928D01*
X153357500Y-75316928D01*
X153357500Y-74828750D01*
X153198750Y-74670000D01*
X152756600Y-74667000D01*
X152631948Y-74677386D01*
X152511718Y-74711891D01*
X152400529Y-74769189D01*
X152302654Y-74847078D01*
X152221856Y-74942564D01*
X152161239Y-75051979D01*
X152123132Y-75171117D01*
X152112000Y-75273250D01*
X152216748Y-75377998D01*
X152112000Y-75377998D01*
X152112000Y-75395000D01*
X151466322Y-75395000D01*
X151428999Y-75391324D01*
X151391676Y-75395000D01*
X151391667Y-75395000D01*
X151280014Y-75405997D01*
X151136753Y-75449454D01*
X151004724Y-75520026D01*
X151004722Y-75520027D01*
X151004723Y-75520027D01*
X150917996Y-75591201D01*
X150917992Y-75591205D01*
X150888999Y-75614999D01*
X150865205Y-75643992D01*
X150180198Y-76329000D01*
X149985000Y-76329000D01*
X149985000Y-75983322D01*
X149988676Y-75945999D01*
X149985000Y-75908676D01*
X149985000Y-75908667D01*
X149974003Y-75797014D01*
X149930546Y-75653753D01*
X149859974Y-75521724D01*
X149765001Y-75405999D01*
X149735998Y-75382197D01*
X149347804Y-74994003D01*
X149324001Y-74964999D01*
X149208276Y-74870026D01*
X149076247Y-74799454D01*
X148932986Y-74755997D01*
X148821333Y-74745000D01*
X148821322Y-74745000D01*
X148784000Y-74741324D01*
X148746678Y-74745000D01*
X148720401Y-74745000D01*
X148679448Y-74723110D01*
X148540991Y-74681110D01*
X148397000Y-74666928D01*
X147122000Y-74666928D01*
X146978009Y-74681110D01*
X146839552Y-74723110D01*
X146711949Y-74791316D01*
X146600104Y-74883104D01*
X146508316Y-74994949D01*
X146440110Y-75122552D01*
X146398110Y-75261009D01*
X146384913Y-75395000D01*
X142585072Y-75395000D01*
X142585072Y-74080000D01*
X142572812Y-73955518D01*
X142536502Y-73835820D01*
X142477537Y-73725506D01*
X142398185Y-73628815D01*
X142301494Y-73549463D01*
X142191180Y-73490498D01*
X142071482Y-73454188D01*
X141947000Y-73441928D01*
X141350873Y-73441928D01*
X143249625Y-71543177D01*
X143264088Y-71549168D01*
X143579967Y-71612000D01*
X143902033Y-71612000D01*
X144217912Y-71549168D01*
X144515463Y-71425918D01*
X144783252Y-71246987D01*
X145010987Y-71019252D01*
X145189918Y-70751463D01*
X145313168Y-70453912D01*
X145376000Y-70138033D01*
X145376000Y-69815967D01*
X148606000Y-69815967D01*
X148606000Y-70138033D01*
X148668832Y-70453912D01*
X148792082Y-70751463D01*
X148971013Y-71019252D01*
X149198748Y-71246987D01*
X149466537Y-71425918D01*
X149764088Y-71549168D01*
X150079967Y-71612000D01*
X150402033Y-71612000D01*
X150717912Y-71549168D01*
X151015463Y-71425918D01*
X151283252Y-71246987D01*
X151510987Y-71019252D01*
X151689918Y-70751463D01*
X151813168Y-70453912D01*
X151842400Y-70306952D01*
X151871632Y-70453912D01*
X151994882Y-70751463D01*
X152173813Y-71019252D01*
X152401548Y-71246987D01*
X152669337Y-71425918D01*
X152966888Y-71549168D01*
X153282767Y-71612000D01*
X153604833Y-71612000D01*
X153920712Y-71549168D01*
X154218263Y-71425918D01*
X154486052Y-71246987D01*
X154713787Y-71019252D01*
X154892718Y-70751463D01*
X155015968Y-70453912D01*
X155078800Y-70138033D01*
X155078800Y-69815967D01*
X158308800Y-69815967D01*
X158308800Y-70138033D01*
X158371632Y-70453912D01*
X158494882Y-70751463D01*
X158673813Y-71019252D01*
X158901548Y-71246987D01*
X159169337Y-71425918D01*
X159183800Y-71431909D01*
X159183801Y-73761468D01*
X159180124Y-73798800D01*
X159183801Y-73836133D01*
X159194798Y-73947786D01*
X159207980Y-73991242D01*
X159238254Y-74091046D01*
X159308826Y-74223076D01*
X159378396Y-74307846D01*
X159403800Y-74338801D01*
X159432798Y-74362599D01*
X159676928Y-74606729D01*
X159676928Y-75920000D01*
X159689188Y-76044482D01*
X159725498Y-76164180D01*
X159784463Y-76274494D01*
X159821809Y-76320000D01*
X159784463Y-76365506D01*
X159725498Y-76475820D01*
X159689188Y-76595518D01*
X159676928Y-76720000D01*
X159680000Y-77184250D01*
X159838750Y-77343000D01*
X161188000Y-77343000D01*
X161188000Y-77323000D01*
X161442000Y-77323000D01*
X161442000Y-77343000D01*
X162791250Y-77343000D01*
X162950000Y-77184250D01*
X162953072Y-76720000D01*
X162940812Y-76595518D01*
X162904502Y-76475820D01*
X162845537Y-76365506D01*
X162808191Y-76320000D01*
X162845537Y-76274494D01*
X162904502Y-76164180D01*
X162940812Y-76044482D01*
X162953072Y-75920000D01*
X162953072Y-75570000D01*
X165976928Y-75570000D01*
X165976928Y-79370000D01*
X165989188Y-79494482D01*
X166025498Y-79614180D01*
X166084463Y-79724494D01*
X166163815Y-79821185D01*
X166260506Y-79900537D01*
X166370820Y-79959502D01*
X166490518Y-79995812D01*
X166615000Y-80008072D01*
X168615000Y-80008072D01*
X168739482Y-79995812D01*
X168859180Y-79959502D01*
X168969494Y-79900537D01*
X169066185Y-79821185D01*
X169145537Y-79724494D01*
X169204502Y-79614180D01*
X169240812Y-79494482D01*
X169253072Y-79370000D01*
X169253072Y-75570000D01*
X169240812Y-75445518D01*
X169204502Y-75325820D01*
X169145537Y-75215506D01*
X169066185Y-75118815D01*
X168969494Y-75039463D01*
X168859180Y-74980498D01*
X168739482Y-74944188D01*
X168615000Y-74931928D01*
X166615000Y-74931928D01*
X166490518Y-74944188D01*
X166370820Y-74980498D01*
X166260506Y-75039463D01*
X166163815Y-75118815D01*
X166084463Y-75215506D01*
X166025498Y-75325820D01*
X165989188Y-75445518D01*
X165976928Y-75570000D01*
X162953072Y-75570000D01*
X162953072Y-74420000D01*
X162940812Y-74295518D01*
X162904502Y-74175820D01*
X162845537Y-74065506D01*
X162766185Y-73968815D01*
X162669494Y-73889463D01*
X162559180Y-73830498D01*
X162439482Y-73794188D01*
X162315000Y-73781928D01*
X161001729Y-73781928D01*
X160703800Y-73483999D01*
X160703800Y-71431909D01*
X160718263Y-71425918D01*
X160986052Y-71246987D01*
X161213787Y-71019252D01*
X161392718Y-70751463D01*
X161515968Y-70453912D01*
X161557900Y-70243105D01*
X161599832Y-70453912D01*
X161723082Y-70751463D01*
X161902013Y-71019252D01*
X162129748Y-71246987D01*
X162397537Y-71425918D01*
X162695088Y-71549168D01*
X163010967Y-71612000D01*
X163333033Y-71612000D01*
X163648912Y-71549168D01*
X163946463Y-71425918D01*
X164214252Y-71246987D01*
X164441987Y-71019252D01*
X164620918Y-70751463D01*
X164626909Y-70737000D01*
X168217091Y-70737000D01*
X168223082Y-70751463D01*
X168402013Y-71019252D01*
X168629748Y-71246987D01*
X168897537Y-71425918D01*
X169195088Y-71549168D01*
X169510967Y-71612000D01*
X169833033Y-71612000D01*
X170148912Y-71549168D01*
X170446463Y-71425918D01*
X170714252Y-71246987D01*
X170941987Y-71019252D01*
X171120918Y-70751463D01*
X171244168Y-70453912D01*
X171307000Y-70138033D01*
X171307000Y-69815967D01*
X171244168Y-69500088D01*
X171120918Y-69202537D01*
X170941987Y-68934748D01*
X170714252Y-68707013D01*
X170446463Y-68528082D01*
X170148912Y-68404832D01*
X169833033Y-68342000D01*
X169510967Y-68342000D01*
X169195088Y-68404832D01*
X168897537Y-68528082D01*
X168629748Y-68707013D01*
X168402013Y-68934748D01*
X168223082Y-69202537D01*
X168217091Y-69217000D01*
X164626909Y-69217000D01*
X164620918Y-69202537D01*
X164441987Y-68934748D01*
X164214252Y-68707013D01*
X163946463Y-68528082D01*
X163648912Y-68404832D01*
X163333033Y-68342000D01*
X163010967Y-68342000D01*
X162695088Y-68404832D01*
X162397537Y-68528082D01*
X162129748Y-68707013D01*
X161902013Y-68934748D01*
X161723082Y-69202537D01*
X161599832Y-69500088D01*
X161557900Y-69710895D01*
X161515968Y-69500088D01*
X161392718Y-69202537D01*
X161213787Y-68934748D01*
X160986052Y-68707013D01*
X160718263Y-68528082D01*
X160420712Y-68404832D01*
X160104833Y-68342000D01*
X159782767Y-68342000D01*
X159466888Y-68404832D01*
X159169337Y-68528082D01*
X158901548Y-68707013D01*
X158673813Y-68934748D01*
X158494882Y-69202537D01*
X158371632Y-69500088D01*
X158308800Y-69815967D01*
X155078800Y-69815967D01*
X155015968Y-69500088D01*
X154892718Y-69202537D01*
X154713787Y-68934748D01*
X154486052Y-68707013D01*
X154218263Y-68528082D01*
X153920712Y-68404832D01*
X153604833Y-68342000D01*
X153282767Y-68342000D01*
X152966888Y-68404832D01*
X152669337Y-68528082D01*
X152401548Y-68707013D01*
X152173813Y-68934748D01*
X151994882Y-69202537D01*
X151871632Y-69500088D01*
X151842400Y-69647048D01*
X151813168Y-69500088D01*
X151689918Y-69202537D01*
X151510987Y-68934748D01*
X151283252Y-68707013D01*
X151015463Y-68528082D01*
X150717912Y-68404832D01*
X150402033Y-68342000D01*
X150079967Y-68342000D01*
X149764088Y-68404832D01*
X149466537Y-68528082D01*
X149198748Y-68707013D01*
X148971013Y-68934748D01*
X148792082Y-69202537D01*
X148668832Y-69500088D01*
X148606000Y-69815967D01*
X145376000Y-69815967D01*
X145313168Y-69500088D01*
X145189918Y-69202537D01*
X145010987Y-68934748D01*
X144783252Y-68707013D01*
X144515463Y-68528082D01*
X144217912Y-68404832D01*
X143902033Y-68342000D01*
X143579967Y-68342000D01*
X143264088Y-68404832D01*
X142966537Y-68528082D01*
X142698748Y-68707013D01*
X142471013Y-68934748D01*
X142292082Y-69202537D01*
X142168832Y-69500088D01*
X142106000Y-69815967D01*
X142106000Y-70138033D01*
X142168832Y-70453912D01*
X142174823Y-70468375D01*
X140378199Y-72265000D01*
X138467322Y-72265000D01*
X138429999Y-72261324D01*
X138392676Y-72265000D01*
X138392667Y-72265000D01*
X138281014Y-72275997D01*
X138137753Y-72319454D01*
X138005724Y-72390026D01*
X137889999Y-72484999D01*
X137866201Y-72513997D01*
X136649003Y-73731196D01*
X136619999Y-73754999D01*
X136575693Y-73808987D01*
X136525026Y-73870724D01*
X136472595Y-73968815D01*
X136454454Y-74002754D01*
X136410997Y-74146015D01*
X136400000Y-74257668D01*
X136400000Y-74257678D01*
X136396324Y-74295000D01*
X136400000Y-74332323D01*
X136400001Y-78161934D01*
X136399126Y-78166639D01*
X136400001Y-78236720D01*
X136400001Y-78269333D01*
X136400467Y-78274067D01*
X136400995Y-78316333D01*
X136407787Y-78348383D01*
X136410998Y-78380986D01*
X136423267Y-78421433D01*
X136432031Y-78462788D01*
X136444945Y-78492898D01*
X136454455Y-78524247D01*
X136474380Y-78561523D01*
X136491043Y-78600373D01*
X136509585Y-78627387D01*
X136525027Y-78656276D01*
X136551841Y-78688949D01*
X136575764Y-78723802D01*
X136599217Y-78746677D01*
X136620000Y-78772001D01*
X136652673Y-78798815D01*
X136656080Y-78802138D01*
X136681563Y-78822525D01*
X136735725Y-78866974D01*
X136739943Y-78869229D01*
X137256906Y-79282799D01*
X137241010Y-79306589D01*
X137129068Y-79576842D01*
X137072000Y-79863740D01*
X137072000Y-80156260D01*
X137129068Y-80443158D01*
X137241010Y-80713411D01*
X137403525Y-80956632D01*
X137610368Y-81163475D01*
X137792534Y-81285195D01*
X137675645Y-81354822D01*
X137459412Y-81549731D01*
X137285359Y-81783080D01*
X137160175Y-82045901D01*
X137115524Y-82193110D01*
X137236845Y-82423000D01*
X138430000Y-82423000D01*
X138430000Y-82403000D01*
X138684000Y-82403000D01*
X138684000Y-82423000D01*
X138704000Y-82423000D01*
X138704000Y-82677000D01*
X138684000Y-82677000D01*
X138684000Y-83870814D01*
X138913891Y-83991481D01*
X139188252Y-83894157D01*
X139438355Y-83745178D01*
X139463058Y-83722911D01*
X140166385Y-84348286D01*
X140175999Y-84360001D01*
X140222228Y-84397940D01*
X140238894Y-84412759D01*
X140251080Y-84421618D01*
X140291724Y-84454974D01*
X140311503Y-84465546D01*
X140329640Y-84478732D01*
X140377375Y-84500756D01*
X140423753Y-84525546D01*
X140445215Y-84532056D01*
X140465577Y-84541451D01*
X140516697Y-84553740D01*
X140567014Y-84569003D01*
X140589336Y-84571202D01*
X140611136Y-84576442D01*
X140663656Y-84578522D01*
X140678667Y-84580000D01*
X140700996Y-84580000D01*
X140760726Y-84582365D01*
X140775688Y-84580000D01*
X141929929Y-84580000D01*
X141948488Y-84582754D01*
X142004614Y-84580000D01*
X142023333Y-84580000D01*
X142041917Y-84578170D01*
X142098014Y-84575417D01*
X142116262Y-84570847D01*
X142134986Y-84569003D01*
X142188754Y-84552693D01*
X142243236Y-84539049D01*
X142260237Y-84531009D01*
X142278247Y-84525546D01*
X142327806Y-84499056D01*
X142378573Y-84475048D01*
X142393681Y-84463844D01*
X142410276Y-84454974D01*
X142453712Y-84419327D01*
X142468691Y-84408219D01*
X142482538Y-84395670D01*
X142526001Y-84360001D01*
X142537912Y-84345488D01*
X146343142Y-80897000D01*
X148933678Y-80897000D01*
X148971000Y-80900676D01*
X149008322Y-80897000D01*
X149008333Y-80897000D01*
X149119986Y-80886003D01*
X149263247Y-80842546D01*
X149395276Y-80771974D01*
X149511001Y-80677001D01*
X149534804Y-80647997D01*
X150536815Y-79645986D01*
X150555414Y-79690889D01*
X150657738Y-79844028D01*
X150787972Y-79974262D01*
X150941111Y-80076586D01*
X151111271Y-80147068D01*
X151291911Y-80183000D01*
X151476089Y-80183000D01*
X151500277Y-80178189D01*
X151518667Y-80180000D01*
X151518675Y-80180000D01*
X151556000Y-80183676D01*
X151593325Y-80180000D01*
X152551662Y-80180000D01*
X152564552Y-80186890D01*
X152703009Y-80228890D01*
X152847000Y-80243072D01*
X154053000Y-80243072D01*
X154053001Y-84560960D01*
X136269000Y-84604364D01*
X136269000Y-83609189D01*
X136272586Y-83577747D01*
X136269000Y-83534535D01*
X136269000Y-83528667D01*
X136265907Y-83497265D01*
X136260205Y-83428553D01*
X136258582Y-83422889D01*
X136258003Y-83417014D01*
X136237962Y-83350947D01*
X136218958Y-83284641D01*
X136216258Y-83279398D01*
X136214546Y-83273753D01*
X136182012Y-83212887D01*
X136150425Y-83151541D01*
X136146754Y-83146925D01*
X136143974Y-83141724D01*
X136100204Y-83088390D01*
X136080593Y-83063730D01*
X136076513Y-83059523D01*
X136049001Y-83025999D01*
X136024535Y-83005921D01*
X135928505Y-82906890D01*
X137115524Y-82906890D01*
X137160175Y-83054099D01*
X137285359Y-83316920D01*
X137459412Y-83550269D01*
X137675645Y-83745178D01*
X137925748Y-83894157D01*
X138200109Y-83991481D01*
X138430000Y-83870814D01*
X138430000Y-82677000D01*
X137236845Y-82677000D01*
X137115524Y-82906890D01*
X135928505Y-82906890D01*
X132205000Y-79067025D01*
X132205000Y-73062323D01*
X132208676Y-73025000D01*
X132205000Y-72987677D01*
X132205000Y-72987667D01*
X132194003Y-72876014D01*
X132150546Y-72732753D01*
X132079974Y-72600724D01*
X131985001Y-72484999D01*
X131956003Y-72461201D01*
X130981209Y-71486408D01*
X131025000Y-71266260D01*
X131025000Y-70973740D01*
X130967932Y-70686842D01*
X130855990Y-70416589D01*
X130693475Y-70173368D01*
X130486632Y-69966525D01*
X130312240Y-69850000D01*
X130486632Y-69733475D01*
X130693475Y-69526632D01*
X130855990Y-69283411D01*
X130967932Y-69013158D01*
X131025000Y-68726260D01*
X131025000Y-68433740D01*
X130967932Y-68146842D01*
X130855990Y-67876589D01*
X130693475Y-67633368D01*
X130561620Y-67501513D01*
X130634180Y-67479502D01*
X130744494Y-67420537D01*
X130841185Y-67341185D01*
X130920537Y-67244494D01*
X130979502Y-67134180D01*
X131015812Y-67014482D01*
X131028072Y-66890000D01*
X131028072Y-65190000D01*
X131015812Y-65065518D01*
X130979502Y-64945820D01*
X130920537Y-64835506D01*
X130841185Y-64738815D01*
X130744494Y-64659463D01*
X130634180Y-64600498D01*
X130514482Y-64564188D01*
X130390000Y-64551928D01*
X128690000Y-64551928D01*
X128565518Y-64564188D01*
X128445820Y-64600498D01*
X128335506Y-64659463D01*
X128238815Y-64738815D01*
X128159463Y-64835506D01*
X128100498Y-64945820D01*
X128064188Y-65065518D01*
X128051928Y-65190000D01*
X128051928Y-66890000D01*
X128064188Y-67014482D01*
X128100498Y-67134180D01*
X128159463Y-67244494D01*
X128238815Y-67341185D01*
X128335506Y-67420537D01*
X128445820Y-67479502D01*
X128518380Y-67501513D01*
X128386525Y-67633368D01*
X128224010Y-67876589D01*
X128112068Y-68146842D01*
X128055000Y-68433740D01*
X128055000Y-68726260D01*
X128112068Y-69013158D01*
X128224010Y-69283411D01*
X128386525Y-69526632D01*
X128593368Y-69733475D01*
X128767760Y-69850000D01*
X128593368Y-69966525D01*
X128386525Y-70173368D01*
X128224010Y-70416589D01*
X128112068Y-70686842D01*
X128055000Y-70973740D01*
X128055000Y-71266260D01*
X128112068Y-71553158D01*
X128224010Y-71823411D01*
X128386525Y-72066632D01*
X128593368Y-72273475D01*
X128767760Y-72390000D01*
X128593368Y-72506525D01*
X128386525Y-72713368D01*
X128263875Y-72896927D01*
X128232676Y-72900000D01*
X128232667Y-72900000D01*
X128121014Y-72910997D01*
X127977753Y-72954454D01*
X127845724Y-73025026D01*
X127729999Y-73119999D01*
X127706196Y-73149003D01*
X127403403Y-73451796D01*
X127374399Y-73475599D01*
X127343098Y-73513740D01*
X127279426Y-73591324D01*
X127267300Y-73614010D01*
X127208854Y-73723354D01*
X127165397Y-73866615D01*
X127154400Y-73978268D01*
X127154400Y-73978278D01*
X127150724Y-74015600D01*
X127154400Y-74052922D01*
X127154401Y-82541821D01*
X126967768Y-82666525D01*
X126760925Y-82873368D01*
X126598410Y-83116589D01*
X126486468Y-83386842D01*
X126429400Y-83673740D01*
X126429400Y-83966260D01*
X126486468Y-84253158D01*
X126598410Y-84523411D01*
X126668158Y-84627797D01*
X125858413Y-84629773D01*
X125958754Y-64335766D01*
X142533163Y-64372598D01*
G37*
X142533163Y-64372598D02*
X142471013Y-64434748D01*
X142292082Y-64702537D01*
X142168832Y-65000088D01*
X142106000Y-65315967D01*
X142106000Y-65638033D01*
X142168832Y-65953912D01*
X142292082Y-66251463D01*
X142471013Y-66519252D01*
X142698748Y-66746987D01*
X142966537Y-66925918D01*
X143264088Y-67049168D01*
X143579967Y-67112000D01*
X143902033Y-67112000D01*
X144217912Y-67049168D01*
X144515463Y-66925918D01*
X144783252Y-66746987D01*
X145010987Y-66519252D01*
X145189918Y-66251463D01*
X145313168Y-65953912D01*
X145376000Y-65638033D01*
X145376000Y-65315967D01*
X145313168Y-65000088D01*
X145189918Y-64702537D01*
X145010987Y-64434748D01*
X144954217Y-64377978D01*
X149018750Y-64387011D01*
X148971013Y-64434748D01*
X148792082Y-64702537D01*
X148668832Y-65000088D01*
X148606000Y-65315967D01*
X148606000Y-65638033D01*
X148668832Y-65953912D01*
X148792082Y-66251463D01*
X148971013Y-66519252D01*
X149198748Y-66746987D01*
X149466537Y-66925918D01*
X149764088Y-67049168D01*
X150079967Y-67112000D01*
X150402033Y-67112000D01*
X150717912Y-67049168D01*
X151015463Y-66925918D01*
X151283252Y-66746987D01*
X151510987Y-66519252D01*
X151689918Y-66251463D01*
X151813168Y-65953912D01*
X151842400Y-65806952D01*
X151871632Y-65953912D01*
X151994882Y-66251463D01*
X152173813Y-66519252D01*
X152401548Y-66746987D01*
X152669337Y-66925918D01*
X152966888Y-67049168D01*
X153282767Y-67112000D01*
X153604833Y-67112000D01*
X153920712Y-67049168D01*
X154218263Y-66925918D01*
X154486052Y-66746987D01*
X154713787Y-66519252D01*
X154892718Y-66251463D01*
X154898709Y-66237000D01*
X158488891Y-66237000D01*
X158494882Y-66251463D01*
X158673813Y-66519252D01*
X158901548Y-66746987D01*
X159169337Y-66925918D01*
X159466888Y-67049168D01*
X159782767Y-67112000D01*
X160104833Y-67112000D01*
X160420712Y-67049168D01*
X160718263Y-66925918D01*
X160986052Y-66746987D01*
X161213787Y-66519252D01*
X161392718Y-66251463D01*
X161515968Y-65953912D01*
X161557900Y-65743105D01*
X161599832Y-65953912D01*
X161723082Y-66251463D01*
X161902013Y-66519252D01*
X162129748Y-66746987D01*
X162397537Y-66925918D01*
X162695088Y-67049168D01*
X163010967Y-67112000D01*
X163333033Y-67112000D01*
X163648912Y-67049168D01*
X163946463Y-66925918D01*
X164214252Y-66746987D01*
X164441987Y-66519252D01*
X164620918Y-66251463D01*
X164744168Y-65953912D01*
X164807000Y-65638033D01*
X164807000Y-65315967D01*
X164744168Y-65000088D01*
X164620918Y-64702537D01*
X164441987Y-64434748D01*
X164428494Y-64421255D01*
X168406666Y-64430095D01*
X168402013Y-64434748D01*
X168223082Y-64702537D01*
X168099832Y-65000088D01*
X168037000Y-65315967D01*
X168037000Y-65638033D01*
X168099832Y-65953912D01*
X168223082Y-66251463D01*
X168402013Y-66519252D01*
X168629748Y-66746987D01*
X168897537Y-66925918D01*
X169195088Y-67049168D01*
X169510967Y-67112000D01*
X169833033Y-67112000D01*
X170148912Y-67049168D01*
X170446463Y-66925918D01*
X170714252Y-66746987D01*
X170941987Y-66519252D01*
X171120918Y-66251463D01*
X171244168Y-65953912D01*
X171307000Y-65638033D01*
X171307000Y-65315967D01*
X171244168Y-65000088D01*
X171120918Y-64702537D01*
X170942644Y-64435731D01*
X171375001Y-64436691D01*
X171375001Y-74316765D01*
X171323637Y-84518808D01*
X170870681Y-84519914D01*
X170870812Y-84519482D01*
X170883072Y-84395000D01*
X170880000Y-84105750D01*
X170721250Y-83947000D01*
X169672000Y-83947000D01*
X169672000Y-83967000D01*
X169418000Y-83967000D01*
X169418000Y-83947000D01*
X168368750Y-83947000D01*
X168210000Y-84105750D01*
X168206928Y-84395000D01*
X168219188Y-84519482D01*
X168221280Y-84526380D01*
X167566235Y-84527979D01*
X167568812Y-84519482D01*
X167581072Y-84395000D01*
X167578000Y-84105750D01*
X167419250Y-83947000D01*
X166370000Y-83947000D01*
X166370000Y-83967000D01*
X166116000Y-83967000D01*
X166116000Y-83947000D01*
X165066750Y-83947000D01*
X164908000Y-84105750D01*
X164904928Y-84395000D01*
X164917188Y-84519482D01*
X164921723Y-84534433D01*
X164261788Y-84536044D01*
X164266812Y-84519482D01*
X164279072Y-84395000D01*
X164276000Y-84105750D01*
X164117250Y-83947000D01*
X163068000Y-83947000D01*
X163068000Y-83967000D01*
X162814000Y-83967000D01*
X162814000Y-83947000D01*
X161764750Y-83947000D01*
X161606000Y-84105750D01*
X161602928Y-84395000D01*
X161615188Y-84519482D01*
X161622166Y-84542486D01*
X160957342Y-84544109D01*
X160964812Y-84519482D01*
X160977072Y-84395000D01*
X160974000Y-84105750D01*
X160815250Y-83947000D01*
X159766000Y-83947000D01*
X159766000Y-83967000D01*
X159512000Y-83967000D01*
X159512000Y-83947000D01*
X158462750Y-83947000D01*
X158304000Y-84105750D01*
X158300928Y-84395000D01*
X158313188Y-84519482D01*
X158322609Y-84550539D01*
X156208000Y-84555700D01*
X156208000Y-83245000D01*
X158300928Y-83245000D01*
X158304000Y-83534250D01*
X158462750Y-83693000D01*
X159512000Y-83693000D01*
X159512000Y-82768750D01*
X159766000Y-82768750D01*
X159766000Y-83693000D01*
X160815250Y-83693000D01*
X160974000Y-83534250D01*
X160977072Y-83245000D01*
X161602928Y-83245000D01*
X161606000Y-83534250D01*
X161764750Y-83693000D01*
X162814000Y-83693000D01*
X162814000Y-82768750D01*
X163068000Y-82768750D01*
X163068000Y-83693000D01*
X164117250Y-83693000D01*
X164276000Y-83534250D01*
X164279072Y-83245000D01*
X164904928Y-83245000D01*
X164908000Y-83534250D01*
X165066750Y-83693000D01*
X166116000Y-83693000D01*
X166116000Y-82768750D01*
X166370000Y-82768750D01*
X166370000Y-83693000D01*
X167419250Y-83693000D01*
X167578000Y-83534250D01*
X167581072Y-83245000D01*
X168206928Y-83245000D01*
X168210000Y-83534250D01*
X168368750Y-83693000D01*
X169418000Y-83693000D01*
X169418000Y-82768750D01*
X169672000Y-82768750D01*
X169672000Y-83693000D01*
X170721250Y-83693000D01*
X170880000Y-83534250D01*
X170883072Y-83245000D01*
X170870812Y-83120518D01*
X170834502Y-83000820D01*
X170775537Y-82890506D01*
X170696185Y-82793815D01*
X170599494Y-82714463D01*
X170489180Y-82655498D01*
X170369482Y-82619188D01*
X170245000Y-82606928D01*
X169830750Y-82610000D01*
X169672000Y-82768750D01*
X169418000Y-82768750D01*
X169259250Y-82610000D01*
X168845000Y-82606928D01*
X168720518Y-82619188D01*
X168600820Y-82655498D01*
X168490506Y-82714463D01*
X168393815Y-82793815D01*
X168314463Y-82890506D01*
X168255498Y-83000820D01*
X168219188Y-83120518D01*
X168206928Y-83245000D01*
X167581072Y-83245000D01*
X167568812Y-83120518D01*
X167532502Y-83000820D01*
X167473537Y-82890506D01*
X167394185Y-82793815D01*
X167297494Y-82714463D01*
X167187180Y-82655498D01*
X167067482Y-82619188D01*
X166943000Y-82606928D01*
X166528750Y-82610000D01*
X166370000Y-82768750D01*
X166116000Y-82768750D01*
X165957250Y-82610000D01*
X165543000Y-82606928D01*
X165418518Y-82619188D01*
X165298820Y-82655498D01*
X165188506Y-82714463D01*
X165091815Y-82793815D01*
X165012463Y-82890506D01*
X164953498Y-83000820D01*
X164917188Y-83120518D01*
X164904928Y-83245000D01*
X164279072Y-83245000D01*
X164266812Y-83120518D01*
X164230502Y-83000820D01*
X164171537Y-82890506D01*
X164092185Y-82793815D01*
X163995494Y-82714463D01*
X163885180Y-82655498D01*
X163765482Y-82619188D01*
X163641000Y-82606928D01*
X163226750Y-82610000D01*
X163068000Y-82768750D01*
X162814000Y-82768750D01*
X162655250Y-82610000D01*
X162241000Y-82606928D01*
X162116518Y-82619188D01*
X161996820Y-82655498D01*
X161886506Y-82714463D01*
X161789815Y-82793815D01*
X161710463Y-82890506D01*
X161651498Y-83000820D01*
X161615188Y-83120518D01*
X161602928Y-83245000D01*
X160977072Y-83245000D01*
X160964812Y-83120518D01*
X160928502Y-83000820D01*
X160869537Y-82890506D01*
X160790185Y-82793815D01*
X160693494Y-82714463D01*
X160583180Y-82655498D01*
X160463482Y-82619188D01*
X160339000Y-82606928D01*
X159924750Y-82610000D01*
X159766000Y-82768750D01*
X159512000Y-82768750D01*
X159353250Y-82610000D01*
X158939000Y-82606928D01*
X158814518Y-82619188D01*
X158694820Y-82655498D01*
X158584506Y-82714463D01*
X158487815Y-82793815D01*
X158408463Y-82890506D01*
X158349498Y-83000820D01*
X158313188Y-83120518D01*
X158300928Y-83245000D01*
X156208000Y-83245000D01*
X156208000Y-79663911D01*
X157942000Y-79663911D01*
X157942000Y-79848089D01*
X157977932Y-80028729D01*
X158048414Y-80198889D01*
X158150738Y-80352028D01*
X158280972Y-80482262D01*
X158434111Y-80584586D01*
X158604271Y-80655068D01*
X158784911Y-80691000D01*
X158969089Y-80691000D01*
X159149729Y-80655068D01*
X159319889Y-80584586D01*
X159417869Y-80519118D01*
X159676988Y-80520606D01*
X159689188Y-80644482D01*
X159725498Y-80764180D01*
X159784463Y-80874494D01*
X159863815Y-80971185D01*
X159960506Y-81050537D01*
X160070820Y-81109502D01*
X160190518Y-81145812D01*
X160315000Y-81158072D01*
X162315000Y-81158072D01*
X162439482Y-81145812D01*
X162559180Y-81109502D01*
X162669494Y-81050537D01*
X162766185Y-80971185D01*
X162845537Y-80874494D01*
X162904502Y-80764180D01*
X162940812Y-80644482D01*
X162953072Y-80520000D01*
X162953072Y-79020000D01*
X162940812Y-78895518D01*
X162904502Y-78775820D01*
X162845537Y-78665506D01*
X162808191Y-78620000D01*
X162845537Y-78574494D01*
X162904502Y-78464180D01*
X162940812Y-78344482D01*
X162953072Y-78220000D01*
X162950000Y-77755750D01*
X162791250Y-77597000D01*
X161442000Y-77597000D01*
X161442000Y-77617000D01*
X161188000Y-77617000D01*
X161188000Y-77597000D01*
X159838750Y-77597000D01*
X159680000Y-77755750D01*
X159676928Y-78220000D01*
X159689188Y-78344482D01*
X159725498Y-78464180D01*
X159784463Y-78574494D01*
X159821809Y-78620000D01*
X159784463Y-78665506D01*
X159725498Y-78775820D01*
X159689188Y-78895518D01*
X159678839Y-79000593D01*
X159427247Y-78999148D01*
X159319889Y-78927414D01*
X159149729Y-78856932D01*
X158969089Y-78821000D01*
X158784911Y-78821000D01*
X158604271Y-78856932D01*
X158434111Y-78927414D01*
X158280972Y-79029738D01*
X158150738Y-79159972D01*
X158048414Y-79313111D01*
X157977932Y-79483271D01*
X157942000Y-79663911D01*
X156208000Y-79663911D01*
X156208000Y-77888724D01*
X156211676Y-77851798D01*
X156208000Y-77814068D01*
X156208000Y-77813667D01*
X156204383Y-77776948D01*
X156197159Y-77702797D01*
X156197042Y-77702410D01*
X156197003Y-77702014D01*
X156175319Y-77630531D01*
X156153850Y-77559491D01*
X156153664Y-77559142D01*
X156153546Y-77558753D01*
X156118044Y-77492334D01*
X156101066Y-77460491D01*
X156100850Y-77460166D01*
X156082974Y-77426724D01*
X156059425Y-77398030D01*
X155846848Y-77079164D01*
X155828974Y-77045724D01*
X155781441Y-76987805D01*
X155734565Y-76930565D01*
X155734259Y-76930313D01*
X155734001Y-76929999D01*
X155692953Y-76896312D01*
X155693028Y-76896262D01*
X155823262Y-76766028D01*
X155925586Y-76612889D01*
X155996068Y-76442729D01*
X156032000Y-76262089D01*
X156032000Y-76077911D01*
X155996068Y-75897271D01*
X155925586Y-75727111D01*
X155823262Y-75573972D01*
X155693028Y-75443738D01*
X155539889Y-75341414D01*
X155369729Y-75270932D01*
X155189089Y-75235000D01*
X155004911Y-75235000D01*
X154856058Y-75264609D01*
X154845868Y-75171117D01*
X154807761Y-75051979D01*
X154747144Y-74942564D01*
X154666346Y-74847078D01*
X154568471Y-74769189D01*
X154457282Y-74711891D01*
X154337052Y-74677386D01*
X154212400Y-74667000D01*
X153770250Y-74670000D01*
X153611500Y-74828750D01*
X153611500Y-75316928D01*
X153357500Y-75316928D01*
X153357500Y-74828750D01*
X153198750Y-74670000D01*
X152756600Y-74667000D01*
X152631948Y-74677386D01*
X152511718Y-74711891D01*
X152400529Y-74769189D01*
X152302654Y-74847078D01*
X152221856Y-74942564D01*
X152161239Y-75051979D01*
X152123132Y-75171117D01*
X152112000Y-75273250D01*
X152216748Y-75377998D01*
X152112000Y-75377998D01*
X152112000Y-75395000D01*
X151466322Y-75395000D01*
X151428999Y-75391324D01*
X151391676Y-75395000D01*
X151391667Y-75395000D01*
X151280014Y-75405997D01*
X151136753Y-75449454D01*
X151004724Y-75520026D01*
X151004722Y-75520027D01*
X151004723Y-75520027D01*
X150917996Y-75591201D01*
X150917992Y-75591205D01*
X150888999Y-75614999D01*
X150865205Y-75643992D01*
X150180198Y-76329000D01*
X149985000Y-76329000D01*
X149985000Y-75983322D01*
X149988676Y-75945999D01*
X149985000Y-75908676D01*
X149985000Y-75908667D01*
X149974003Y-75797014D01*
X149930546Y-75653753D01*
X149859974Y-75521724D01*
X149765001Y-75405999D01*
X149735998Y-75382197D01*
X149347804Y-74994003D01*
X149324001Y-74964999D01*
X149208276Y-74870026D01*
X149076247Y-74799454D01*
X148932986Y-74755997D01*
X148821333Y-74745000D01*
X148821322Y-74745000D01*
X148784000Y-74741324D01*
X148746678Y-74745000D01*
X148720401Y-74745000D01*
X148679448Y-74723110D01*
X148540991Y-74681110D01*
X148397000Y-74666928D01*
X147122000Y-74666928D01*
X146978009Y-74681110D01*
X146839552Y-74723110D01*
X146711949Y-74791316D01*
X146600104Y-74883104D01*
X146508316Y-74994949D01*
X146440110Y-75122552D01*
X146398110Y-75261009D01*
X146384913Y-75395000D01*
X142585072Y-75395000D01*
X142585072Y-74080000D01*
X142572812Y-73955518D01*
X142536502Y-73835820D01*
X142477537Y-73725506D01*
X142398185Y-73628815D01*
X142301494Y-73549463D01*
X142191180Y-73490498D01*
X142071482Y-73454188D01*
X141947000Y-73441928D01*
X141350873Y-73441928D01*
X143249625Y-71543177D01*
X143264088Y-71549168D01*
X143579967Y-71612000D01*
X143902033Y-71612000D01*
X144217912Y-71549168D01*
X144515463Y-71425918D01*
X144783252Y-71246987D01*
X145010987Y-71019252D01*
X145189918Y-70751463D01*
X145313168Y-70453912D01*
X145376000Y-70138033D01*
X145376000Y-69815967D01*
X148606000Y-69815967D01*
X148606000Y-70138033D01*
X148668832Y-70453912D01*
X148792082Y-70751463D01*
X148971013Y-71019252D01*
X149198748Y-71246987D01*
X149466537Y-71425918D01*
X149764088Y-71549168D01*
X150079967Y-71612000D01*
X150402033Y-71612000D01*
X150717912Y-71549168D01*
X151015463Y-71425918D01*
X151283252Y-71246987D01*
X151510987Y-71019252D01*
X151689918Y-70751463D01*
X151813168Y-70453912D01*
X151842400Y-70306952D01*
X151871632Y-70453912D01*
X151994882Y-70751463D01*
X152173813Y-71019252D01*
X152401548Y-71246987D01*
X152669337Y-71425918D01*
X152966888Y-71549168D01*
X153282767Y-71612000D01*
X153604833Y-71612000D01*
X153920712Y-71549168D01*
X154218263Y-71425918D01*
X154486052Y-71246987D01*
X154713787Y-71019252D01*
X154892718Y-70751463D01*
X155015968Y-70453912D01*
X155078800Y-70138033D01*
X155078800Y-69815967D01*
X158308800Y-69815967D01*
X158308800Y-70138033D01*
X158371632Y-70453912D01*
X158494882Y-70751463D01*
X158673813Y-71019252D01*
X158901548Y-71246987D01*
X159169337Y-71425918D01*
X159183800Y-71431909D01*
X159183801Y-73761468D01*
X159180124Y-73798800D01*
X159183801Y-73836133D01*
X159194798Y-73947786D01*
X159207980Y-73991242D01*
X159238254Y-74091046D01*
X159308826Y-74223076D01*
X159378396Y-74307846D01*
X159403800Y-74338801D01*
X159432798Y-74362599D01*
X159676928Y-74606729D01*
X159676928Y-75920000D01*
X159689188Y-76044482D01*
X159725498Y-76164180D01*
X159784463Y-76274494D01*
X159821809Y-76320000D01*
X159784463Y-76365506D01*
X159725498Y-76475820D01*
X159689188Y-76595518D01*
X159676928Y-76720000D01*
X159680000Y-77184250D01*
X159838750Y-77343000D01*
X161188000Y-77343000D01*
X161188000Y-77323000D01*
X161442000Y-77323000D01*
X161442000Y-77343000D01*
X162791250Y-77343000D01*
X162950000Y-77184250D01*
X162953072Y-76720000D01*
X162940812Y-76595518D01*
X162904502Y-76475820D01*
X162845537Y-76365506D01*
X162808191Y-76320000D01*
X162845537Y-76274494D01*
X162904502Y-76164180D01*
X162940812Y-76044482D01*
X162953072Y-75920000D01*
X162953072Y-75570000D01*
X165976928Y-75570000D01*
X165976928Y-79370000D01*
X165989188Y-79494482D01*
X166025498Y-79614180D01*
X166084463Y-79724494D01*
X166163815Y-79821185D01*
X166260506Y-79900537D01*
X166370820Y-79959502D01*
X166490518Y-79995812D01*
X166615000Y-80008072D01*
X168615000Y-80008072D01*
X168739482Y-79995812D01*
X168859180Y-79959502D01*
X168969494Y-79900537D01*
X169066185Y-79821185D01*
X169145537Y-79724494D01*
X169204502Y-79614180D01*
X169240812Y-79494482D01*
X169253072Y-79370000D01*
X169253072Y-75570000D01*
X169240812Y-75445518D01*
X169204502Y-75325820D01*
X169145537Y-75215506D01*
X169066185Y-75118815D01*
X168969494Y-75039463D01*
X168859180Y-74980498D01*
X168739482Y-74944188D01*
X168615000Y-74931928D01*
X166615000Y-74931928D01*
X166490518Y-74944188D01*
X166370820Y-74980498D01*
X166260506Y-75039463D01*
X166163815Y-75118815D01*
X166084463Y-75215506D01*
X166025498Y-75325820D01*
X165989188Y-75445518D01*
X165976928Y-75570000D01*
X162953072Y-75570000D01*
X162953072Y-74420000D01*
X162940812Y-74295518D01*
X162904502Y-74175820D01*
X162845537Y-74065506D01*
X162766185Y-73968815D01*
X162669494Y-73889463D01*
X162559180Y-73830498D01*
X162439482Y-73794188D01*
X162315000Y-73781928D01*
X161001729Y-73781928D01*
X160703800Y-73483999D01*
X160703800Y-71431909D01*
X160718263Y-71425918D01*
X160986052Y-71246987D01*
X161213787Y-71019252D01*
X161392718Y-70751463D01*
X161515968Y-70453912D01*
X161557900Y-70243105D01*
X161599832Y-70453912D01*
X161723082Y-70751463D01*
X161902013Y-71019252D01*
X162129748Y-71246987D01*
X162397537Y-71425918D01*
X162695088Y-71549168D01*
X163010967Y-71612000D01*
X163333033Y-71612000D01*
X163648912Y-71549168D01*
X163946463Y-71425918D01*
X164214252Y-71246987D01*
X164441987Y-71019252D01*
X164620918Y-70751463D01*
X164626909Y-70737000D01*
X168217091Y-70737000D01*
X168223082Y-70751463D01*
X168402013Y-71019252D01*
X168629748Y-71246987D01*
X168897537Y-71425918D01*
X169195088Y-71549168D01*
X169510967Y-71612000D01*
X169833033Y-71612000D01*
X170148912Y-71549168D01*
X170446463Y-71425918D01*
X170714252Y-71246987D01*
X170941987Y-71019252D01*
X171120918Y-70751463D01*
X171244168Y-70453912D01*
X171307000Y-70138033D01*
X171307000Y-69815967D01*
X171244168Y-69500088D01*
X171120918Y-69202537D01*
X170941987Y-68934748D01*
X170714252Y-68707013D01*
X170446463Y-68528082D01*
X170148912Y-68404832D01*
X169833033Y-68342000D01*
X169510967Y-68342000D01*
X169195088Y-68404832D01*
X168897537Y-68528082D01*
X168629748Y-68707013D01*
X168402013Y-68934748D01*
X168223082Y-69202537D01*
X168217091Y-69217000D01*
X164626909Y-69217000D01*
X164620918Y-69202537D01*
X164441987Y-68934748D01*
X164214252Y-68707013D01*
X163946463Y-68528082D01*
X163648912Y-68404832D01*
X163333033Y-68342000D01*
X163010967Y-68342000D01*
X162695088Y-68404832D01*
X162397537Y-68528082D01*
X162129748Y-68707013D01*
X161902013Y-68934748D01*
X161723082Y-69202537D01*
X161599832Y-69500088D01*
X161557900Y-69710895D01*
X161515968Y-69500088D01*
X161392718Y-69202537D01*
X161213787Y-68934748D01*
X160986052Y-68707013D01*
X160718263Y-68528082D01*
X160420712Y-68404832D01*
X160104833Y-68342000D01*
X159782767Y-68342000D01*
X159466888Y-68404832D01*
X159169337Y-68528082D01*
X158901548Y-68707013D01*
X158673813Y-68934748D01*
X158494882Y-69202537D01*
X158371632Y-69500088D01*
X158308800Y-69815967D01*
X155078800Y-69815967D01*
X155015968Y-69500088D01*
X154892718Y-69202537D01*
X154713787Y-68934748D01*
X154486052Y-68707013D01*
X154218263Y-68528082D01*
X153920712Y-68404832D01*
X153604833Y-68342000D01*
X153282767Y-68342000D01*
X152966888Y-68404832D01*
X152669337Y-68528082D01*
X152401548Y-68707013D01*
X152173813Y-68934748D01*
X151994882Y-69202537D01*
X151871632Y-69500088D01*
X151842400Y-69647048D01*
X151813168Y-69500088D01*
X151689918Y-69202537D01*
X151510987Y-68934748D01*
X151283252Y-68707013D01*
X151015463Y-68528082D01*
X150717912Y-68404832D01*
X150402033Y-68342000D01*
X150079967Y-68342000D01*
X149764088Y-68404832D01*
X149466537Y-68528082D01*
X149198748Y-68707013D01*
X148971013Y-68934748D01*
X148792082Y-69202537D01*
X148668832Y-69500088D01*
X148606000Y-69815967D01*
X145376000Y-69815967D01*
X145313168Y-69500088D01*
X145189918Y-69202537D01*
X145010987Y-68934748D01*
X144783252Y-68707013D01*
X144515463Y-68528082D01*
X144217912Y-68404832D01*
X143902033Y-68342000D01*
X143579967Y-68342000D01*
X143264088Y-68404832D01*
X142966537Y-68528082D01*
X142698748Y-68707013D01*
X142471013Y-68934748D01*
X142292082Y-69202537D01*
X142168832Y-69500088D01*
X142106000Y-69815967D01*
X142106000Y-70138033D01*
X142168832Y-70453912D01*
X142174823Y-70468375D01*
X140378199Y-72265000D01*
X138467322Y-72265000D01*
X138429999Y-72261324D01*
X138392676Y-72265000D01*
X138392667Y-72265000D01*
X138281014Y-72275997D01*
X138137753Y-72319454D01*
X138005724Y-72390026D01*
X137889999Y-72484999D01*
X137866201Y-72513997D01*
X136649003Y-73731196D01*
X136619999Y-73754999D01*
X136575693Y-73808987D01*
X136525026Y-73870724D01*
X136472595Y-73968815D01*
X136454454Y-74002754D01*
X136410997Y-74146015D01*
X136400000Y-74257668D01*
X136400000Y-74257678D01*
X136396324Y-74295000D01*
X136400000Y-74332323D01*
X136400001Y-78161934D01*
X136399126Y-78166639D01*
X136400001Y-78236720D01*
X136400001Y-78269333D01*
X136400467Y-78274067D01*
X136400995Y-78316333D01*
X136407787Y-78348383D01*
X136410998Y-78380986D01*
X136423267Y-78421433D01*
X136432031Y-78462788D01*
X136444945Y-78492898D01*
X136454455Y-78524247D01*
X136474380Y-78561523D01*
X136491043Y-78600373D01*
X136509585Y-78627387D01*
X136525027Y-78656276D01*
X136551841Y-78688949D01*
X136575764Y-78723802D01*
X136599217Y-78746677D01*
X136620000Y-78772001D01*
X136652673Y-78798815D01*
X136656080Y-78802138D01*
X136681563Y-78822525D01*
X136735725Y-78866974D01*
X136739943Y-78869229D01*
X137256906Y-79282799D01*
X137241010Y-79306589D01*
X137129068Y-79576842D01*
X137072000Y-79863740D01*
X137072000Y-80156260D01*
X137129068Y-80443158D01*
X137241010Y-80713411D01*
X137403525Y-80956632D01*
X137610368Y-81163475D01*
X137792534Y-81285195D01*
X137675645Y-81354822D01*
X137459412Y-81549731D01*
X137285359Y-81783080D01*
X137160175Y-82045901D01*
X137115524Y-82193110D01*
X137236845Y-82423000D01*
X138430000Y-82423000D01*
X138430000Y-82403000D01*
X138684000Y-82403000D01*
X138684000Y-82423000D01*
X138704000Y-82423000D01*
X138704000Y-82677000D01*
X138684000Y-82677000D01*
X138684000Y-83870814D01*
X138913891Y-83991481D01*
X139188252Y-83894157D01*
X139438355Y-83745178D01*
X139463058Y-83722911D01*
X140166385Y-84348286D01*
X140175999Y-84360001D01*
X140222228Y-84397940D01*
X140238894Y-84412759D01*
X140251080Y-84421618D01*
X140291724Y-84454974D01*
X140311503Y-84465546D01*
X140329640Y-84478732D01*
X140377375Y-84500756D01*
X140423753Y-84525546D01*
X140445215Y-84532056D01*
X140465577Y-84541451D01*
X140516697Y-84553740D01*
X140567014Y-84569003D01*
X140589336Y-84571202D01*
X140611136Y-84576442D01*
X140663656Y-84578522D01*
X140678667Y-84580000D01*
X140700996Y-84580000D01*
X140760726Y-84582365D01*
X140775688Y-84580000D01*
X141929929Y-84580000D01*
X141948488Y-84582754D01*
X142004614Y-84580000D01*
X142023333Y-84580000D01*
X142041917Y-84578170D01*
X142098014Y-84575417D01*
X142116262Y-84570847D01*
X142134986Y-84569003D01*
X142188754Y-84552693D01*
X142243236Y-84539049D01*
X142260237Y-84531009D01*
X142278247Y-84525546D01*
X142327806Y-84499056D01*
X142378573Y-84475048D01*
X142393681Y-84463844D01*
X142410276Y-84454974D01*
X142453712Y-84419327D01*
X142468691Y-84408219D01*
X142482538Y-84395670D01*
X142526001Y-84360001D01*
X142537912Y-84345488D01*
X146343142Y-80897000D01*
X148933678Y-80897000D01*
X148971000Y-80900676D01*
X149008322Y-80897000D01*
X149008333Y-80897000D01*
X149119986Y-80886003D01*
X149263247Y-80842546D01*
X149395276Y-80771974D01*
X149511001Y-80677001D01*
X149534804Y-80647997D01*
X150536815Y-79645986D01*
X150555414Y-79690889D01*
X150657738Y-79844028D01*
X150787972Y-79974262D01*
X150941111Y-80076586D01*
X151111271Y-80147068D01*
X151291911Y-80183000D01*
X151476089Y-80183000D01*
X151500277Y-80178189D01*
X151518667Y-80180000D01*
X151518675Y-80180000D01*
X151556000Y-80183676D01*
X151593325Y-80180000D01*
X152551662Y-80180000D01*
X152564552Y-80186890D01*
X152703009Y-80228890D01*
X152847000Y-80243072D01*
X154053000Y-80243072D01*
X154053001Y-84560960D01*
X136269000Y-84604364D01*
X136269000Y-83609189D01*
X136272586Y-83577747D01*
X136269000Y-83534535D01*
X136269000Y-83528667D01*
X136265907Y-83497265D01*
X136260205Y-83428553D01*
X136258582Y-83422889D01*
X136258003Y-83417014D01*
X136237962Y-83350947D01*
X136218958Y-83284641D01*
X136216258Y-83279398D01*
X136214546Y-83273753D01*
X136182012Y-83212887D01*
X136150425Y-83151541D01*
X136146754Y-83146925D01*
X136143974Y-83141724D01*
X136100204Y-83088390D01*
X136080593Y-83063730D01*
X136076513Y-83059523D01*
X136049001Y-83025999D01*
X136024535Y-83005921D01*
X135928505Y-82906890D01*
X137115524Y-82906890D01*
X137160175Y-83054099D01*
X137285359Y-83316920D01*
X137459412Y-83550269D01*
X137675645Y-83745178D01*
X137925748Y-83894157D01*
X138200109Y-83991481D01*
X138430000Y-83870814D01*
X138430000Y-82677000D01*
X137236845Y-82677000D01*
X137115524Y-82906890D01*
X135928505Y-82906890D01*
X132205000Y-79067025D01*
X132205000Y-73062323D01*
X132208676Y-73025000D01*
X132205000Y-72987677D01*
X132205000Y-72987667D01*
X132194003Y-72876014D01*
X132150546Y-72732753D01*
X132079974Y-72600724D01*
X131985001Y-72484999D01*
X131956003Y-72461201D01*
X130981209Y-71486408D01*
X131025000Y-71266260D01*
X131025000Y-70973740D01*
X130967932Y-70686842D01*
X130855990Y-70416589D01*
X130693475Y-70173368D01*
X130486632Y-69966525D01*
X130312240Y-69850000D01*
X130486632Y-69733475D01*
X130693475Y-69526632D01*
X130855990Y-69283411D01*
X130967932Y-69013158D01*
X131025000Y-68726260D01*
X131025000Y-68433740D01*
X130967932Y-68146842D01*
X130855990Y-67876589D01*
X130693475Y-67633368D01*
X130561620Y-67501513D01*
X130634180Y-67479502D01*
X130744494Y-67420537D01*
X130841185Y-67341185D01*
X130920537Y-67244494D01*
X130979502Y-67134180D01*
X131015812Y-67014482D01*
X131028072Y-66890000D01*
X131028072Y-65190000D01*
X131015812Y-65065518D01*
X130979502Y-64945820D01*
X130920537Y-64835506D01*
X130841185Y-64738815D01*
X130744494Y-64659463D01*
X130634180Y-64600498D01*
X130514482Y-64564188D01*
X130390000Y-64551928D01*
X128690000Y-64551928D01*
X128565518Y-64564188D01*
X128445820Y-64600498D01*
X128335506Y-64659463D01*
X128238815Y-64738815D01*
X128159463Y-64835506D01*
X128100498Y-64945820D01*
X128064188Y-65065518D01*
X128051928Y-65190000D01*
X128051928Y-66890000D01*
X128064188Y-67014482D01*
X128100498Y-67134180D01*
X128159463Y-67244494D01*
X128238815Y-67341185D01*
X128335506Y-67420537D01*
X128445820Y-67479502D01*
X128518380Y-67501513D01*
X128386525Y-67633368D01*
X128224010Y-67876589D01*
X128112068Y-68146842D01*
X128055000Y-68433740D01*
X128055000Y-68726260D01*
X128112068Y-69013158D01*
X128224010Y-69283411D01*
X128386525Y-69526632D01*
X128593368Y-69733475D01*
X128767760Y-69850000D01*
X128593368Y-69966525D01*
X128386525Y-70173368D01*
X128224010Y-70416589D01*
X128112068Y-70686842D01*
X128055000Y-70973740D01*
X128055000Y-71266260D01*
X128112068Y-71553158D01*
X128224010Y-71823411D01*
X128386525Y-72066632D01*
X128593368Y-72273475D01*
X128767760Y-72390000D01*
X128593368Y-72506525D01*
X128386525Y-72713368D01*
X128263875Y-72896927D01*
X128232676Y-72900000D01*
X128232667Y-72900000D01*
X128121014Y-72910997D01*
X127977753Y-72954454D01*
X127845724Y-73025026D01*
X127729999Y-73119999D01*
X127706196Y-73149003D01*
X127403403Y-73451796D01*
X127374399Y-73475599D01*
X127343098Y-73513740D01*
X127279426Y-73591324D01*
X127267300Y-73614010D01*
X127208854Y-73723354D01*
X127165397Y-73866615D01*
X127154400Y-73978268D01*
X127154400Y-73978278D01*
X127150724Y-74015600D01*
X127154400Y-74052922D01*
X127154401Y-82541821D01*
X126967768Y-82666525D01*
X126760925Y-82873368D01*
X126598410Y-83116589D01*
X126486468Y-83386842D01*
X126429400Y-83673740D01*
X126429400Y-83966260D01*
X126486468Y-84253158D01*
X126598410Y-84523411D01*
X126668158Y-84627797D01*
X125858413Y-84629773D01*
X125958754Y-64335766D01*
X142533163Y-64372598D01*
%TD*%
M02*
