M48
; DRILL file {KiCad (5.1.6)-1} date 09/04/20 20:31:28
; FORMAT={-:-/ absolute / inch / decimal}
; #@! TF.CreationDate,2020-09-04T20:31:28+02:00
; #@! TF.GenerationSoftware,Kicad,Pcbnew,(5.1.6)-1
; #@! TF.FileFunction,Plated,1,2,PTH
FMAT,2
INCH
T1C0.0157
T2C0.0295
T3C0.0315
T4C0.0394
T5C0.0433
%
G90
G05
T1
X5.01Y-3.865
X5.395Y-3.585
X5.47Y-2.615
X5.7412Y-3.0297
X5.85Y-3.865
X5.875Y-3.07
X5.96Y-3.12
X5.98Y-3.08
X6.1062Y-2.9988
X6.12Y-3.84
X6.23Y-3.8825
X6.255Y-3.14
X6.485Y-3.88
X6.685Y-3.735
T2
X5.933Y-3.76
X6.033Y-3.76
X5.933Y-3.604
X6.033Y-3.604
X5.933Y-3.45
X6.033Y-3.45
T3
X6.6Y-3.575
X6.6Y-3.6537
X5.0125Y-3.65
X5.0125Y-3.75
X5.3125Y-3.65
X5.3125Y-3.75
X6.275Y-3.625
X6.3537Y-3.625
X5.575Y-3.475
X5.575Y-3.775
X5.675Y-3.475
X5.675Y-3.775
T4
X5.1Y-2.6
X5.1Y-2.7
X5.1Y-2.8
X5.1Y-2.9
X5.1Y-3.0
X5.1Y-3.1
X5.036Y-3.3
X5.136Y-3.3
X5.236Y-3.3
X5.036Y-3.46
X5.136Y-3.46
X5.236Y-3.46
X5.455Y-2.95
X5.455Y-3.05
X5.455Y-3.15
X5.455Y-3.25
X5.555Y-2.95
X5.555Y-3.05
X5.555Y-3.15
X5.555Y-3.25
T5
X6.4241Y-2.5778
X6.4241Y-2.755
X6.68Y-2.5778
X6.68Y-2.755
X5.6591Y-2.5778
X5.6591Y-2.755
X5.915Y-2.5778
X5.915Y-2.755
X6.0411Y-2.5778
X6.0411Y-2.755
X6.297Y-2.5778
X6.297Y-2.755
T0
M30
