%TF.GenerationSoftware,KiCad,Pcbnew,(5.1.6)-1*%
%TF.CreationDate,2020-09-04T01:40:23+02:00*%
%TF.ProjectId,c64modem,6336346d-6f64-4656-9d2e-6b696361645f,rev?*%
%TF.SameCoordinates,Original*%
%TF.FileFunction,Legend,Bot*%
%TF.FilePolarity,Positive*%
%FSLAX46Y46*%
G04 Gerber Fmt 4.6, Leading zero omitted, Abs format (unit mm)*
G04 Created by KiCad (PCBNEW (5.1.6)-1) date 2020-09-04 01:40:23*
%MOMM*%
%LPD*%
G01*
G04 APERTURE LIST*
%ADD10C,0.150000*%
%ADD11C,0.120000*%
G04 APERTURE END LIST*
D10*
X126325380Y-65357952D02*
X127039666Y-65357952D01*
X127182523Y-65310333D01*
X127277761Y-65215095D01*
X127325380Y-65072238D01*
X127325380Y-64977000D01*
X127325380Y-66310333D02*
X127325380Y-65834142D01*
X126325380Y-65834142D01*
X127230142Y-67215095D02*
X127277761Y-67167476D01*
X127325380Y-67024619D01*
X127325380Y-66929380D01*
X127277761Y-66786523D01*
X127182523Y-66691285D01*
X127087285Y-66643666D01*
X126896809Y-66596047D01*
X126753952Y-66596047D01*
X126563476Y-66643666D01*
X126468238Y-66691285D01*
X126373000Y-66786523D01*
X126325380Y-66929380D01*
X126325380Y-67024619D01*
X126373000Y-67167476D01*
X126420619Y-67215095D01*
X126325380Y-67929380D02*
X127039666Y-67929380D01*
X127182523Y-67881761D01*
X127277761Y-67786523D01*
X127325380Y-67643666D01*
X127325380Y-67548428D01*
X127325380Y-68881761D02*
X127325380Y-68405571D01*
X126325380Y-68405571D01*
X127230142Y-69786523D02*
X127277761Y-69738904D01*
X127325380Y-69596047D01*
X127325380Y-69500809D01*
X127277761Y-69357952D01*
X127182523Y-69262714D01*
X127087285Y-69215095D01*
X126896809Y-69167476D01*
X126753952Y-69167476D01*
X126563476Y-69215095D01*
X126468238Y-69262714D01*
X126373000Y-69357952D01*
X126325380Y-69500809D01*
X126325380Y-69596047D01*
X126373000Y-69738904D01*
X126420619Y-69786523D01*
X126325380Y-70500809D02*
X127039666Y-70500809D01*
X127182523Y-70453190D01*
X127277761Y-70357952D01*
X127325380Y-70215095D01*
X127325380Y-70119857D01*
X127325380Y-71453190D02*
X127325380Y-70977000D01*
X126325380Y-70977000D01*
X127230142Y-72357952D02*
X127277761Y-72310333D01*
X127325380Y-72167476D01*
X127325380Y-72072238D01*
X127277761Y-71929380D01*
X127182523Y-71834142D01*
X127087285Y-71786523D01*
X126896809Y-71738904D01*
X126753952Y-71738904D01*
X126563476Y-71786523D01*
X126468238Y-71834142D01*
X126373000Y-71929380D01*
X126325380Y-72072238D01*
X126325380Y-72167476D01*
X126373000Y-72310333D01*
X126420619Y-72357952D01*
X126325380Y-73072238D02*
X127039666Y-73072238D01*
X127182523Y-73024619D01*
X127277761Y-72929380D01*
X127325380Y-72786523D01*
X127325380Y-72691285D01*
X127325380Y-74024619D02*
X127325380Y-73548428D01*
X126325380Y-73548428D01*
X127230142Y-74929380D02*
X127277761Y-74881761D01*
X127325380Y-74738904D01*
X127325380Y-74643666D01*
X127277761Y-74500809D01*
X127182523Y-74405571D01*
X127087285Y-74357952D01*
X126896809Y-74310333D01*
X126753952Y-74310333D01*
X126563476Y-74357952D01*
X126468238Y-74405571D01*
X126373000Y-74500809D01*
X126325380Y-74643666D01*
X126325380Y-74738904D01*
X126373000Y-74881761D01*
X126420619Y-74929380D01*
D11*
%TO.C,R4*%
X137720000Y-93996252D02*
X137720000Y-93473748D01*
X139140000Y-93996252D02*
X139140000Y-93473748D01*
%TO.C,R3*%
X139648000Y-68826748D02*
X139648000Y-69349252D01*
X138228000Y-68826748D02*
X138228000Y-69349252D01*
%TO.C,R2*%
X136854000Y-68699748D02*
X136854000Y-69222252D01*
X135434000Y-68699748D02*
X135434000Y-69222252D01*
%TO.C,C4*%
X160526252Y-88975000D02*
X160003748Y-88975000D01*
X160526252Y-87555000D02*
X160003748Y-87555000D01*
%TO.C,R4*%
D10*
X140532380Y-93568333D02*
X140056190Y-93235000D01*
X140532380Y-92996904D02*
X139532380Y-92996904D01*
X139532380Y-93377857D01*
X139580000Y-93473095D01*
X139627619Y-93520714D01*
X139722857Y-93568333D01*
X139865714Y-93568333D01*
X139960952Y-93520714D01*
X140008571Y-93473095D01*
X140056190Y-93377857D01*
X140056190Y-92996904D01*
X139865714Y-94425476D02*
X140532380Y-94425476D01*
X139484761Y-94187380D02*
X140199047Y-93949285D01*
X140199047Y-94568333D01*
%TO.C,R3*%
X141168380Y-68803333D02*
X140692190Y-68470000D01*
X141168380Y-68231904D02*
X140168380Y-68231904D01*
X140168380Y-68612857D01*
X140216000Y-68708095D01*
X140263619Y-68755714D01*
X140358857Y-68803333D01*
X140501714Y-68803333D01*
X140596952Y-68755714D01*
X140644571Y-68708095D01*
X140692190Y-68612857D01*
X140692190Y-68231904D01*
X140168380Y-69136666D02*
X140168380Y-69755714D01*
X140549333Y-69422380D01*
X140549333Y-69565238D01*
X140596952Y-69660476D01*
X140644571Y-69708095D01*
X140739809Y-69755714D01*
X140977904Y-69755714D01*
X141073142Y-69708095D01*
X141120761Y-69660476D01*
X141168380Y-69565238D01*
X141168380Y-69279523D01*
X141120761Y-69184285D01*
X141073142Y-69136666D01*
%TO.C,R2*%
X134946380Y-68794333D02*
X134470190Y-68461000D01*
X134946380Y-68222904D02*
X133946380Y-68222904D01*
X133946380Y-68603857D01*
X133994000Y-68699095D01*
X134041619Y-68746714D01*
X134136857Y-68794333D01*
X134279714Y-68794333D01*
X134374952Y-68746714D01*
X134422571Y-68699095D01*
X134470190Y-68603857D01*
X134470190Y-68222904D01*
X134041619Y-69175285D02*
X133994000Y-69222904D01*
X133946380Y-69318142D01*
X133946380Y-69556238D01*
X133994000Y-69651476D01*
X134041619Y-69699095D01*
X134136857Y-69746714D01*
X134232095Y-69746714D01*
X134374952Y-69699095D01*
X134946380Y-69127666D01*
X134946380Y-69746714D01*
%TO.C,C4*%
X163615666Y-88876142D02*
X163663285Y-88923761D01*
X163806142Y-88971380D01*
X163901380Y-88971380D01*
X164044238Y-88923761D01*
X164139476Y-88828523D01*
X164187095Y-88733285D01*
X164234714Y-88542809D01*
X164234714Y-88399952D01*
X164187095Y-88209476D01*
X164139476Y-88114238D01*
X164044238Y-88019000D01*
X163901380Y-87971380D01*
X163806142Y-87971380D01*
X163663285Y-88019000D01*
X163615666Y-88066619D01*
X162758523Y-88304714D02*
X162758523Y-88971380D01*
X162996619Y-87923761D02*
X163234714Y-88638047D01*
X162615666Y-88638047D01*
%TD*%
M02*
